<svg width="496" height="90" viewBox="0 0 496 90" fill="none" xmlns="http://www.w3.org/2000/svg">
<path d="M1.46997 19.6001V0.700097H7.39664C9.27886 0.700097 10.92 1.08121 12.32 1.84343C13.72 2.60565 14.8011 3.69454 15.5633 5.1101C16.3255 6.52565 16.7066 8.20565 16.7066 10.1501C16.7066 12.079 16.3177 13.7512 15.54 15.1668C14.7777 16.5823 13.6966 17.679 12.2966 18.4568C10.9122 19.219 9.27886 19.6001 7.39664 19.6001H1.46997ZM4.05997 17.3134H7.39664C8.8433 17.3134 10.0644 17.0179 11.06 16.4268C12.0555 15.8201 12.81 14.9801 13.3233 13.9068C13.8366 12.8334 14.0933 11.5812 14.0933 10.1501C14.0933 7.98788 13.5177 6.25343 12.3666 4.94676C11.2311 3.6401 9.57441 2.98676 7.39664 2.98676H4.05997V17.3134ZM23.6979 19.8568C22.3134 19.8568 21.1857 19.4679 20.3146 18.6901C19.459 17.8968 19.0312 16.8779 19.0312 15.6334C19.0312 14.3112 19.459 13.2845 20.3146 12.5534C21.1857 11.8068 22.4146 11.4334 24.0012 11.4334H28.0846V10.7334C28.0846 9.70676 27.8046 8.91343 27.2446 8.35343C26.7001 7.77788 25.9301 7.4901 24.9346 7.4901C24.1101 7.4901 23.4257 7.68454 22.8812 8.07343C22.3523 8.44676 22.0023 8.98343 21.8312 9.68343H19.2646C19.4979 8.3301 20.1279 7.26454 21.1546 6.48676C22.1812 5.70899 23.4568 5.3201 24.9812 5.3201C26.7079 5.3201 28.0534 5.78676 29.0179 6.7201C29.9979 7.65343 30.4879 8.96788 30.4879 10.6634V19.6001H28.1079V17.1734H28.0146C27.6568 17.9979 27.089 18.6512 26.3112 19.1334C25.5334 19.6157 24.6623 19.8568 23.6979 19.8568ZM24.2112 17.7568C24.9423 17.7568 25.5957 17.5857 26.1712 17.2434C26.7623 16.9012 27.229 16.4423 27.5712 15.8668C27.9134 15.2757 28.0846 14.6223 28.0846 13.9068V13.3468H24.1646C23.2623 13.3468 22.5701 13.5412 22.0879 13.9301C21.6212 14.3034 21.3879 14.8323 21.3879 15.5168C21.3879 16.2012 21.6446 16.7457 22.1579 17.1501C22.6712 17.5545 23.3557 17.7568 24.2112 17.7568ZM37.5914 19.6001C36.8759 19.6001 36.3159 19.4134 35.9114 19.0401C35.507 18.6512 35.3048 18.0757 35.3048 17.3134V7.60676H32.9248V5.6001H35.3281V1.4001H37.8014V5.6001H41.1381V7.60676H37.8248V17.5934H41.4648V19.6001H37.5914ZM47.7604 19.8568C46.3759 19.8568 45.2482 19.4679 44.3771 18.6901C43.5215 17.8968 43.0937 16.8779 43.0937 15.6334C43.0937 14.3112 43.5215 13.2845 44.3771 12.5534C45.2482 11.8068 46.4771 11.4334 48.0637 11.4334H52.1471V10.7334C52.1471 9.70676 51.8671 8.91343 51.3071 8.35343C50.7626 7.77788 49.9926 7.4901 48.9971 7.4901C48.1726 7.4901 47.4882 7.68454 46.9437 8.07343C46.4148 8.44676 46.0648 8.98343 45.8937 9.68343H43.3271C43.5604 8.3301 44.1904 7.26454 45.2171 6.48676C46.2437 5.70899 47.5193 5.3201 49.0437 5.3201C50.7704 5.3201 52.1159 5.78676 53.0804 6.7201C54.0604 7.65343 54.5504 8.96788 54.5504 10.6634V19.6001H52.1704V17.1734H52.0771C51.7193 17.9979 51.1515 18.6512 50.3737 19.1334C49.5959 19.6157 48.7248 19.8568 47.7604 19.8568ZM48.2737 17.7568C49.0048 17.7568 49.6582 17.5857 50.2337 17.2434C50.8248 16.9012 51.2915 16.4423 51.6337 15.8668C51.9759 15.2757 52.1471 14.6223 52.1471 13.9068V13.3468H48.2271C47.3248 13.3468 46.6326 13.5412 46.1504 13.9301C45.6837 14.3034 45.4504 14.8323 45.4504 15.5168C45.4504 16.2012 45.7071 16.7457 46.2204 17.1501C46.7337 17.5545 47.4182 17.7568 48.2737 17.7568ZM68.5719 19.6001C67.8563 19.6001 67.2963 19.4134 66.8919 19.0401C66.4875 18.6512 66.2852 18.0757 66.2852 17.3134V7.60676H63.9052V5.6001H66.3086V1.4001H68.7819V5.6001H72.1186V7.60676H68.8052V17.5934H72.4452V19.6001H68.5719ZM75.3809 19.6001V5.6001H77.7842V8.4001H77.8775C78.1886 7.52899 78.6942 6.82899 79.3942 6.3001C80.1097 5.75565 80.9809 5.48343 82.0075 5.48343H83.0342V7.72343H81.8675C80.5764 7.72343 79.5886 8.13565 78.9042 8.9601C78.2353 9.78454 77.9009 10.8968 77.9009 12.2968V19.6001H75.3809ZM89.1041 19.8568C87.7197 19.8568 86.5919 19.4679 85.7208 18.6901C84.8652 17.8968 84.4375 16.8779 84.4375 15.6334C84.4375 14.3112 84.8652 13.2845 85.7208 12.5534C86.5919 11.8068 87.8208 11.4334 89.4075 11.4334H93.4908V10.7334C93.4908 9.70676 93.2108 8.91343 92.6508 8.35343C92.1064 7.77788 91.3364 7.4901 90.3408 7.4901C89.5164 7.4901 88.8319 7.68454 88.2875 8.07343C87.7586 8.44676 87.4086 8.98343 87.2375 9.68343H84.6708C84.9041 8.3301 85.5341 7.26454 86.5608 6.48676C87.5875 5.70899 88.863 5.3201 90.3875 5.3201C92.1141 5.3201 93.4597 5.78676 94.4241 6.7201C95.4041 7.65343 95.8941 8.96788 95.8941 10.6634V19.6001H93.5141V17.1734H93.4208C93.063 17.9979 92.4952 18.6512 91.7175 19.1334C90.9397 19.6157 90.0686 19.8568 89.1041 19.8568ZM89.6175 17.7568C90.3486 17.7568 91.0019 17.5857 91.5775 17.2434C92.1686 16.9012 92.6352 16.4423 92.9775 15.8668C93.3197 15.2757 93.4908 14.6223 93.4908 13.9068V13.3468H89.5708C88.6686 13.3468 87.9764 13.5412 87.4941 13.9301C87.0275 14.3034 86.7941 14.8323 86.7941 15.5168C86.7941 16.2012 87.0508 16.7457 87.5641 17.1501C88.0775 17.5545 88.7619 17.7568 89.6175 17.7568ZM102.753 19.6001L97.3401 5.6001H99.9534L104.177 16.9168H104.27L108.447 5.6001H110.967L105.553 19.6001H102.753ZM118.563 19.8801C117.303 19.8801 116.175 19.5845 115.18 18.9934C114.184 18.3868 113.399 17.539 112.823 16.4501C112.263 15.3457 111.983 14.0468 111.983 12.5534C111.983 11.0757 112.263 9.8001 112.823 8.72676C113.383 7.63787 114.145 6.79787 115.11 6.20676C116.074 5.61565 117.179 5.3201 118.423 5.3201C119.59 5.3201 120.624 5.58454 121.527 6.11343C122.444 6.64232 123.168 7.40454 123.697 8.4001C124.225 9.39565 124.49 10.5701 124.49 11.9234V13.0434H114.41C114.503 14.459 114.923 15.5868 115.67 16.4268C116.417 17.2668 117.373 17.6868 118.54 17.6868C119.38 17.6868 120.095 17.4768 120.687 17.0568C121.278 16.6368 121.674 16.0612 121.877 15.3301H124.443C124.257 16.279 123.883 17.0957 123.323 17.7801C122.763 18.449 122.079 18.9701 121.27 19.3434C120.461 19.7012 119.559 19.8801 118.563 19.8801ZM114.527 11.1301H122.04C121.931 9.97899 121.55 9.08454 120.897 8.44676C120.243 7.80899 119.411 7.4901 118.4 7.4901C117.404 7.4901 116.564 7.81676 115.88 8.4701C115.195 9.10788 114.744 9.99454 114.527 11.1301ZM128.022 19.6001V9.799e-05H130.542V19.6001H128.022ZM139.677 19.8801C137.997 19.8801 136.628 19.4679 135.57 18.6434C134.528 17.8034 133.96 16.6834 133.867 15.2834H136.34C136.449 16.0923 136.799 16.7145 137.39 17.1501C137.981 17.5701 138.775 17.7801 139.77 17.7801C140.688 17.7801 141.388 17.6012 141.87 17.2434C142.353 16.8857 142.594 16.3801 142.594 15.7268C142.594 14.7001 141.886 14.039 140.47 13.7434L138.16 13.2301C135.64 12.7012 134.38 11.4568 134.38 9.49676C134.38 8.25232 134.847 7.24899 135.78 6.48676C136.714 5.70899 137.935 5.3201 139.444 5.3201C140.937 5.3201 142.166 5.71676 143.13 6.5101C144.11 7.28788 144.663 8.34565 144.787 9.68343H142.36C142.205 8.95232 141.863 8.39232 141.334 8.00343C140.82 7.59899 140.151 7.39676 139.327 7.39676C138.534 7.39676 137.904 7.56788 137.437 7.9101C136.97 8.25232 136.737 8.71899 136.737 9.3101C136.737 9.77676 136.9 10.1579 137.227 10.4534C137.554 10.7334 138.075 10.9512 138.79 11.1068L141.124 11.5968C142.399 11.8768 143.348 12.3434 143.97 12.9968C144.608 13.6345 144.927 14.4745 144.927 15.5168C144.927 16.8545 144.46 17.9201 143.527 18.7134C142.594 19.4912 141.31 19.8801 139.677 19.8801ZM155.12 19.6001V5.6001H157.64V19.6001H155.12ZM156.38 3.68676C155.944 3.68676 155.571 3.53121 155.26 3.2201C154.949 2.90899 154.793 2.53565 154.793 2.1001C154.793 1.66454 154.949 1.29121 155.26 0.980097C155.571 0.668986 155.944 0.513431 156.38 0.513431C156.816 0.513431 157.189 0.668986 157.5 0.980097C157.811 1.29121 157.967 1.66454 157.967 2.1001C157.967 2.53565 157.811 2.90899 157.5 3.2201C157.189 3.53121 156.816 3.68676 156.38 3.68676ZM161.968 19.6001V5.6001H164.465V7.86343H164.558C164.962 7.05454 165.53 6.43232 166.261 5.99676C166.992 5.56121 167.856 5.34343 168.851 5.34343C169.862 5.34343 170.757 5.59232 171.535 6.0901C172.312 6.57232 172.919 7.24121 173.355 8.09676C173.79 8.95232 174.008 9.93232 174.008 11.0368V19.6001H171.488V11.4801C171.488 10.2823 171.177 9.34121 170.555 8.65676C169.948 7.97232 169.092 7.6301 167.988 7.6301C166.883 7.6301 166.02 7.97232 165.398 8.65676C164.791 9.34121 164.488 10.2823 164.488 11.4801V19.6001H161.968ZM189.88 19.8801C188.2 19.8801 186.831 19.4679 185.773 18.6434C184.731 17.8034 184.163 16.6834 184.07 15.2834H186.543C186.652 16.0923 187.002 16.7145 187.593 17.1501C188.185 17.5701 188.978 17.7801 189.973 17.7801C190.891 17.7801 191.591 17.6012 192.073 17.2434C192.556 16.8857 192.797 16.3801 192.797 15.7268C192.797 14.7001 192.089 14.039 190.673 13.7434L188.363 13.2301C185.843 12.7012 184.583 11.4568 184.583 9.49676C184.583 8.25232 185.05 7.24899 185.983 6.48676C186.917 5.70899 188.138 5.3201 189.647 5.3201C191.14 5.3201 192.369 5.71676 193.333 6.5101C194.313 7.28788 194.866 8.34565 194.99 9.68343H192.563C192.408 8.95232 192.066 8.39232 191.537 8.00343C191.023 7.59899 190.355 7.39676 189.53 7.39676C188.737 7.39676 188.107 7.56788 187.64 7.9101C187.173 8.25232 186.94 8.71899 186.94 9.3101C186.94 9.77676 187.103 10.1579 187.43 10.4534C187.757 10.7334 188.278 10.9512 188.993 11.1068L191.327 11.5968C192.602 11.8768 193.551 12.3434 194.173 12.9968C194.811 13.6345 195.13 14.4745 195.13 15.5168C195.13 16.8545 194.663 17.9201 193.73 18.7134C192.797 19.4912 191.513 19.8801 189.88 19.8801ZM198.335 19.6001V5.6001H200.808V7.86343H200.902C201.26 7.03899 201.781 6.41676 202.465 5.99676C203.165 5.56121 203.982 5.34343 204.915 5.34343C205.864 5.34343 206.704 5.57676 207.435 6.04343C208.182 6.49454 208.75 7.14788 209.138 8.00343H209.208C209.675 7.14788 210.282 6.49454 211.028 6.04343C211.775 5.57676 212.638 5.34343 213.618 5.34343C214.614 5.34343 215.493 5.57676 216.255 6.04343C217.017 6.49454 217.601 7.1401 218.005 7.9801C218.425 8.8201 218.635 9.80788 218.635 10.9434V19.6001H216.115V11.3168C216.115 10.1501 215.835 9.24788 215.275 8.6101C214.715 7.95676 213.937 7.6301 212.942 7.6301C211.962 7.6301 211.184 7.95676 210.608 8.6101C210.033 9.24788 209.745 10.1501 209.745 11.3168V19.6001H207.225V11.3168C207.225 10.1501 206.937 9.24788 206.362 8.6101C205.802 7.95676 205.024 7.6301 204.028 7.6301C203.048 7.6301 202.271 7.95676 201.695 8.6101C201.135 9.24788 200.855 10.1501 200.855 11.3168V19.6001H198.335ZM226.397 19.8568C225.013 19.8568 223.885 19.4679 223.014 18.6901C222.158 17.8968 221.73 16.8779 221.73 15.6334C221.73 14.3112 222.158 13.2845 223.014 12.5534C223.885 11.8068 225.114 11.4334 226.7 11.4334H230.784V10.7334C230.784 9.70676 230.504 8.91343 229.944 8.35343C229.399 7.77788 228.629 7.4901 227.634 7.4901C226.809 7.4901 226.125 7.68454 225.58 8.07343C225.052 8.44676 224.702 8.98343 224.53 9.68343H221.964C222.197 8.3301 222.827 7.26454 223.854 6.48676C224.88 5.70899 226.156 5.3201 227.68 5.3201C229.407 5.3201 230.753 5.78676 231.717 6.7201C232.697 7.65343 233.187 8.96788 233.187 10.6634V19.6001H230.807V17.1734H230.714C230.356 17.9979 229.788 18.6512 229.01 19.1334C228.233 19.6157 227.362 19.8568 226.397 19.8568ZM226.91 17.7568C227.642 17.7568 228.295 17.5857 228.87 17.2434C229.462 16.9012 229.928 16.4423 230.27 15.8668C230.613 15.2757 230.784 14.6223 230.784 13.9068V13.3468H226.864C225.962 13.3468 225.269 13.5412 224.787 13.9301C224.32 14.3034 224.087 14.8323 224.087 15.5168C224.087 16.2012 224.344 16.7457 224.857 17.1501C225.37 17.5545 226.055 17.7568 226.91 17.7568ZM237.397 19.6001V9.799e-05H239.917V19.6001H237.397ZM244.315 19.6001V9.799e-05H246.835V19.6001H244.315ZM263.098 19.8568C262.087 19.8568 261.192 19.6234 260.415 19.1568C259.652 18.6901 259.053 18.0368 258.618 17.1968C258.198 16.3568 257.988 15.3923 257.988 14.3034V5.6001H260.508V13.7434C260.508 14.9412 260.803 15.8823 261.395 16.5668C261.986 17.2357 262.81 17.5701 263.868 17.5701C264.972 17.5701 265.851 17.2201 266.505 16.5201C267.173 15.8045 267.508 14.8712 267.508 13.7201V5.6001H270.028V19.6001H267.531V17.1734H267.438C267.049 18.0445 266.481 18.7134 265.735 19.1801C264.988 19.6312 264.109 19.8568 263.098 19.8568ZM274.269 19.6001V5.6001H276.765V7.86343H276.859C277.263 7.05454 277.831 6.43232 278.562 5.99676C279.293 5.56121 280.156 5.34343 281.152 5.34343C282.163 5.34343 283.058 5.59232 283.835 6.0901C284.613 6.57232 285.22 7.24121 285.655 8.09676C286.091 8.95232 286.309 9.93232 286.309 11.0368V19.6001H283.789V11.4801C283.789 10.2823 283.478 9.34121 282.855 8.65676C282.249 7.97232 281.393 7.6301 280.289 7.6301C279.184 7.6301 278.321 7.97232 277.699 8.65676C277.092 9.34121 276.789 10.2823 276.789 11.4801V19.6001H274.269ZM290.526 19.6001V5.6001H293.046V19.6001H290.526ZM291.786 3.68676C291.351 3.68676 290.977 3.53121 290.666 3.2201C290.355 2.90899 290.2 2.53565 290.2 2.1001C290.2 1.66454 290.355 1.29121 290.666 0.980097C290.977 0.668986 291.351 0.513431 291.786 0.513431C292.222 0.513431 292.595 0.668986 292.906 0.980097C293.217 1.29121 293.373 1.66454 293.373 2.1001C293.373 2.53565 293.217 2.90899 292.906 3.2201C292.595 3.53121 292.222 3.68676 291.786 3.68676ZM300.338 19.6001C299.622 19.6001 299.062 19.4134 298.658 19.0401C298.253 18.6512 298.051 18.0757 298.051 17.3134V7.60676H295.671V5.6001H298.074V1.4001H300.548V5.6001H303.884V7.60676H300.571V17.5934H304.211V19.6001H300.338ZM311.696 19.8801C310.016 19.8801 308.648 19.4679 307.59 18.6434C306.548 17.8034 305.98 16.6834 305.886 15.2834H308.36C308.469 16.0923 308.819 16.7145 309.41 17.1501C310.001 17.5701 310.794 17.7801 311.79 17.7801C312.708 17.7801 313.408 17.6012 313.89 17.2434C314.372 16.8857 314.613 16.3801 314.613 15.7268C314.613 14.7001 313.905 14.039 312.49 13.7434L310.18 13.2301C307.66 12.7012 306.4 11.4568 306.4 9.49676C306.4 8.25232 306.866 7.24899 307.8 6.48676C308.733 5.70899 309.954 5.3201 311.463 5.3201C312.956 5.3201 314.185 5.71676 315.15 6.5101C316.13 7.28788 316.682 8.34565 316.806 9.68343H314.38C314.224 8.95232 313.882 8.39232 313.353 8.00343C312.84 7.59899 312.171 7.39676 311.346 7.39676C310.553 7.39676 309.923 7.56788 309.456 7.9101C308.99 8.25232 308.756 8.71899 308.756 9.3101C308.756 9.77676 308.92 10.1579 309.246 10.4534C309.573 10.7334 310.094 10.9512 310.81 11.1068L313.143 11.5968C314.419 11.8768 315.368 12.3434 315.99 12.9968C316.628 13.6345 316.946 14.4745 316.946 15.5168C316.946 16.8545 316.48 17.9201 315.546 18.7134C314.613 19.4912 313.33 19.8801 311.696 19.8801ZM332.81 19.8801C331.565 19.8801 330.445 19.5845 329.45 18.9934C328.47 18.3868 327.692 17.539 327.116 16.4501C326.556 15.3612 326.276 14.0779 326.276 12.6001C326.276 11.1068 326.556 9.81565 327.116 8.72676C327.692 7.63787 328.47 6.79787 329.45 6.20676C330.445 5.61565 331.565 5.3201 332.81 5.3201C333.79 5.3201 334.684 5.50676 335.493 5.8801C336.317 6.23788 337.01 6.78232 337.57 7.51343C338.145 8.22899 338.542 9.13899 338.76 10.2434H336.146C335.928 9.32565 335.516 8.65676 334.91 8.23676C334.318 7.81676 333.618 7.60676 332.81 7.60676C331.612 7.60676 330.64 8.05788 329.893 8.9601C329.162 9.86232 328.796 11.0757 328.796 12.6001C328.796 14.109 329.162 15.3223 329.893 16.2401C330.64 17.1423 331.612 17.5934 332.81 17.5934C333.665 17.5934 334.396 17.3679 335.003 16.9168C335.625 16.4657 336.053 15.7345 336.286 14.7234H338.83C338.627 15.8745 338.238 16.8312 337.663 17.5934C337.087 18.3557 336.387 18.9312 335.563 19.3201C334.738 19.6934 333.821 19.8801 332.81 19.8801ZM345.206 19.8568C343.821 19.8568 342.693 19.4679 341.822 18.6901C340.967 17.8968 340.539 16.8779 340.539 15.6334C340.539 14.3112 340.967 13.2845 341.822 12.5534C342.693 11.8068 343.922 11.4334 345.509 11.4334H349.592V10.7334C349.592 9.70676 349.312 8.91343 348.752 8.35343C348.208 7.77788 347.438 7.4901 346.442 7.4901C345.618 7.4901 344.933 7.68454 344.389 8.07343C343.86 8.44676 343.51 8.98343 343.339 9.68343H340.772C341.006 8.3301 341.636 7.26454 342.662 6.48676C343.689 5.70899 344.965 5.3201 346.489 5.3201C348.216 5.3201 349.561 5.78676 350.526 6.7201C351.506 7.65343 351.996 8.96788 351.996 10.6634V19.6001H349.616V17.1734H349.522C349.165 17.9979 348.597 18.6512 347.819 19.1334C347.041 19.6157 346.17 19.8568 345.206 19.8568ZM345.719 17.7568C346.45 17.7568 347.103 17.5857 347.679 17.2434C348.27 16.9012 348.737 16.4423 349.079 15.8668C349.421 15.2757 349.592 14.6223 349.592 13.9068V13.3468H345.672C344.77 13.3468 344.078 13.5412 343.596 13.9301C343.129 14.3034 342.896 14.8323 342.896 15.5168C342.896 16.2012 343.152 16.7457 343.666 17.1501C344.179 17.5545 344.863 17.7568 345.719 17.7568ZM356.206 19.6001V9.799e-05H358.726V19.6001H356.206ZM363.124 19.6001V9.799e-05H365.644V19.6001H363.124ZM375.759 19.8801C374.499 19.8801 373.371 19.5845 372.375 18.9934C371.38 18.3868 370.594 17.539 370.019 16.4501C369.459 15.3457 369.179 14.0468 369.179 12.5534C369.179 11.0757 369.459 9.8001 370.019 8.72676C370.579 7.63787 371.341 6.79787 372.305 6.20676C373.27 5.61565 374.374 5.3201 375.619 5.3201C376.785 5.3201 377.82 5.58454 378.722 6.11343C379.64 6.64232 380.363 7.40454 380.892 8.4001C381.421 9.39565 381.685 10.5701 381.685 11.9234V13.0434H371.605C371.699 14.459 372.119 15.5868 372.865 16.4268C373.612 17.2668 374.569 17.6868 375.735 17.6868C376.575 17.6868 377.291 17.4768 377.882 17.0568C378.473 16.6368 378.87 16.0612 379.072 15.3301H381.639C381.452 16.279 381.079 17.0957 380.519 17.7801C379.959 18.449 379.274 18.9701 378.465 19.3434C377.656 19.7012 376.754 19.8801 375.759 19.8801ZM371.722 11.1301H379.235C379.126 9.97899 378.745 9.08454 378.092 8.44676C377.439 7.80899 376.606 7.4901 375.595 7.4901C374.6 7.4901 373.76 7.81676 373.075 8.4701C372.391 9.10788 371.94 9.99454 371.722 11.1301ZM390.164 19.8801C388.998 19.8801 387.979 19.5768 387.108 18.9701C386.237 18.3634 385.56 17.5157 385.078 16.4268C384.595 15.3223 384.354 14.0468 384.354 12.6001C384.354 11.1379 384.595 9.86232 385.078 8.77343C385.56 7.68454 386.237 6.83676 387.108 6.2301C387.979 5.62343 388.998 5.3201 390.164 5.3201C392.218 5.3201 393.641 6.16788 394.434 7.86343H394.528V9.799e-05H397.048V19.6001H394.551V17.3134H394.458C393.649 19.0245 392.218 19.8801 390.164 19.8801ZM390.841 17.6401C392.008 17.6401 392.91 17.2745 393.548 16.5434C394.201 15.7968 394.528 14.8245 394.528 13.6268V11.5734C394.528 10.3757 394.201 9.41121 393.548 8.6801C392.91 7.93343 392.008 7.5601 390.841 7.5601C389.643 7.5601 388.679 8.01899 387.948 8.93676C387.232 9.85454 386.874 11.0757 386.874 12.6001C386.874 14.1245 387.232 15.3457 387.948 16.2634C388.679 17.1812 389.643 17.6401 390.841 17.6401ZM1.04997 60.2001V40.6001H3.54664V42.8868H3.63997C4.44886 41.1757 5.87997 40.3201 7.9333 40.3201C9.09997 40.3201 10.1189 40.6234 10.99 41.2301C11.8611 41.8368 12.5377 42.6845 13.02 43.7734C13.5022 44.8623 13.7433 46.1379 13.7433 47.6001C13.7433 49.0468 13.5022 50.3223 13.02 51.4268C12.5377 52.5157 11.8611 53.3634 10.99 53.9701C10.1189 54.5768 9.09997 54.8801 7.9333 54.8801C5.87997 54.8801 4.45664 54.0323 3.6633 52.3368H3.56997V60.2001H1.04997ZM7.25664 52.6401C8.46997 52.6401 9.43441 52.1812 10.15 51.2634C10.8655 50.3457 11.2233 49.1245 11.2233 47.6001C11.2233 46.0757 10.8655 44.8545 10.15 43.9368C9.43441 43.019 8.46997 42.5601 7.25664 42.5601C6.08997 42.5601 5.17997 42.9334 4.52664 43.6801C3.88886 44.4112 3.56997 45.3757 3.56997 46.5734V48.6268C3.56997 49.8245 3.88886 50.789 4.52664 51.5201C5.17997 52.2357 6.08997 52.609 7.25664 52.6401ZM20.8268 54.8568C19.4423 54.8568 18.3146 54.4679 17.4435 53.6901C16.5879 52.8968 16.1601 51.8779 16.1601 50.6334C16.1601 49.3112 16.5879 48.2845 17.4435 47.5534C18.3146 46.8068 19.5435 46.4334 21.1301 46.4334H25.2135V45.7334C25.2135 44.7068 24.9335 43.9134 24.3735 43.3534C23.829 42.7779 23.059 42.4901 22.0635 42.4901C21.239 42.4901 20.5546 42.6845 20.0101 43.0734C19.4812 43.4468 19.1312 43.9834 18.9601 44.6834H16.3935C16.6268 43.3301 17.2568 42.2645 18.2835 41.4868C19.3101 40.709 20.5857 40.3201 22.1101 40.3201C23.8368 40.3201 25.1823 40.7868 26.1468 41.7201C27.1268 42.6534 27.6168 43.9679 27.6168 45.6634V54.6001H25.2368V52.1734H25.1435C24.7857 52.9979 24.2179 53.6512 23.4401 54.1334C22.6623 54.6157 21.7912 54.8568 20.8268 54.8568ZM21.3401 52.7568C22.0712 52.7568 22.7246 52.5857 23.3001 52.2434C23.8912 51.9012 24.3579 51.4423 24.7001 50.8668C25.0423 50.2757 25.2135 49.6223 25.2135 48.9068V48.3468H21.2935C20.3912 48.3468 19.699 48.5412 19.2168 48.9301C18.7501 49.3034 18.5168 49.8323 18.5168 50.5168C18.5168 51.2012 18.7735 51.7457 19.2868 52.1501C19.8001 52.5545 20.4846 52.7568 21.3401 52.7568ZM37.497 54.8801C36.2526 54.8801 35.1326 54.5845 34.137 53.9934C33.157 53.3868 32.3792 52.539 31.8037 51.4501C31.2437 50.3612 30.9637 49.0779 30.9637 47.6001C30.9637 46.1068 31.2437 44.8157 31.8037 43.7268C32.3792 42.6379 33.157 41.7979 34.137 41.2068C35.1326 40.6157 36.2526 40.3201 37.497 40.3201C38.477 40.3201 39.3714 40.5068 40.1803 40.8801C41.0048 41.2379 41.697 41.7823 42.257 42.5134C42.8326 43.229 43.2292 44.139 43.447 45.2434H40.8337C40.6159 44.3257 40.2037 43.6568 39.597 43.2368C39.0059 42.8168 38.3059 42.6068 37.497 42.6068C36.2992 42.6068 35.327 43.0579 34.5803 43.9601C33.8492 44.8623 33.4837 46.0757 33.4837 47.6001C33.4837 49.109 33.8492 50.3223 34.5803 51.2401C35.327 52.1423 36.2992 52.5934 37.497 52.5934C38.3526 52.5934 39.0837 52.3679 39.6903 51.9168C40.3126 51.4657 40.7403 50.7345 40.9737 49.7234H43.517C43.3148 50.8745 42.9259 51.8312 42.3503 52.5934C41.7748 53.3557 41.0748 53.9312 40.2503 54.3201C39.4259 54.6934 38.5081 54.8801 37.497 54.8801ZM46.2765 54.6001V35.0001H48.7965V46.9001H48.8899L54.9565 40.6001H57.9899L52.2499 46.4568L58.5265 54.6001H55.4699L50.4999 48.0434L48.7965 49.5601V54.6001H46.2765ZM66.0905 54.8801C64.8305 54.8801 63.7028 54.5845 62.7072 53.9934C61.7117 53.3868 60.9261 52.539 60.3505 51.4501C59.7905 50.3457 59.5105 49.0468 59.5105 47.5534C59.5105 46.0757 59.7905 44.8001 60.3505 43.7268C60.9105 42.6379 61.6728 41.7979 62.6372 41.2068C63.6017 40.6157 64.7061 40.3201 65.9505 40.3201C67.1172 40.3201 68.1517 40.5845 69.0539 41.1134C69.9717 41.6423 70.695 42.4045 71.2239 43.4001C71.7528 44.3957 72.0172 45.5701 72.0172 46.9234V48.0434H61.9372C62.0305 49.459 62.4505 50.5868 63.1972 51.4268C63.9439 52.2668 64.9005 52.6868 66.0672 52.6868C66.9072 52.6868 67.6228 52.4768 68.2139 52.0568C68.805 51.6368 69.2017 51.0612 69.4039 50.3301H71.9705C71.7839 51.279 71.4105 52.0957 70.8505 52.7801C70.2905 53.449 69.6061 53.9701 68.7972 54.3434C67.9883 54.7012 67.0861 54.8801 66.0905 54.8801ZM62.0539 46.1301H69.5672C69.4583 44.979 69.0772 44.0845 68.4239 43.4468C67.7705 42.809 66.9383 42.4901 65.9272 42.4901C64.9317 42.4901 64.0917 42.8168 63.4072 43.4701C62.7228 44.1079 62.2717 44.9945 62.0539 46.1301ZM78.443 54.6001C77.7274 54.6001 77.1674 54.4134 76.763 54.0401C76.3585 53.6512 76.1563 53.0757 76.1563 52.3134V42.6068H73.7763V40.6001H76.1797V36.4001H78.653V40.6001H81.9897V42.6068H78.6763V52.5934H82.3163V54.6001H78.443ZM89.8019 54.8801C88.1219 54.8801 86.7531 54.4679 85.6953 53.6434C84.6531 52.8034 84.0853 51.6834 83.9919 50.2834H86.4653C86.5742 51.0923 86.9242 51.7145 87.5153 52.1501C88.1064 52.5701 88.8997 52.7801 89.8953 52.7801C90.8131 52.7801 91.5131 52.6012 91.9953 52.2434C92.4775 51.8857 92.7186 51.3801 92.7186 50.7268C92.7186 49.7001 92.0108 49.039 90.5953 48.7434L88.2853 48.2301C85.7653 47.7012 84.5053 46.4568 84.5053 44.4968C84.5053 43.2523 84.9719 42.249 85.9053 41.4868C86.8386 40.709 88.0597 40.3201 89.5686 40.3201C91.0619 40.3201 92.2908 40.7168 93.2553 41.5101C94.2353 42.2879 94.7875 43.3457 94.9119 44.6834H92.4853C92.3297 43.9523 91.9875 43.3923 91.4586 43.0034C90.9453 42.599 90.2764 42.3968 89.4519 42.3968C88.6586 42.3968 88.0286 42.5679 87.5619 42.9101C87.0953 43.2523 86.8619 43.719 86.8619 44.3101C86.8619 44.7768 87.0253 45.1579 87.3519 45.4534C87.6786 45.7334 88.1997 45.9512 88.9153 46.1068L91.2486 46.5968C92.5242 46.8768 93.4731 47.3434 94.0953 47.9968C94.7331 48.6345 95.0519 49.4745 95.0519 50.5168C95.0519 51.8545 94.5853 52.9201 93.6519 53.7134C92.7186 54.4912 91.4353 54.8801 89.8019 54.8801ZM96.9503 58.3801V56.7934H97.837C98.257 56.7934 98.5681 56.6845 98.7703 56.4668C98.9881 56.249 99.097 55.9379 99.097 55.5334V54.6001H97.6737V51.4734H100.847V55.5568C100.847 56.4434 100.606 57.1357 100.124 57.6334C99.6414 58.1312 98.9414 58.3801 98.0237 58.3801H96.9503ZM113.747 54.6001L109.733 40.6001H112.3L115.24 51.4968H115.333L118.763 40.6001H121.377L124.807 51.4968H124.9L127.84 40.6001H130.36L126.347 54.6001H123.547L120.093 43.6801H120L116.547 54.6001H113.747ZM132.902 54.6001V35.0001H135.422V42.6534H135.515C135.919 41.9379 136.487 41.3701 137.218 40.9501C137.949 40.5301 138.805 40.3201 139.785 40.3201C140.796 40.3201 141.69 40.5612 142.468 41.0434C143.246 41.5257 143.853 42.1945 144.288 43.0501C144.724 43.9057 144.942 44.9012 144.942 46.0368V54.6001H142.422V46.4101C142.422 45.1968 142.11 44.2557 141.488 43.5868C140.882 42.9179 140.026 42.5834 138.922 42.5834C137.817 42.5834 136.954 42.9179 136.332 43.5868C135.725 44.2557 135.422 45.1968 135.422 46.4101V54.6001H132.902ZM149.159 54.6001V40.6001H151.679V54.6001H149.159ZM150.419 38.6868C149.983 38.6868 149.61 38.5312 149.299 38.2201C148.988 37.909 148.832 37.5357 148.832 37.1001C148.832 36.6645 148.988 36.2912 149.299 35.9801C149.61 35.669 149.983 35.5134 150.419 35.5134C150.855 35.5134 151.228 35.669 151.539 35.9801C151.85 36.2912 152.006 36.6645 152.006 37.1001C152.006 37.5357 151.85 37.909 151.539 38.2201C151.228 38.5312 150.855 38.6868 150.419 38.6868ZM161.747 54.8801C160.503 54.8801 159.383 54.5845 158.387 53.9934C157.407 53.3868 156.629 52.539 156.054 51.4501C155.494 50.3612 155.214 49.0779 155.214 47.6001C155.214 46.1068 155.494 44.8157 156.054 43.7268C156.629 42.6379 157.407 41.7979 158.387 41.2068C159.383 40.6157 160.503 40.3201 161.747 40.3201C162.727 40.3201 163.621 40.5068 164.43 40.8801C165.255 41.2379 165.947 41.7823 166.507 42.5134C167.083 43.229 167.479 44.139 167.697 45.2434H165.084C164.866 44.3257 164.454 43.6568 163.847 43.2368C163.256 42.8168 162.556 42.6068 161.747 42.6068C160.549 42.6068 159.577 43.0579 158.83 43.9601C158.099 44.8623 157.734 46.0757 157.734 47.6001C157.734 49.109 158.099 50.3223 158.83 51.2401C159.577 52.1423 160.549 52.5934 161.747 52.5934C162.603 52.5934 163.334 52.3679 163.94 51.9168C164.563 51.4657 164.99 50.7345 165.224 49.7234H167.767C167.565 50.8745 167.176 51.8312 166.6 52.5934C166.025 53.3557 165.325 53.9312 164.5 54.3201C163.676 54.6934 162.758 54.8801 161.747 54.8801ZM170.527 54.6001V35.0001H173.047V42.6534H173.14C173.544 41.9379 174.112 41.3701 174.843 40.9501C175.574 40.5301 176.43 40.3201 177.41 40.3201C178.421 40.3201 179.315 40.5612 180.093 41.0434C180.871 41.5257 181.478 42.1945 181.913 43.0501C182.349 43.9057 182.567 44.9012 182.567 46.0368V54.6001H180.047V46.4101C180.047 45.1968 179.735 44.2557 179.113 43.5868C178.507 42.9179 177.651 42.5834 176.547 42.5834C175.442 42.5834 174.579 42.9179 173.957 43.5868C173.35 44.2557 173.047 45.1968 173.047 46.4101V54.6001H170.527ZM193.632 54.6001V40.6001H196.105V42.8634H196.199C196.556 42.039 197.078 41.4168 197.762 40.9968C198.462 40.5612 199.279 40.3434 200.212 40.3434C201.161 40.3434 202.001 40.5768 202.732 41.0434C203.479 41.4945 204.046 42.1479 204.435 43.0034H204.505C204.972 42.1479 205.579 41.4945 206.325 41.0434C207.072 40.5768 207.935 40.3434 208.915 40.3434C209.911 40.3434 210.79 40.5768 211.552 41.0434C212.314 41.4945 212.898 42.1401 213.302 42.9801C213.722 43.8201 213.932 44.8079 213.932 45.9434V54.6001H211.412V46.3168C211.412 45.1501 211.132 44.2479 210.572 43.6101C210.012 42.9568 209.234 42.6301 208.239 42.6301C207.259 42.6301 206.481 42.9568 205.905 43.6101C205.33 44.2479 205.042 45.1501 205.042 46.3168V54.6001H202.522V46.3168C202.522 45.1501 202.234 44.2479 201.659 43.6101C201.099 42.9568 200.321 42.6301 199.325 42.6301C198.345 42.6301 197.568 42.9568 196.992 43.6101C196.432 44.2479 196.152 45.1501 196.152 46.3168V54.6001H193.632ZM223.887 54.8801C222.627 54.8801 221.5 54.5845 220.504 53.9934C219.508 53.3868 218.723 52.539 218.147 51.4501C217.572 50.3612 217.284 49.0779 217.284 47.6001C217.284 46.1068 217.572 44.8157 218.147 43.7268C218.723 42.6379 219.508 41.7979 220.504 41.2068C221.5 40.6157 222.627 40.3201 223.887 40.3201C225.178 40.3201 226.322 40.6157 227.317 41.2068C228.313 41.7979 229.091 42.6379 229.651 43.7268C230.211 44.8157 230.491 46.1068 230.491 47.6001C230.491 49.0779 230.203 50.369 229.627 51.4734C229.067 52.5623 228.29 53.4023 227.294 53.9934C226.298 54.5845 225.163 54.8801 223.887 54.8801ZM223.887 52.5934C225.132 52.5934 226.12 52.1423 226.851 51.2401C227.597 50.3223 227.971 49.109 227.971 47.6001C227.971 46.0757 227.597 44.8623 226.851 43.9601C226.12 43.0579 225.132 42.6068 223.887 42.6068C222.658 42.6068 221.671 43.0579 220.924 43.9601C220.177 44.8623 219.804 46.0757 219.804 47.6001C219.804 49.109 220.177 50.3223 220.924 51.2401C221.671 52.1423 222.658 52.5934 223.887 52.5934ZM236.902 54.6001L231.489 40.6001H234.102L238.325 51.9168H238.419L242.595 40.6001H245.115L239.702 54.6001H236.902ZM252.712 54.8801C251.452 54.8801 250.324 54.5845 249.328 53.9934C248.333 53.3868 247.547 52.539 246.972 51.4501C246.412 50.3457 246.132 49.0468 246.132 47.5534C246.132 46.0757 246.412 44.8001 246.972 43.7268C247.532 42.6379 248.294 41.7979 249.258 41.2068C250.223 40.6157 251.327 40.3201 252.572 40.3201C253.738 40.3201 254.773 40.5845 255.675 41.1134C256.593 41.6423 257.316 42.4045 257.845 43.4001C258.374 44.3957 258.638 45.5701 258.638 46.9234V48.0434H248.558C248.652 49.459 249.072 50.5868 249.818 51.4268C250.565 52.2668 251.522 52.6868 252.688 52.6868C253.528 52.6868 254.244 52.4768 254.835 52.0568C255.426 51.6368 255.823 51.0612 256.025 50.3301H258.592C258.405 51.279 258.032 52.0957 257.472 52.7801C256.912 53.449 256.227 53.9701 255.418 54.3434C254.609 54.7012 253.707 54.8801 252.712 54.8801ZM248.675 46.1301H256.188C256.079 44.979 255.698 44.0845 255.045 43.4468C254.392 42.809 253.559 42.4901 252.548 42.4901C251.553 42.4901 250.713 42.8168 250.028 43.4701C249.344 44.1079 248.893 44.9945 248.675 46.1301ZM271.982 54.6001C271.266 54.6001 270.706 54.4134 270.302 54.0401C269.898 53.6512 269.695 53.0757 269.695 52.3134V42.6068H267.315V40.6001H269.719V36.4001H272.192V40.6001H275.529V42.6068H272.215V52.5934H275.855V54.6001H271.982ZM278.534 54.6001V35.0001H281.054V42.6534H281.148C281.552 41.9379 282.12 41.3701 282.851 40.9501C283.582 40.5301 284.438 40.3201 285.418 40.3201C286.429 40.3201 287.323 40.5612 288.101 41.0434C288.879 41.5257 289.485 42.1945 289.921 43.0501C290.357 43.9057 290.574 44.9012 290.574 46.0368V54.6001H288.054V46.4101C288.054 45.1968 287.743 44.2557 287.121 43.5868C286.514 42.9179 285.659 42.5834 284.554 42.5834C283.45 42.5834 282.587 42.9179 281.964 43.5868C281.358 44.2557 281.054 45.1968 281.054 46.4101V54.6001H278.534ZM294.979 54.6001V40.6001H297.382V43.4001H297.475C297.786 42.529 298.292 41.829 298.992 41.3001C299.707 40.7557 300.579 40.4834 301.605 40.4834H302.632V42.7234H301.465C300.174 42.7234 299.186 43.1357 298.502 43.9601C297.833 44.7845 297.499 45.8968 297.499 47.2968V54.6001H294.979ZM310.649 54.8801C309.389 54.8801 308.261 54.5845 307.266 53.9934C306.27 53.3868 305.485 52.539 304.909 51.4501C304.333 50.3612 304.046 49.0779 304.046 47.6001C304.046 46.1068 304.333 44.8157 304.909 43.7268C305.485 42.6379 306.27 41.7979 307.266 41.2068C308.261 40.6157 309.389 40.3201 310.649 40.3201C311.94 40.3201 313.083 40.6157 314.079 41.2068C315.075 41.7979 315.852 42.6379 316.412 43.7268C316.972 44.8157 317.252 46.1068 317.252 47.6001C317.252 49.0779 316.965 50.369 316.389 51.4734C315.829 52.5623 315.051 53.4023 314.056 53.9934C313.06 54.5845 311.925 54.8801 310.649 54.8801ZM310.649 52.5934C311.893 52.5934 312.881 52.1423 313.612 51.2401C314.359 50.3223 314.732 49.109 314.732 47.6001C314.732 46.0757 314.359 44.8623 313.612 43.9601C312.881 43.0579 311.893 42.6068 310.649 42.6068C309.42 42.6068 308.432 43.0579 307.686 43.9601C306.939 44.8623 306.566 46.0757 306.566 47.6001C306.566 49.109 306.939 50.3223 307.686 51.2401C308.432 52.1423 309.42 52.5934 310.649 52.5934ZM325.715 54.8568C324.704 54.8568 323.81 54.6234 323.032 54.1568C322.27 53.6901 321.671 53.0368 321.235 52.1968C320.815 51.3568 320.605 50.3923 320.605 49.3034V40.6001H323.125V48.7434C323.125 49.9412 323.421 50.8823 324.012 51.5668C324.603 52.2357 325.427 52.5701 326.485 52.5701C327.59 52.5701 328.468 52.2201 329.122 51.5201C329.791 50.8045 330.125 49.8712 330.125 48.7201V40.6001H332.645V54.6001H330.148V52.1734H330.055C329.666 53.0445 329.098 53.7134 328.352 54.1801C327.605 54.6312 326.726 54.8568 325.715 54.8568ZM342.393 60.4801C340.666 60.4801 339.227 60.0601 338.076 59.2201C336.925 58.3957 336.256 57.2912 336.069 55.9068H338.753C338.908 56.6534 339.305 57.2368 339.943 57.6568C340.58 58.0768 341.381 58.2868 342.346 58.2868C343.59 58.2868 344.563 57.929 345.263 57.2134C345.978 56.4979 346.336 55.5257 346.336 54.2968V52.0334H346.243C345.9 52.8579 345.364 53.4957 344.633 53.9468C343.917 54.3823 343.069 54.6001 342.089 54.6001C340.907 54.6001 339.865 54.3045 338.963 53.7134C338.076 53.1068 337.384 52.2668 336.886 51.1934C336.388 50.1201 336.139 48.8757 336.139 47.4601C336.139 46.0445 336.388 44.8001 336.886 43.7268C337.384 42.6534 338.076 41.8212 338.963 41.2301C339.865 40.6234 340.907 40.3201 342.089 40.3201C343.069 40.3201 343.917 40.5457 344.633 40.9968C345.364 41.4323 345.9 42.0545 346.243 42.8634H346.336V40.6001H348.833V54.4134C348.833 56.2801 348.249 57.7579 347.083 58.8468C345.931 59.9357 344.368 60.4801 342.393 60.4801ZM342.696 52.3134C343.8 52.3134 344.679 51.9557 345.333 51.2401C345.986 50.5245 346.313 49.5757 346.313 48.3934V46.5268C346.313 45.3445 345.978 44.3957 345.309 43.6801C344.656 42.9645 343.785 42.6068 342.696 42.6068C341.467 42.6068 340.487 43.0501 339.756 43.9368C339.025 44.8079 338.659 45.9823 338.659 47.4601C338.659 48.9379 339.025 50.1201 339.756 51.0068C340.487 51.8779 341.467 52.3134 342.696 52.3134ZM353.073 54.6001V35.0001H355.593V42.6534H355.687C356.091 41.9379 356.659 41.3701 357.39 40.9501C358.121 40.5301 358.977 40.3201 359.957 40.3201C360.968 40.3201 361.862 40.5612 362.64 41.0434C363.418 41.5257 364.025 42.1945 364.46 43.0501C364.896 43.9057 365.113 44.9012 365.113 46.0368V54.6001H362.593V46.4101C362.593 45.1968 362.282 44.2557 361.66 43.5868C361.053 42.9179 360.198 42.5834 359.093 42.5834C357.989 42.5834 357.126 42.9179 356.503 43.5868C355.897 44.2557 355.593 45.1968 355.593 46.4101V54.6001H353.073ZM376.436 54.6001V40.6001H378.839V43.4001H378.932C379.243 42.529 379.749 41.829 380.449 41.3001C381.164 40.7557 382.036 40.4834 383.062 40.4834H384.089V42.7234H382.922C381.631 42.7234 380.643 43.1357 379.959 43.9601C379.29 44.7845 378.956 45.8968 378.956 47.2968V54.6001H376.436ZM392.106 54.8801C390.846 54.8801 389.718 54.5845 388.723 53.9934C387.727 53.3868 386.942 52.539 386.366 51.4501C385.791 50.3612 385.503 49.0779 385.503 47.6001C385.503 46.1068 385.791 44.8157 386.366 43.7268C386.942 42.6379 387.727 41.7979 388.723 41.2068C389.718 40.6157 390.846 40.3201 392.106 40.3201C393.397 40.3201 394.541 40.6157 395.536 41.2068C396.532 41.7979 397.309 42.6379 397.869 43.7268C398.429 44.8157 398.709 46.1068 398.709 47.6001C398.709 49.0779 398.422 50.369 397.846 51.4734C397.286 52.5623 396.508 53.4023 395.513 53.9934C394.517 54.5845 393.382 54.8801 392.106 54.8801ZM392.106 52.5934C393.351 52.5934 394.338 52.1423 395.069 51.2401C395.816 50.3223 396.189 49.109 396.189 47.6001C396.189 46.0757 395.816 44.8623 395.069 43.9601C394.338 43.0579 393.351 42.6068 392.106 42.6068C390.877 42.6068 389.889 43.0579 389.143 43.9601C388.396 44.8623 388.023 46.0757 388.023 47.6001C388.023 49.109 388.396 50.3223 389.143 51.2401C389.889 52.1423 390.877 52.5934 392.106 52.5934ZM407.172 54.8568C406.161 54.8568 405.267 54.6234 404.489 54.1568C403.727 53.6901 403.128 53.0368 402.692 52.1968C402.272 51.3568 402.062 50.3923 402.062 49.3034V40.6001H404.582V48.7434C404.582 49.9412 404.878 50.8823 405.469 51.5668C406.06 52.2357 406.884 52.5701 407.942 52.5701C409.047 52.5701 409.925 52.2201 410.579 51.5201C411.248 50.8045 411.582 49.8712 411.582 48.7201V40.6001H414.102V54.6001H411.605V52.1734H411.512C411.123 53.0445 410.555 53.7134 409.809 54.1801C409.062 54.6312 408.183 54.8568 407.172 54.8568ZM421.306 54.6001C420.591 54.6001 420.031 54.4134 419.626 54.0401C419.222 53.6512 419.02 53.0757 419.02 52.3134V42.6068H416.64V40.6001H419.043V36.4001H421.516V40.6001H424.853V42.6068H421.54V52.5934H425.18V54.6001H421.306ZM433.645 54.8801C432.385 54.8801 431.257 54.5845 430.262 53.9934C429.266 53.3868 428.481 52.539 427.905 51.4501C427.345 50.3457 427.065 49.0468 427.065 47.5534C427.065 46.0757 427.345 44.8001 427.905 43.7268C428.465 42.6379 429.227 41.7979 430.192 41.2068C431.156 40.6157 432.261 40.3201 433.505 40.3201C434.672 40.3201 435.706 40.5845 436.609 41.1134C437.526 41.6423 438.25 42.4045 438.779 43.4001C439.307 44.3957 439.572 45.5701 439.572 46.9234V48.0434H429.492C429.585 49.459 430.005 50.5868 430.752 51.4268C431.499 52.2668 432.455 52.6868 433.622 52.6868C434.462 52.6868 435.177 52.4768 435.769 52.0568C436.36 51.6368 436.756 51.0612 436.959 50.3301H439.525C439.339 51.279 438.965 52.0957 438.405 52.7801C437.845 53.449 437.161 53.9701 436.352 54.3434C435.543 54.7012 434.641 54.8801 433.645 54.8801ZM429.609 46.1301H437.122C437.013 44.979 436.632 44.0845 435.979 43.4468C435.325 42.809 434.493 42.4901 433.482 42.4901C432.486 42.4901 431.646 42.8168 430.962 43.4701C430.277 44.1079 429.826 44.9945 429.609 46.1301ZM443.291 54.6001V40.6001H445.694V43.4001H445.788C446.099 42.529 446.604 41.829 447.304 41.3001C448.02 40.7557 448.891 40.4834 449.918 40.4834H450.944V42.7234H449.778C448.487 42.7234 447.499 43.1357 446.814 43.9601C446.145 44.7845 445.811 45.8968 445.811 47.2968V54.6001H443.291ZM458.204 54.8801C456.524 54.8801 455.155 54.4679 454.098 53.6434C453.055 52.8034 452.488 51.6834 452.394 50.2834H454.868C454.977 51.0923 455.327 51.7145 455.918 52.1501C456.509 52.5701 457.302 52.7801 458.298 52.7801C459.215 52.7801 459.915 52.6012 460.398 52.2434C460.88 51.8857 461.121 51.3801 461.121 50.7268C461.121 49.7001 460.413 49.039 458.998 48.7434L456.688 48.2301C454.168 47.7012 452.908 46.4568 452.908 44.4968C452.908 43.2523 453.374 42.249 454.308 41.4868C455.241 40.709 456.462 40.3201 457.971 40.3201C459.464 40.3201 460.693 40.7168 461.658 41.5101C462.638 42.2879 463.19 43.3457 463.314 44.6834H460.888C460.732 43.9523 460.39 43.3923 459.861 43.0034C459.348 42.599 458.679 42.3968 457.854 42.3968C457.061 42.3968 456.431 42.5679 455.964 42.9101C455.498 43.2523 455.264 43.719 455.264 44.3101C455.264 44.7768 455.428 45.1579 455.754 45.4534C456.081 45.7334 456.602 45.9512 457.318 46.1068L459.651 46.5968C460.927 46.8768 461.875 47.3434 462.498 47.9968C463.135 48.6345 463.454 49.4745 463.454 50.5168C463.454 51.8545 462.988 52.9201 462.054 53.7134C461.121 54.4912 459.838 54.8801 458.204 54.8801ZM4.66664 89.8568C3.28219 89.8568 2.15441 89.4679 1.2833 88.6901C0.427747 87.8968 -3.0905e-05 86.8779 -3.0905e-05 85.6334C-3.0905e-05 84.3112 0.427747 83.2845 1.2833 82.5534C2.15441 81.8068 3.3833 81.4334 4.96997 81.4334H9.0533V80.7334C9.0533 79.7068 8.7733 78.9134 8.2133 78.3534C7.66886 77.7779 6.89886 77.4901 5.9033 77.4901C5.07886 77.4901 4.39441 77.6845 3.84997 78.0734C3.32108 78.4468 2.97108 78.9834 2.79997 79.6834H0.233302C0.466636 78.3301 1.09664 77.2645 2.1233 76.4868C3.14997 75.709 4.42552 75.3201 5.94997 75.3201C7.67664 75.3201 9.02219 75.7868 9.98664 76.7201C10.9666 77.6534 11.4566 78.9679 11.4566 80.6634V89.6001H9.07664V87.1734H8.9833C8.62552 87.9979 8.05775 88.6512 7.27997 89.1334C6.50219 89.6157 5.63108 89.8568 4.66664 89.8568ZM5.17997 87.7568C5.91108 87.7568 6.56441 87.5857 7.13997 87.2434C7.73108 86.9012 8.19775 86.4423 8.53997 85.8668C8.88219 85.2757 9.0533 84.6223 9.0533 83.9068V83.3468H5.1333C4.23108 83.3468 3.53886 83.5412 3.05664 83.9301C2.58997 84.3034 2.35664 84.8323 2.35664 85.5168C2.35664 86.2012 2.6133 86.7457 3.12664 87.1501C3.63997 87.5545 4.32441 87.7568 5.17997 87.7568ZM15.5968 89.6001V75.6001H18.0935V77.8634H18.1868C18.5913 77.0545 19.1591 76.4323 19.8902 75.9968C20.6213 75.5612 21.4846 75.3434 22.4802 75.3434C23.4913 75.3434 24.3857 75.5923 25.1635 76.0901C25.9413 76.5723 26.548 77.2412 26.9835 78.0968C27.4191 78.9523 27.6368 79.9323 27.6368 81.0368V89.6001H25.1168V81.4801C25.1168 80.2823 24.8057 79.3412 24.1835 78.6568C23.5768 77.9723 22.7213 77.6301 21.6168 77.6301C20.5124 77.6301 19.6491 77.9723 19.0268 78.6568C18.4202 79.3412 18.1168 80.2823 18.1168 81.4801V89.6001H15.5968ZM36.801 89.8801C35.6343 89.8801 34.6155 89.5768 33.7443 88.9701C32.8732 88.3634 32.1966 87.5157 31.7143 86.4268C31.2321 85.3223 30.991 84.0468 30.991 82.6001C30.991 81.1379 31.2321 79.8623 31.7143 78.7734C32.1966 77.6845 32.8732 76.8368 33.7443 76.2301C34.6155 75.6234 35.6343 75.3201 36.801 75.3201C38.8543 75.3201 40.2777 76.1679 41.071 77.8634H41.1643V70.0001H43.6843V89.6001H41.1877V87.3134H41.0943C40.2855 89.0245 38.8543 89.8801 36.801 89.8801ZM37.4777 87.6401C38.6443 87.6401 39.5466 87.2745 40.1843 86.5434C40.8377 85.7968 41.1643 84.8245 41.1643 83.6268V81.5734C41.1643 80.3757 40.8377 79.4112 40.1843 78.6801C39.5466 77.9334 38.6443 77.5601 37.4777 77.5601C36.2799 77.5601 35.3155 78.019 34.5843 78.9368C33.8688 79.8545 33.511 81.0757 33.511 82.6001C33.511 84.1245 33.8688 85.3457 34.5843 86.2634C35.3155 87.1812 36.2799 87.6401 37.4777 87.6401ZM54.8625 89.6001V75.6001H57.3591V77.8634H57.4525C57.8569 77.0545 58.4247 76.4323 59.1558 75.9968C59.8869 75.5612 60.7502 75.3434 61.7458 75.3434C62.7569 75.3434 63.6514 75.5923 64.4291 76.0901C65.2069 76.5723 65.8136 77.2412 66.2491 78.0968C66.6847 78.9523 66.9025 79.9323 66.9025 81.0368V89.6001H64.3825V81.4801C64.3825 80.2823 64.0714 79.3412 63.4491 78.6568C62.8425 77.9723 61.9869 77.6301 60.8825 77.6301C59.778 77.6301 58.9147 77.9723 58.2925 78.6568C57.6858 79.3412 57.3825 80.2823 57.3825 81.4801V89.6001H54.8625ZM76.8366 89.8801C75.5766 89.8801 74.4489 89.5845 73.4533 88.9934C72.4577 88.3868 71.6722 87.539 71.0966 86.4501C70.5366 85.3457 70.2566 84.0468 70.2566 82.5534C70.2566 81.0757 70.5366 79.8001 71.0966 78.7268C71.6566 77.6379 72.4189 76.7979 73.3833 76.2068C74.3477 75.6157 75.4522 75.3201 76.6966 75.3201C77.8633 75.3201 78.8977 75.5845 79.8 76.1134C80.7177 76.6423 81.4411 77.4045 81.97 78.4001C82.4989 79.3957 82.7633 80.5701 82.7633 81.9234V83.0434H72.6833C72.7766 84.459 73.1966 85.5868 73.9433 86.4268C74.69 87.2668 75.6466 87.6868 76.8133 87.6868C77.6533 87.6868 78.3689 87.4768 78.96 87.0568C79.5511 86.6368 79.9477 86.0612 80.15 85.3301H82.7166C82.53 86.279 82.1566 87.0957 81.5966 87.7801C81.0366 88.449 80.3522 88.9701 79.5433 89.3434C78.7344 89.7012 77.8322 89.8801 76.8366 89.8801ZM72.8 81.1301H80.3133C80.2044 79.979 79.8233 79.0845 79.17 78.4468C78.5166 77.809 77.6844 77.4901 76.6733 77.4901C75.6777 77.4901 74.8377 77.8168 74.1533 78.4701C73.4689 79.1079 73.0177 79.9945 72.8 81.1301ZM89.1891 89.6001C88.4735 89.6001 87.9135 89.4134 87.5091 89.0401C87.1046 88.6512 86.9024 88.0757 86.9024 87.3134V77.6068H84.5224V75.6001H86.9258V71.4001H89.3991V75.6001H92.7358V77.6068H89.4224V87.5934H93.0624V89.6001H89.1891ZM97.5865 89.6001L93.5732 75.6001H96.1399L99.0799 86.4968H99.1732L102.603 75.6001H105.217L108.647 86.4968H108.74L111.68 75.6001H114.2L110.187 89.6001H107.387L103.933 78.6801H103.84L100.387 89.6001H97.5865ZM122.087 89.8801C120.827 89.8801 119.699 89.5845 118.703 88.9934C117.708 88.3868 116.922 87.539 116.347 86.4501C115.771 85.3612 115.483 84.0779 115.483 82.6001C115.483 81.1068 115.771 79.8157 116.347 78.7268C116.922 77.6379 117.708 76.7979 118.703 76.2068C119.699 75.6157 120.827 75.3201 122.087 75.3201C123.378 75.3201 124.521 75.6157 125.517 76.2068C126.512 76.7979 127.29 77.6379 127.85 78.7268C128.41 79.8157 128.69 81.1068 128.69 82.6001C128.69 84.0779 128.402 85.369 127.827 86.4734C127.267 87.5623 126.489 88.4023 125.493 88.9934C124.498 89.5845 123.362 89.8801 122.087 89.8801ZM122.087 87.5934C123.331 87.5934 124.319 87.1423 125.05 86.2401C125.797 85.3223 126.17 84.109 126.17 82.6001C126.17 81.0757 125.797 79.8623 125.05 78.9601C124.319 78.0579 123.331 77.6068 122.087 77.6068C120.858 77.6068 119.87 78.0579 119.123 78.9601C118.377 79.8623 118.003 81.0757 118.003 82.6001C118.003 84.109 118.377 85.3223 119.123 86.2401C119.87 87.1423 120.858 87.5934 122.087 87.5934ZM132.393 89.6001V75.6001H134.796V78.4001H134.889C135.2 77.529 135.706 76.829 136.406 76.3001C137.121 75.7557 137.993 75.4834 139.019 75.4834H140.046V77.7234H138.879C137.588 77.7234 136.6 78.1357 135.916 78.9601C135.247 79.7845 134.913 80.8968 134.913 82.2968V89.6001H132.393ZM142.964 89.6001V70.0001H145.484V81.9001H145.577L151.644 75.6001H154.677L148.937 81.4568L155.214 89.6001H152.157L147.187 83.0434L145.484 84.5601V89.6001H142.964ZM161.579 89.8801C159.899 89.8801 158.53 89.4679 157.473 88.6434C156.43 87.8034 155.863 86.6834 155.769 85.2834H158.243C158.352 86.0923 158.702 86.7145 159.293 87.1501C159.884 87.5701 160.677 87.7801 161.673 87.7801C162.59 87.7801 163.29 87.6012 163.773 87.2434C164.255 86.8857 164.496 86.3801 164.496 85.7268C164.496 84.7001 163.788 84.039 162.373 83.7434L160.063 83.2301C157.543 82.7012 156.283 81.4568 156.283 79.4968C156.283 78.2523 156.749 77.249 157.683 76.4868C158.616 75.709 159.837 75.3201 161.346 75.3201C162.839 75.3201 164.068 75.7168 165.033 76.5101C166.013 77.2879 166.565 78.3457 166.689 79.6834H164.263C164.107 78.9523 163.765 78.3923 163.236 78.0034C162.723 77.599 162.054 77.3968 161.229 77.3968C160.436 77.3968 159.806 77.5679 159.339 77.9101C158.873 78.2523 158.639 78.719 158.639 79.3101C158.639 79.7768 158.803 80.1579 159.129 80.4534C159.456 80.7334 159.977 80.9512 160.693 81.1068L163.026 81.5968C164.302 81.8768 165.25 82.3434 165.873 82.9968C166.51 83.6345 166.829 84.4745 166.829 85.5168C166.829 86.8545 166.363 87.9201 165.429 88.7134C164.496 89.4912 163.213 89.8801 161.579 89.8801ZM179.916 89.6001C179.2 89.6001 178.64 89.4134 178.236 89.0401C177.831 88.6512 177.629 88.0757 177.629 87.3134V77.6068H175.249V75.6001H177.652V71.4001H180.126V75.6001H183.462V77.6068H180.149V87.5934H183.789V89.6001H179.916ZM192.278 89.8801C191.018 89.8801 189.89 89.5845 188.895 88.9934C187.899 88.3868 187.113 87.539 186.538 86.4501C185.962 85.3612 185.675 84.0779 185.675 82.6001C185.675 81.1068 185.962 79.8157 186.538 78.7268C187.113 77.6379 187.899 76.7979 188.895 76.2068C189.89 75.6157 191.018 75.3201 192.278 75.3201C193.569 75.3201 194.712 75.6157 195.708 76.2068C196.703 76.7979 197.481 77.6379 198.041 78.7268C198.601 79.8157 198.881 81.1068 198.881 82.6001C198.881 84.0779 198.593 85.369 198.018 86.4734C197.458 87.5623 196.68 88.4023 195.685 88.9934C194.689 89.5845 193.553 89.8801 192.278 89.8801ZM192.278 87.5934C193.522 87.5934 194.51 87.1423 195.241 86.2401C195.988 85.3223 196.361 84.109 196.361 82.6001C196.361 81.0757 195.988 79.8623 195.241 78.9601C194.51 78.0579 193.522 77.6068 192.278 77.6068C191.049 77.6068 190.061 78.0579 189.315 78.9601C188.568 79.8623 188.195 81.0757 188.195 82.6001C188.195 84.109 188.568 85.3223 189.315 86.2401C190.061 87.1423 191.049 87.5934 192.278 87.5934ZM209.502 89.6001V75.6001H211.905V78.4001H211.999C212.31 77.529 212.815 76.829 213.515 76.3001C214.231 75.7557 215.102 75.4834 216.129 75.4834H217.155V77.7234H215.989C214.698 77.7234 213.71 78.1357 213.025 78.9601C212.356 79.7845 212.022 80.8968 212.022 82.2968V89.6001H209.502ZM225.149 89.8801C223.889 89.8801 222.761 89.5845 221.766 88.9934C220.77 88.3868 219.985 87.539 219.409 86.4501C218.849 85.3457 218.569 84.0468 218.569 82.5534C218.569 81.0757 218.849 79.8001 219.409 78.7268C219.969 77.6379 220.731 76.7979 221.696 76.2068C222.66 75.6157 223.765 75.3201 225.009 75.3201C226.176 75.3201 227.21 75.5845 228.112 76.1134C229.03 76.6423 229.754 77.4045 230.282 78.4001C230.811 79.3957 231.076 80.5701 231.076 81.9234V83.0434H220.996C221.089 84.459 221.509 85.5868 222.256 86.4268C223.002 87.2668 223.959 87.6868 225.126 87.6868C225.966 87.6868 226.681 87.4768 227.272 87.0568C227.864 86.6368 228.26 86.0612 228.462 85.3301H231.029C230.842 86.279 230.469 87.0957 229.909 87.7801C229.349 88.449 228.665 88.9701 227.856 89.3434C227.047 89.7012 226.145 89.8801 225.149 89.8801ZM221.112 81.1301H228.626C228.517 79.979 228.136 79.0845 227.482 78.4468C226.829 77.809 225.997 77.4901 224.986 77.4901C223.99 77.4901 223.15 77.8168 222.466 78.4701C221.781 79.1079 221.33 79.9945 221.112 81.1301ZM238.155 89.8568C236.77 89.8568 235.643 89.4679 234.772 88.6901C233.916 87.8968 233.488 86.8779 233.488 85.6334C233.488 84.3112 233.916 83.2845 234.772 82.5534C235.643 81.8068 236.872 81.4334 238.458 81.4334H242.542V80.7334C242.542 79.7068 242.262 78.9134 241.702 78.3534C241.157 77.7779 240.387 77.4901 239.392 77.4901C238.567 77.4901 237.883 77.6845 237.338 78.0734C236.809 78.4468 236.459 78.9834 236.288 79.6834H233.722C233.955 78.3301 234.585 77.2645 235.612 76.4868C236.638 75.709 237.914 75.3201 239.438 75.3201C241.165 75.3201 242.51 75.7868 243.475 76.7201C244.455 77.6534 244.945 78.9679 244.945 80.6634V89.6001H242.565V87.1734H242.472C242.114 87.9979 241.546 88.6512 240.768 89.1334C239.99 89.6157 239.119 89.8568 238.155 89.8568ZM238.668 87.7568C239.399 87.7568 240.053 87.5857 240.628 87.2434C241.219 86.9012 241.686 86.4423 242.028 85.8668C242.37 85.2757 242.542 84.6223 242.542 83.9068V83.3468H238.622C237.719 83.3468 237.027 83.5412 236.545 83.9301C236.078 84.3034 235.845 84.8323 235.845 85.5168C235.845 86.2012 236.102 86.7457 236.615 87.1501C237.128 87.5545 237.813 87.7568 238.668 87.7568ZM254.825 89.8801C253.581 89.8801 252.461 89.5845 251.465 88.9934C250.485 88.3868 249.707 87.539 249.132 86.4501C248.572 85.3612 248.292 84.0779 248.292 82.6001C248.292 81.1068 248.572 79.8157 249.132 78.7268C249.707 77.6379 250.485 76.7979 251.465 76.2068C252.461 75.6157 253.581 75.3201 254.825 75.3201C255.805 75.3201 256.7 75.5068 257.508 75.8801C258.333 76.2379 259.025 76.7823 259.585 77.5134C260.161 78.229 260.557 79.139 260.775 80.2434H258.162C257.944 79.3257 257.532 78.6568 256.925 78.2368C256.334 77.8168 255.634 77.6068 254.825 77.6068C253.627 77.6068 252.655 78.0579 251.908 78.9601C251.177 79.8623 250.812 81.0757 250.812 82.6001C250.812 84.109 251.177 85.3223 251.908 86.2401C252.655 87.1423 253.627 87.5934 254.825 87.5934C255.681 87.5934 256.412 87.3679 257.018 86.9168C257.641 86.4657 258.068 85.7345 258.302 84.7234H260.845C260.643 85.8745 260.254 86.8312 259.678 87.5934C259.103 88.3557 258.403 88.9312 257.578 89.3201C256.754 89.6934 255.836 89.8801 254.825 89.8801ZM263.605 89.6001V70.0001H266.125V77.6534H266.218C266.622 76.9379 267.19 76.3701 267.921 75.9501C268.652 75.5301 269.508 75.3201 270.488 75.3201C271.499 75.3201 272.394 75.5612 273.171 76.0434C273.949 76.5257 274.556 77.1945 274.991 78.0501C275.427 78.9057 275.645 79.9012 275.645 81.0368V89.6001H273.125V81.4101C273.125 80.1968 272.814 79.2557 272.191 78.5868C271.585 77.9179 270.729 77.5834 269.625 77.5834C268.52 77.5834 267.657 77.9179 267.035 78.5868C266.428 79.2557 266.125 80.1968 266.125 81.4101V89.6001H263.605ZM289.673 89.6001C288.958 89.6001 288.398 89.4134 287.993 89.0401C287.589 88.6512 287.387 88.0757 287.387 87.3134V77.6068H285.007V75.6001H287.41V71.4001H289.883V75.6001H293.22V77.6068H289.907V87.5934H293.547V89.6001H289.673ZM296.226 89.6001V70.0001H298.746V77.6534H298.839C299.244 76.9379 299.811 76.3701 300.542 75.9501C301.274 75.5301 302.129 75.3201 303.109 75.3201C304.12 75.3201 305.015 75.5612 305.792 76.0434C306.57 76.5257 307.177 77.1945 307.612 78.0501C308.048 78.9057 308.266 79.9012 308.266 81.0368V89.6001H305.746V81.4101C305.746 80.1968 305.435 79.2557 304.812 78.5868C304.206 77.9179 303.35 77.5834 302.246 77.5834C301.141 77.5834 300.278 77.9179 299.656 78.5868C299.049 79.2557 298.746 80.1968 298.746 81.4101V89.6001H296.226ZM318.2 89.8801C316.94 89.8801 315.812 89.5845 314.817 88.9934C313.821 88.3868 313.035 87.539 312.46 86.4501C311.9 85.3457 311.62 84.0468 311.62 82.5534C311.62 81.0757 311.9 79.8001 312.46 78.7268C313.02 77.6379 313.782 76.7979 314.747 76.2068C315.711 75.6157 316.815 75.3201 318.06 75.3201C319.227 75.3201 320.261 75.5845 321.163 76.1134C322.081 76.6423 322.804 77.4045 323.333 78.4001C323.862 79.3957 324.127 80.5701 324.127 81.9234V83.0434H314.047C314.14 84.459 314.56 85.5868 315.307 86.4268C316.053 87.2668 317.01 87.6868 318.177 87.6868C319.017 87.6868 319.732 87.4768 320.323 87.0568C320.914 86.6368 321.311 86.0612 321.513 85.3301H324.08C323.893 86.279 323.52 87.0957 322.96 87.7801C322.4 88.449 321.715 88.9701 320.907 89.3434C320.098 89.7012 319.195 89.8801 318.2 89.8801ZM314.163 81.1301H321.677C321.568 79.979 321.187 79.0845 320.533 78.4468C319.88 77.809 319.048 77.4901 318.037 77.4901C317.041 77.4901 316.201 77.8168 315.517 78.4701C314.832 79.1079 314.381 79.9945 314.163 81.1301ZM327.659 89.6001V75.6001H330.179V89.6001H327.659ZM328.919 73.6868C328.483 73.6868 328.11 73.5312 327.799 73.2201C327.488 72.909 327.332 72.5357 327.332 72.1001C327.332 71.6645 327.488 71.2912 327.799 70.9801C328.11 70.669 328.483 70.5134 328.919 70.5134C329.355 70.5134 329.728 70.669 330.039 70.9801C330.35 71.2912 330.506 71.6645 330.506 72.1001C330.506 72.5357 330.35 72.909 330.039 73.2201C329.728 73.5312 329.355 73.6868 328.919 73.6868ZM334.764 89.6001V75.6001H337.167V78.4001H337.26C337.571 77.529 338.077 76.829 338.777 76.3001C339.493 75.7557 340.364 75.4834 341.39 75.4834H342.417V77.7234H341.25C339.959 77.7234 338.971 78.1357 338.287 78.9601C337.618 79.7845 337.284 80.8968 337.284 82.2968V89.6001H334.764ZM357.27 89.8801C356.103 89.8801 355.084 89.5768 354.213 88.9701C353.342 88.3634 352.665 87.5157 352.183 86.4268C351.701 85.3223 351.46 84.0468 351.46 82.6001C351.46 81.1379 351.701 79.8623 352.183 78.7734C352.665 77.6845 353.342 76.8368 354.213 76.2301C355.084 75.6234 356.103 75.3201 357.27 75.3201C359.323 75.3201 360.746 76.1679 361.54 77.8634H361.633V70.0001H364.153V89.6001H361.656V87.3134H361.563C360.754 89.0245 359.323 89.8801 357.27 89.8801ZM357.946 87.6401C359.113 87.6401 360.015 87.2745 360.653 86.5434C361.306 85.7968 361.633 84.8245 361.633 83.6268V81.5734C361.633 80.3757 361.306 79.4112 360.653 78.6801C360.015 77.9334 359.113 77.5601 357.946 77.5601C356.749 77.5601 355.784 78.019 355.053 78.9368C354.338 79.8545 353.98 81.0757 353.98 82.6001C353.98 84.1245 354.338 85.3457 355.053 86.2634C355.784 87.1812 356.749 87.6401 357.946 87.6401ZM374.2 89.8801C372.94 89.8801 371.812 89.5845 370.817 88.9934C369.821 88.3868 369.035 87.539 368.46 86.4501C367.9 85.3457 367.62 84.0468 367.62 82.5534C367.62 81.0757 367.9 79.8001 368.46 78.7268C369.02 77.6379 369.782 76.7979 370.747 76.2068C371.711 75.6157 372.815 75.3201 374.06 75.3201C375.227 75.3201 376.261 75.5845 377.163 76.1134C378.081 76.6423 378.804 77.4045 379.333 78.4001C379.862 79.3957 380.127 80.5701 380.127 81.9234V83.0434H370.047C370.14 84.459 370.56 85.5868 371.307 86.4268C372.053 87.2668 373.01 87.6868 374.177 87.6868C375.017 87.6868 375.732 87.4768 376.323 87.0568C376.914 86.6368 377.311 86.0612 377.513 85.3301H380.08C379.893 86.279 379.52 87.0957 378.96 87.7801C378.4 88.449 377.715 88.9701 376.907 89.3434C376.098 89.7012 375.195 89.8801 374.2 89.8801ZM370.163 81.1301H377.677C377.568 79.979 377.187 79.0845 376.533 78.4468C375.88 77.809 375.048 77.4901 374.037 77.4901C373.041 77.4901 372.201 77.8168 371.517 78.4701C370.832 79.1079 370.381 79.9945 370.163 81.1301ZM388.396 89.8801C386.716 89.8801 385.347 89.4679 384.289 88.6434C383.247 87.8034 382.679 86.6834 382.586 85.2834H385.059C385.168 86.0923 385.518 86.7145 386.109 87.1501C386.7 87.5701 387.493 87.7801 388.489 87.7801C389.407 87.7801 390.107 87.6012 390.589 87.2434C391.071 86.8857 391.312 86.3801 391.312 85.7268C391.312 84.7001 390.605 84.039 389.189 83.7434L386.879 83.2301C384.359 82.7012 383.099 81.4568 383.099 79.4968C383.099 78.2523 383.566 77.249 384.499 76.4868C385.432 75.709 386.653 75.3201 388.162 75.3201C389.656 75.3201 390.885 75.7168 391.849 76.5101C392.829 77.2879 393.381 78.3457 393.506 79.6834H391.079C390.923 78.9523 390.581 78.3923 390.052 78.0034C389.539 77.599 388.87 77.3968 388.046 77.3968C387.252 77.3968 386.622 77.5679 386.156 77.9101C385.689 78.2523 385.456 78.719 385.456 79.3101C385.456 79.7768 385.619 80.1579 385.946 80.4534C386.272 80.7334 386.793 80.9512 387.509 81.1068L389.842 81.5968C391.118 81.8768 392.067 82.3434 392.689 82.9968C393.327 83.6345 393.646 84.4745 393.646 85.5168C393.646 86.8545 393.179 87.9201 392.246 88.7134C391.312 89.4912 390.029 89.8801 388.396 89.8801ZM399.814 89.6001C399.099 89.6001 398.539 89.4134 398.134 89.0401C397.73 88.6512 397.527 88.0757 397.527 87.3134V77.6068H395.147V75.6001H397.551V71.4001H400.024V75.6001H403.361V77.6068H400.047V87.5934H403.687V89.6001H399.814ZM406.436 89.6001V75.6001H408.956V89.6001H406.436ZM407.696 73.6868C407.261 73.6868 406.887 73.5312 406.576 73.2201C406.265 72.909 406.11 72.5357 406.11 72.1001C406.11 71.6645 406.265 71.2912 406.576 70.9801C406.887 70.669 407.261 70.5134 407.696 70.5134C408.132 70.5134 408.505 70.669 408.816 70.9801C409.127 71.2912 409.283 71.6645 409.283 72.1001C409.283 72.5357 409.127 72.909 408.816 73.2201C408.505 73.5312 408.132 73.6868 407.696 73.6868ZM413.284 89.6001V75.6001H415.781V77.8634H415.874C416.279 77.0545 416.847 76.4323 417.578 75.9968C418.309 75.5612 419.172 75.3434 420.168 75.3434C421.179 75.3434 422.073 75.5923 422.851 76.0901C423.629 76.5723 424.235 77.2412 424.671 78.0968C425.107 78.9523 425.324 79.9323 425.324 81.0368V89.6001H422.804V81.4801C422.804 80.2823 422.493 79.3412 421.871 78.6568C421.264 77.9723 420.409 77.6301 419.304 77.6301C418.2 77.6301 417.337 77.9723 416.714 78.6568C416.108 79.3412 415.804 80.2823 415.804 81.4801V89.6001H413.284ZM433.089 89.8568C431.704 89.8568 430.576 89.4679 429.705 88.6901C428.85 87.8968 428.422 86.8779 428.422 85.6334C428.422 84.3112 428.85 83.2845 429.705 82.5534C430.576 81.8068 431.805 81.4334 433.392 81.4334H437.475V80.7334C437.475 79.7068 437.195 78.9134 436.635 78.3534C436.091 77.7779 435.321 77.4901 434.325 77.4901C433.501 77.4901 432.816 77.6845 432.272 78.0734C431.743 78.4468 431.393 78.9834 431.222 79.6834H428.655C428.889 78.3301 429.519 77.2645 430.545 76.4868C431.572 75.709 432.847 75.3201 434.372 75.3201C436.099 75.3201 437.444 75.7868 438.409 76.7201C439.389 77.6534 439.879 78.9679 439.879 80.6634V89.6001H437.499V87.1734H437.405C437.047 87.9979 436.48 88.6512 435.702 89.1334C434.924 89.6157 434.053 89.8568 433.089 89.8568ZM433.602 87.7568C434.333 87.7568 434.986 87.5857 435.562 87.2434C436.153 86.9012 436.62 86.4423 436.962 85.8668C437.304 85.2757 437.475 84.6223 437.475 83.9068V83.3468H433.555C432.653 83.3468 431.961 83.5412 431.479 83.9301C431.012 84.3034 430.779 84.8323 430.779 85.5168C430.779 86.2012 431.035 86.7457 431.549 87.1501C432.062 87.5545 432.746 87.7568 433.602 87.7568ZM446.982 89.6001C446.266 89.6001 445.706 89.4134 445.302 89.0401C444.898 88.6512 444.695 88.0757 444.695 87.3134V77.6068H442.315V75.6001H444.719V71.4001H447.192V75.6001H450.529V77.6068H447.215V87.5934H450.855V89.6001H446.982ZM453.604 89.6001V75.6001H456.124V89.6001H453.604ZM454.864 73.6868C454.429 73.6868 454.055 73.5312 453.744 73.2201C453.433 72.909 453.278 72.5357 453.278 72.1001C453.278 71.6645 453.433 71.2912 453.744 70.9801C454.055 70.669 454.429 70.5134 454.864 70.5134C455.3 70.5134 455.673 70.669 455.984 70.9801C456.295 71.2912 456.451 71.6645 456.451 72.1001C456.451 72.5357 456.295 72.909 455.984 73.2201C455.673 73.5312 455.3 73.6868 454.864 73.6868ZM466.262 89.8801C465.002 89.8801 463.875 89.5845 462.879 88.9934C461.883 88.3868 461.098 87.539 460.522 86.4501C459.947 85.3612 459.659 84.0779 459.659 82.6001C459.659 81.1068 459.947 79.8157 460.522 78.7268C461.098 77.6379 461.883 76.7979 462.879 76.2068C463.875 75.6157 465.002 75.3201 466.262 75.3201C467.553 75.3201 468.697 75.6157 469.692 76.2068C470.688 76.7979 471.466 77.6379 472.026 78.7268C472.586 79.8157 472.866 81.1068 472.866 82.6001C472.866 84.0779 472.578 85.369 472.002 86.4734C471.442 87.5623 470.665 88.4023 469.669 88.9934C468.673 89.5845 467.538 89.8801 466.262 89.8801ZM466.262 87.5934C467.507 87.5934 468.495 87.1423 469.226 86.2401C469.972 85.3223 470.346 84.109 470.346 82.6001C470.346 81.0757 469.972 79.8623 469.226 78.9601C468.495 78.0579 467.507 77.6068 466.262 77.6068C465.033 77.6068 464.046 78.0579 463.299 78.9601C462.552 79.8623 462.179 81.0757 462.179 82.6001C462.179 84.109 462.552 85.3223 463.299 86.2401C464.046 87.1423 465.033 87.5934 466.262 87.5934ZM476.312 89.6001V75.6001H478.808V77.8634H478.902C479.306 77.0545 479.874 76.4323 480.605 75.9968C481.336 75.5612 482.199 75.3434 483.195 75.3434C484.206 75.3434 485.101 75.5923 485.878 76.0901C486.656 76.5723 487.263 77.2412 487.698 78.0968C488.134 78.9523 488.352 79.9323 488.352 81.0368V89.6001H485.832V81.4801C485.832 80.2823 485.521 79.3412 484.898 78.6568C484.292 77.9723 483.436 77.6301 482.332 77.6301C481.227 77.6301 480.364 77.9723 479.742 78.6568C479.135 79.3412 478.832 80.2823 478.832 81.4801V89.6001H476.312ZM493.503 89.8801C492.989 89.8801 492.554 89.7012 492.196 89.3434C491.838 88.9857 491.659 88.5501 491.659 88.0368C491.659 87.5234 491.838 87.0879 492.196 86.7301C492.554 86.3723 492.989 86.1934 493.503 86.1934C494.016 86.1934 494.451 86.3723 494.809 86.7301C495.167 87.0879 495.346 87.5234 495.346 88.0368C495.346 88.5501 495.167 88.9857 494.809 89.3434C494.451 89.7012 494.016 89.8801 493.503 89.8801Z" fill="white"/>
</svg>
