<svg width="123" height="12" viewBox="0 0 123 12" fill="none" xmlns="http://www.w3.org/2000/svg">
<path d="M1.63317e-05 11.2V0.400012H4.37335C5.54668 0.400012 6.56002 0.61779 7.41335 1.05335C8.26668 1.4889 8.92446 2.11112 9.38668 2.92001C9.84891 3.7289 10.08 4.6889 10.08 5.80001C10.08 6.90223 9.84446 7.85779 9.37335 8.66668C8.91113 9.47557 8.25335 10.1022 7.40002 10.5467C6.54668 10.9822 5.53779 11.2 4.37335 11.2H1.63317e-05ZM2.50668 9.06668H4.37335C5.43113 9.06668 6.22668 8.76446 6.76002 8.16001C7.30224 7.55557 7.57335 6.7689 7.57335 5.80001C7.57335 4.82223 7.30224 4.03557 6.76002 3.44001C6.22668 2.83557 5.43113 2.53335 4.37335 2.53335H2.50668V9.06668ZM22.1344 11.2H19.4811L14.1877 4.13335H14.1344V11.2H11.7344V0.400012H14.2811L19.6811 7.66668H19.7344V0.400012H22.1344V11.2ZM28.6656 11.36C27.1901 11.36 26.0123 11.04 25.1323 10.4C24.2612 9.75112 23.7856 8.8489 23.7056 7.69335H26.2656C26.3634 8.25335 26.6212 8.67112 27.039 8.94668C27.4568 9.22223 28.0301 9.36001 28.759 9.36001C29.4168 9.36001 29.9056 9.26223 30.2256 9.06668C30.5545 8.86223 30.719 8.56001 30.719 8.16001C30.719 7.8489 30.6168 7.6089 30.4123 7.44001C30.2168 7.26223 29.8879 7.12446 29.4256 7.02668L27.1456 6.54668C26.1145 6.32446 25.3501 5.96446 24.8523 5.46668C24.3545 4.9689 24.1056 4.31557 24.1056 3.50668C24.1056 2.48446 24.4923 1.68446 25.2656 1.10668C26.0479 0.528901 27.1101 0.240012 28.4523 0.240012C29.8034 0.240012 30.8923 0.542234 31.719 1.14668C32.5456 1.75112 33.0034 2.59557 33.0923 3.68001H30.5323C30.2834 2.66668 29.5412 2.16001 28.3056 2.16001C27.7634 2.16001 27.3368 2.25779 27.0256 2.45335C26.7145 2.64001 26.559 2.91112 26.559 3.26668C26.559 3.80001 26.9412 4.14668 27.7056 4.30668L30.0923 4.80001C31.1679 5.02223 31.9501 5.38668 32.439 5.89335C32.9279 6.40001 33.1723 7.0889 33.1723 7.96001C33.1723 9.03557 32.7812 9.87112 31.999 10.4667C31.2256 11.0622 30.1145 11.36 28.6656 11.36ZM40.8196 11.3467C39.8596 11.3467 39.1085 11.12 38.5663 10.6667C38.0329 10.2045 37.7663 9.59112 37.7663 8.82668C37.7663 8.03557 38.0463 7.42668 38.6063 7.00001C39.1752 6.56446 39.984 6.34668 41.0329 6.34668H43.1796V6.05335C43.1796 5.32446 42.7174 4.96001 41.7929 4.96001C40.9752 4.96001 40.4774 5.23557 40.2996 5.78668H37.8729C38.0596 4.88001 38.4818 4.19557 39.1396 3.73335C39.7974 3.27112 40.6774 3.04001 41.7796 3.04001C42.9974 3.04001 43.9263 3.31112 44.5663 3.85335C45.2063 4.38668 45.5263 5.1689 45.5263 6.20001V8.80001H46.6729V11.2H44.2196V9.86668H43.6596C43.384 10.3467 43.0196 10.7156 42.5663 10.9733C42.1129 11.2222 41.5307 11.3467 40.8196 11.3467ZM41.1929 9.50668C41.584 9.50668 41.9263 9.44001 42.2196 9.30668C42.5218 9.17335 42.7574 8.99112 42.9263 8.76001C43.0952 8.5289 43.1796 8.27112 43.1796 7.98668V7.94668H41.1396C40.4552 7.94668 40.1129 8.20001 40.1129 8.70668C40.1129 8.96446 40.2063 9.16446 40.3929 9.30668C40.5885 9.44001 40.8552 9.50668 41.1929 9.50668ZM48.1344 11.2V5.60001H46.9344V3.20001H49.3877V4.53335H49.9477C50.2677 4.07112 50.6588 3.71112 51.1211 3.45335C51.5922 3.18668 52.1922 3.05335 52.9211 3.05335C54.0588 3.05335 54.9299 3.36001 55.5344 3.97335C56.1477 4.58668 56.4544 5.4089 56.4544 6.44001V11.2H54.0011V6.92001C54.0011 6.3689 53.8544 5.95112 53.5611 5.66668C53.2766 5.38223 52.8544 5.24001 52.2944 5.24001C51.7344 5.24001 51.3077 5.38223 51.0144 5.66668C50.7299 5.95112 50.5877 6.3689 50.5877 6.92001V11.2H48.1344ZM61.4256 11.36C60.5901 11.36 59.8834 11.1867 59.3056 10.84C58.7368 10.4845 58.3056 9.99557 58.0123 9.37335C57.719 8.74223 57.5723 8.01779 57.5723 7.20001C57.5723 6.37335 57.7145 5.6489 57.999 5.02668C58.2834 4.39557 58.6968 3.90668 59.239 3.56001C59.7901 3.21335 60.4479 3.04001 61.2123 3.04001C61.7812 3.04001 62.2701 3.14668 62.679 3.36001C63.0879 3.56446 63.4034 3.85335 63.6256 4.22668H63.679V1.23978e-05H66.1323V8.80001H67.3323V11.2H64.879V9.86668H64.319C64.0345 10.3378 63.6479 10.7067 63.159 10.9733C62.679 11.2311 62.1012 11.36 61.4256 11.36ZM61.8923 9.22668C62.4434 9.22668 62.879 9.07557 63.199 8.77335C63.519 8.46223 63.679 8.03557 63.679 7.49335V6.90668C63.679 6.36446 63.519 5.94223 63.199 5.64001C62.879 5.3289 62.4434 5.17335 61.8923 5.17335C61.2612 5.17335 60.7901 5.35557 60.479 5.72001C60.1768 6.08446 60.0256 6.57779 60.0256 7.20001C60.0256 7.82223 60.1768 8.31557 60.479 8.68001C60.7901 9.04446 61.2612 9.22668 61.8923 9.22668ZM76.8063 11.36C75.3307 11.36 74.1529 11.04 73.2729 10.4C72.4018 9.75112 71.9263 8.8489 71.8463 7.69335H74.4063C74.504 8.25335 74.7618 8.67112 75.1796 8.94668C75.5974 9.22223 76.1707 9.36001 76.8996 9.36001C77.5574 9.36001 78.0463 9.26223 78.3663 9.06668C78.6952 8.86223 78.8596 8.56001 78.8596 8.16001C78.8596 7.8489 78.7574 7.6089 78.5529 7.44001C78.3574 7.26223 78.0285 7.12446 77.5663 7.02668L75.2863 6.54668C74.2552 6.32446 73.4907 5.96446 72.9929 5.46668C72.4952 4.9689 72.2463 4.31557 72.2463 3.50668C72.2463 2.48446 72.6329 1.68446 73.4063 1.10668C74.1885 0.528901 75.2507 0.240012 76.5929 0.240012C77.944 0.240012 79.0329 0.542234 79.8596 1.14668C80.6863 1.75112 81.144 2.59557 81.2329 3.68001H78.6729C78.424 2.66668 77.6818 2.16001 76.4463 2.16001C75.904 2.16001 75.4774 2.25779 75.1663 2.45335C74.8552 2.64001 74.6996 2.91112 74.6996 3.26668C74.6996 3.80001 75.0818 4.14668 75.8463 4.30668L78.2329 4.80001C79.3085 5.02223 80.0907 5.38668 80.5796 5.89335C81.0685 6.40001 81.3129 7.0889 81.3129 7.96001C81.3129 9.03557 80.9218 9.87112 80.1396 10.4667C79.3663 11.0622 78.2552 11.36 76.8063 11.36ZM86.4392 11.36C85.5592 11.36 84.7947 11.1911 84.1458 10.8533C83.497 10.5067 82.9947 10.0222 82.6392 9.40001C82.2925 8.7689 82.1192 8.02668 82.1192 7.17335C82.1192 6.32001 82.2881 5.58668 82.6258 4.97335C82.9725 4.35112 83.4614 3.87557 84.0925 3.54668C84.7325 3.2089 85.4836 3.04001 86.3458 3.04001C87.1992 3.04001 87.9325 3.20446 88.5458 3.53335C89.1592 3.85335 89.6258 4.31557 89.9458 4.92001C90.2747 5.52446 90.4392 6.2489 90.4392 7.09335V7.88001H84.4792C84.577 8.39557 84.7903 8.78668 85.1192 9.05335C85.4481 9.31112 85.8836 9.44001 86.4258 9.44001C86.8614 9.44001 87.1992 9.37335 87.4392 9.24001C87.6881 9.09779 87.8658 8.87557 87.9725 8.57335H90.4258C90.257 9.44446 89.8214 10.1289 89.1192 10.6267C88.417 11.1156 87.5236 11.36 86.4392 11.36ZM84.5192 6.28001H88.0925C88.0125 5.83557 87.8258 5.50668 87.5325 5.29335C87.2481 5.07112 86.857 4.96001 86.3592 4.96001C85.8703 4.96001 85.4703 5.07112 85.1592 5.29335C84.8481 5.51557 84.6347 5.84446 84.5192 6.28001ZM92.3817 11.2V5.60001H91.1817V3.20001H93.635V4.80001H94.195C94.3995 4.22223 94.7328 3.79557 95.195 3.52001C95.6572 3.23557 96.1728 3.09335 96.7417 3.09335H97.4217V5.22668H96.635C95.9772 5.22668 95.5017 5.4089 95.2083 5.77335C94.9239 6.13779 94.7817 6.61335 94.7817 7.20001V11.2H92.3817ZM101.266 11.2L97.8258 3.20001H100.426L102.506 8.30668H102.559L104.586 3.20001H107.133L103.693 11.2H101.266ZM111.642 11.36C110.762 11.36 109.998 11.1911 109.349 10.8533C108.7 10.5067 108.198 10.0222 107.842 9.40001C107.496 8.7689 107.322 8.02668 107.322 7.17335C107.322 6.32001 107.491 5.58668 107.829 4.97335C108.176 4.35112 108.665 3.87557 109.296 3.54668C109.936 3.2089 110.687 3.04001 111.549 3.04001C112.402 3.04001 113.136 3.20446 113.749 3.53335C114.362 3.85335 114.829 4.31557 115.149 4.92001C115.478 5.52446 115.642 6.2489 115.642 7.09335V7.88001H109.682C109.78 8.39557 109.993 8.78668 110.322 9.05335C110.651 9.31112 111.087 9.44001 111.629 9.44001C112.065 9.44001 112.402 9.37335 112.642 9.24001C112.891 9.09779 113.069 8.87557 113.176 8.57335H115.629C115.46 9.44446 115.025 10.1289 114.322 10.6267C113.62 11.1156 112.727 11.36 111.642 11.36ZM109.722 6.28001H113.296C113.216 5.83557 113.029 5.50668 112.736 5.29335C112.451 5.07112 112.06 4.96001 111.562 4.96001C111.073 4.96001 110.673 5.07112 110.362 5.29335C110.051 5.51557 109.838 5.84446 109.722 6.28001ZM117.585 11.2V5.60001H116.385V3.20001H118.838V4.80001H119.398C119.603 4.22223 119.936 3.79557 120.398 3.52001C120.86 3.23557 121.376 3.09335 121.945 3.09335H122.625V5.22668H121.838C121.18 5.22668 120.705 5.4089 120.411 5.77335C120.127 6.13779 119.985 6.61335 119.985 7.20001V11.2H117.585Z" fill="black"/>
</svg>
