<svg width="123" height="12" viewBox="0 0 123 12" fill="none" xmlns="http://www.w3.org/2000/svg">
<path d="M1.63317e-05 11.2002V0.400195H4.37335C5.54668 0.400195 6.56002 0.617973 7.41335 1.05353C8.26668 1.48908 8.92446 2.11131 9.38668 2.9202C9.84891 3.72908 10.08 4.68908 10.08 5.8002C10.08 6.90242 9.84446 7.85797 9.37335 8.66686C8.91113 9.47575 8.25335 10.1024 7.40002 10.5469C6.54668 10.9824 5.53779 11.2002 4.37335 11.2002H1.63317e-05ZM2.50668 9.06686H4.37335C5.43113 9.06686 6.22668 8.76464 6.76002 8.1602C7.30224 7.55575 7.57335 6.76908 7.57335 5.8002C7.57335 4.82242 7.30224 4.03575 6.76002 3.4402C6.22668 2.83575 5.43113 2.53353 4.37335 2.53353H2.50668V9.06686ZM22.1344 11.2002H19.4811L14.1877 4.13353H14.1344V11.2002H11.7344V0.400195H14.2811L19.6811 7.66686H19.7344V0.400195H22.1344V11.2002ZM28.6656 11.3602C27.1901 11.3602 26.0123 11.0402 25.1323 10.4002C24.2612 9.75131 23.7856 8.84908 23.7056 7.69353H26.2656C26.3634 8.25353 26.6212 8.67131 27.039 8.94686C27.4568 9.22242 28.0301 9.3602 28.759 9.3602C29.4168 9.3602 29.9056 9.26242 30.2256 9.06686C30.5545 8.86242 30.719 8.5602 30.719 8.1602C30.719 7.84908 30.6168 7.60908 30.4123 7.4402C30.2168 7.26242 29.8879 7.12464 29.4256 7.02686L27.1456 6.54686C26.1145 6.32464 25.3501 5.96464 24.8523 5.46686C24.3545 4.96908 24.1056 4.31575 24.1056 3.50686C24.1056 2.48464 24.4923 1.68464 25.2656 1.10686C26.0479 0.529084 27.1101 0.240195 28.4523 0.240195C29.8034 0.240195 30.8923 0.542418 31.719 1.14686C32.5456 1.75131 33.0034 2.59575 33.0923 3.6802H30.5323C30.2834 2.66686 29.5412 2.1602 28.3056 2.1602C27.7634 2.1602 27.3368 2.25797 27.0256 2.45353C26.7145 2.64019 26.559 2.91131 26.559 3.26686C26.559 3.8002 26.9412 4.14686 27.7056 4.30686L30.0923 4.8002C31.1679 5.02242 31.9501 5.38686 32.439 5.89353C32.9279 6.4002 33.1723 7.08908 33.1723 7.9602C33.1723 9.03575 32.7812 9.87131 31.999 10.4669C31.2256 11.0624 30.1145 11.3602 28.6656 11.3602ZM40.8196 11.3469C39.8596 11.3469 39.1085 11.1202 38.5663 10.6669C38.0329 10.2046 37.7663 9.59131 37.7663 8.82686C37.7663 8.03575 38.0463 7.42686 38.6063 7.0002C39.1752 6.56464 39.984 6.34686 41.0329 6.34686H43.1796V6.05353C43.1796 5.32464 42.7174 4.9602 41.7929 4.9602C40.9752 4.9602 40.4774 5.23575 40.2996 5.78686H37.8729C38.0596 4.8802 38.4818 4.19575 39.1396 3.73353C39.7974 3.27131 40.6774 3.0402 41.7796 3.0402C42.9974 3.0402 43.9263 3.31131 44.5663 3.85353C45.2063 4.38686 45.5263 5.16908 45.5263 6.2002V8.8002H46.6729V11.2002H44.2196V9.86686H43.6596C43.384 10.3469 43.0196 10.7158 42.5663 10.9735C42.1129 11.2224 41.5307 11.3469 40.8196 11.3469ZM41.1929 9.50686C41.584 9.50686 41.9263 9.4402 42.2196 9.30686C42.5218 9.17353 42.7574 8.99131 42.9263 8.7602C43.0952 8.52908 43.1796 8.27131 43.1796 7.98686V7.94686H41.1396C40.4552 7.94686 40.1129 8.2002 40.1129 8.70686C40.1129 8.96464 40.2063 9.16464 40.3929 9.30686C40.5885 9.4402 40.8552 9.50686 41.1929 9.50686ZM48.1344 11.2002V5.6002H46.9344V3.2002H49.3877V4.53353H49.9477C50.2677 4.07131 50.6588 3.71131 51.1211 3.45353C51.5922 3.18686 52.1922 3.05353 52.9211 3.05353C54.0588 3.05353 54.9299 3.3602 55.5344 3.97353C56.1477 4.58686 56.4544 5.40908 56.4544 6.4402V11.2002H54.0011V6.9202C54.0011 6.36908 53.8544 5.95131 53.5611 5.66686C53.2766 5.38242 52.8544 5.2402 52.2944 5.2402C51.7344 5.2402 51.3077 5.38242 51.0144 5.66686C50.7299 5.95131 50.5877 6.36908 50.5877 6.9202V11.2002H48.1344ZM61.4256 11.3602C60.5901 11.3602 59.8834 11.1869 59.3056 10.8402C58.7368 10.4846 58.3056 9.99575 58.0123 9.37353C57.719 8.74242 57.5723 8.01797 57.5723 7.2002C57.5723 6.37353 57.7145 5.64908 57.999 5.02686C58.2834 4.39575 58.6968 3.90686 59.239 3.56019C59.7901 3.21353 60.4479 3.0402 61.2123 3.0402C61.7812 3.0402 62.2701 3.14686 62.679 3.3602C63.0879 3.56464 63.4034 3.85353 63.6256 4.22686H63.679V0.000195503H66.1323V8.8002H67.3323V11.2002H64.879V9.86686H64.319C64.0345 10.338 63.6479 10.7069 63.159 10.9735C62.679 11.2313 62.1012 11.3602 61.4256 11.3602ZM61.8923 9.22686C62.4434 9.22686 62.879 9.07575 63.199 8.77353C63.519 8.46242 63.679 8.03575 63.679 7.49353V6.90686C63.679 6.36464 63.519 5.94242 63.199 5.6402C62.879 5.32908 62.4434 5.17353 61.8923 5.17353C61.2612 5.17353 60.7901 5.35575 60.479 5.7202C60.1768 6.08464 60.0256 6.57797 60.0256 7.2002C60.0256 7.82242 60.1768 8.31575 60.479 8.6802C60.7901 9.04464 61.2612 9.22686 61.8923 9.22686ZM76.8063 11.3602C75.3307 11.3602 74.1529 11.0402 73.2729 10.4002C72.4018 9.75131 71.9263 8.84908 71.8463 7.69353H74.4063C74.504 8.25353 74.7618 8.67131 75.1796 8.94686C75.5974 9.22242 76.1707 9.3602 76.8996 9.3602C77.5574 9.3602 78.0463 9.26242 78.3663 9.06686C78.6952 8.86242 78.8596 8.5602 78.8596 8.1602C78.8596 7.84908 78.7574 7.60908 78.5529 7.4402C78.3574 7.26242 78.0285 7.12464 77.5663 7.02686L75.2863 6.54686C74.2552 6.32464 73.4907 5.96464 72.9929 5.46686C72.4952 4.96908 72.2463 4.31575 72.2463 3.50686C72.2463 2.48464 72.6329 1.68464 73.4063 1.10686C74.1885 0.529084 75.2507 0.240195 76.5929 0.240195C77.944 0.240195 79.0329 0.542418 79.8596 1.14686C80.6863 1.75131 81.144 2.59575 81.2329 3.6802H78.6729C78.424 2.66686 77.6818 2.1602 76.4463 2.1602C75.904 2.1602 75.4774 2.25797 75.1663 2.45353C74.8552 2.64019 74.6996 2.91131 74.6996 3.26686C74.6996 3.8002 75.0818 4.14686 75.8463 4.30686L78.2329 4.8002C79.3085 5.02242 80.0907 5.38686 80.5796 5.89353C81.0685 6.4002 81.3129 7.08908 81.3129 7.9602C81.3129 9.03575 80.9218 9.87131 80.1396 10.4669C79.3663 11.0624 78.2552 11.3602 76.8063 11.3602ZM86.4392 11.3602C85.5592 11.3602 84.7947 11.1913 84.1458 10.8535C83.497 10.5069 82.9947 10.0224 82.6392 9.4002C82.2925 8.76908 82.1192 8.02686 82.1192 7.17353C82.1192 6.3202 82.2881 5.58686 82.6258 4.97353C82.9725 4.35131 83.4614 3.87575 84.0925 3.54686C84.7325 3.20908 85.4836 3.0402 86.3458 3.0402C87.1992 3.0402 87.9325 3.20464 88.5458 3.53353C89.1592 3.85353 89.6258 4.31575 89.9458 4.9202C90.2747 5.52464 90.4392 6.24908 90.4392 7.09353V7.8802H84.4792C84.577 8.39575 84.7903 8.78686 85.1192 9.05353C85.4481 9.31131 85.8836 9.4402 86.4258 9.4402C86.8614 9.4402 87.1992 9.37353 87.4392 9.2402C87.6881 9.09797 87.8658 8.87575 87.9725 8.57353H90.4258C90.257 9.44464 89.8214 10.1291 89.1192 10.6269C88.417 11.1158 87.5236 11.3602 86.4392 11.3602ZM84.5192 6.2802H88.0925C88.0125 5.83575 87.8258 5.50686 87.5325 5.29353C87.2481 5.07131 86.857 4.9602 86.3592 4.9602C85.8703 4.9602 85.4703 5.07131 85.1592 5.29353C84.8481 5.51575 84.6347 5.84464 84.5192 6.2802ZM92.3817 11.2002V5.6002H91.1817V3.2002H93.635V4.8002H94.195C94.3995 4.22242 94.7328 3.79575 95.195 3.5202C95.6572 3.23575 96.1728 3.09353 96.7417 3.09353H97.4217V5.22686H96.635C95.9772 5.22686 95.5017 5.40908 95.2083 5.77353C94.9239 6.13797 94.7817 6.61353 94.7817 7.2002V11.2002H92.3817ZM101.266 11.2002L97.8258 3.2002H100.426L102.506 8.30686H102.559L104.586 3.2002H107.133L103.693 11.2002H101.266ZM111.642 11.3602C110.762 11.3602 109.998 11.1913 109.349 10.8535C108.7 10.5069 108.198 10.0224 107.842 9.4002C107.496 8.76908 107.322 8.02686 107.322 7.17353C107.322 6.3202 107.491 5.58686 107.829 4.97353C108.176 4.35131 108.665 3.87575 109.296 3.54686C109.936 3.20908 110.687 3.0402 111.549 3.0402C112.402 3.0402 113.136 3.20464 113.749 3.53353C114.362 3.85353 114.829 4.31575 115.149 4.9202C115.478 5.52464 115.642 6.24908 115.642 7.09353V7.8802H109.682C109.78 8.39575 109.993 8.78686 110.322 9.05353C110.651 9.31131 111.087 9.4402 111.629 9.4402C112.065 9.4402 112.402 9.37353 112.642 9.2402C112.891 9.09797 113.069 8.87575 113.176 8.57353H115.629C115.46 9.44464 115.025 10.1291 114.322 10.6269C113.62 11.1158 112.727 11.3602 111.642 11.3602ZM109.722 6.2802H113.296C113.216 5.83575 113.029 5.50686 112.736 5.29353C112.451 5.07131 112.06 4.9602 111.562 4.9602C111.073 4.9602 110.673 5.07131 110.362 5.29353C110.051 5.51575 109.838 5.84464 109.722 6.2802ZM117.585 11.2002V5.6002H116.385V3.2002H118.838V4.8002H119.398C119.603 4.22242 119.936 3.79575 120.398 3.5202C120.86 3.23575 121.376 3.09353 121.945 3.09353H122.625V5.22686H121.838C121.18 5.22686 120.705 5.40908 120.411 5.77353C120.127 6.13797 119.985 6.61353 119.985 7.2002V11.2002H117.585Z" fill="black"/>
</svg>
