<svg width="114" height="12" viewBox="0 0 114 12" fill="none" xmlns="http://www.w3.org/2000/svg">
<path d="M1.63317e-05 11.32V0.520007H4.37335C5.54668 0.520007 6.56002 0.737785 7.41335 1.17334C8.26668 1.6089 8.92446 2.23112 9.38668 3.04001C9.84891 3.8489 10.08 4.8089 10.08 5.92001C10.08 7.02223 9.84446 7.97779 9.37335 8.78667C8.91113 9.59556 8.25335 10.2222 7.40002 10.6667C6.54668 11.1022 5.53779 11.32 4.37335 11.32H1.63317e-05ZM2.50668 9.18667H4.37335C5.43113 9.18667 6.22668 8.88445 6.76002 8.28001C7.30224 7.67556 7.57335 6.8889 7.57335 5.92001C7.57335 4.94223 7.30224 4.15556 6.76002 3.56001C6.22668 2.95556 5.43113 2.65334 4.37335 2.65334H2.50668V9.18667ZM15.4144 11.48C14.5344 11.48 13.7655 11.3111 13.1077 10.9733C12.4499 10.6267 11.9388 10.1422 11.5744 9.52001C11.2188 8.8889 11.0411 8.15112 11.0411 7.30667C11.0411 6.46223 11.2188 5.7289 11.5744 5.10667C11.9388 4.48445 12.4499 4.00445 13.1077 3.66667C13.7655 3.3289 14.5388 3.16001 15.4277 3.16001C16.3166 3.16001 17.0811 3.3289 17.7211 3.66667C18.3699 4.00445 18.8722 4.48445 19.2277 5.10667C19.5833 5.7289 19.7611 6.46667 19.7611 7.32001C19.7611 8.16445 19.5833 8.90223 19.2277 9.53334C18.8722 10.1556 18.3699 10.6356 17.7211 10.9733C17.0722 11.3111 16.3033 11.48 15.4144 11.48ZM15.4144 9.34667C16.0277 9.34667 16.4944 9.16445 16.8144 8.80001C17.1433 8.42667 17.3077 7.9289 17.3077 7.30667C17.3077 6.68445 17.1433 6.19556 16.8144 5.84001C16.4944 5.47556 16.0277 5.29334 15.4144 5.29334C14.7922 5.29334 14.3166 5.47556 13.9877 5.84001C13.6588 6.19556 13.4944 6.68445 13.4944 7.30667C13.4944 7.9289 13.6588 8.42667 13.9877 8.80001C14.3166 9.16445 14.7922 9.34667 15.4144 9.34667ZM21.6031 11.32V5.72001H20.4031V3.32001H22.8565V4.65334H23.4165C23.7187 4.18223 24.0965 3.81778 24.5498 3.56001C25.012 3.30223 25.5854 3.17334 26.2698 3.17334C26.9187 3.17334 27.4698 3.28445 27.9231 3.50667C28.3854 3.72001 28.7587 4.03556 29.0431 4.45334H29.0965C29.7276 3.60001 30.6343 3.17334 31.8165 3.17334C32.8743 3.17334 33.7098 3.48001 34.3231 4.09334C34.9454 4.70667 35.2565 5.5289 35.2565 6.56001V11.32H32.8031V7.04001C32.8031 5.92001 32.2787 5.36001 31.2298 5.36001C30.1809 5.36001 29.6565 5.92001 29.6565 7.04001V11.32H27.2031V7.04001C27.2031 5.92001 26.6698 5.36001 25.6031 5.36001C25.0876 5.36001 24.7009 5.49779 24.4431 5.77334C24.1854 6.0489 24.0565 6.47112 24.0565 7.04001V11.32H21.6031ZM39.4758 11.4667C38.5158 11.4667 37.7647 11.24 37.2225 10.7867C36.6892 10.3245 36.4225 9.71112 36.4225 8.94667C36.4225 8.15556 36.7025 7.54667 37.2625 7.12001C37.8314 6.68445 38.6403 6.46667 39.6892 6.46667H41.8358V6.17334C41.8358 5.44445 41.3736 5.08001 40.4492 5.08001C39.6314 5.08001 39.1336 5.35556 38.9558 5.90667H36.5292C36.7158 5.00001 37.1381 4.31556 37.7958 3.85334C38.4536 3.39112 39.3336 3.16001 40.4358 3.16001C41.6536 3.16001 42.5825 3.43112 43.2225 3.97334C43.8625 4.50667 44.1825 5.2889 44.1825 6.32001V8.92001H45.3292V11.32H42.8758V9.98667H42.3158C42.0403 10.4667 41.6758 10.8356 41.2225 11.0933C40.7692 11.3422 40.187 11.4667 39.4758 11.4667ZM39.8492 9.62667C40.2403 9.62667 40.5825 9.56001 40.8758 9.42667C41.1781 9.29334 41.4136 9.11112 41.5825 8.88001C41.7514 8.6489 41.8358 8.39112 41.8358 8.10667V8.06667H39.7958C39.1114 8.06667 38.7692 8.32001 38.7692 8.82667C38.7692 9.08445 38.8625 9.28445 39.0492 9.42667C39.2447 9.56001 39.5114 9.62667 39.8492 9.62667ZM46.5702 11.32V3.32001H49.0236V11.32H46.5702ZM47.7969 2.64001C47.4324 2.64001 47.1213 2.51112 46.8636 2.25334C46.6058 1.99556 46.4769 1.68445 46.4769 1.32001C46.4769 0.955563 46.6058 0.644451 46.8636 0.386674C47.1213 0.128896 47.4324 6.67572e-06 47.7969 6.67572e-06C48.1613 6.67572e-06 48.4724 0.128896 48.7302 0.386674C48.988 0.644451 49.1169 0.955563 49.1169 1.32001C49.1169 1.68445 48.988 1.99556 48.7302 2.25334C48.4724 2.51112 48.1613 2.64001 47.7969 2.64001ZM51.3375 11.32V5.72001H50.1375V3.32001H52.5908V4.65334H53.1508C53.4708 4.19112 53.862 3.83112 54.3242 3.57334C54.7953 3.30667 55.3953 3.17334 56.1242 3.17334C57.262 3.17334 58.1331 3.48001 58.7375 4.09334C59.3508 4.70667 59.6575 5.5289 59.6575 6.56001V11.32H57.2042V7.04001C57.2042 6.4889 57.0575 6.07112 56.7642 5.78667C56.4797 5.50223 56.0575 5.36001 55.4975 5.36001C54.9375 5.36001 54.5108 5.50223 54.2175 5.78667C53.9331 6.07112 53.7908 6.4889 53.7908 7.04001V11.32H51.3375ZM67.6165 11.4667C66.6565 11.4667 65.9054 11.24 65.3631 10.7867C64.8298 10.3245 64.5631 9.71112 64.5631 8.94667C64.5631 8.15556 64.8431 7.54667 65.4031 7.12001C65.972 6.68445 66.7809 6.46667 67.8298 6.46667H69.9765V6.17334C69.9765 5.44445 69.5143 5.08001 68.5898 5.08001C67.772 5.08001 67.2743 5.35556 67.0965 5.90667H64.6698C64.8565 5.00001 65.2787 4.31556 65.9365 3.85334C66.5943 3.39112 67.4743 3.16001 68.5765 3.16001C69.7943 3.16001 70.7231 3.43112 71.3631 3.97334C72.0031 4.50667 72.3231 5.2889 72.3231 6.32001V8.92001H73.4698V11.32H71.0165V9.98667H70.4565C70.1809 10.4667 69.8165 10.8356 69.3631 11.0933C68.9098 11.3422 68.3276 11.4667 67.6165 11.4667ZM67.9898 9.62667C68.3809 9.62667 68.7231 9.56001 69.0165 9.42667C69.3187 9.29334 69.5543 9.11112 69.7231 8.88001C69.892 8.6489 69.9765 8.39112 69.9765 8.10667V8.06667H67.9365C67.252 8.06667 66.9098 8.32001 66.9098 8.82667C66.9098 9.08445 67.0031 9.28445 67.1898 9.42667C67.3854 9.56001 67.652 9.62667 67.9898 9.62667ZM74.9313 11.32V5.72001H73.7313V3.32001H76.1846V4.65334H76.7446C77.0646 4.19112 77.4557 3.83112 77.9179 3.57334C78.389 3.30667 78.989 3.17334 79.7179 3.17334C80.8557 3.17334 81.7268 3.48001 82.3313 4.09334C82.9446 4.70667 83.2513 5.5289 83.2513 6.56001V11.32H80.7979V7.04001C80.7979 6.4889 80.6513 6.07112 80.3579 5.78667C80.0735 5.50223 79.6513 5.36001 79.0913 5.36001C78.5313 5.36001 78.1046 5.50223 77.8113 5.78667C77.5268 6.07112 77.3846 6.4889 77.3846 7.04001V11.32H74.9313ZM88.2225 11.48C87.387 11.48 86.6803 11.3067 86.1025 10.96C85.5336 10.6045 85.1025 10.1156 84.8092 9.49334C84.5158 8.86223 84.3692 8.13779 84.3692 7.32001C84.3692 6.49334 84.5114 5.7689 84.7958 5.14667C85.0803 4.51556 85.4936 4.02667 86.0358 3.68001C86.587 3.33334 87.2447 3.16001 88.0092 3.16001C88.5781 3.16001 89.067 3.26667 89.4758 3.48001C89.8847 3.68445 90.2003 3.97334 90.4225 4.34667H90.4758V0.120008H92.9292V8.92001H94.1292V11.32H91.6758V9.98667H91.1158C90.8314 10.4578 90.4447 10.8267 89.9558 11.0933C89.4758 11.3511 88.8981 11.48 88.2225 11.48ZM88.6892 9.34667C89.2403 9.34667 89.6758 9.19556 89.9958 8.89334C90.3158 8.58223 90.4758 8.15556 90.4758 7.61334V7.02667C90.4758 6.48445 90.3158 6.06223 89.9958 5.76001C89.6758 5.4489 89.2403 5.29334 88.6892 5.29334C88.0581 5.29334 87.587 5.47556 87.2758 5.84001C86.9736 6.20445 86.8225 6.69779 86.8225 7.32001C86.8225 7.94223 86.9736 8.43556 87.2758 8.80001C87.587 9.16445 88.0581 9.34667 88.6892 9.34667ZM99.2831 11.32V0.520007H101.79V11.32H99.2831ZM104 11.32V0.520007H109.24C110.458 0.520007 111.409 0.831118 112.093 1.45334C112.778 2.06667 113.12 2.91556 113.12 4.00001C113.12 5.07556 112.778 5.92445 112.093 6.54667C111.409 7.1689 110.458 7.48001 109.24 7.48001H106.507V11.32H104ZM106.507 5.29334H109.08C109.578 5.29334 109.956 5.18223 110.213 4.96001C110.48 4.7289 110.613 4.4089 110.613 4.00001C110.613 3.58223 110.48 3.26223 110.213 3.04001C109.956 2.81778 109.578 2.70667 109.08 2.70667H106.507V5.29334Z" fill="black"/>
</svg>
