<svg width="114" height="12" viewBox="0 0 114 12" fill="none" xmlns="http://www.w3.org/2000/svg">
<path d="M1.63317e-05 11.3198V0.519824H4.37335C5.54668 0.519824 6.56002 0.737602 7.41335 1.17316C8.26668 1.60871 8.92446 2.23094 9.38668 3.03982C9.84891 3.84871 10.08 4.80871 10.08 5.91982C10.08 7.02205 9.84446 7.9776 9.37335 8.78649C8.91113 9.59538 8.25335 10.222 7.40002 10.6665C6.54668 11.102 5.53779 11.3198 4.37335 11.3198H1.63317e-05ZM2.50668 9.18649H4.37335C5.43113 9.18649 6.22668 8.88427 6.76002 8.27982C7.30224 7.67538 7.57335 6.88871 7.57335 5.91982C7.57335 4.94205 7.30224 4.15538 6.76002 3.55982C6.22668 2.95538 5.43113 2.65316 4.37335 2.65316H2.50668V9.18649ZM15.4144 11.4798C14.5344 11.4798 13.7655 11.3109 13.1077 10.9732C12.4499 10.6265 11.9388 10.142 11.5744 9.51982C11.2188 8.88871 11.0411 8.15094 11.0411 7.30649C11.0411 6.46205 11.2188 5.72871 11.5744 5.10649C11.9388 4.48427 12.4499 4.00427 13.1077 3.66649C13.7655 3.32871 14.5388 3.15982 15.4277 3.15982C16.3166 3.15982 17.0811 3.32871 17.7211 3.66649C18.3699 4.00427 18.8722 4.48427 19.2277 5.10649C19.5833 5.72871 19.7611 6.46649 19.7611 7.31982C19.7611 8.16427 19.5833 8.90205 19.2277 9.53316C18.8722 10.1554 18.3699 10.6354 17.7211 10.9732C17.0722 11.3109 16.3033 11.4798 15.4144 11.4798ZM15.4144 9.34649C16.0277 9.34649 16.4944 9.16427 16.8144 8.79982C17.1433 8.42649 17.3077 7.92871 17.3077 7.30649C17.3077 6.68427 17.1433 6.19538 16.8144 5.83982C16.4944 5.47538 16.0277 5.29316 15.4144 5.29316C14.7922 5.29316 14.3166 5.47538 13.9877 5.83982C13.6588 6.19538 13.4944 6.68427 13.4944 7.30649C13.4944 7.92871 13.6588 8.42649 13.9877 8.79982C14.3166 9.16427 14.7922 9.34649 15.4144 9.34649ZM21.6031 11.3198V5.71982H20.4031V3.31982H22.8565V4.65316H23.4165C23.7187 4.18205 24.0965 3.8176 24.5498 3.55982C25.012 3.30205 25.5854 3.17316 26.2698 3.17316C26.9187 3.17316 27.4698 3.28427 27.9231 3.50649C28.3854 3.71982 28.7587 4.03538 29.0431 4.45316H29.0965C29.7276 3.59982 30.6343 3.17316 31.8165 3.17316C32.8743 3.17316 33.7098 3.47982 34.3231 4.09316C34.9454 4.70649 35.2565 5.52871 35.2565 6.55982V11.3198H32.8031V7.03982C32.8031 5.91982 32.2787 5.35982 31.2298 5.35982C30.1809 5.35982 29.6565 5.91982 29.6565 7.03982V11.3198H27.2031V7.03982C27.2031 5.91982 26.6698 5.35982 25.6031 5.35982C25.0876 5.35982 24.7009 5.4976 24.4431 5.77316C24.1854 6.04871 24.0565 6.47094 24.0565 7.03982V11.3198H21.6031ZM39.4758 11.4665C38.5158 11.4665 37.7647 11.2398 37.2225 10.7865C36.6892 10.3243 36.4225 9.71094 36.4225 8.94649C36.4225 8.15538 36.7025 7.54649 37.2625 7.11982C37.8314 6.68427 38.6403 6.46649 39.6892 6.46649H41.8358V6.17316C41.8358 5.44427 41.3736 5.07982 40.4492 5.07982C39.6314 5.07982 39.1336 5.35538 38.9558 5.90649H36.5292C36.7158 4.99982 37.1381 4.31538 37.7958 3.85316C38.4536 3.39094 39.3336 3.15982 40.4358 3.15982C41.6536 3.15982 42.5825 3.43094 43.2225 3.97316C43.8625 4.50649 44.1825 5.28871 44.1825 6.31982V8.91982H45.3292V11.3198H42.8758V9.98649H42.3158C42.0403 10.4665 41.6758 10.8354 41.2225 11.0932C40.7692 11.342 40.187 11.4665 39.4758 11.4665ZM39.8492 9.62649C40.2403 9.62649 40.5825 9.55982 40.8758 9.42649C41.1781 9.29316 41.4136 9.11094 41.5825 8.87982C41.7514 8.64871 41.8358 8.39094 41.8358 8.10649V8.06649H39.7958C39.1114 8.06649 38.7692 8.31982 38.7692 8.82649C38.7692 9.08427 38.8625 9.28427 39.0492 9.42649C39.2447 9.55982 39.5114 9.62649 39.8492 9.62649ZM46.5702 11.3198V3.31982H49.0236V11.3198H46.5702ZM47.7969 2.63982C47.4324 2.63982 47.1213 2.51094 46.8636 2.25316C46.6058 1.99538 46.4769 1.68427 46.4769 1.31982C46.4769 0.955379 46.6058 0.644268 46.8636 0.386491C47.1213 0.128713 47.4324 -0.00017643 47.7969 -0.00017643C48.1613 -0.00017643 48.4724 0.128713 48.7302 0.386491C48.988 0.644268 49.1169 0.955379 49.1169 1.31982C49.1169 1.68427 48.988 1.99538 48.7302 2.25316C48.4724 2.51094 48.1613 2.63982 47.7969 2.63982ZM51.3375 11.3198V5.71982H50.1375V3.31982H52.5908V4.65316H53.1508C53.4708 4.19094 53.862 3.83094 54.3242 3.57316C54.7953 3.30649 55.3953 3.17316 56.1242 3.17316C57.262 3.17316 58.1331 3.47982 58.7375 4.09316C59.3508 4.70649 59.6575 5.52871 59.6575 6.55982V11.3198H57.2042V7.03982C57.2042 6.48871 57.0575 6.07094 56.7642 5.78649C56.4797 5.50205 56.0575 5.35982 55.4975 5.35982C54.9375 5.35982 54.5108 5.50205 54.2175 5.78649C53.9331 6.07094 53.7908 6.48871 53.7908 7.03982V11.3198H51.3375ZM67.6165 11.4665C66.6565 11.4665 65.9054 11.2398 65.3631 10.7865C64.8298 10.3243 64.5631 9.71094 64.5631 8.94649C64.5631 8.15538 64.8431 7.54649 65.4031 7.11982C65.972 6.68427 66.7809 6.46649 67.8298 6.46649H69.9765V6.17316C69.9765 5.44427 69.5143 5.07982 68.5898 5.07982C67.772 5.07982 67.2743 5.35538 67.0965 5.90649H64.6698C64.8565 4.99982 65.2787 4.31538 65.9365 3.85316C66.5943 3.39094 67.4743 3.15982 68.5765 3.15982C69.7943 3.15982 70.7231 3.43094 71.3631 3.97316C72.0031 4.50649 72.3231 5.28871 72.3231 6.31982V8.91982H73.4698V11.3198H71.0165V9.98649H70.4565C70.1809 10.4665 69.8165 10.8354 69.3631 11.0932C68.9098 11.342 68.3276 11.4665 67.6165 11.4665ZM67.9898 9.62649C68.3809 9.62649 68.7231 9.55982 69.0165 9.42649C69.3187 9.29316 69.5543 9.11094 69.7231 8.87982C69.892 8.64871 69.9765 8.39094 69.9765 8.10649V8.06649H67.9365C67.252 8.06649 66.9098 8.31982 66.9098 8.82649C66.9098 9.08427 67.0031 9.28427 67.1898 9.42649C67.3854 9.55982 67.652 9.62649 67.9898 9.62649ZM74.9313 11.3198V5.71982H73.7313V3.31982H76.1846V4.65316H76.7446C77.0646 4.19094 77.4557 3.83094 77.9179 3.57316C78.389 3.30649 78.989 3.17316 79.7179 3.17316C80.8557 3.17316 81.7268 3.47982 82.3313 4.09316C82.9446 4.70649 83.2513 5.52871 83.2513 6.55982V11.3198H80.7979V7.03982C80.7979 6.48871 80.6513 6.07094 80.3579 5.78649C80.0735 5.50205 79.6513 5.35982 79.0913 5.35982C78.5313 5.35982 78.1046 5.50205 77.8113 5.78649C77.5268 6.07094 77.3846 6.48871 77.3846 7.03982V11.3198H74.9313ZM88.2225 11.4798C87.387 11.4798 86.6803 11.3065 86.1025 10.9598C85.5336 10.6043 85.1025 10.1154 84.8092 9.49316C84.5158 8.86205 84.3692 8.1376 84.3692 7.31982C84.3692 6.49316 84.5114 5.76871 84.7958 5.14649C85.0803 4.51538 85.4936 4.02649 86.0358 3.67982C86.587 3.33316 87.2447 3.15982 88.0092 3.15982C88.5781 3.15982 89.067 3.26649 89.4758 3.47982C89.8847 3.68427 90.2003 3.97316 90.4225 4.34649H90.4758V0.119824H92.9292V8.91982H94.1292V11.3198H91.6758V9.98649H91.1158C90.8314 10.4576 90.4447 10.8265 89.9558 11.0932C89.4758 11.3509 88.8981 11.4798 88.2225 11.4798ZM88.6892 9.34649C89.2403 9.34649 89.6758 9.19538 89.9958 8.89316C90.3158 8.58205 90.4758 8.15538 90.4758 7.61316V7.02649C90.4758 6.48427 90.3158 6.06205 89.9958 5.75982C89.6758 5.44871 89.2403 5.29316 88.6892 5.29316C88.0581 5.29316 87.587 5.47538 87.2758 5.83982C86.9736 6.20427 86.8225 6.6976 86.8225 7.31982C86.8225 7.94205 86.9736 8.43538 87.2758 8.79982C87.587 9.16427 88.0581 9.34649 88.6892 9.34649ZM99.2831 11.3198V0.519824H101.79V11.3198H99.2831ZM104 11.3198V0.519824H109.24C110.458 0.519824 111.409 0.830935 112.093 1.45316C112.778 2.06649 113.12 2.91538 113.12 3.99982C113.12 5.07538 112.778 5.92427 112.093 6.54649C111.409 7.16871 110.458 7.47982 109.24 7.47982H106.507V11.3198H104ZM106.507 5.29316H109.08C109.578 5.29316 109.956 5.18205 110.213 4.95982C110.48 4.72871 110.613 4.40871 110.613 3.99982C110.613 3.58205 110.48 3.26205 110.213 3.03982C109.956 2.8176 109.578 2.70649 109.08 2.70649H106.507V5.29316Z" fill="black"/>
</svg>
