<svg width="712" height="131" viewBox="0 0 712 131" fill="none" xmlns="http://www.w3.org/2000/svg">
<path d="M14.14 19.6H2.12329V0.699975H14.14V2.98664H4.71329V8.67998H13.6266V10.92H4.71329V17.3133H14.14V19.6ZM21.102 19.6L15.6887 5.59998H18.302L22.5254 16.9166H22.6187L26.7954 5.59998H29.3154L23.902 19.6H21.102ZM36.9118 19.88C35.6518 19.88 34.5241 19.5844 33.5285 18.9933C32.5329 18.3866 31.7474 17.5389 31.1718 16.45C30.6118 15.3455 30.3318 14.0466 30.3318 12.5533C30.3318 11.0755 30.6118 9.79998 31.1718 8.72664C31.7318 7.63775 32.4941 6.79775 33.4585 6.20664C34.4229 5.61553 35.5274 5.31998 36.7718 5.31998C37.9385 5.31998 38.9729 5.58442 39.8752 6.11331C40.7929 6.6422 41.5163 7.40442 42.0452 8.39998C42.5741 9.39553 42.8385 10.57 42.8385 11.9233V13.0433H32.7585C32.8518 14.4589 33.2718 15.5866 34.0185 16.4266C34.7652 17.2666 35.7218 17.6866 36.8885 17.6866C37.7285 17.6866 38.4441 17.4766 39.0352 17.0566C39.6263 16.6366 40.0229 16.0611 40.2252 15.33H42.7918C42.6052 16.2789 42.2318 17.0955 41.6718 17.78C41.1118 18.4489 40.4274 18.97 39.6185 19.3433C38.8096 19.7011 37.9074 19.88 36.9118 19.88ZM32.8752 11.13H40.3885C40.2796 9.97886 39.8985 9.08442 39.2452 8.44664C38.5918 7.80886 37.7596 7.48998 36.7485 7.48998C35.7529 7.48998 34.9129 7.81664 34.2285 8.46998C33.5441 9.10775 33.0929 9.99442 32.8752 11.13ZM46.5576 19.6V5.59998H48.9609V8.39998H49.0543C49.3654 7.52886 49.8709 6.82886 50.5709 6.29997C51.2865 5.75553 52.1576 5.48331 53.1843 5.48331H54.2109V7.72331H53.0443C51.7532 7.72331 50.7654 8.13553 50.0809 8.95998C49.4121 9.78442 49.0776 10.8966 49.0776 12.2966V19.6H46.5576ZM56.5457 25.2V23.1933H59.7191L61.0024 19.67L55.1457 5.59998H57.7591L62.2157 16.5433H62.3091L66.2291 5.59998H68.7724L63.4991 19.6L62.2624 22.89C61.9824 23.6211 61.6791 24.1889 61.3524 24.5933C61.0413 24.9978 60.5124 25.2 59.7657 25.2H56.5457ZM82.9817 19.88C81.815 19.88 80.7961 19.5766 79.925 18.97C79.0539 18.3633 78.3772 17.5155 77.895 16.4266C77.4128 15.3222 77.1717 14.0466 77.1717 12.6C77.1717 11.1378 77.4128 9.8622 77.895 8.77331C78.3772 7.68442 79.0539 6.83664 79.925 6.22997C80.7961 5.62331 81.815 5.31998 82.9817 5.31998C85.035 5.31998 86.4583 6.16775 87.2517 7.86331H87.345V-2.40803e-05H89.865V19.6H87.3683V17.3133H87.275C86.4661 19.0244 85.035 19.88 82.9817 19.88ZM83.6583 17.64C84.825 17.64 85.7272 17.2744 86.365 16.5433C87.0183 15.7966 87.345 14.8244 87.345 13.6266V11.5733C87.345 10.3755 87.0183 9.41109 86.365 8.67998C85.7272 7.93331 84.825 7.55998 83.6583 7.55998C82.4606 7.55998 81.4961 8.01886 80.765 8.93664C80.0495 9.85442 79.6917 11.0755 79.6917 12.6C79.6917 14.1244 80.0495 15.3455 80.765 16.2633C81.4961 17.1811 82.4606 17.64 83.6583 17.64ZM99.9118 19.88C98.6518 19.88 97.5241 19.5844 96.5285 18.9933C95.5329 18.3866 94.7474 17.5389 94.1718 16.45C93.6118 15.3455 93.3318 14.0466 93.3318 12.5533C93.3318 11.0755 93.6118 9.79998 94.1718 8.72664C94.7318 7.63775 95.4941 6.79775 96.4585 6.20664C97.4229 5.61553 98.5274 5.31998 99.7718 5.31998C100.938 5.31998 101.973 5.58442 102.875 6.11331C103.793 6.6422 104.516 7.40442 105.045 8.39998C105.574 9.39553 105.838 10.57 105.838 11.9233V13.0433H95.7585C95.8518 14.4589 96.2718 15.5866 97.0185 16.4266C97.7652 17.2666 98.7218 17.6866 99.8885 17.6866C100.728 17.6866 101.444 17.4766 102.035 17.0566C102.626 16.6366 103.023 16.0611 103.225 15.33H105.792C105.605 16.2789 105.232 17.0955 104.672 17.78C104.112 18.4489 103.427 18.97 102.618 19.3433C101.81 19.7011 100.907 19.88 99.9118 19.88ZM95.8752 11.13H103.388C103.28 9.97886 102.898 9.08442 102.245 8.44664C101.592 7.80886 100.76 7.48998 99.7485 7.48998C98.7529 7.48998 97.9129 7.81664 97.2285 8.46998C96.5441 9.10775 96.0929 9.99442 95.8752 11.13ZM112.266 19.6L106.853 5.59998H109.466L113.689 16.9166H113.783L117.959 5.59998H120.479L115.066 19.6H112.266ZM122.824 19.6V5.59998H125.344V19.6H122.824ZM124.084 3.68664C123.649 3.68664 123.275 3.53109 122.964 3.21997C122.653 2.90886 122.497 2.53553 122.497 2.09998C122.497 1.66442 122.653 1.29109 122.964 0.979975C123.275 0.668864 123.649 0.513309 124.084 0.513309C124.52 0.513309 124.893 0.668864 125.204 0.979975C125.515 1.29109 125.671 1.66442 125.671 2.09998C125.671 2.53553 125.515 2.90886 125.204 3.21997C124.893 3.53109 124.52 3.68664 124.084 3.68664ZM135.412 19.88C134.168 19.88 133.048 19.5844 132.052 18.9933C131.072 18.3866 130.294 17.5389 129.719 16.45C129.159 15.3611 128.879 14.0778 128.879 12.6C128.879 11.1066 129.159 9.81553 129.719 8.72664C130.294 7.63775 131.072 6.79775 132.052 6.20664C133.048 5.61553 134.168 5.31998 135.412 5.31998C136.392 5.31998 137.286 5.50664 138.095 5.87998C138.92 6.23775 139.612 6.7822 140.172 7.51331C140.748 8.22886 141.144 9.13886 141.362 10.2433H138.749C138.531 9.32553 138.119 8.65664 137.512 8.23664C136.921 7.81664 136.221 7.60664 135.412 7.60664C134.214 7.60664 133.242 8.05775 132.495 8.95998C131.764 9.8622 131.399 11.0755 131.399 12.6C131.399 14.1089 131.764 15.3222 132.495 16.24C133.242 17.1422 134.214 17.5933 135.412 17.5933C136.268 17.5933 136.999 17.3678 137.605 16.9166C138.228 16.4655 138.655 15.7344 138.889 14.7233H141.432C141.23 15.8744 140.841 16.8311 140.265 17.5933C139.69 18.3555 138.99 18.9311 138.165 19.32C137.341 19.6933 136.423 19.88 135.412 19.88ZM149.978 19.88C148.718 19.88 147.59 19.5844 146.595 18.9933C145.599 18.3866 144.814 17.5389 144.238 16.45C143.678 15.3455 143.398 14.0466 143.398 12.5533C143.398 11.0755 143.678 9.79998 144.238 8.72664C144.798 7.63775 145.56 6.79775 146.525 6.20664C147.489 5.61553 148.594 5.31998 149.838 5.31998C151.005 5.31998 152.039 5.58442 152.942 6.11331C153.859 6.6422 154.583 7.40442 155.112 8.39998C155.64 9.39553 155.905 10.57 155.905 11.9233V13.0433H145.825C145.918 14.4589 146.338 15.5866 147.085 16.4266C147.832 17.2666 148.788 17.6866 149.955 17.6866C150.795 17.6866 151.51 17.4766 152.102 17.0566C152.693 16.6366 153.089 16.0611 153.292 15.33H155.858C155.672 16.2789 155.298 17.0955 154.738 17.78C154.178 18.4489 153.494 18.97 152.685 19.3433C151.876 19.7011 150.974 19.88 149.978 19.88ZM145.942 11.13H153.455C153.346 9.97886 152.965 9.08442 152.312 8.44664C151.658 7.80886 150.826 7.48998 149.815 7.48998C148.819 7.48998 147.979 7.81664 147.295 8.46998C146.61 9.10775 146.159 9.99442 145.942 11.13ZM172.025 19.88C170.781 19.88 169.661 19.5844 168.665 18.9933C167.685 18.3866 166.908 17.5389 166.332 16.45C165.772 15.3611 165.492 14.0778 165.492 12.6C165.492 11.1066 165.772 9.81553 166.332 8.72664C166.908 7.63775 167.685 6.79775 168.665 6.20664C169.661 5.61553 170.781 5.31998 172.025 5.31998C173.005 5.31998 173.9 5.50664 174.709 5.87998C175.533 6.23775 176.225 6.7822 176.785 7.51331C177.361 8.22886 177.758 9.13886 177.975 10.2433H175.362C175.144 9.32553 174.732 8.65664 174.125 8.23664C173.534 7.81664 172.834 7.60664 172.025 7.60664C170.828 7.60664 169.855 8.05775 169.109 8.95998C168.378 9.8622 168.012 11.0755 168.012 12.6C168.012 14.1089 168.378 15.3222 169.109 16.24C169.855 17.1422 170.828 17.5933 172.025 17.5933C172.881 17.5933 173.612 17.3678 174.219 16.9166C174.841 16.4655 175.269 15.7344 175.502 14.7233H178.045C177.843 15.8744 177.454 16.8311 176.879 17.5933C176.303 18.3555 175.603 18.9311 174.779 19.32C173.954 19.6933 173.036 19.88 172.025 19.88ZM186.615 19.88C185.355 19.88 184.227 19.5844 183.232 18.9933C182.236 18.3866 181.45 17.5389 180.875 16.45C180.299 15.3611 180.012 14.0778 180.012 12.6C180.012 11.1066 180.299 9.81553 180.875 8.72664C181.45 7.63775 182.236 6.79775 183.232 6.20664C184.227 5.61553 185.355 5.31998 186.615 5.31998C187.906 5.31998 189.049 5.61553 190.045 6.20664C191.04 6.79775 191.818 7.63775 192.378 8.72664C192.938 9.81553 193.218 11.1066 193.218 12.6C193.218 14.0778 192.93 15.3689 192.355 16.4733C191.795 17.5622 191.017 18.4022 190.022 18.9933C189.026 19.5844 187.89 19.88 186.615 19.88ZM186.615 17.5933C187.859 17.5933 188.847 17.1422 189.578 16.24C190.325 15.3222 190.698 14.1089 190.698 12.6C190.698 11.0755 190.325 9.8622 189.578 8.95998C188.847 8.05775 187.859 7.60664 186.615 7.60664C185.386 7.60664 184.398 8.05775 183.652 8.95998C182.905 9.8622 182.532 11.0755 182.532 12.6C182.532 14.1089 182.905 15.3222 183.652 16.24C184.398 17.1422 185.386 17.5933 186.615 17.5933ZM196.664 19.6V5.59998H199.161V7.86331H199.254C199.659 7.05442 200.226 6.4322 200.958 5.99664C201.689 5.56109 202.552 5.34331 203.548 5.34331C204.559 5.34331 205.453 5.5922 206.231 6.08998C207.009 6.5722 207.615 7.24109 208.051 8.09664C208.486 8.9522 208.704 9.9322 208.704 11.0366V19.6H206.184V11.48C206.184 10.2822 205.873 9.34109 205.251 8.65664C204.644 7.9722 203.789 7.62998 202.684 7.62998C201.58 7.62998 200.716 7.9722 200.094 8.65664C199.488 9.34109 199.184 10.2822 199.184 11.48V19.6H196.664ZM212.852 19.6V5.59998H215.348V7.86331H215.442C215.846 7.05442 216.414 6.4322 217.145 5.99664C217.876 5.56109 218.74 5.34331 219.735 5.34331C220.746 5.34331 221.641 5.5922 222.418 6.08998C223.196 6.5722 223.803 7.24109 224.238 8.09664C224.674 8.9522 224.892 9.9322 224.892 11.0366V19.6H222.372V11.48C222.372 10.2822 222.061 9.34109 221.438 8.65664C220.832 7.9722 219.976 7.62998 218.872 7.62998C217.767 7.62998 216.904 7.9722 216.282 8.65664C215.675 9.34109 215.372 10.2822 215.372 11.48V19.6H212.852ZM234.826 19.88C233.566 19.88 232.438 19.5844 231.443 18.9933C230.447 18.3866 229.661 17.5389 229.086 16.45C228.526 15.3455 228.246 14.0466 228.246 12.5533C228.246 11.0755 228.526 9.79998 229.086 8.72664C229.646 7.63775 230.408 6.79775 231.373 6.20664C232.337 5.61553 233.441 5.31998 234.686 5.31998C235.853 5.31998 236.887 5.58442 237.789 6.11331C238.707 6.6422 239.43 7.40442 239.959 8.39998C240.488 9.39553 240.753 10.57 240.753 11.9233V13.0433H230.673C230.766 14.4589 231.186 15.5866 231.933 16.4266C232.679 17.2666 233.636 17.6866 234.803 17.6866C235.643 17.6866 236.358 17.4766 236.949 17.0566C237.54 16.6366 237.937 16.0611 238.139 15.33H240.706C240.519 16.2789 240.146 17.0955 239.586 17.78C239.026 18.4489 238.341 18.97 237.533 19.3433C236.724 19.7011 235.821 19.88 234.826 19.88ZM230.789 11.13H238.303C238.194 9.97886 237.813 9.08442 237.159 8.44664C236.506 7.80886 235.674 7.48998 234.663 7.48998C233.667 7.48998 232.827 7.81664 232.143 8.46998C231.458 9.10775 231.007 9.99442 230.789 11.13ZM249.955 19.88C248.711 19.88 247.591 19.5844 246.595 18.9933C245.615 18.3866 244.837 17.5389 244.262 16.45C243.702 15.3611 243.422 14.0778 243.422 12.6C243.422 11.1066 243.702 9.81553 244.262 8.72664C244.837 7.63775 245.615 6.79775 246.595 6.20664C247.591 5.61553 248.711 5.31998 249.955 5.31998C250.935 5.31998 251.829 5.50664 252.638 5.87998C253.463 6.23775 254.155 6.7822 254.715 7.51331C255.291 8.22886 255.687 9.13886 255.905 10.2433H253.292C253.074 9.32553 252.662 8.65664 252.055 8.23664C251.464 7.81664 250.764 7.60664 249.955 7.60664C248.757 7.60664 247.785 8.05775 247.038 8.95998C246.307 9.8622 245.942 11.0755 245.942 12.6C245.942 14.1089 246.307 15.3222 247.038 16.24C247.785 17.1422 248.757 17.5933 249.955 17.5933C250.811 17.5933 251.542 17.3678 252.148 16.9166C252.771 16.4655 253.198 15.7344 253.432 14.7233H255.975C255.773 15.8744 255.384 16.8311 254.808 17.5933C254.233 18.3555 253.533 18.9311 252.708 19.32C251.884 19.6933 250.966 19.88 249.955 19.88ZM261.698 19.6C260.982 19.6 260.422 19.4133 260.018 19.04C259.613 18.6511 259.411 18.0755 259.411 17.3133V7.60664H257.031V5.59998H259.435V1.39997H261.908V5.59998H265.245V7.60664H261.931V17.5933H265.571V19.6H261.698ZM274.037 19.88C272.777 19.88 271.649 19.5844 270.653 18.9933C269.658 18.3866 268.872 17.5389 268.297 16.45C267.737 15.3455 267.457 14.0466 267.457 12.5533C267.457 11.0755 267.737 9.79998 268.297 8.72664C268.857 7.63775 269.619 6.79775 270.583 6.20664C271.548 5.61553 272.652 5.31998 273.897 5.31998C275.063 5.31998 276.098 5.58442 277 6.11331C277.918 6.6422 278.641 7.40442 279.17 8.39998C279.699 9.39553 279.963 10.57 279.963 11.9233V13.0433H269.883C269.977 14.4589 270.397 15.5866 271.143 16.4266C271.89 17.2666 272.847 17.6866 274.013 17.6866C274.853 17.6866 275.569 17.4766 276.16 17.0566C276.751 16.6366 277.148 16.0611 277.35 15.33H279.917C279.73 16.2789 279.357 17.0955 278.797 17.78C278.237 18.4489 277.552 18.97 276.743 19.3433C275.935 19.7011 275.032 19.88 274.037 19.88ZM270 11.13H277.513C277.405 9.97886 277.023 9.08442 276.37 8.44664C275.717 7.80886 274.885 7.48998 273.873 7.48998C272.878 7.48998 272.038 7.81664 271.353 8.46998C270.669 9.10775 270.218 9.99442 270 11.13ZM288.443 19.88C287.276 19.88 286.257 19.5766 285.386 18.97C284.515 18.3633 283.838 17.5155 283.356 16.4266C282.874 15.3222 282.633 14.0466 282.633 12.6C282.633 11.1378 282.874 9.8622 283.356 8.77331C283.838 7.68442 284.515 6.83664 285.386 6.22997C286.257 5.62331 287.276 5.31998 288.443 5.31998C290.496 5.31998 291.919 6.16775 292.713 7.86331H292.806V-2.40803e-05H295.326V19.6H292.829V17.3133H292.736C291.927 19.0244 290.496 19.88 288.443 19.88ZM289.119 17.64C290.286 17.64 291.188 17.2744 291.826 16.5433C292.479 15.7966 292.806 14.8244 292.806 13.6266V11.5733C292.806 10.3755 292.479 9.41109 291.826 8.67998C291.188 7.93331 290.286 7.55998 289.119 7.55998C287.922 7.55998 286.957 8.01886 286.226 8.93664C285.51 9.85442 285.153 11.0755 285.153 12.6C285.153 14.1244 285.51 15.3455 286.226 16.2633C286.957 17.1811 287.922 17.64 289.119 17.64ZM309.467 19.6C308.752 19.6 308.192 19.4133 307.787 19.04C307.383 18.6511 307.181 18.0755 307.181 17.3133V7.60664H304.801V5.59998H307.204V1.39997H309.677V5.59998H313.014V7.60664H309.701V17.5933H313.341V19.6H309.467ZM321.83 19.88C320.57 19.88 319.442 19.5844 318.446 18.9933C317.451 18.3866 316.665 17.5389 316.09 16.45C315.514 15.3611 315.226 14.0778 315.226 12.6C315.226 11.1066 315.514 9.81553 316.09 8.72664C316.665 7.63775 317.451 6.79775 318.446 6.20664C319.442 5.61553 320.57 5.31998 321.83 5.31998C323.121 5.31998 324.264 5.61553 325.26 6.20664C326.255 6.79775 327.033 7.63775 327.593 8.72664C328.153 9.81553 328.433 11.1066 328.433 12.6C328.433 14.0778 328.145 15.3689 327.57 16.4733C327.01 17.5622 326.232 18.4022 325.236 18.9933C324.241 19.5844 323.105 19.88 321.83 19.88ZM321.83 17.5933C323.074 17.5933 324.062 17.1422 324.793 16.24C325.54 15.3222 325.913 14.1089 325.913 12.6C325.913 11.0755 325.54 9.8622 324.793 8.95998C324.062 8.05775 323.074 7.60664 321.83 7.60664C320.601 7.60664 319.613 8.05775 318.866 8.95998C318.12 9.8622 317.746 11.0755 317.746 12.6C317.746 14.1089 318.12 15.3222 318.866 16.24C319.613 17.1422 320.601 17.5933 321.83 17.5933ZM341.76 19.6C341.045 19.6 340.485 19.4133 340.08 19.04C339.676 18.6511 339.474 18.0755 339.474 17.3133V7.60664H337.094V5.59998H339.497V1.39997H341.97V5.59998H345.307V7.60664H341.994V17.5933H345.634V19.6H341.76ZM348.313 19.6V-2.40803e-05H350.833V7.65331H350.926C351.33 6.93775 351.898 6.36998 352.629 5.94998C353.36 5.52998 354.216 5.31998 355.196 5.31998C356.207 5.31998 357.102 5.56109 357.879 6.04331C358.657 6.52553 359.264 7.19442 359.699 8.04997C360.135 8.90553 360.353 9.90109 360.353 11.0366V19.6H357.833V11.41C357.833 10.1966 357.522 9.25553 356.899 8.58664C356.293 7.91775 355.437 7.58331 354.333 7.58331C353.228 7.58331 352.365 7.91775 351.743 8.58664C351.136 9.25553 350.833 10.1966 350.833 11.41V19.6H348.313ZM370.287 19.88C369.027 19.88 367.899 19.5844 366.903 18.9933C365.908 18.3866 365.122 17.5389 364.547 16.45C363.987 15.3455 363.707 14.0466 363.707 12.5533C363.707 11.0755 363.987 9.79998 364.547 8.72664C365.107 7.63775 365.869 6.79775 366.833 6.20664C367.798 5.61553 368.902 5.31998 370.147 5.31998C371.313 5.31998 372.348 5.58442 373.25 6.11331C374.168 6.6422 374.891 7.40442 375.42 8.39998C375.949 9.39553 376.213 10.57 376.213 11.9233V13.0433H366.133C366.227 14.4589 366.647 15.5866 367.393 16.4266C368.14 17.2666 369.097 17.6866 370.263 17.6866C371.103 17.6866 371.819 17.4766 372.41 17.0566C373.001 16.6366 373.398 16.0611 373.6 15.33H376.167C375.98 16.2789 375.607 17.0955 375.047 17.78C374.487 18.4489 373.802 18.97 372.993 19.3433C372.185 19.7011 371.282 19.88 370.287 19.88ZM366.25 11.13H373.763C373.655 9.97886 373.273 9.08442 372.62 8.44664C371.967 7.80886 371.135 7.48998 370.123 7.48998C369.128 7.48998 368.288 7.81664 367.603 8.46998C366.919 9.10775 366.468 9.99442 366.25 11.13ZM387.037 19.6V0.699975H389.604V19.6H387.037ZM394.305 19.6V5.59998H396.802V7.86331H396.895C397.299 7.05442 397.867 6.4322 398.598 5.99664C399.329 5.56109 400.193 5.34331 401.188 5.34331C402.199 5.34331 403.094 5.5922 403.872 6.08998C404.649 6.5722 405.256 7.24109 405.692 8.09664C406.127 8.9522 406.345 9.9322 406.345 11.0366V19.6H403.825V11.48C403.825 10.2822 403.514 9.34109 402.892 8.65664C402.285 7.9722 401.429 7.62998 400.325 7.62998C399.22 7.62998 398.357 7.9722 397.735 8.65664C397.128 9.34109 396.825 10.2822 396.825 11.48V19.6H394.305ZM413.456 19.6C412.74 19.6 412.18 19.4133 411.776 19.04C411.371 18.6511 411.169 18.0755 411.169 17.3133V7.60664H408.789V5.59998H411.192V1.39997H413.666V5.59998H417.002V7.60664H413.689V17.5933H417.329V19.6H413.456ZM425.795 19.88C424.535 19.88 423.407 19.5844 422.411 18.9933C421.416 18.3866 420.63 17.5389 420.055 16.45C419.495 15.3455 419.215 14.0466 419.215 12.5533C419.215 11.0755 419.495 9.79998 420.055 8.72664C420.615 7.63775 421.377 6.79775 422.341 6.20664C423.306 5.61553 424.41 5.31998 425.655 5.31998C426.821 5.31998 427.856 5.58442 428.758 6.11331C429.676 6.6422 430.399 7.40442 430.928 8.39998C431.457 9.39553 431.721 10.57 431.721 11.9233V13.0433H421.641C421.735 14.4589 422.155 15.5866 422.901 16.4266C423.648 17.2666 424.605 17.6866 425.771 17.6866C426.611 17.6866 427.327 17.4766 427.918 17.0566C428.509 16.6366 428.906 16.0611 429.108 15.33H431.675C431.488 16.2789 431.115 17.0955 430.555 17.78C429.995 18.4489 429.31 18.97 428.501 19.3433C427.692 19.7011 426.79 19.88 425.795 19.88ZM421.758 11.13H429.271C429.162 9.97886 428.781 9.08442 428.128 8.44664C427.475 7.80886 426.642 7.48998 425.631 7.48998C424.636 7.48998 423.796 7.81664 423.111 8.46998C422.427 9.10775 421.976 9.99442 421.758 11.13ZM435.44 19.6V5.59998H437.844V8.39998H437.937C438.248 7.52886 438.754 6.82886 439.454 6.29997C440.169 5.75553 441.04 5.48331 442.067 5.48331H443.094V7.72331H441.927C440.636 7.72331 439.648 8.13553 438.964 8.95998C438.295 9.78442 437.96 10.8966 437.96 12.2966V19.6H435.44ZM446.012 19.6V5.59998H448.509V7.86331H448.602C449.006 7.05442 449.574 6.4322 450.305 5.99664C451.036 5.56109 451.9 5.34331 452.895 5.34331C453.906 5.34331 454.801 5.5922 455.579 6.08998C456.356 6.5722 456.963 7.24109 457.399 8.09664C457.834 8.9522 458.052 9.9322 458.052 11.0366V19.6H455.532V11.48C455.532 10.2822 455.221 9.34109 454.599 8.65664C453.992 7.9722 453.136 7.62998 452.032 7.62998C450.927 7.62998 450.064 7.9722 449.442 8.65664C448.835 9.34109 448.532 10.2822 448.532 11.48V19.6H446.012ZM467.986 19.88C466.726 19.88 465.598 19.5844 464.603 18.9933C463.607 18.3866 462.822 17.5389 462.246 16.45C461.686 15.3455 461.406 14.0466 461.406 12.5533C461.406 11.0755 461.686 9.79998 462.246 8.72664C462.806 7.63775 463.568 6.79775 464.533 6.20664C465.497 5.61553 466.602 5.31998 467.846 5.31998C469.013 5.31998 470.047 5.58442 470.949 6.11331C471.867 6.6422 472.59 7.40442 473.119 8.39998C473.648 9.39553 473.913 10.57 473.913 11.9233V13.0433H463.833C463.926 14.4589 464.346 15.5866 465.093 16.4266C465.839 17.2666 466.796 17.6866 467.963 17.6866C468.803 17.6866 469.518 17.4766 470.109 17.0566C470.7 16.6366 471.097 16.0611 471.299 15.33H473.866C473.679 16.2789 473.306 17.0955 472.746 17.78C472.186 18.4489 471.502 18.97 470.693 19.3433C469.884 19.7011 468.982 19.88 467.986 19.88ZM463.949 11.13H471.463C471.354 9.97886 470.973 9.08442 470.319 8.44664C469.666 7.80886 468.834 7.48998 467.823 7.48998C466.827 7.48998 465.987 7.81664 465.303 8.46998C464.618 9.10775 464.167 9.99442 463.949 11.13ZM480.338 19.6C479.623 19.6 479.063 19.4133 478.658 19.04C478.254 18.6511 478.052 18.0755 478.052 17.3133V7.60664H475.672V5.59998H478.075V1.39997H480.548V5.59998H483.885V7.60664H480.572V17.5933H484.212V19.6H480.338ZM7.44329 54.88C6.19885 54.88 5.07885 54.5844 4.08329 53.9933C3.10329 53.3866 2.32551 52.5389 1.74996 51.45C1.18996 50.3611 0.909956 49.0778 0.909956 47.6C0.909956 46.1066 1.18996 44.8155 1.74996 43.7266C2.32551 42.6378 3.10329 41.7978 4.08329 41.2066C5.07885 40.6155 6.19885 40.32 7.44329 40.32C8.42329 40.32 9.31773 40.5066 10.1266 40.88C10.9511 41.2378 11.6433 41.7822 12.2033 42.5133C12.7788 43.2289 13.1755 44.1389 13.3933 45.2433H10.78C10.5622 44.3255 10.15 43.6566 9.54329 43.2366C8.95218 42.8166 8.25218 42.6066 7.44329 42.6066C6.24551 42.6066 5.27329 43.0578 4.52662 43.96C3.79551 44.8622 3.42996 46.0755 3.42996 47.6C3.42996 49.1089 3.79551 50.3222 4.52662 51.24C5.27329 52.1422 6.24551 52.5933 7.44329 52.5933C8.29885 52.5933 9.02996 52.3678 9.63662 51.9166C10.2588 51.4655 10.6866 50.7344 10.92 49.7233H13.4633C13.2611 50.8744 12.8722 51.8311 12.2966 52.5933C11.7211 53.3555 11.0211 53.9311 10.1966 54.32C9.37218 54.6933 8.4544 54.88 7.44329 54.88ZM19.8395 54.8566C18.455 54.8566 17.3273 54.4678 16.4562 53.69C15.6006 52.8966 15.1728 51.8778 15.1728 50.6333C15.1728 49.3111 15.6006 48.2844 16.4562 47.5533C17.3273 46.8066 18.5562 46.4333 20.1428 46.4333H24.2262V45.7333C24.2262 44.7066 23.9462 43.9133 23.3862 43.3533C22.8417 42.7778 22.0717 42.49 21.0762 42.49C20.2517 42.49 19.5673 42.6844 19.0228 43.0733C18.4939 43.4466 18.1439 43.9833 17.9728 44.6833H15.4062C15.6395 43.33 16.2695 42.2644 17.2962 41.4866C18.3228 40.7089 19.5984 40.32 21.1228 40.32C22.8495 40.32 24.195 40.7866 25.1595 41.72C26.1395 42.6533 26.6295 43.9678 26.6295 45.6633V54.6H24.2495V52.1733H24.1562C23.7984 52.9978 23.2306 53.6511 22.4528 54.1333C21.675 54.6155 20.8039 54.8566 19.8395 54.8566ZM20.3528 52.7566C21.0839 52.7566 21.7373 52.5855 22.3128 52.2433C22.9039 51.9011 23.3706 51.4422 23.7128 50.8666C24.055 50.2755 24.2262 49.6222 24.2262 48.9066V48.3466H20.3062C19.4039 48.3466 18.7117 48.5411 18.2295 48.93C17.7628 49.3033 17.5295 49.8322 17.5295 50.5166C17.5295 51.2011 17.7862 51.7455 18.2995 52.15C18.8128 52.5544 19.4973 52.7566 20.3528 52.7566ZM30.7697 54.6V40.6H33.2664V42.8633H33.3597C33.7641 42.0544 34.3319 41.4322 35.063 40.9966C35.7941 40.5611 36.6575 40.3433 37.653 40.3433C38.6641 40.3433 39.5586 40.5922 40.3364 41.09C41.1141 41.5722 41.7208 42.2411 42.1564 43.0966C42.5919 43.9522 42.8097 44.9322 42.8097 46.0366V54.6H40.2897V46.48C40.2897 45.2822 39.9786 44.3411 39.3564 43.6566C38.7497 42.9722 37.8941 42.63 36.7897 42.63C35.6853 42.63 34.8219 42.9722 34.1997 43.6566C33.593 44.3411 33.2897 45.2822 33.2897 46.48V54.6H30.7697ZM58.6818 54.88C57.0018 54.88 55.6329 54.4678 54.5752 53.6433C53.5329 52.8033 52.9652 51.6833 52.8718 50.2833H55.3452C55.4541 51.0922 55.8041 51.7144 56.3952 52.15C56.9863 52.57 57.7796 52.78 58.7752 52.78C59.6929 52.78 60.3929 52.6011 60.8752 52.2433C61.3574 51.8855 61.5985 51.38 61.5985 50.7266C61.5985 49.7 60.8907 49.0389 59.4752 48.7433L57.1652 48.23C54.6452 47.7011 53.3852 46.4566 53.3852 44.4966C53.3852 43.2522 53.8518 42.2489 54.7852 41.4866C55.7185 40.7089 56.9396 40.32 58.4485 40.32C59.9418 40.32 61.1707 40.7166 62.1352 41.51C63.1152 42.2878 63.6674 43.3455 63.7918 44.6833H61.3652C61.2096 43.9522 60.8674 43.3922 60.3385 43.0033C59.8252 42.5989 59.1563 42.3966 58.3318 42.3966C57.5385 42.3966 56.9085 42.5678 56.4418 42.91C55.9752 43.2522 55.7418 43.7189 55.7418 44.31C55.7418 44.7766 55.9052 45.1578 56.2318 45.4533C56.5585 45.7333 57.0796 45.9511 57.7952 46.1066L60.1285 46.5966C61.4041 46.8766 62.3529 47.3433 62.9752 47.9966C63.6129 48.6344 63.9318 49.4744 63.9318 50.5166C63.9318 51.8544 63.4652 52.92 62.5318 53.7133C61.5985 54.4911 60.3152 54.88 58.6818 54.88ZM72.9235 54.88C71.6635 54.88 70.5358 54.5844 69.5402 53.9933C68.5447 53.3866 67.7591 52.5389 67.1835 51.45C66.6235 50.3455 66.3435 49.0466 66.3435 47.5533C66.3435 46.0755 66.6235 44.8 67.1835 43.7266C67.7435 42.6378 68.5058 41.7978 69.4702 41.2066C70.4347 40.6155 71.5391 40.32 72.7835 40.32C73.9502 40.32 74.9847 40.5844 75.8869 41.1133C76.8047 41.6422 77.528 42.4044 78.0569 43.4C78.5858 44.3955 78.8502 45.57 78.8502 46.9233V48.0433H68.7702C68.8635 49.4589 69.2835 50.5866 70.0302 51.4266C70.7769 52.2666 71.7335 52.6866 72.9002 52.6866C73.7402 52.6866 74.4558 52.4766 75.0469 52.0566C75.638 51.6366 76.0347 51.0611 76.2369 50.33H78.8036C78.6169 51.2789 78.2436 52.0955 77.6836 52.78C77.1236 53.4489 76.4391 53.97 75.6302 54.3433C74.8213 54.7011 73.9191 54.88 72.9235 54.88ZM68.8869 46.13H76.4002C76.2913 44.9789 75.9102 44.0844 75.2569 43.4466C74.6036 42.8089 73.7713 42.49 72.7602 42.49C71.7647 42.49 70.9247 42.8166 70.2402 43.47C69.5558 44.1078 69.1047 44.9944 68.8869 46.13ZM82.3127 54.6V40.6H84.8093V42.8633H84.9027C85.3071 42.0544 85.8749 41.4322 86.606 40.9966C87.3371 40.5611 88.2004 40.3433 89.196 40.3433C90.2071 40.3433 91.1016 40.5922 91.8793 41.09C92.6571 41.5722 93.2638 42.2411 93.6993 43.0966C94.1349 43.9522 94.3527 44.9322 94.3527 46.0366V54.6H91.8327V46.48C91.8327 45.2822 91.5216 44.3411 90.8993 43.6566C90.2927 42.9722 89.4371 42.63 88.3327 42.63C87.2282 42.63 86.3649 42.9722 85.7427 43.6566C85.136 44.3411 84.8327 45.2822 84.8327 46.48V54.6H82.3127ZM103.517 54.88C102.35 54.88 101.331 54.5766 100.46 53.97C99.5891 53.3633 98.9124 52.5155 98.4302 51.4266C97.9479 50.3222 97.7068 49.0466 97.7068 47.6C97.7068 46.1378 97.9479 44.8622 98.4302 43.7733C98.9124 42.6844 99.5891 41.8366 100.46 41.23C101.331 40.6233 102.35 40.32 103.517 40.32C105.57 40.32 106.993 41.1678 107.787 42.8633H107.88V35H110.4V54.6H107.903V52.3133H107.81C107.001 54.0244 105.57 54.88 103.517 54.88ZM104.193 52.64C105.36 52.64 106.262 52.2744 106.9 51.5433C107.553 50.7966 107.88 49.8244 107.88 48.6266V46.5733C107.88 45.3755 107.553 44.4111 106.9 43.68C106.262 42.9333 105.36 42.56 104.193 42.56C102.996 42.56 102.031 43.0189 101.3 43.9366C100.585 44.8544 100.227 46.0755 100.227 47.6C100.227 49.1244 100.585 50.3455 101.3 51.2633C102.031 52.1811 102.996 52.64 104.193 52.64ZM125.195 54.8566C123.811 54.8566 122.683 54.4678 121.812 53.69C120.956 52.8966 120.528 51.8778 120.528 50.6333C120.528 49.3111 120.956 48.2844 121.812 47.5533C122.683 46.8066 123.912 46.4333 125.498 46.4333H129.582V45.7333C129.582 44.7066 129.302 43.9133 128.742 43.3533C128.197 42.7778 127.427 42.49 126.432 42.49C125.607 42.49 124.923 42.6844 124.378 43.0733C123.849 43.4466 123.499 43.9833 123.328 44.6833H120.762C120.995 43.33 121.625 42.2644 122.652 41.4866C123.678 40.7089 124.954 40.32 126.478 40.32C128.205 40.32 129.551 40.7866 130.515 41.72C131.495 42.6533 131.985 43.9678 131.985 45.6633V54.6H129.605V52.1733H129.512C129.154 52.9978 128.586 53.6511 127.808 54.1333C127.031 54.6155 126.159 54.8566 125.195 54.8566ZM125.708 52.7566C126.439 52.7566 127.093 52.5855 127.668 52.2433C128.259 51.9011 128.726 51.4422 129.068 50.8666C129.411 50.2755 129.582 49.6222 129.582 48.9066V48.3466H125.662C124.759 48.3466 124.067 48.5411 123.585 48.93C123.118 49.3033 122.885 49.8322 122.885 50.5166C122.885 51.2011 123.142 51.7455 123.655 52.15C124.168 52.5544 124.853 52.7566 125.708 52.7566ZM136.125 54.6V40.6H138.622V42.8633H138.715C139.12 42.0544 139.687 41.4322 140.418 40.9966C141.15 40.5611 142.013 40.3433 143.008 40.3433C144.02 40.3433 144.914 40.5922 145.692 41.09C146.47 41.5722 147.076 42.2411 147.512 43.0966C147.947 43.9522 148.165 44.9322 148.165 46.0366V54.6H145.645V46.48C145.645 45.2822 145.334 44.3411 144.712 43.6566C144.105 42.9722 143.25 42.63 142.145 42.63C141.041 42.63 140.177 42.9722 139.555 43.6566C138.948 44.3411 138.645 45.2822 138.645 46.48V54.6H136.125ZM157.329 54.88C156.163 54.88 155.144 54.5766 154.273 53.97C153.402 53.3633 152.725 52.5155 152.243 51.4266C151.76 50.3222 151.519 49.0466 151.519 47.6C151.519 46.1378 151.76 44.8622 152.243 43.7733C152.725 42.6844 153.402 41.8366 154.273 41.23C155.144 40.6233 156.163 40.32 157.329 40.32C159.383 40.32 160.806 41.1678 161.599 42.8633H161.693V35H164.213V54.6H161.716V52.3133H161.623C160.814 54.0244 159.383 54.88 157.329 54.88ZM158.006 52.64C159.173 52.64 160.075 52.2744 160.713 51.5433C161.366 50.7966 161.693 49.8244 161.693 48.6266V46.5733C161.693 45.3755 161.366 44.4111 160.713 43.68C160.075 42.9333 159.173 42.56 158.006 42.56C156.808 42.56 155.844 43.0189 155.113 43.9366C154.397 44.8544 154.039 46.0755 154.039 47.6C154.039 49.1244 154.397 50.3455 155.113 51.2633C155.844 52.1811 156.808 52.64 158.006 52.64ZM175.647 54.6V40.6H178.051V43.4H178.144C178.455 42.5289 178.961 41.8289 179.661 41.3C180.376 40.7555 181.247 40.4833 182.274 40.4833H183.301V42.7233H182.134C180.843 42.7233 179.855 43.1355 179.171 43.96C178.502 44.7844 178.167 45.8966 178.167 47.2966V54.6H175.647ZM191.295 54.88C190.035 54.88 188.907 54.5844 187.911 53.9933C186.916 53.3866 186.13 52.5389 185.555 51.45C184.995 50.3455 184.715 49.0466 184.715 47.5533C184.715 46.0755 184.995 44.8 185.555 43.7266C186.115 42.6378 186.877 41.7978 187.841 41.2066C188.806 40.6155 189.91 40.32 191.155 40.32C192.321 40.32 193.356 40.5844 194.258 41.1133C195.176 41.6422 195.899 42.4044 196.428 43.4C196.957 44.3955 197.221 45.57 197.221 46.9233V48.0433H187.141C187.235 49.4589 187.655 50.5866 188.401 51.4266C189.148 52.2666 190.105 52.6866 191.271 52.6866C192.111 52.6866 192.827 52.4766 193.418 52.0566C194.009 51.6366 194.406 51.0611 194.608 50.33H197.175C196.988 51.2789 196.615 52.0955 196.055 52.78C195.495 53.4489 194.81 53.97 194.001 54.3433C193.192 54.7011 192.29 54.88 191.295 54.88ZM187.258 46.13H194.771C194.662 44.9789 194.281 44.0844 193.628 43.4466C192.975 42.8089 192.142 42.49 191.131 42.49C190.136 42.49 189.296 42.8166 188.611 43.47C187.927 44.1078 187.476 44.9944 187.258 46.13ZM206.424 54.88C205.179 54.88 204.059 54.5844 203.064 53.9933C202.084 53.3866 201.306 52.5389 200.73 51.45C200.17 50.3611 199.89 49.0778 199.89 47.6C199.89 46.1066 200.17 44.8155 200.73 43.7266C201.306 42.6378 202.084 41.7978 203.064 41.2066C204.059 40.6155 205.179 40.32 206.424 40.32C207.404 40.32 208.298 40.5066 209.107 40.88C209.932 41.2378 210.624 41.7822 211.184 42.5133C211.759 43.2289 212.156 44.1389 212.374 45.2433H209.76C209.543 44.3255 209.13 43.6566 208.524 43.2366C207.933 42.8166 207.233 42.6066 206.424 42.6066C205.226 42.6066 204.254 43.0578 203.507 43.96C202.776 44.8622 202.41 46.0755 202.41 47.6C202.41 49.1089 202.776 50.3222 203.507 51.24C204.254 52.1422 205.226 52.5933 206.424 52.5933C207.279 52.5933 208.01 52.3678 208.617 51.9166C209.239 51.4655 209.667 50.7344 209.9 49.7233H212.444C212.242 50.8744 211.853 51.8311 211.277 52.5933C210.702 53.3555 210.002 53.9311 209.177 54.32C208.353 54.6933 207.435 54.88 206.424 54.88ZM220.99 54.88C219.73 54.88 218.602 54.5844 217.607 53.9933C216.611 53.3866 215.826 52.5389 215.25 51.45C214.69 50.3455 214.41 49.0466 214.41 47.5533C214.41 46.0755 214.69 44.8 215.25 43.7266C215.81 42.6378 216.572 41.7978 217.537 41.2066C218.501 40.6155 219.606 40.32 220.85 40.32C222.017 40.32 223.051 40.5844 223.953 41.1133C224.871 41.6422 225.594 42.4044 226.123 43.4C226.652 44.3955 226.917 45.57 226.917 46.9233V48.0433H216.837C216.93 49.4589 217.35 50.5866 218.097 51.4266C218.843 52.2666 219.8 52.6866 220.967 52.6866C221.807 52.6866 222.522 52.4766 223.113 52.0566C223.704 51.6366 224.101 51.0611 224.303 50.33H226.87C226.683 51.2789 226.31 52.0955 225.75 52.78C225.19 53.4489 224.506 53.97 223.697 54.3433C222.888 54.7011 221.986 54.88 220.99 54.88ZM216.953 46.13H224.467C224.358 44.9789 223.977 44.0844 223.323 43.4466C222.67 42.8089 221.838 42.49 220.827 42.49C219.831 42.49 218.991 42.8166 218.307 43.47C217.622 44.1078 217.171 44.9944 216.953 46.13ZM230.449 54.6V40.6H232.969V54.6H230.449ZM231.709 38.6866C231.274 38.6866 230.9 38.5311 230.589 38.22C230.278 37.9089 230.122 37.5355 230.122 37.1C230.122 36.6644 230.278 36.2911 230.589 35.98C230.9 35.6689 231.274 35.5133 231.709 35.5133C232.145 35.5133 232.518 35.6689 232.829 35.98C233.14 36.2911 233.296 36.6644 233.296 37.1C233.296 37.5355 233.14 37.9089 232.829 38.22C232.518 38.5311 232.145 38.6866 231.709 38.6866ZM240.727 54.6L235.314 40.6H237.927L242.15 51.9166H242.244L246.42 40.6H248.94L243.527 54.6H240.727ZM256.537 54.88C255.277 54.88 254.149 54.5844 253.153 53.9933C252.158 53.3866 251.372 52.5389 250.797 51.45C250.237 50.3455 249.957 49.0466 249.957 47.5533C249.957 46.0755 250.237 44.8 250.797 43.7266C251.357 42.6378 252.119 41.7978 253.083 41.2066C254.048 40.6155 255.152 40.32 256.397 40.32C257.563 40.32 258.598 40.5844 259.5 41.1133C260.418 41.6422 261.141 42.4044 261.67 43.4C262.199 44.3955 262.463 45.57 262.463 46.9233V48.0433H252.383C252.477 49.4589 252.897 50.5866 253.643 51.4266C254.39 52.2666 255.347 52.6866 256.513 52.6866C257.353 52.6866 258.069 52.4766 258.66 52.0566C259.251 51.6366 259.648 51.0611 259.85 50.33H262.417C262.23 51.2789 261.857 52.0955 261.297 52.78C260.737 53.4489 260.052 53.97 259.243 54.3433C258.435 54.7011 257.532 54.88 256.537 54.88ZM252.5 46.13H260.013C259.905 44.9789 259.523 44.0844 258.87 43.4466C258.217 42.8089 257.385 42.49 256.373 42.49C255.378 42.49 254.538 42.8166 253.853 43.47C253.169 44.1078 252.718 44.9944 252.5 46.13ZM272.914 54.6V40.6H275.434V54.6H272.914ZM274.174 38.6866C273.738 38.6866 273.365 38.5311 273.054 38.22C272.743 37.9089 272.587 37.5355 272.587 37.1C272.587 36.6644 272.743 36.2911 273.054 35.98C273.365 35.6689 273.738 35.5133 274.174 35.5133C274.609 35.5133 274.983 35.6689 275.294 35.98C275.605 36.2911 275.761 36.6644 275.761 37.1C275.761 37.5355 275.605 37.9089 275.294 38.22C274.983 38.5311 274.609 38.6866 274.174 38.6866ZM279.762 54.6V40.6H282.259V42.8633H282.352C282.756 42.0544 283.324 41.4322 284.055 40.9966C284.786 40.5611 285.65 40.3433 286.645 40.3433C287.656 40.3433 288.551 40.5922 289.329 41.09C290.106 41.5722 290.713 42.2411 291.149 43.0966C291.584 43.9522 291.802 44.9322 291.802 46.0366V54.6H289.282V46.48C289.282 45.2822 288.971 44.3411 288.349 43.6566C287.742 42.9722 286.886 42.63 285.782 42.63C284.677 42.63 283.814 42.9722 283.192 43.6566C282.585 44.3411 282.282 45.2822 282.282 46.48V54.6H279.762ZM296.813 54.6V42.6066H294.246V40.6H296.836V37.3566C296.836 36.5633 297.038 35.9722 297.443 35.5833C297.863 35.1944 298.446 35 299.193 35H302.739V37.0066H299.309V40.6H302.459V42.6066H299.333V54.6H296.813ZM310.81 54.88C309.55 54.88 308.422 54.5844 307.427 53.9933C306.431 53.3866 305.646 52.5389 305.07 51.45C304.495 50.3611 304.207 49.0778 304.207 47.6C304.207 46.1066 304.495 44.8155 305.07 43.7266C305.646 42.6378 306.431 41.7978 307.427 41.2066C308.422 40.6155 309.55 40.32 310.81 40.32C312.101 40.32 313.245 40.6155 314.24 41.2066C315.236 41.7978 316.013 42.6378 316.573 43.7266C317.133 44.8155 317.413 46.1066 317.413 47.6C317.413 49.0778 317.126 50.3689 316.55 51.4733C315.99 52.5622 315.212 53.4022 314.217 53.9933C313.221 54.5844 312.086 54.88 310.81 54.88ZM310.81 52.5933C312.055 52.5933 313.042 52.1422 313.773 51.24C314.52 50.3222 314.893 49.1089 314.893 47.6C314.893 46.0755 314.52 44.8622 313.773 43.96C313.042 43.0578 312.055 42.6066 310.81 42.6066C309.581 42.6066 308.593 43.0578 307.847 43.96C307.1 44.8622 306.727 46.0755 306.727 47.6C306.727 49.1089 307.1 50.3222 307.847 51.24C308.593 52.1422 309.581 52.5933 310.81 52.5933ZM321.116 54.6V40.6H323.52V43.4H323.613C323.924 42.5289 324.43 41.8289 325.13 41.3C325.845 40.7555 326.716 40.4833 327.743 40.4833H328.77V42.7233H327.603C326.312 42.7233 325.324 43.1355 324.64 43.96C323.971 44.7844 323.636 45.8966 323.636 47.2966V54.6H321.116ZM331.688 54.6V40.6H334.161V42.8633H334.254C334.612 42.0389 335.133 41.4166 335.818 40.9966C336.518 40.5611 337.334 40.3433 338.268 40.3433C339.217 40.3433 340.057 40.5766 340.788 41.0433C341.534 41.4944 342.102 42.1478 342.491 43.0033H342.561C343.028 42.1478 343.634 41.4944 344.381 41.0433C345.128 40.5766 345.991 40.3433 346.971 40.3433C347.967 40.3433 348.845 40.5766 349.608 41.0433C350.37 41.4944 350.953 42.14 351.358 42.98C351.778 43.82 351.988 44.8078 351.988 45.9433V54.6H349.468V46.3166C349.468 45.15 349.188 44.2478 348.628 43.61C348.068 42.9566 347.29 42.63 346.294 42.63C345.314 42.63 344.537 42.9566 343.961 43.61C343.385 44.2478 343.098 45.15 343.098 46.3166V54.6H340.578V46.3166C340.578 45.15 340.29 44.2478 339.714 43.61C339.154 42.9566 338.377 42.63 337.381 42.63C336.401 42.63 335.623 42.9566 335.048 43.61C334.488 44.2478 334.208 45.15 334.208 46.3166V54.6H331.688ZM359.75 54.8566C358.365 54.8566 357.237 54.4678 356.366 53.69C355.511 52.8966 355.083 51.8778 355.083 50.6333C355.083 49.3111 355.511 48.2844 356.366 47.5533C357.237 46.8066 358.466 46.4333 360.053 46.4333H364.136V45.7333C364.136 44.7066 363.856 43.9133 363.296 43.3533C362.752 42.7778 361.982 42.49 360.986 42.49C360.162 42.49 359.477 42.6844 358.933 43.0733C358.404 43.4466 358.054 43.9833 357.883 44.6833H355.316C355.55 43.33 356.18 42.2644 357.206 41.4866C358.233 40.7089 359.509 40.32 361.033 40.32C362.76 40.32 364.105 40.7866 365.07 41.72C366.05 42.6533 366.54 43.9678 366.54 45.6633V54.6H364.16V52.1733H364.066C363.709 52.9978 363.141 53.6511 362.363 54.1333C361.585 54.6155 360.714 54.8566 359.75 54.8566ZM360.263 52.7566C360.994 52.7566 361.647 52.5855 362.223 52.2433C362.814 51.9011 363.281 51.4422 363.623 50.8666C363.965 50.2755 364.136 49.6222 364.136 48.9066V48.3466H360.216C359.314 48.3466 358.622 48.5411 358.14 48.93C357.673 49.3033 357.44 49.8322 357.44 50.5166C357.44 51.2011 357.696 51.7455 358.21 52.15C358.723 52.5544 359.407 52.7566 360.263 52.7566ZM373.643 54.6C372.928 54.6 372.368 54.4133 371.963 54.04C371.559 53.6511 371.357 53.0755 371.357 52.3133V42.6066H368.977V40.6H371.38V36.4H373.853V40.6H377.19V42.6066H373.877V52.5933H377.517V54.6H373.643ZM380.265 54.6V40.6H382.785V54.6H380.265ZM381.525 38.6866C381.09 38.6866 380.717 38.5311 380.405 38.22C380.094 37.9089 379.939 37.5355 379.939 37.1C379.939 36.6644 380.094 36.2911 380.405 35.98C380.717 35.6689 381.09 35.5133 381.525 35.5133C381.961 35.5133 382.334 35.6689 382.645 35.98C382.957 36.2911 383.112 36.6644 383.112 37.1C383.112 37.5355 382.957 37.9089 382.645 38.22C382.334 38.5311 381.961 38.6866 381.525 38.6866ZM392.923 54.88C391.663 54.88 390.536 54.5844 389.54 53.9933C388.545 53.3866 387.759 52.5389 387.183 51.45C386.608 50.3611 386.32 49.0778 386.32 47.6C386.32 46.1066 386.608 44.8155 387.183 43.7266C387.759 42.6378 388.545 41.7978 389.54 41.2066C390.536 40.6155 391.663 40.32 392.923 40.32C394.215 40.32 395.358 40.6155 396.353 41.2066C397.349 41.7978 398.127 42.6378 398.687 43.7266C399.247 44.8155 399.527 46.1066 399.527 47.6C399.527 49.0778 399.239 50.3689 398.663 51.4733C398.103 52.5622 397.326 53.4022 396.33 53.9933C395.335 54.5844 394.199 54.88 392.923 54.88ZM392.923 52.5933C394.168 52.5933 395.156 52.1422 395.887 51.24C396.633 50.3222 397.007 49.1089 397.007 47.6C397.007 46.0755 396.633 44.8622 395.887 43.96C395.156 43.0578 394.168 42.6066 392.923 42.6066C391.695 42.6066 390.707 43.0578 389.96 43.96C389.213 44.8622 388.84 46.0755 388.84 47.6C388.84 49.1089 389.213 50.3222 389.96 51.24C390.707 52.1422 391.695 52.5933 392.923 52.5933ZM402.973 54.6V40.6H405.469V42.8633H405.563C405.967 42.0544 406.535 41.4322 407.266 40.9966C407.997 40.5611 408.861 40.3433 409.856 40.3433C410.867 40.3433 411.762 40.5922 412.539 41.09C413.317 41.5722 413.924 42.2411 414.359 43.0966C414.795 43.9522 415.013 44.9322 415.013 46.0366V54.6H412.493V46.48C412.493 45.2822 412.182 44.3411 411.559 43.6566C410.953 42.9722 410.097 42.63 408.993 42.63C407.888 42.63 407.025 42.9722 406.403 43.6566C405.796 44.3411 405.493 45.2822 405.493 46.48V54.6H402.973ZM420.164 54.88C419.65 54.88 419.215 54.7011 418.857 54.3433C418.499 53.9855 418.32 53.55 418.32 53.0366C418.32 52.5233 418.499 52.0878 418.857 51.73C419.215 51.3722 419.65 51.1933 420.164 51.1933C420.677 51.1933 421.113 51.3722 421.47 51.73C421.828 52.0878 422.007 52.5233 422.007 53.0366C422.007 53.55 421.828 53.9855 421.47 54.3433C421.113 54.7011 420.677 54.88 420.164 54.88ZM5.27329 89.6L0.419956 70.7H3.14996L6.69662 86.03H6.78996L10.8966 70.7H13.4633L17.78 86.03H17.8733L21.3966 70.7H24.1266L19.2733 89.6H16.52L12.2033 74.1066H12.11L8.02662 89.6H5.27329ZM27.0783 89.6V70H29.5983V77.6533H29.6916C30.0961 76.9378 30.6638 76.37 31.395 75.95C32.1261 75.53 32.9816 75.32 33.9616 75.32C34.9727 75.32 35.8672 75.5611 36.645 76.0433C37.4227 76.5255 38.0294 77.1944 38.465 78.05C38.9005 78.9055 39.1183 79.9011 39.1183 81.0366V89.6H36.5983V81.41C36.5983 80.1966 36.2872 79.2555 35.665 78.5866C35.0583 77.9178 34.2027 77.5833 33.0983 77.5833C31.9938 77.5833 31.1305 77.9178 30.5083 78.5866C29.9016 79.2555 29.5983 80.1966 29.5983 81.41V89.6H27.0783ZM49.0525 89.88C47.7925 89.88 46.6647 89.5844 45.6691 88.9933C44.6736 88.3866 43.888 87.5389 43.3125 86.45C42.7525 85.3455 42.4725 84.0466 42.4725 82.5533C42.4725 81.0755 42.7525 79.8 43.3125 78.7266C43.8725 77.6378 44.6347 76.7978 45.5991 76.2066C46.5636 75.6155 47.668 75.32 48.9125 75.32C50.0791 75.32 51.1136 75.5844 52.0158 76.1133C52.9336 76.6422 53.6569 77.4044 54.1858 78.4C54.7147 79.3955 54.9791 80.57 54.9791 81.9233V83.0433H44.8991C44.9925 84.4589 45.4125 85.5866 46.1591 86.4266C46.9058 87.2666 47.8625 87.6866 49.0291 87.6866C49.8691 87.6866 50.5847 87.4766 51.1758 87.0566C51.7669 86.6366 52.1636 86.0611 52.3658 85.33H54.9325C54.7458 86.2789 54.3725 87.0955 53.8125 87.78C53.2525 88.4489 52.568 88.97 51.7591 89.3433C50.9502 89.7011 50.048 89.88 49.0525 89.88ZM45.0158 81.13H52.5291C52.4202 79.9789 52.0391 79.0844 51.3858 78.4466C50.7325 77.8089 49.9002 77.49 48.8891 77.49C47.8936 77.49 47.0536 77.8166 46.3691 78.47C45.6847 79.1078 45.2336 79.9944 45.0158 81.13ZM58.4416 89.6V75.6H60.9382V77.8633H61.0316C61.436 77.0544 62.0038 76.4322 62.7349 75.9966C63.466 75.5611 64.3293 75.3433 65.3249 75.3433C66.336 75.3433 67.2305 75.5922 68.0082 76.09C68.786 76.5722 69.3927 77.2411 69.8282 78.0966C70.2638 78.9522 70.4816 79.9322 70.4816 81.0366V89.6H67.9616V81.48C67.9616 80.2822 67.6505 79.3411 67.0282 78.6566C66.4216 77.9722 65.566 77.63 64.4616 77.63C63.3571 77.63 62.4938 77.9722 61.8716 78.6566C61.2649 79.3411 60.9616 80.2822 60.9616 81.48V89.6H58.4416ZM80.9637 95.2V93.1933H84.137L85.4204 89.67L79.5637 75.6H82.177L86.6337 86.5433H86.727L90.647 75.6H93.1904L87.917 89.6L86.6804 92.89C86.4004 93.6211 86.097 94.1889 85.7704 94.5933C85.4593 94.9978 84.9304 95.2 84.1837 95.2H80.9637ZM100.81 89.88C99.5502 89.88 98.4224 89.5844 97.4268 88.9933C96.4313 88.3866 95.6457 87.5389 95.0702 86.45C94.4946 85.3611 94.2068 84.0778 94.2068 82.6C94.2068 81.1066 94.4946 79.8155 95.0702 78.7266C95.6457 77.6378 96.4313 76.7978 97.4268 76.2066C98.4224 75.6155 99.5502 75.32 100.81 75.32C102.101 75.32 103.245 75.6155 104.24 76.2066C105.236 76.7978 106.013 77.6378 106.573 78.7266C107.133 79.8155 107.413 81.1066 107.413 82.6C107.413 84.0778 107.126 85.3689 106.55 86.4733C105.99 87.5622 105.212 88.4022 104.217 88.9933C103.221 89.5844 102.086 89.88 100.81 89.88ZM100.81 87.5933C102.055 87.5933 103.042 87.1422 103.773 86.24C104.52 85.3222 104.893 84.1089 104.893 82.6C104.893 81.0755 104.52 79.8622 103.773 78.96C103.042 78.0578 102.055 77.6066 100.81 77.6066C99.5813 77.6066 98.5935 78.0578 97.8468 78.96C97.1002 79.8622 96.7268 81.0755 96.7268 82.6C96.7268 84.1089 97.1002 85.3222 97.8468 86.24C98.5935 87.1422 99.5813 87.5933 100.81 87.5933ZM115.876 89.8566C114.865 89.8566 113.971 89.6233 113.193 89.1566C112.431 88.69 111.832 88.0366 111.396 87.1966C110.976 86.3566 110.766 85.3922 110.766 84.3033V75.6H113.286V83.7433C113.286 84.9411 113.582 85.8822 114.173 86.5666C114.764 87.2355 115.588 87.57 116.646 87.57C117.751 87.57 118.63 87.22 119.283 86.52C119.952 85.8044 120.286 84.8711 120.286 83.72V75.6H122.806V89.6H120.31V87.1733H120.216C119.827 88.0444 119.26 88.7133 118.513 89.18C117.766 89.6311 116.887 89.8566 115.876 89.8566ZM137.395 89.6L131.982 75.6H134.595L138.818 86.9166H138.912L143.088 75.6H145.608L140.195 89.6H137.395ZM147.953 89.6V75.6H150.473V89.6H147.953ZM149.213 73.6866C148.777 73.6866 148.404 73.5311 148.093 73.22C147.782 72.9089 147.626 72.5355 147.626 72.1C147.626 71.6644 147.782 71.2911 148.093 70.98C148.404 70.6689 148.777 70.5133 149.213 70.5133C149.649 70.5133 150.022 70.6689 150.333 70.98C150.644 71.2911 150.8 71.6644 150.8 72.1C150.8 72.5355 150.644 72.9089 150.333 73.22C150.022 73.5311 149.649 73.6866 149.213 73.6866ZM159.608 89.88C157.928 89.88 156.559 89.4678 155.501 88.6433C154.459 87.8033 153.891 86.6833 153.798 85.2833H156.271C156.38 86.0922 156.73 86.7144 157.321 87.15C157.912 87.57 158.705 87.78 159.701 87.78C160.619 87.78 161.319 87.6011 161.801 87.2433C162.283 86.8855 162.524 86.38 162.524 85.7266C162.524 84.7 161.817 84.0389 160.401 83.7433L158.091 83.23C155.571 82.7011 154.311 81.4566 154.311 79.4966C154.311 78.2522 154.778 77.2489 155.711 76.4866C156.644 75.7089 157.865 75.32 159.374 75.32C160.868 75.32 162.097 75.7166 163.061 76.51C164.041 77.2878 164.593 78.3455 164.718 79.6833H162.291C162.135 78.9522 161.793 78.3922 161.264 78.0033C160.751 77.5989 160.082 77.3966 159.258 77.3966C158.464 77.3966 157.834 77.5678 157.368 77.91C156.901 78.2522 156.668 78.7189 156.668 79.31C156.668 79.7766 156.831 80.1578 157.158 80.4533C157.484 80.7333 158.005 80.9511 158.721 81.1066L161.054 81.5966C162.33 81.8766 163.279 82.3433 163.901 82.9966C164.539 83.6344 164.858 84.4744 164.858 85.5166C164.858 86.8544 164.391 87.92 163.458 88.7133C162.524 89.4911 161.241 89.88 159.608 89.88ZM168.133 89.6V75.6H170.653V89.6H168.133ZM169.393 73.6866C168.957 73.6866 168.584 73.5311 168.273 73.22C167.962 72.9089 167.806 72.5355 167.806 72.1C167.806 71.6644 167.962 71.2911 168.273 70.98C168.584 70.6689 168.957 70.5133 169.393 70.5133C169.828 70.5133 170.202 70.6689 170.513 70.98C170.824 71.2911 170.979 71.6644 170.979 72.1C170.979 72.5355 170.824 72.9089 170.513 73.22C170.202 73.5311 169.828 73.6866 169.393 73.6866ZM177.944 89.6C177.228 89.6 176.668 89.4133 176.264 89.04C175.86 88.6511 175.657 88.0755 175.657 87.3133V77.6066H173.277V75.6H175.681V71.4H178.154V75.6H181.491V77.6066H178.177V87.5933H181.817V89.6H177.944ZM195.031 89.8566C193.646 89.8566 192.519 89.4678 191.648 88.69C190.792 87.8966 190.364 86.8778 190.364 85.6333C190.364 84.3111 190.792 83.2844 191.648 82.5533C192.519 81.8066 193.748 81.4333 195.334 81.4333H199.418V80.7333C199.418 79.7066 199.138 78.9133 198.578 78.3533C198.033 77.7778 197.263 77.49 196.268 77.49C195.443 77.49 194.759 77.6844 194.214 78.0733C193.685 78.4466 193.335 78.9833 193.164 79.6833H190.598C190.831 78.33 191.461 77.2644 192.488 76.4866C193.514 75.7089 194.79 75.32 196.314 75.32C198.041 75.32 199.386 75.7866 200.351 76.72C201.331 77.6533 201.821 78.9678 201.821 80.6633V89.6H199.441V87.1733H199.348C198.99 87.9978 198.422 88.6511 197.644 89.1333C196.866 89.6155 195.995 89.8566 195.031 89.8566ZM195.544 87.7566C196.275 87.7566 196.929 87.5855 197.504 87.2433C198.095 86.9011 198.562 86.4422 198.904 85.8666C199.246 85.2755 199.418 84.6222 199.418 83.9066V83.3466H195.498C194.595 83.3466 193.903 83.5411 193.421 83.93C192.954 84.3033 192.721 84.8322 192.721 85.5166C192.721 86.2011 192.978 86.7455 193.491 87.15C194.004 87.5544 194.689 87.7566 195.544 87.7566ZM215.189 89.6L211.176 75.6H213.742L216.682 86.4966H216.776L220.206 75.6H222.819L226.249 86.4966H226.342L229.282 75.6H231.802L227.789 89.6H224.989L221.536 78.68H221.442L217.989 89.6H215.189ZM239.666 89.88C238.406 89.88 237.278 89.5844 236.282 88.9933C235.287 88.3866 234.501 87.5389 233.926 86.45C233.366 85.3455 233.086 84.0466 233.086 82.5533C233.086 81.0755 233.366 79.8 233.926 78.7266C234.486 77.6378 235.248 76.7978 236.212 76.2066C237.177 75.6155 238.281 75.32 239.526 75.32C240.692 75.32 241.727 75.5844 242.629 76.1133C243.547 76.6422 244.27 77.4044 244.799 78.4C245.328 79.3955 245.592 80.57 245.592 81.9233V83.0433H235.512C235.606 84.4589 236.026 85.5866 236.772 86.4266C237.519 87.2666 238.476 87.6866 239.642 87.6866C240.482 87.6866 241.198 87.4766 241.789 87.0566C242.38 86.6366 242.777 86.0611 242.979 85.33H245.546C245.359 86.2789 244.986 87.0955 244.426 87.78C243.866 88.4489 243.181 88.97 242.372 89.3433C241.564 89.7011 240.661 89.88 239.666 89.88ZM235.629 81.13H243.142C243.034 79.9789 242.652 79.0844 241.999 78.4466C241.346 77.8089 240.514 77.49 239.502 77.49C238.507 77.49 237.667 77.8166 236.982 78.47C236.298 79.1078 235.847 79.9944 235.629 81.13ZM255.938 89.88C253.885 89.88 252.454 89.0244 251.645 87.3133H251.552V89.6H249.055V70H251.575V77.8633H251.668C252.462 76.1678 253.885 75.32 255.938 75.32C257.105 75.32 258.124 75.6233 258.995 76.23C259.866 76.8366 260.543 77.6844 261.025 78.7733C261.507 79.8622 261.748 81.1378 261.748 82.6C261.748 84.0466 261.507 85.3222 261.025 86.4266C260.543 87.5155 259.866 88.3633 258.995 88.97C258.124 89.5766 257.105 89.88 255.938 89.88ZM255.262 87.64C256.475 87.64 257.439 87.1811 258.155 86.2633C258.87 85.3455 259.228 84.1244 259.228 82.6C259.228 81.0755 258.87 79.8544 258.155 78.9366C257.439 78.0189 256.475 77.56 255.262 77.56C254.095 77.56 253.185 77.9333 252.532 78.68C251.894 79.4111 251.575 80.3755 251.575 81.5733V83.6266C251.575 84.8244 251.894 85.7966 252.532 86.5433C253.185 87.2744 254.095 87.64 255.262 87.64ZM270.022 89.88C268.342 89.88 266.973 89.4678 265.915 88.6433C264.873 87.8033 264.305 86.6833 264.212 85.2833H266.685C266.794 86.0922 267.144 86.7144 267.735 87.15C268.326 87.57 269.119 87.78 270.115 87.78C271.033 87.78 271.733 87.6011 272.215 87.2433C272.697 86.8855 272.938 86.38 272.938 85.7266C272.938 84.7 272.231 84.0389 270.815 83.7433L268.505 83.23C265.985 82.7011 264.725 81.4566 264.725 79.4966C264.725 78.2522 265.192 77.2489 266.125 76.4866C267.058 75.7089 268.279 75.32 269.788 75.32C271.282 75.32 272.511 75.7166 273.475 76.51C274.455 77.2878 275.007 78.3455 275.132 79.6833H272.705C272.549 78.9522 272.207 78.3922 271.678 78.0033C271.165 77.5989 270.496 77.3966 269.672 77.3966C268.878 77.3966 268.248 77.5678 267.782 77.91C267.315 78.2522 267.082 78.7189 267.082 79.31C267.082 79.7766 267.245 80.1578 267.572 80.4533C267.898 80.7333 268.419 80.9511 269.135 81.1066L271.468 81.5966C272.744 81.8766 273.693 82.3433 274.315 82.9966C274.953 83.6344 275.272 84.4744 275.272 85.5166C275.272 86.8544 274.805 87.92 273.872 88.7133C272.938 89.4911 271.655 89.88 270.022 89.88ZM278.547 89.6V75.6H281.067V89.6H278.547ZM279.807 73.6866C279.371 73.6866 278.998 73.5311 278.687 73.22C278.376 72.9089 278.22 72.5355 278.22 72.1C278.22 71.6644 278.376 71.2911 278.687 70.98C278.998 70.6689 279.371 70.5133 279.807 70.5133C280.242 70.5133 280.616 70.6689 280.927 70.98C281.238 71.2911 281.393 71.6644 281.393 72.1C281.393 72.5355 281.238 72.9089 280.927 73.22C280.616 73.5311 280.242 73.6866 279.807 73.6866ZM288.358 89.6C287.642 89.6 287.082 89.4133 286.678 89.04C286.274 88.6511 286.071 88.0755 286.071 87.3133V77.6066H283.691V75.6H286.095V71.4H288.568V75.6H291.905V77.6066H288.591V87.5933H292.231V89.6H288.358ZM300.697 89.88C299.437 89.88 298.309 89.5844 297.314 88.9933C296.318 88.3866 295.533 87.5389 294.957 86.45C294.397 85.3455 294.117 84.0466 294.117 82.5533C294.117 81.0755 294.397 79.8 294.957 78.7266C295.517 77.6378 296.279 76.7978 297.244 76.2066C298.208 75.6155 299.313 75.32 300.557 75.32C301.724 75.32 302.758 75.5844 303.66 76.1133C304.578 76.6422 305.301 77.4044 305.83 78.4C306.359 79.3955 306.624 80.57 306.624 81.9233V83.0433H296.544C296.637 84.4589 297.057 85.5866 297.804 86.4266C298.55 87.2666 299.507 87.6866 300.674 87.6866C301.514 87.6866 302.229 87.4766 302.82 87.0566C303.411 86.6366 303.808 86.0611 304.01 85.33H306.577C306.39 86.2789 306.017 87.0955 305.457 87.78C304.897 88.4489 304.213 88.97 303.404 89.3433C302.595 89.7011 301.693 89.88 300.697 89.88ZM296.66 81.13H304.174C304.065 79.9789 303.684 79.0844 303.03 78.4466C302.377 77.8089 301.545 77.49 300.534 77.49C299.538 77.49 298.698 77.8166 298.014 78.47C297.329 79.1078 296.878 79.9944 296.66 81.13ZM308.779 93.38V91.7933H309.666C310.086 91.7933 310.397 91.6844 310.599 91.4666C310.817 91.2489 310.926 90.9378 310.926 90.5333V89.6H309.503V86.4733H312.676V90.5566C312.676 91.4433 312.435 92.1355 311.953 92.6333C311.471 93.1311 310.771 93.38 309.853 93.38H308.779ZM322.682 95.2V93.1933H325.856L327.139 89.67L321.282 75.6H323.896L328.352 86.5433H328.446L332.366 75.6H334.909L329.636 89.6L328.399 92.89C328.119 93.6211 327.816 94.1889 327.489 94.5933C327.178 94.9978 326.649 95.2 325.902 95.2H322.682ZM342.529 89.88C341.269 89.88 340.141 89.5844 339.146 88.9933C338.15 88.3866 337.364 87.5389 336.789 86.45C336.213 85.3611 335.926 84.0778 335.926 82.6C335.926 81.1066 336.213 79.8155 336.789 78.7266C337.364 77.6378 338.15 76.7978 339.146 76.2066C340.141 75.6155 341.269 75.32 342.529 75.32C343.82 75.32 344.963 75.6155 345.959 76.2066C346.954 76.7978 347.732 77.6378 348.292 78.7266C348.852 79.8155 349.132 81.1066 349.132 82.6C349.132 84.0778 348.844 85.3689 348.269 86.4733C347.709 87.5622 346.931 88.4022 345.936 88.9933C344.94 89.5844 343.804 89.88 342.529 89.88ZM342.529 87.5933C343.773 87.5933 344.761 87.1422 345.492 86.24C346.239 85.3222 346.612 84.1089 346.612 82.6C346.612 81.0755 346.239 79.8622 345.492 78.96C344.761 78.0578 343.773 77.6066 342.529 77.6066C341.3 77.6066 340.312 78.0578 339.566 78.96C338.819 79.8622 338.446 81.0755 338.446 82.6C338.446 84.1089 338.819 85.3222 339.566 86.24C340.312 87.1422 341.3 87.5933 342.529 87.5933ZM357.595 89.8566C356.584 89.8566 355.689 89.6233 354.912 89.1566C354.149 88.69 353.551 88.0366 353.115 87.1966C352.695 86.3566 352.485 85.3922 352.485 84.3033V75.6H355.005V83.7433C355.005 84.9411 355.301 85.8822 355.892 86.5666C356.483 87.2355 357.307 87.57 358.365 87.57C359.469 87.57 360.348 87.22 361.002 86.52C361.671 85.8044 362.005 84.8711 362.005 83.72V75.6H364.525V89.6H362.028V87.1733H361.935C361.546 88.0444 360.978 88.7133 360.232 89.18C359.485 89.6311 358.606 89.8566 357.595 89.8566ZM369.022 89.6V75.6H371.426V78.4H371.519C371.83 77.5289 372.336 76.8289 373.036 76.3C373.751 75.7555 374.622 75.4833 375.649 75.4833H376.676V77.7233H375.509C374.218 77.7233 373.23 78.1355 372.546 78.96C371.877 79.7844 371.542 80.8966 371.542 82.2966V89.6H369.022ZM392.252 89.88C391.007 89.88 389.887 89.5844 388.892 88.9933C387.912 88.3866 387.134 87.5389 386.559 86.45C385.999 85.3611 385.719 84.0778 385.719 82.6C385.719 81.1066 385.999 79.8155 386.559 78.7266C387.134 77.6378 387.912 76.7978 388.892 76.2066C389.887 75.6155 391.007 75.32 392.252 75.32C393.232 75.32 394.126 75.5066 394.935 75.88C395.76 76.2378 396.452 76.7822 397.012 77.5133C397.587 78.2289 397.984 79.1389 398.202 80.2433H395.589C395.371 79.3255 394.959 78.6566 394.352 78.2366C393.761 77.8166 393.061 77.6066 392.252 77.6066C391.054 77.6066 390.082 78.0578 389.335 78.96C388.604 79.8622 388.239 81.0755 388.239 82.6C388.239 84.1089 388.604 85.3222 389.335 86.24C390.082 87.1422 391.054 87.5933 392.252 87.5933C393.107 87.5933 393.839 87.3678 394.445 86.9166C395.067 86.4655 395.495 85.7344 395.729 84.7233H398.272C398.07 85.8744 397.681 86.8311 397.105 87.5933C396.53 88.3555 395.83 88.9311 395.005 89.32C394.181 89.6933 393.263 89.88 392.252 89.88ZM406.841 89.88C405.581 89.88 404.454 89.5844 403.458 88.9933C402.463 88.3866 401.677 87.5389 401.101 86.45C400.526 85.3611 400.238 84.0778 400.238 82.6C400.238 81.1066 400.526 79.8155 401.101 78.7266C401.677 77.6378 402.463 76.7978 403.458 76.2066C404.454 75.6155 405.581 75.32 406.841 75.32C408.133 75.32 409.276 75.6155 410.271 76.2066C411.267 76.7978 412.045 77.6378 412.605 78.7266C413.165 79.8155 413.445 81.1066 413.445 82.6C413.445 84.0778 413.157 85.3689 412.581 86.4733C412.021 87.5622 411.244 88.4022 410.248 88.9933C409.253 89.5844 408.117 89.88 406.841 89.88ZM406.841 87.5933C408.086 87.5933 409.074 87.1422 409.805 86.24C410.551 85.3222 410.925 84.1089 410.925 82.6C410.925 81.0755 410.551 79.8622 409.805 78.96C409.074 78.0578 408.086 77.6066 406.841 77.6066C405.613 77.6066 404.625 78.0578 403.878 78.96C403.131 79.8622 402.758 81.0755 402.758 82.6C402.758 84.1089 403.131 85.3222 403.878 86.24C404.625 87.1422 405.613 87.5933 406.841 87.5933ZM416.891 89.6V75.6H419.364V77.8633H419.457C419.815 77.0389 420.336 76.4166 421.021 75.9966C421.721 75.5611 422.537 75.3433 423.471 75.3433C424.42 75.3433 425.26 75.5766 425.991 76.0433C426.737 76.4944 427.305 77.1478 427.694 78.0033H427.764C428.231 77.1478 428.837 76.4944 429.584 76.0433C430.331 75.5766 431.194 75.3433 432.174 75.3433C433.17 75.3433 434.049 75.5766 434.811 76.0433C435.573 76.4944 436.156 77.14 436.561 77.98C436.981 78.82 437.191 79.8078 437.191 80.9433V89.6H434.671V81.3166C434.671 80.15 434.391 79.2478 433.831 78.61C433.271 77.9566 432.493 77.63 431.497 77.63C430.517 77.63 429.74 77.9566 429.164 78.61C428.589 79.2478 428.301 80.15 428.301 81.3166V89.6H425.781V81.3166C425.781 80.15 425.493 79.2478 424.917 78.61C424.357 77.9566 423.58 77.63 422.584 77.63C421.604 77.63 420.826 77.9566 420.251 78.61C419.691 79.2478 419.411 80.15 419.411 81.3166V89.6H416.891ZM441.336 95.2V75.6H443.833V77.8866H443.926C444.735 76.1755 446.166 75.32 448.219 75.32C449.386 75.32 450.405 75.6233 451.276 76.23C452.147 76.8366 452.824 77.6844 453.306 78.7733C453.788 79.8622 454.029 81.1378 454.029 82.6C454.029 84.0466 453.788 85.3222 453.306 86.4266C452.824 87.5155 452.147 88.3633 451.276 88.97C450.405 89.5766 449.386 89.88 448.219 89.88C446.166 89.88 444.743 89.0322 443.949 87.3366H443.856V95.2H441.336ZM447.543 87.64C448.756 87.64 449.721 87.1811 450.436 86.2633C451.152 85.3455 451.509 84.1244 451.509 82.6C451.509 81.0755 451.152 79.8544 450.436 78.9366C449.721 78.0189 448.756 77.56 447.543 77.56C446.376 77.56 445.466 77.9333 444.813 78.68C444.175 79.4111 443.856 80.3755 443.856 81.5733V83.6266C443.856 84.8244 444.175 85.7889 444.813 86.52C445.466 87.2355 446.376 87.6089 447.543 87.64ZM462.513 89.8566C461.502 89.8566 460.607 89.6233 459.83 89.1566C459.067 88.69 458.468 88.0366 458.033 87.1966C457.613 86.3566 457.403 85.3922 457.403 84.3033V75.6H459.923V83.7433C459.923 84.9411 460.218 85.8822 460.81 86.5666C461.401 87.2355 462.225 87.57 463.283 87.57C464.387 87.57 465.266 87.22 465.92 86.52C466.588 85.8044 466.923 84.8711 466.923 83.72V75.6H469.443V89.6H466.946V87.1733H466.853C466.464 88.0444 465.896 88.7133 465.15 89.18C464.403 89.6311 463.524 89.8566 462.513 89.8566ZM476.647 89.6C475.932 89.6 475.372 89.4133 474.967 89.04C474.563 88.6511 474.36 88.0755 474.36 87.3133V77.6066H471.98V75.6H474.384V71.4H476.857V75.6H480.194V77.6066H476.88V87.5933H480.52V89.6H476.647ZM488.986 89.88C487.726 89.88 486.598 89.5844 485.603 88.9933C484.607 88.3866 483.822 87.5389 483.246 86.45C482.686 85.3455 482.406 84.0466 482.406 82.5533C482.406 81.0755 482.686 79.8 483.246 78.7266C483.806 77.6378 484.568 76.7978 485.533 76.2066C486.497 75.6155 487.602 75.32 488.846 75.32C490.013 75.32 491.047 75.5844 491.949 76.1133C492.867 76.6422 493.59 77.4044 494.119 78.4C494.648 79.3955 494.913 80.57 494.913 81.9233V83.0433H484.833C484.926 84.4589 485.346 85.5866 486.093 86.4266C486.839 87.2666 487.796 87.6866 488.963 87.6866C489.803 87.6866 490.518 87.4766 491.109 87.0566C491.7 86.6366 492.097 86.0611 492.299 85.33H494.866C494.679 86.2789 494.306 87.0955 493.746 87.78C493.186 88.4489 492.502 88.97 491.693 89.3433C490.884 89.7011 489.982 89.88 488.986 89.88ZM484.949 81.13H492.463C492.354 79.9789 491.973 79.0844 491.319 78.4466C490.666 77.8089 489.834 77.49 488.823 77.49C487.827 77.49 486.987 77.8166 486.303 78.47C485.618 79.1078 485.167 79.9944 484.949 81.13ZM498.632 89.6V75.6H501.035V78.4H501.128C501.44 77.5289 501.945 76.8289 502.645 76.3C503.361 75.7555 504.232 75.4833 505.258 75.4833H506.285V77.7233H505.118C503.827 77.7233 502.84 78.1355 502.155 78.96C501.486 79.7844 501.152 80.8966 501.152 82.2966V89.6H498.632ZM520.928 89.88C519.248 89.88 517.879 89.4678 516.821 88.6433C515.779 87.8033 515.211 86.6833 515.118 85.2833H517.591C517.7 86.0922 518.05 86.7144 518.641 87.15C519.232 87.57 520.026 87.78 521.021 87.78C521.939 87.78 522.639 87.6011 523.121 87.2433C523.603 86.8855 523.845 86.38 523.845 85.7266C523.845 84.7 523.137 84.0389 521.721 83.7433L519.411 83.23C516.891 82.7011 515.631 81.4566 515.631 79.4966C515.631 78.2522 516.098 77.2489 517.031 76.4866C517.965 75.7089 519.186 75.32 520.695 75.32C522.188 75.32 523.417 75.7166 524.381 76.51C525.361 77.2878 525.913 78.3455 526.038 79.6833H523.611C523.456 78.9522 523.113 78.3922 522.585 78.0033C522.071 77.5989 521.402 77.3966 520.578 77.3966C519.785 77.3966 519.155 77.5678 518.688 77.91C518.221 78.2522 517.988 78.7189 517.988 79.31C517.988 79.7766 518.151 80.1578 518.478 80.4533C518.805 80.7333 519.326 80.9511 520.041 81.1066L522.375 81.5966C523.65 81.8766 524.599 82.3433 525.221 82.9966C525.859 83.6344 526.178 84.4744 526.178 85.5166C526.178 86.8544 525.711 87.92 524.778 88.7133C523.845 89.4911 522.561 89.88 520.928 89.88ZM535.17 89.88C533.91 89.88 532.782 89.5844 531.786 88.9933C530.791 88.3866 530.005 87.5389 529.43 86.45C528.87 85.3455 528.59 84.0466 528.59 82.5533C528.59 81.0755 528.87 79.8 529.43 78.7266C529.99 77.6378 530.752 76.7978 531.716 76.2066C532.681 75.6155 533.785 75.32 535.03 75.32C536.196 75.32 537.231 75.5844 538.133 76.1133C539.051 76.6422 539.774 77.4044 540.303 78.4C540.832 79.3955 541.096 80.57 541.096 81.9233V83.0433H531.016C531.11 84.4589 531.53 85.5866 532.276 86.4266C533.023 87.2666 533.98 87.6866 535.146 87.6866C535.986 87.6866 536.702 87.4766 537.293 87.0566C537.884 86.6366 538.281 86.0611 538.483 85.33H541.05C540.863 86.2789 540.49 87.0955 539.93 87.78C539.37 88.4489 538.685 88.97 537.876 89.3433C537.067 89.7011 536.165 89.88 535.17 89.88ZM531.133 81.13H538.646C538.537 79.9789 538.156 79.0844 537.503 78.4466C536.85 77.8089 536.017 77.49 535.006 77.49C534.011 77.49 533.171 77.8166 532.486 78.47C531.802 79.1078 531.351 79.9944 531.133 81.13ZM544.559 89.6V75.6H547.055V77.8633H547.149C547.553 77.0544 548.121 76.4322 548.852 75.9966C549.583 75.5611 550.447 75.3433 551.442 75.3433C552.453 75.3433 553.348 75.5922 554.125 76.09C554.903 76.5722 555.51 77.2411 555.945 78.0966C556.381 78.9522 556.599 79.9322 556.599 81.0366V89.6H554.079V81.48C554.079 80.2822 553.768 79.3411 553.145 78.6566C552.539 77.9722 551.683 77.63 550.579 77.63C549.474 77.63 548.611 77.9722 547.989 78.6566C547.382 79.3411 547.079 80.2822 547.079 81.48V89.6H544.559ZM565.763 89.88C564.596 89.88 563.577 89.5766 562.706 88.97C561.835 88.3633 561.158 87.5155 560.676 86.4266C560.194 85.3222 559.953 84.0466 559.953 82.6C559.953 81.1378 560.194 79.8622 560.676 78.7733C561.158 77.6844 561.835 76.8366 562.706 76.23C563.577 75.6233 564.596 75.32 565.763 75.32C567.816 75.32 569.24 76.1678 570.033 77.8633H570.126V70H572.646V89.6H570.15V87.3133H570.056C569.247 89.0244 567.816 89.88 565.763 89.88ZM566.44 87.64C567.606 87.64 568.508 87.2744 569.146 86.5433C569.8 85.7966 570.126 84.8244 570.126 83.6266V81.5733C570.126 80.3755 569.8 79.4111 569.146 78.68C568.508 77.9333 567.606 77.56 566.44 77.56C565.242 77.56 564.277 78.0189 563.546 78.9366C562.831 79.8544 562.473 81.0755 562.473 82.6C562.473 84.1244 562.831 85.3455 563.546 86.2633C564.277 87.1811 565.242 87.64 566.44 87.64ZM581.713 89.88C580.033 89.88 578.664 89.4678 577.606 88.6433C576.564 87.8033 575.996 86.6833 575.903 85.2833H578.376C578.485 86.0922 578.835 86.7144 579.426 87.15C580.018 87.57 580.811 87.78 581.806 87.78C582.724 87.78 583.424 87.6011 583.906 87.2433C584.389 86.8855 584.63 86.38 584.63 85.7266C584.63 84.7 583.922 84.0389 582.506 83.7433L580.196 83.23C577.676 82.7011 576.416 81.4566 576.416 79.4966C576.416 78.2522 576.883 77.2489 577.816 76.4866C578.75 75.7089 579.971 75.32 581.48 75.32C582.973 75.32 584.202 75.7166 585.166 76.51C586.146 77.2878 586.699 78.3455 586.823 79.6833H584.396C584.241 78.9522 583.899 78.3922 583.37 78.0033C582.856 77.5989 582.188 77.3966 581.363 77.3966C580.57 77.3966 579.94 77.5678 579.473 77.91C579.006 78.2522 578.773 78.7189 578.773 79.31C578.773 79.7766 578.936 80.1578 579.263 80.4533C579.59 80.7333 580.111 80.9511 580.826 81.1066L583.16 81.5966C584.435 81.8766 585.384 82.3433 586.006 82.9966C586.644 83.6344 586.963 84.4744 586.963 85.5166C586.963 86.8544 586.496 87.92 585.563 88.7133C584.63 89.4911 583.346 89.88 581.713 89.88ZM600.703 89.8566C599.318 89.8566 598.191 89.4678 597.319 88.69C596.464 87.8966 596.036 86.8778 596.036 85.6333C596.036 84.3111 596.464 83.2844 597.319 82.5533C598.191 81.8066 599.419 81.4333 601.006 81.4333H605.089V80.7333C605.089 79.7066 604.809 78.9133 604.249 78.3533C603.705 77.7778 602.935 77.49 601.939 77.49C601.115 77.49 600.431 77.6844 599.886 78.0733C599.357 78.4466 599.007 78.9833 598.836 79.6833H596.269C596.503 78.33 597.133 77.2644 598.159 76.4866C599.186 75.7089 600.462 75.32 601.986 75.32C603.713 75.32 605.058 75.7866 606.023 76.72C607.003 77.6533 607.493 78.9678 607.493 80.6633V89.6H605.113V87.1733H605.019C604.662 87.9978 604.094 88.6511 603.316 89.1333C602.538 89.6155 601.667 89.8566 600.703 89.8566ZM601.216 87.7566C601.947 87.7566 602.601 87.5855 603.176 87.2433C603.767 86.9011 604.234 86.4422 604.576 85.8666C604.918 85.2755 605.089 84.6222 605.089 83.9066V83.3466H601.169C600.267 83.3466 599.575 83.5411 599.093 83.93C598.626 84.3033 598.393 84.8322 598.393 85.5166C598.393 86.2011 598.649 86.7455 599.163 87.15C599.676 87.5544 600.361 87.7566 601.216 87.7566ZM618.808 89.6V75.6H621.211V78.4H621.304C621.615 77.5289 622.121 76.8289 622.821 76.3C623.537 75.7555 624.408 75.4833 625.434 75.4833H626.461V77.7233H625.294C624.003 77.7233 623.015 78.1355 622.331 78.96C621.662 79.7844 621.328 80.8966 621.328 82.2966V89.6H618.808ZM634.455 89.88C633.195 89.88 632.067 89.5844 631.071 88.9933C630.076 88.3866 629.29 87.5389 628.715 86.45C628.155 85.3455 627.875 84.0466 627.875 82.5533C627.875 81.0755 628.155 79.8 628.715 78.7266C629.275 77.6378 630.037 76.7978 631.001 76.2066C631.966 75.6155 633.07 75.32 634.315 75.32C635.481 75.32 636.516 75.5844 637.418 76.1133C638.336 76.6422 639.059 77.4044 639.588 78.4C640.117 79.3955 640.381 80.57 640.381 81.9233V83.0433H630.301C630.395 84.4589 630.815 85.5866 631.561 86.4266C632.308 87.2666 633.265 87.6866 634.431 87.6866C635.271 87.6866 635.987 87.4766 636.578 87.0566C637.169 86.6366 637.566 86.0611 637.768 85.33H640.335C640.148 86.2789 639.775 87.0955 639.215 87.78C638.655 88.4489 637.97 88.97 637.161 89.3433C636.353 89.7011 635.45 89.88 634.455 89.88ZM630.418 81.13H637.931C637.823 79.9789 637.441 79.0844 636.788 78.4466C636.135 77.8089 635.303 77.49 634.291 77.49C633.296 77.49 632.456 77.8166 631.771 78.47C631.087 79.1078 630.636 79.9944 630.418 81.13ZM653.224 95.2V87.3366H653.131C652.337 89.0322 650.914 89.88 648.861 89.88C647.694 89.88 646.675 89.5766 645.804 88.97C644.933 88.3633 644.256 87.5155 643.774 86.4266C643.292 85.3222 643.051 84.0466 643.051 82.6C643.051 81.1378 643.292 79.8622 643.774 78.7733C644.256 77.6844 644.933 76.8366 645.804 76.23C646.675 75.6233 647.694 75.32 648.861 75.32C650.914 75.32 652.345 76.1755 653.154 77.8866H653.247V75.6H655.744V95.2H653.224ZM649.537 87.64C650.704 87.6089 651.606 87.2355 652.244 86.52C652.897 85.7889 653.224 84.8244 653.224 83.6266V81.5733C653.224 80.3755 652.897 79.4111 652.244 78.68C651.606 77.9333 650.704 77.56 649.537 77.56C648.339 77.56 647.375 78.0189 646.644 78.9366C645.928 79.8544 645.571 81.0755 645.571 82.6C645.571 84.1244 645.928 85.3455 646.644 86.2633C647.375 87.1811 648.339 87.64 649.537 87.64ZM665.021 89.8566C664.01 89.8566 663.115 89.6233 662.337 89.1566C661.575 88.69 660.976 88.0366 660.541 87.1966C660.121 86.3566 659.911 85.3922 659.911 84.3033V75.6H662.431V83.7433C662.431 84.9411 662.726 85.8822 663.317 86.5666C663.909 87.2355 664.733 87.57 665.791 87.57C666.895 87.57 667.774 87.22 668.427 86.52C669.096 85.8044 669.431 84.8711 669.431 83.72V75.6H671.951V89.6H669.454V87.1733H669.361C668.972 88.0444 668.404 88.7133 667.657 89.18C666.911 89.6311 666.032 89.8566 665.021 89.8566ZM681.978 89.88C680.718 89.88 679.59 89.5844 678.595 88.9933C677.599 88.3866 676.814 87.5389 676.238 86.45C675.678 85.3455 675.398 84.0466 675.398 82.5533C675.398 81.0755 675.678 79.8 676.238 78.7266C676.798 77.6378 677.56 76.7978 678.525 76.2066C679.489 75.6155 680.594 75.32 681.838 75.32C683.005 75.32 684.039 75.5844 684.942 76.1133C685.859 76.6422 686.583 77.4044 687.112 78.4C687.64 79.3955 687.905 80.57 687.905 81.9233V83.0433H677.825C677.918 84.4589 678.338 85.5866 679.085 86.4266C679.832 87.2666 680.788 87.6866 681.955 87.6866C682.795 87.6866 683.51 87.4766 684.102 87.0566C684.693 86.6366 685.089 86.0611 685.292 85.33H687.858C687.672 86.2789 687.298 87.0955 686.738 87.78C686.178 88.4489 685.494 88.97 684.685 89.3433C683.876 89.7011 682.974 89.88 681.978 89.88ZM677.942 81.13H685.455C685.346 79.9789 684.965 79.0844 684.312 78.4466C683.658 77.8089 682.826 77.49 681.815 77.49C680.819 77.49 679.979 77.8166 679.295 78.47C678.61 79.1078 678.159 79.9944 677.942 81.13ZM696.174 89.88C694.494 89.88 693.125 89.4678 692.067 88.6433C691.025 87.8033 690.457 86.6833 690.364 85.2833H692.837C692.946 86.0922 693.296 86.7144 693.887 87.15C694.478 87.57 695.272 87.78 696.267 87.78C697.185 87.78 697.885 87.6011 698.367 87.2433C698.85 86.8855 699.091 86.38 699.091 85.7266C699.091 84.7 698.383 84.0389 696.967 83.7433L694.657 83.23C692.137 82.7011 690.877 81.4566 690.877 79.4966C690.877 78.2522 691.344 77.2489 692.277 76.4866C693.211 75.7089 694.432 75.32 695.941 75.32C697.434 75.32 698.663 75.7166 699.627 76.51C700.607 77.2878 701.16 78.3455 701.284 79.6833H698.857C698.702 78.9522 698.36 78.3922 697.831 78.0033C697.317 77.5989 696.648 77.3966 695.824 77.3966C695.031 77.3966 694.401 77.5678 693.934 77.91C693.467 78.2522 693.234 78.7189 693.234 79.31C693.234 79.7766 693.397 80.1578 693.724 80.4533C694.051 80.7333 694.572 80.9511 695.287 81.1066L697.621 81.5966C698.896 81.8766 699.845 82.3433 700.467 82.9966C701.105 83.6344 701.424 84.4744 701.424 85.5166C701.424 86.8544 700.957 87.92 700.024 88.7133C699.091 89.4911 697.807 89.88 696.174 89.88ZM707.592 89.6C706.877 89.6 706.317 89.4133 705.912 89.04C705.508 88.6511 705.306 88.0755 705.306 87.3133V77.6066H702.926V75.6H705.329V71.4H707.802V75.6H711.139V77.6066H707.826V87.5933H711.466V89.6H707.592ZM4.66662 124.6C3.95107 124.6 3.39107 124.413 2.98662 124.04C2.58218 123.651 2.37996 123.076 2.37996 122.313V112.607H-4.39286e-05V110.6H2.40329V106.4H4.87662V110.6H8.21329V112.607H4.89996V122.593H8.53996V124.6H4.66662ZM17.0289 124.88C15.7689 124.88 14.6411 124.584 13.6456 123.993C12.65 123.387 11.8645 122.539 11.2889 121.45C10.7134 120.361 10.4256 119.078 10.4256 117.6C10.4256 116.107 10.7134 114.816 11.2889 113.727C11.8645 112.638 12.65 111.798 13.6456 111.207C14.6411 110.616 15.7689 110.32 17.0289 110.32C18.32 110.32 19.4634 110.616 20.4589 111.207C21.4545 111.798 22.2322 112.638 22.7922 113.727C23.3522 114.816 23.6322 116.107 23.6322 117.6C23.6322 119.078 23.3445 120.369 22.7689 121.473C22.2089 122.562 21.4311 123.402 20.4356 123.993C19.44 124.584 18.3045 124.88 17.0289 124.88ZM17.0289 122.593C18.2734 122.593 19.2611 122.142 19.9922 121.24C20.7389 120.322 21.1122 119.109 21.1122 117.6C21.1122 116.076 20.7389 114.862 19.9922 113.96C19.2611 113.058 18.2734 112.607 17.0289 112.607C15.8 112.607 14.8122 113.058 14.0656 113.96C13.3189 114.862 12.9456 116.076 12.9456 117.6C12.9456 119.109 13.3189 120.322 14.0656 121.24C14.8122 122.142 15.8 122.593 17.0289 122.593ZM37.6129 124.857C36.2285 124.857 35.1007 124.468 34.2296 123.69C33.374 122.897 32.9463 121.878 32.9463 120.633C32.9463 119.311 33.374 118.284 34.2296 117.553C35.1007 116.807 36.3296 116.433 37.9163 116.433H41.9996V115.733C41.9996 114.707 41.7196 113.913 41.1596 113.353C40.6151 112.778 39.8451 112.49 38.8496 112.49C38.0251 112.49 37.3407 112.684 36.7963 113.073C36.2674 113.447 35.9174 113.983 35.7463 114.683H33.1796C33.4129 113.33 34.0429 112.264 35.0696 111.487C36.0963 110.709 37.3718 110.32 38.8963 110.32C40.6229 110.32 41.9685 110.787 42.9329 111.72C43.9129 112.653 44.4029 113.968 44.4029 115.663V124.6H42.0229V122.173H41.9296C41.5718 122.998 41.004 123.651 40.2263 124.133C39.4485 124.616 38.5774 124.857 37.6129 124.857ZM38.1263 122.757C38.8574 122.757 39.5107 122.586 40.0863 122.243C40.6774 121.901 41.144 121.442 41.4863 120.867C41.8285 120.276 41.9996 119.622 41.9996 118.907V118.347H38.0796C37.1774 118.347 36.4851 118.541 36.0029 118.93C35.5363 119.303 35.3029 119.832 35.3029 120.517C35.3029 121.201 35.5596 121.746 36.0729 122.15C36.5863 122.554 37.2707 122.757 38.1263 122.757ZM60.2678 124.88C58.5878 124.88 57.2189 124.468 56.1611 123.643C55.1189 122.803 54.5511 121.683 54.4578 120.283H56.9311C57.04 121.092 57.39 121.714 57.9811 122.15C58.5722 122.57 59.3655 122.78 60.3611 122.78C61.2789 122.78 61.9789 122.601 62.4611 122.243C62.9433 121.886 63.1844 121.38 63.1844 120.727C63.1844 119.7 62.4767 119.039 61.0611 118.743L58.7511 118.23C56.2311 117.701 54.9711 116.457 54.9711 114.497C54.9711 113.252 55.4378 112.249 56.3711 111.487C57.3044 110.709 58.5255 110.32 60.0344 110.32C61.5278 110.32 62.7567 110.717 63.7211 111.51C64.7011 112.288 65.2533 113.346 65.3778 114.683H62.9511C62.7955 113.952 62.4533 113.392 61.9244 113.003C61.4111 112.599 60.7422 112.397 59.9178 112.397C59.1244 112.397 58.4944 112.568 58.0278 112.91C57.5611 113.252 57.3278 113.719 57.3278 114.31C57.3278 114.777 57.4911 115.158 57.8178 115.453C58.1444 115.733 58.6655 115.951 59.3811 116.107L61.7144 116.597C62.99 116.877 63.9389 117.343 64.5611 117.997C65.1989 118.634 65.5178 119.474 65.5178 120.517C65.5178 121.854 65.0511 122.92 64.1178 123.713C63.1844 124.491 61.9011 124.88 60.2678 124.88ZM74.5095 124.88C73.2495 124.88 72.1217 124.584 71.1262 123.993C70.1306 123.387 69.345 122.539 68.7695 121.45C68.2095 120.346 67.9295 119.047 67.9295 117.553C67.9295 116.076 68.2095 114.8 68.7695 113.727C69.3295 112.638 70.0917 111.798 71.0562 111.207C72.0206 110.616 73.125 110.32 74.3695 110.32C75.5362 110.32 76.5706 110.584 77.4728 111.113C78.3906 111.642 79.1139 112.404 79.6428 113.4C80.1717 114.396 80.4362 115.57 80.4362 116.923V118.043H70.3562C70.4495 119.459 70.8695 120.587 71.6162 121.427C72.3628 122.267 73.3195 122.687 74.4862 122.687C75.3262 122.687 76.0417 122.477 76.6328 122.057C77.2239 121.637 77.6206 121.061 77.8228 120.33H80.3895C80.2028 121.279 79.8295 122.096 79.2695 122.78C78.7095 123.449 78.025 123.97 77.2162 124.343C76.4073 124.701 75.505 124.88 74.5095 124.88ZM70.4728 116.13H77.9862C77.8773 114.979 77.4962 114.084 76.8428 113.447C76.1895 112.809 75.3573 112.49 74.3462 112.49C73.3506 112.49 72.5106 112.817 71.8262 113.47C71.1417 114.108 70.6906 114.994 70.4728 116.13ZM84.1553 124.6V110.6H86.5586V113.4H86.6519C86.963 112.529 87.4686 111.829 88.1686 111.3C88.8842 110.756 89.7553 110.483 90.7819 110.483H91.8086V112.723H90.6419C89.3508 112.723 88.363 113.136 87.6786 113.96C87.0097 114.784 86.6753 115.897 86.6753 117.297V124.6H84.1553ZM98.1567 124.6L92.7434 110.6H95.3567L99.5801 121.917H99.6734L103.85 110.6H106.37L100.957 124.6H98.1567ZM113.967 124.88C112.707 124.88 111.579 124.584 110.583 123.993C109.588 123.387 108.802 122.539 108.227 121.45C107.667 120.346 107.387 119.047 107.387 117.553C107.387 116.076 107.667 114.8 108.227 113.727C108.787 112.638 109.549 111.798 110.513 111.207C111.478 110.616 112.582 110.32 113.827 110.32C114.993 110.32 116.028 110.584 116.93 111.113C117.848 111.642 118.571 112.404 119.1 113.4C119.629 114.396 119.893 115.57 119.893 116.923V118.043H109.813C109.907 119.459 110.327 120.587 111.073 121.427C111.82 122.267 112.777 122.687 113.943 122.687C114.783 122.687 115.499 122.477 116.09 122.057C116.681 121.637 117.078 121.061 117.28 120.33H119.847C119.66 121.279 119.287 122.096 118.727 122.78C118.167 123.449 117.482 123.97 116.673 124.343C115.864 124.701 114.962 124.88 113.967 124.88ZM109.93 116.13H117.443C117.334 114.979 116.953 114.084 116.3 113.447C115.647 112.809 114.814 112.49 113.803 112.49C112.808 112.49 111.968 112.817 111.283 113.47C110.599 114.108 110.148 114.994 109.93 116.13ZM123.612 124.6V110.6H126.016V113.4H126.109C126.42 112.529 126.926 111.829 127.626 111.3C128.341 110.756 129.212 110.483 130.239 110.483H131.266V112.723H130.099C128.808 112.723 127.82 113.136 127.136 113.96C126.467 114.784 126.132 115.897 126.132 117.297V124.6H123.612ZM131.018 128.38V126.793H131.904C132.324 126.793 132.635 126.684 132.838 126.467C133.055 126.249 133.164 125.938 133.164 125.533V124.6H131.741V121.473H134.914V125.557C134.914 126.443 134.673 127.136 134.191 127.633C133.709 128.131 133.009 128.38 132.091 128.38H131.018ZM149.121 124.857C147.736 124.857 146.609 124.468 145.737 123.69C144.882 122.897 144.454 121.878 144.454 120.633C144.454 119.311 144.882 118.284 145.737 117.553C146.609 116.807 147.837 116.433 149.424 116.433H153.507V115.733C153.507 114.707 153.227 113.913 152.667 113.353C152.123 112.778 151.353 112.49 150.357 112.49C149.533 112.49 148.849 112.684 148.304 113.073C147.775 113.447 147.425 113.983 147.254 114.683H144.687C144.921 113.33 145.551 112.264 146.577 111.487C147.604 110.709 148.88 110.32 150.404 110.32C152.131 110.32 153.476 110.787 154.441 111.72C155.421 112.653 155.911 113.968 155.911 115.663V124.6H153.531V122.173H153.437C153.08 122.998 152.512 123.651 151.734 124.133C150.956 124.616 150.085 124.857 149.121 124.857ZM149.634 122.757C150.365 122.757 151.019 122.586 151.594 122.243C152.185 121.901 152.652 121.442 152.994 120.867C153.336 120.276 153.507 119.622 153.507 118.907V118.347H149.587C148.685 118.347 147.993 118.541 147.511 118.93C147.044 119.303 146.811 119.832 146.811 120.517C146.811 121.201 147.067 121.746 147.581 122.15C148.094 122.554 148.779 122.757 149.634 122.757ZM160.051 124.6V110.6H162.548V112.863H162.641C163.045 112.054 163.613 111.432 164.344 110.997C165.075 110.561 165.939 110.343 166.934 110.343C167.945 110.343 168.84 110.592 169.618 111.09C170.395 111.572 171.002 112.241 171.438 113.097C171.873 113.952 172.091 114.932 172.091 116.037V124.6H169.571V116.48C169.571 115.282 169.26 114.341 168.638 113.657C168.031 112.972 167.175 112.63 166.071 112.63C164.967 112.63 164.103 112.972 163.481 113.657C162.874 114.341 162.571 115.282 162.571 116.48V124.6H160.051ZM181.255 124.88C180.088 124.88 179.07 124.577 178.198 123.97C177.327 123.363 176.651 122.516 176.168 121.427C175.686 120.322 175.445 119.047 175.445 117.6C175.445 116.138 175.686 114.862 176.168 113.773C176.651 112.684 177.327 111.837 178.198 111.23C179.07 110.623 180.088 110.32 181.255 110.32C183.308 110.32 184.732 111.168 185.525 112.863H185.618V105H188.138V124.6H185.642V122.313H185.548C184.74 124.024 183.308 124.88 181.255 124.88ZM181.932 122.64C183.098 122.64 184.001 122.274 184.638 121.543C185.292 120.797 185.618 119.824 185.618 118.627V116.573C185.618 115.376 185.292 114.411 184.638 113.68C184.001 112.933 183.098 112.56 181.932 112.56C180.734 112.56 179.77 113.019 179.038 113.937C178.323 114.854 177.965 116.076 177.965 117.6C177.965 119.124 178.323 120.346 179.038 121.263C179.77 122.181 180.734 122.64 181.932 122.64ZM202.28 124.6C201.564 124.6 201.004 124.413 200.6 124.04C200.195 123.651 199.993 123.076 199.993 122.313V112.607H197.613V110.6H200.017V106.4H202.49V110.6H205.827V112.607H202.513V122.593H206.153V124.6H202.28ZM208.832 124.6V105H211.352V112.653H211.446C211.85 111.938 212.418 111.37 213.149 110.95C213.88 110.53 214.736 110.32 215.716 110.32C216.727 110.32 217.621 110.561 218.399 111.043C219.177 111.526 219.783 112.194 220.219 113.05C220.654 113.906 220.872 114.901 220.872 116.037V124.6H218.352V116.41C218.352 115.197 218.041 114.256 217.419 113.587C216.812 112.918 215.957 112.583 214.852 112.583C213.748 112.583 212.884 112.918 212.262 113.587C211.656 114.256 211.352 115.197 211.352 116.41V124.6H208.832ZM230.806 124.88C229.546 124.88 228.419 124.584 227.423 123.993C226.427 123.387 225.642 122.539 225.066 121.45C224.506 120.346 224.226 119.047 224.226 117.553C224.226 116.076 224.506 114.8 225.066 113.727C225.626 112.638 226.389 111.798 227.353 111.207C228.317 110.616 229.422 110.32 230.666 110.32C231.833 110.32 232.867 110.584 233.77 111.113C234.687 111.642 235.411 112.404 235.94 113.4C236.469 114.396 236.733 115.57 236.733 116.923V118.043H226.653C226.746 119.459 227.166 120.587 227.913 121.427C228.66 122.267 229.616 122.687 230.783 122.687C231.623 122.687 232.339 122.477 232.93 122.057C233.521 121.637 233.917 121.061 234.12 120.33H236.686C236.5 121.279 236.126 122.096 235.566 122.78C235.006 123.449 234.322 123.97 233.513 124.343C232.704 124.701 231.802 124.88 230.806 124.88ZM226.77 116.13H234.283C234.174 114.979 233.793 114.084 233.14 113.447C232.486 112.809 231.654 112.49 230.643 112.49C229.647 112.49 228.807 112.817 228.123 113.47C227.439 114.108 226.987 114.994 226.77 116.13ZM251.92 124.88C250.24 124.88 248.871 124.468 247.813 123.643C246.771 122.803 246.203 121.683 246.11 120.283H248.583C248.692 121.092 249.042 121.714 249.633 122.15C250.225 122.57 251.018 122.78 252.013 122.78C252.931 122.78 253.631 122.601 254.113 122.243C254.596 121.886 254.837 121.38 254.837 120.727C254.837 119.7 254.129 119.039 252.713 118.743L250.403 118.23C247.883 117.701 246.623 116.457 246.623 114.497C246.623 113.252 247.09 112.249 248.023 111.487C248.957 110.709 250.178 110.32 251.687 110.32C253.18 110.32 254.409 110.717 255.373 111.51C256.353 112.288 256.906 113.346 257.03 114.683H254.603C254.448 113.952 254.106 113.392 253.577 113.003C253.063 112.599 252.395 112.397 251.57 112.397C250.777 112.397 250.147 112.568 249.68 112.91C249.213 113.252 248.98 113.719 248.98 114.31C248.98 114.777 249.143 115.158 249.47 115.453C249.797 115.733 250.318 115.951 251.033 116.107L253.367 116.597C254.642 116.877 255.591 117.343 256.213 117.997C256.851 118.634 257.17 119.474 257.17 120.517C257.17 121.854 256.703 122.92 255.77 123.713C254.837 124.491 253.553 124.88 251.92 124.88ZM266.162 124.88C264.902 124.88 263.774 124.584 262.778 123.993C261.783 123.387 260.997 122.539 260.422 121.45C259.862 120.346 259.582 119.047 259.582 117.553C259.582 116.076 259.862 114.8 260.422 113.727C260.982 112.638 261.744 111.798 262.708 111.207C263.673 110.616 264.777 110.32 266.022 110.32C267.188 110.32 268.223 110.584 269.125 111.113C270.043 111.642 270.766 112.404 271.295 113.4C271.824 114.396 272.088 115.57 272.088 116.923V118.043H262.008C262.102 119.459 262.522 120.587 263.268 121.427C264.015 122.267 264.972 122.687 266.138 122.687C266.978 122.687 267.694 122.477 268.285 122.057C268.876 121.637 269.273 121.061 269.475 120.33H272.042C271.855 121.279 271.482 122.096 270.922 122.78C270.362 123.449 269.677 123.97 268.868 124.343C268.06 124.701 267.157 124.88 266.162 124.88ZM262.125 116.13H269.638C269.53 114.979 269.148 114.084 268.495 113.447C267.842 112.809 267.01 112.49 265.998 112.49C265.003 112.49 264.163 112.817 263.478 113.47C262.794 114.108 262.343 114.994 262.125 116.13ZM275.808 124.6V110.6H278.211V113.4H278.304C278.615 112.529 279.121 111.829 279.821 111.3C280.537 110.756 281.408 110.483 282.434 110.483H283.461V112.723H282.294C281.003 112.723 280.015 113.136 279.331 113.96C278.662 114.784 278.328 115.897 278.328 117.297V124.6H275.808ZM289.809 124.6L284.396 110.6H287.009L291.232 121.917H291.326L295.502 110.6H298.022L292.609 124.6H289.809ZM305.619 124.88C304.359 124.88 303.231 124.584 302.236 123.993C301.24 123.387 300.454 122.539 299.879 121.45C299.319 120.346 299.039 119.047 299.039 117.553C299.039 116.076 299.319 114.8 299.879 113.727C300.439 112.638 301.201 111.798 302.166 111.207C303.13 110.616 304.234 110.32 305.479 110.32C306.646 110.32 307.68 110.584 308.582 111.113C309.5 111.642 310.223 112.404 310.752 113.4C311.281 114.396 311.546 115.57 311.546 116.923V118.043H301.466C301.559 119.459 301.979 120.587 302.726 121.427C303.472 122.267 304.429 122.687 305.596 122.687C306.436 122.687 307.151 122.477 307.742 122.057C308.333 121.637 308.73 121.061 308.932 120.33H311.499C311.312 121.279 310.939 122.096 310.379 122.78C309.819 123.449 309.134 123.97 308.326 124.343C307.517 124.701 306.614 124.88 305.619 124.88ZM301.582 116.13H309.096C308.987 114.979 308.606 114.084 307.952 113.447C307.299 112.809 306.467 112.49 305.456 112.49C304.46 112.49 303.62 112.817 302.936 113.47C302.251 114.108 301.8 114.994 301.582 116.13ZM315.265 124.6V110.6H317.668V113.4H317.761C318.072 112.529 318.578 111.829 319.278 111.3C319.994 110.756 320.865 110.483 321.891 110.483H322.918V112.723H321.751C320.46 112.723 319.472 113.136 318.788 113.96C318.119 114.784 317.785 115.897 317.785 117.297V124.6H315.265ZM337.561 124.88C335.881 124.88 334.512 124.468 333.454 123.643C332.412 122.803 331.844 121.683 331.751 120.283H334.224C334.333 121.092 334.683 121.714 335.274 122.15C335.865 122.57 336.659 122.78 337.654 122.78C338.572 122.78 339.272 122.601 339.754 122.243C340.236 121.886 340.477 121.38 340.477 120.727C340.477 119.7 339.77 119.039 338.354 118.743L336.044 118.23C333.524 117.701 332.264 116.457 332.264 114.497C332.264 113.252 332.731 112.249 333.664 111.487C334.597 110.709 335.819 110.32 337.327 110.32C338.821 110.32 340.05 110.717 341.014 111.51C341.994 112.288 342.546 113.346 342.671 114.683H340.244C340.089 113.952 339.746 113.392 339.217 113.003C338.704 112.599 338.035 112.397 337.211 112.397C336.417 112.397 335.787 112.568 335.321 112.91C334.854 113.252 334.621 113.719 334.621 114.31C334.621 114.777 334.784 115.158 335.111 115.453C335.437 115.733 335.959 115.951 336.674 116.107L339.007 116.597C340.283 116.877 341.232 117.343 341.854 117.997C342.492 118.634 342.811 119.474 342.811 120.517C342.811 121.854 342.344 122.92 341.411 123.713C340.477 124.491 339.194 124.88 337.561 124.88ZM351.802 124.88C350.542 124.88 349.415 124.584 348.419 123.993C347.424 123.387 346.638 122.539 346.062 121.45C345.502 120.346 345.222 119.047 345.222 117.553C345.222 116.076 345.502 114.8 346.062 113.727C346.622 112.638 347.385 111.798 348.349 111.207C349.314 110.616 350.418 110.32 351.662 110.32C352.829 110.32 353.864 110.584 354.766 111.113C355.684 111.642 356.407 112.404 356.936 113.4C357.465 114.396 357.729 115.57 357.729 116.923V118.043H347.649C347.742 119.459 348.162 120.587 348.909 121.427C349.656 122.267 350.612 122.687 351.779 122.687C352.619 122.687 353.335 122.477 353.926 122.057C354.517 121.637 354.914 121.061 355.116 120.33H357.682C357.496 121.279 357.122 122.096 356.562 122.78C356.002 123.449 355.318 123.97 354.509 124.343C353.7 124.701 352.798 124.88 351.802 124.88ZM347.766 116.13H355.279C355.17 114.979 354.789 114.084 354.136 113.447C353.482 112.809 352.65 112.49 351.639 112.49C350.644 112.49 349.804 112.817 349.119 113.47C348.435 114.108 347.984 114.994 347.766 116.13ZM361.192 124.6V110.6H363.688V112.863H363.782C364.186 112.054 364.754 111.432 365.485 110.997C366.216 110.561 367.079 110.343 368.075 110.343C369.086 110.343 369.98 110.592 370.758 111.09C371.536 111.572 372.143 112.241 372.578 113.097C373.014 113.952 373.232 114.932 373.232 116.037V124.6H370.712V116.48C370.712 115.282 370.4 114.341 369.778 113.657C369.172 112.972 368.316 112.63 367.212 112.63C366.107 112.63 365.244 112.972 364.622 113.657C364.015 114.341 363.712 115.282 363.712 116.48V124.6H361.192ZM382.396 124.88C381.229 124.88 380.21 124.577 379.339 123.97C378.468 123.363 377.791 122.516 377.309 121.427C376.827 120.322 376.586 119.047 376.586 117.6C376.586 116.138 376.827 114.862 377.309 113.773C377.791 112.684 378.468 111.837 379.339 111.23C380.21 110.623 381.229 110.32 382.396 110.32C384.449 110.32 385.872 111.168 386.666 112.863H386.759V105H389.279V124.6H386.782V122.313H386.689C385.88 124.024 384.449 124.88 382.396 124.88ZM383.072 122.64C384.239 122.64 385.141 122.274 385.779 121.543C386.432 120.797 386.759 119.824 386.759 118.627V116.573C386.759 115.376 386.432 114.411 385.779 113.68C385.141 112.933 384.239 112.56 383.072 112.56C381.875 112.56 380.91 113.019 380.179 113.937C379.464 114.854 379.106 116.076 379.106 117.6C379.106 119.124 379.464 120.346 380.179 121.263C380.91 122.181 381.875 122.64 383.072 122.64ZM398.346 124.88C396.666 124.88 395.297 124.468 394.239 123.643C393.197 122.803 392.629 121.683 392.536 120.283H395.009C395.118 121.092 395.468 121.714 396.059 122.15C396.65 122.57 397.444 122.78 398.439 122.78C399.357 122.78 400.057 122.601 400.539 122.243C401.021 121.886 401.263 121.38 401.263 120.727C401.263 119.7 400.555 119.039 399.139 118.743L396.829 118.23C394.309 117.701 393.049 116.457 393.049 114.497C393.049 113.252 393.516 112.249 394.449 111.487C395.383 110.709 396.604 110.32 398.113 110.32C399.606 110.32 400.835 110.717 401.799 111.51C402.779 112.288 403.331 113.346 403.456 114.683H401.029C400.874 113.952 400.531 113.392 400.003 113.003C399.489 112.599 398.82 112.397 397.996 112.397C397.203 112.397 396.573 112.568 396.106 112.91C395.639 113.252 395.406 113.719 395.406 114.31C395.406 114.777 395.569 115.158 395.896 115.453C396.223 115.733 396.744 115.951 397.459 116.107L399.793 116.597C401.068 116.877 402.017 117.343 402.639 117.997C403.277 118.634 403.596 119.474 403.596 120.517C403.596 121.854 403.129 122.92 402.196 123.713C401.263 124.491 399.979 124.88 398.346 124.88ZM420.602 124.88C418.549 124.88 417.118 124.024 416.309 122.313H416.216V124.6H413.719V105H416.239V112.863H416.332C417.126 111.168 418.549 110.32 420.602 110.32C421.769 110.32 422.788 110.623 423.659 111.23C424.53 111.837 425.207 112.684 425.689 113.773C426.171 114.862 426.412 116.138 426.412 117.6C426.412 119.047 426.171 120.322 425.689 121.427C425.207 122.516 424.53 123.363 423.659 123.97C422.788 124.577 421.769 124.88 420.602 124.88ZM419.926 122.64C421.139 122.64 422.103 122.181 422.819 121.263C423.534 120.346 423.892 119.124 423.892 117.6C423.892 116.076 423.534 114.854 422.819 113.937C422.103 113.019 421.139 112.56 419.926 112.56C418.759 112.56 417.849 112.933 417.196 113.68C416.558 114.411 416.239 115.376 416.239 116.573V118.627C416.239 119.824 416.558 120.797 417.196 121.543C417.849 122.274 418.759 122.64 419.926 122.64ZM433.496 124.857C432.111 124.857 430.984 124.468 430.112 123.69C429.257 122.897 428.829 121.878 428.829 120.633C428.829 119.311 429.257 118.284 430.112 117.553C430.984 116.807 432.212 116.433 433.799 116.433H437.882V115.733C437.882 114.707 437.602 113.913 437.042 113.353C436.498 112.778 435.728 112.49 434.732 112.49C433.908 112.49 433.224 112.684 432.679 113.073C432.15 113.447 431.8 113.983 431.629 114.683H429.062C429.296 113.33 429.926 112.264 430.952 111.487C431.979 110.709 433.255 110.32 434.779 110.32C436.506 110.32 437.851 110.787 438.816 111.72C439.796 112.653 440.286 113.968 440.286 115.663V124.6H437.906V122.173H437.812C437.455 122.998 436.887 123.651 436.109 124.133C435.331 124.616 434.46 124.857 433.496 124.857ZM434.009 122.757C434.74 122.757 435.394 122.586 435.969 122.243C436.56 121.901 437.027 121.442 437.369 120.867C437.711 120.276 437.882 119.622 437.882 118.907V118.347H433.962C433.06 118.347 432.368 118.541 431.886 118.93C431.419 119.303 431.186 119.832 431.186 120.517C431.186 121.201 431.442 121.746 431.956 122.15C432.469 122.554 433.154 122.757 434.009 122.757ZM450.166 124.88C448.922 124.88 447.802 124.584 446.806 123.993C445.826 123.387 445.048 122.539 444.473 121.45C443.913 120.361 443.633 119.078 443.633 117.6C443.633 116.107 443.913 114.816 444.473 113.727C445.048 112.638 445.826 111.798 446.806 111.207C447.802 110.616 448.922 110.32 450.166 110.32C451.146 110.32 452.04 110.507 452.849 110.88C453.674 111.238 454.366 111.782 454.926 112.513C455.502 113.229 455.898 114.139 456.116 115.243H453.503C453.285 114.326 452.873 113.657 452.266 113.237C451.675 112.817 450.975 112.607 450.166 112.607C448.968 112.607 447.996 113.058 447.249 113.96C446.518 114.862 446.153 116.076 446.153 117.6C446.153 119.109 446.518 120.322 447.249 121.24C447.996 122.142 448.968 122.593 450.166 122.593C451.022 122.593 451.753 122.368 452.359 121.917C452.982 121.466 453.409 120.734 453.643 119.723H456.186C455.984 120.874 455.595 121.831 455.019 122.593C454.444 123.356 453.744 123.931 452.919 124.32C452.095 124.693 451.177 124.88 450.166 124.88ZM458.945 124.6V105H461.465V116.9H461.559L467.625 110.6H470.659L464.919 116.457L471.195 124.6H468.139L463.169 118.043L461.465 119.56V124.6H458.945ZM483.565 124.6C482.85 124.6 482.29 124.413 481.885 124.04C481.481 123.651 481.278 123.076 481.278 122.313V112.607H478.898V110.6H481.302V106.4H483.775V110.6H487.112V112.607H483.798V122.593H487.438V124.6H483.565ZM490.117 124.6V105H492.637V112.653H492.731C493.135 111.938 493.703 111.37 494.434 110.95C495.165 110.53 496.021 110.32 497.001 110.32C498.012 110.32 498.906 110.561 499.684 111.043C500.462 111.526 501.068 112.194 501.504 113.05C501.94 113.906 502.157 114.901 502.157 116.037V124.6H499.637V116.41C499.637 115.197 499.326 114.256 498.704 113.587C498.097 112.918 497.242 112.583 496.137 112.583C495.033 112.583 494.17 112.918 493.547 113.587C492.941 114.256 492.637 115.197 492.637 116.41V124.6H490.117ZM512.092 124.88C510.832 124.88 509.704 124.584 508.708 123.993C507.713 123.387 506.927 122.539 506.352 121.45C505.792 120.346 505.512 119.047 505.512 117.553C505.512 116.076 505.792 114.8 506.352 113.727C506.912 112.638 507.674 111.798 508.638 111.207C509.603 110.616 510.707 110.32 511.952 110.32C513.118 110.32 514.153 110.584 515.055 111.113C515.973 111.642 516.696 112.404 517.225 113.4C517.754 114.396 518.018 115.57 518.018 116.923V118.043H507.938C508.032 119.459 508.452 120.587 509.198 121.427C509.945 122.267 510.902 122.687 512.068 122.687C512.908 122.687 513.624 122.477 514.215 122.057C514.806 121.637 515.203 121.061 515.405 120.33H517.972C517.785 121.279 517.412 122.096 516.852 122.78C516.292 123.449 515.607 123.97 514.798 124.343C513.989 124.701 513.087 124.88 512.092 124.88ZM508.055 116.13H515.568C515.459 114.979 515.078 114.084 514.425 113.447C513.772 112.809 512.939 112.49 511.928 112.49C510.933 112.49 510.093 112.817 509.408 113.47C508.724 114.108 508.273 114.994 508.055 116.13ZM530.709 124.6L526.695 110.6H529.262L532.202 121.497H532.295L535.725 110.6H538.339L541.769 121.497H541.862L544.802 110.6H547.322L543.309 124.6H540.509L537.055 113.68H536.962L533.509 124.6H530.709ZM555.185 124.88C553.925 124.88 552.797 124.584 551.802 123.993C550.806 123.387 550.021 122.539 549.445 121.45C548.885 120.346 548.605 119.047 548.605 117.553C548.605 116.076 548.885 114.8 549.445 113.727C550.005 112.638 550.767 111.798 551.732 111.207C552.696 110.616 553.801 110.32 555.045 110.32C556.212 110.32 557.246 110.584 558.149 111.113C559.066 111.642 559.79 112.404 560.319 113.4C560.847 114.396 561.112 115.57 561.112 116.923V118.043H551.032C551.125 119.459 551.545 120.587 552.292 121.427C553.039 122.267 553.995 122.687 555.162 122.687C556.002 122.687 556.717 122.477 557.309 122.057C557.9 121.637 558.296 121.061 558.499 120.33H561.065C560.879 121.279 560.505 122.096 559.945 122.78C559.385 123.449 558.701 123.97 557.892 124.343C557.083 124.701 556.181 124.88 555.185 124.88ZM551.149 116.13H558.662C558.553 114.979 558.172 114.084 557.519 113.447C556.865 112.809 556.033 112.49 555.022 112.49C554.026 112.49 553.186 112.817 552.502 113.47C551.817 114.108 551.366 114.994 551.149 116.13ZM571.458 124.88C569.404 124.88 567.973 124.024 567.164 122.313H567.071V124.6H564.574V105H567.094V112.863H567.188C567.981 111.168 569.404 110.32 571.458 110.32C572.624 110.32 573.643 110.623 574.514 111.23C575.385 111.837 576.062 112.684 576.544 113.773C577.027 114.862 577.268 116.138 577.268 117.6C577.268 119.047 577.027 120.322 576.544 121.427C576.062 122.516 575.385 123.363 574.514 123.97C573.643 124.577 572.624 124.88 571.458 124.88ZM570.781 122.64C571.994 122.64 572.959 122.181 573.674 121.263C574.39 120.346 574.748 119.124 574.748 117.6C574.748 116.076 574.39 114.854 573.674 113.937C572.959 113.019 571.994 112.56 570.781 112.56C569.614 112.56 568.704 112.933 568.051 113.68C567.413 114.411 567.094 115.376 567.094 116.573V118.627C567.094 119.824 567.413 120.797 568.051 121.543C568.704 122.274 569.614 122.64 570.781 122.64ZM580.735 130.2V110.6H583.231V112.887H583.325C584.133 111.176 585.565 110.32 587.618 110.32C588.785 110.32 589.803 110.623 590.675 111.23C591.546 111.837 592.222 112.684 592.705 113.773C593.187 114.862 593.428 116.138 593.428 117.6C593.428 119.047 593.187 120.322 592.705 121.427C592.222 122.516 591.546 123.363 590.675 123.97C589.803 124.577 588.785 124.88 587.618 124.88C585.565 124.88 584.141 124.032 583.348 122.337H583.255V130.2H580.735ZM586.941 122.64C588.155 122.64 589.119 122.181 589.835 121.263C590.55 120.346 590.908 119.124 590.908 117.6C590.908 116.076 590.55 114.854 589.835 113.937C589.119 113.019 588.155 112.56 586.941 112.56C585.775 112.56 584.865 112.933 584.211 113.68C583.573 114.411 583.255 115.376 583.255 116.573V118.627C583.255 119.824 583.573 120.789 584.211 121.52C584.865 122.236 585.775 122.609 586.941 122.64ZM600.511 124.857C599.127 124.857 597.999 124.468 597.128 123.69C596.272 122.897 595.845 121.878 595.845 120.633C595.845 119.311 596.272 118.284 597.128 117.553C597.999 116.807 599.228 116.433 600.815 116.433H604.898V115.733C604.898 114.707 604.618 113.913 604.058 113.353C603.514 112.778 602.744 112.49 601.748 112.49C600.924 112.49 600.239 112.684 599.695 113.073C599.166 113.447 598.816 113.983 598.645 114.683H596.078C596.311 113.33 596.941 112.264 597.968 111.487C598.995 110.709 600.27 110.32 601.795 110.32C603.521 110.32 604.867 110.787 605.831 111.72C606.811 112.653 607.301 113.968 607.301 115.663V124.6H604.921V122.173H604.828C604.47 122.998 603.902 123.651 603.125 124.133C602.347 124.616 601.476 124.857 600.511 124.857ZM601.025 122.757C601.756 122.757 602.409 122.586 602.985 122.243C603.576 121.901 604.042 121.442 604.385 120.867C604.727 120.276 604.898 119.622 604.898 118.907V118.347H600.978C600.076 118.347 599.384 118.541 598.901 118.93C598.435 119.303 598.201 119.832 598.201 120.517C598.201 121.201 598.458 121.746 598.971 122.15C599.485 122.554 600.169 122.757 601.025 122.757ZM616.948 130.48C615.222 130.48 613.783 130.06 612.632 129.22C611.48 128.396 610.812 127.291 610.625 125.907H613.308C613.464 126.653 613.86 127.237 614.498 127.657C615.136 128.077 615.937 128.287 616.902 128.287C618.146 128.287 619.118 127.929 619.818 127.213C620.534 126.498 620.892 125.526 620.892 124.297V122.033H620.798C620.456 122.858 619.919 123.496 619.188 123.947C618.473 124.382 617.625 124.6 616.645 124.6C615.463 124.6 614.42 124.304 613.518 123.713C612.632 123.107 611.939 122.267 611.442 121.193C610.944 120.12 610.695 118.876 610.695 117.46C610.695 116.044 610.944 114.8 611.442 113.727C611.939 112.653 612.632 111.821 613.518 111.23C614.42 110.623 615.463 110.32 616.645 110.32C617.625 110.32 618.473 110.546 619.188 110.997C619.919 111.432 620.456 112.054 620.798 112.863H620.892V110.6H623.388V124.413C623.388 126.28 622.805 127.758 621.638 128.847C620.487 129.936 618.924 130.48 616.948 130.48ZM617.252 122.313C618.356 122.313 619.235 121.956 619.888 121.24C620.542 120.524 620.868 119.576 620.868 118.393V116.527C620.868 115.344 620.534 114.396 619.865 113.68C619.212 112.964 618.34 112.607 617.252 112.607C616.023 112.607 615.043 113.05 614.312 113.937C613.58 114.808 613.215 115.982 613.215 117.46C613.215 118.938 613.58 120.12 614.312 121.007C615.043 121.878 616.023 122.313 617.252 122.313ZM633.416 124.88C632.156 124.88 631.028 124.584 630.032 123.993C629.037 123.387 628.251 122.539 627.676 121.45C627.116 120.346 626.836 119.047 626.836 117.553C626.836 116.076 627.116 114.8 627.676 113.727C628.236 112.638 628.998 111.798 629.962 111.207C630.927 110.616 632.031 110.32 633.276 110.32C634.442 110.32 635.477 110.584 636.379 111.113C637.297 111.642 638.02 112.404 638.549 113.4C639.078 114.396 639.342 115.57 639.342 116.923V118.043H629.262C629.356 119.459 629.776 120.587 630.522 121.427C631.269 122.267 632.226 122.687 633.392 122.687C634.232 122.687 634.948 122.477 635.539 122.057C636.13 121.637 636.527 121.061 636.729 120.33H639.296C639.109 121.279 638.736 122.096 638.176 122.78C637.616 123.449 636.931 123.97 636.122 124.343C635.314 124.701 634.411 124.88 633.416 124.88ZM629.379 116.13H636.892C636.784 114.979 636.402 114.084 635.749 113.447C635.096 112.809 634.264 112.49 633.252 112.49C632.257 112.49 631.417 112.817 630.732 113.47C630.048 114.108 629.597 114.994 629.379 116.13ZM643.808 124.88C643.295 124.88 642.859 124.701 642.502 124.343C642.144 123.986 641.965 123.55 641.965 123.037C641.965 122.523 642.144 122.088 642.502 121.73C642.859 121.372 643.295 121.193 643.808 121.193C644.322 121.193 644.757 121.372 645.115 121.73C645.473 122.088 645.652 122.523 645.652 123.037C645.652 123.55 645.473 123.986 645.115 124.343C644.757 124.701 644.322 124.88 643.808 124.88Z" fill="white"/>
</svg>
