<svg width="464" height="1056" viewBox="0 0 464 1056" fill="none" xmlns="http://www.w3.org/2000/svg">
<path d="M240.495 844.315L219.635 823.455L198.775 844.315L177.916 823.455L157.056 844.315L177.916 865.175L198.775 886.035L219.635 865.175L240.495 844.315Z" fill="black"/>
<path d="M370.583 904.429H347.242H323.918V927.738L303.074 906.894L282.215 886.034L261.355 906.894L282.215 927.754L261.355 948.614L240.495 927.754L219.635 906.894L198.775 886.034L177.915 906.894L157.056 927.754L136.196 948.614L115.336 927.754L136.196 906.894L115.336 886.034L94.4761 906.894L73.6653 927.705V904.511H50.3408V881.17V857.846V834.505V811.18V787.84H27V811.18V834.505V857.846V881.17V904.511V927.836H50.3408H73.6653V927.803L94.4761 948.614L115.336 969.474L136.196 990.333L157.056 1011.19L177.915 1032.05L198.775 1011.19L177.915 990.333L157.056 969.474L177.915 948.614L198.775 969.474L219.635 948.614L240.495 969.474L219.635 990.333L198.775 1011.19L219.635 1032.05V1055.38H242.96V1032.05H219.635L240.495 1011.19L261.355 990.333L282.215 969.474L303.074 948.614L323.934 927.77H347.242H370.583H393.908H417.248V904.429H393.908H370.583Z" fill="black"/>
<path d="M440.573 881.105H417.249V904.429H440.573V881.105Z" fill="black"/>
<path d="M177.915 1032.05H154.591V1055.38H177.915V1032.05Z" fill="black"/>
<path d="M213.495 56.4751L192.635 35.6152L171.775 56.4751L150.915 35.6152L130.056 56.4751L150.915 77.3349L171.775 98.1948L192.635 77.3349L213.495 56.4751Z" fill="white"/>
<path d="M343.583 116.59H320.242H296.918V139.898L276.074 119.054L255.215 98.1947L234.355 119.054L255.215 139.914L234.355 160.774L213.495 139.914L192.635 119.054L171.775 98.1947L150.915 119.054L130.056 139.914L109.196 160.774L88.336 139.914L109.196 119.054L88.336 98.1947L67.4761 119.054L46.6653 139.865V116.671H23.3408V93.3306V70.0061V46.6653V23.3408V0H0V23.3408V46.6653V70.0061V93.3306V116.671V139.996H23.3408H46.6653V139.963L67.4761 160.774L88.336 181.634L109.196 202.494L130.056 223.354L150.915 244.213L171.775 223.354L150.915 202.494L130.056 181.634L150.915 160.774L171.775 181.634L192.635 160.774L213.495 181.634L192.635 202.494L171.775 223.354L192.635 244.213V267.538H215.96V244.213H192.635L213.495 223.354L234.355 202.494L255.215 181.634L276.074 160.774L296.934 139.931H320.242H343.583H366.908H390.248V116.59H366.908H343.583Z" fill="white"/>
<path d="M413.573 93.2656H390.249V116.59H413.573V93.2656Z" fill="white"/>
<path d="M150.915 244.214H127.591V267.538H150.915V244.214Z" fill="white"/>
<path d="M375.398 739.771V769.265H345.904H316.41V739.771H286.899V769.265V798.775V828.27H316.41V857.764H345.904H375.398H404.909H434.403H440.573V881.105H463.914V857.764V828.27V798.775H434.403V769.265H404.909V739.771H375.398Z" fill="#2F00FF"/>
<path d="M345.904 710.26H316.41V739.755H345.904V710.26Z" fill="#2F00FF"/>
<path d="M434.403 710.26H404.909V739.755H434.403V710.26Z" fill="#2F00FF"/>
<path d="M463.898 680.766H434.403V710.26H463.898V680.766Z" fill="#2F00FF"/>
<path d="M375.398 680.766H345.904V710.26H375.398V680.766Z" fill="#2F00FF"/>
</svg>
