<svg width="217" height="89" viewBox="0 0 217 89" fill="none" xmlns="http://www.w3.org/2000/svg">
<g clip-path="url(#clip0_275_106)">
<path d="M87 34.6642V12H92.2559V34.6642H87Z" fill="white"/>
<path d="M97.7355 34.6642V22.9124H95.2194V17.8759H100.363V20.674H101.538C102.209 19.7058 103.036 18.9448 104.015 18.3907C104.993 17.8423 106.246 17.5681 107.778 17.5681C110.165 17.5681 111.994 18.2117 113.268 19.4988C114.543 20.7859 115.186 22.5095 115.186 24.6752V34.6642H110.042V25.6825C110.042 24.5241 109.74 23.6511 109.136 23.0523C108.532 22.4535 107.643 22.1569 106.469 22.1569C105.295 22.1569 104.406 22.4535 103.802 23.0523C103.198 23.6511 102.896 24.5241 102.896 25.6825V34.6642H97.7523H97.7355Z" fill="white"/>
<path d="M124.155 34.6642C122.852 34.6642 121.84 34.3341 121.124 33.6737C120.409 33.0134 120.045 32.0005 120.045 30.635V21.9051H117.25V17.8759H120.101V12.8394H125.133V17.8759H128.824V21.9051H125.189V30.635H129.215V34.6642H124.155Z" fill="white"/>
<path d="M139.727 35C137.882 35 136.277 34.6418 134.918 33.9199C133.56 33.2036 132.508 32.1852 131.776 30.8701C131.038 29.555 130.669 28.0049 130.669 26.2085C130.669 24.4122 131.027 22.8732 131.748 21.5805C132.464 20.2822 133.492 19.2861 134.823 18.5866C136.154 17.8871 137.725 17.5345 139.531 17.5345C141.337 17.5345 142.858 17.8759 144.144 18.5586C145.43 19.2414 146.414 20.2151 147.091 21.4854C147.773 22.7557 148.114 24.2723 148.114 26.0462V27.6971H135.617C135.824 28.7771 136.271 29.5942 136.959 30.1482C137.647 30.6966 138.564 30.9764 139.699 30.9764C140.61 30.9764 141.326 30.8309 141.84 30.5455C142.355 30.2545 142.724 29.7956 142.948 29.1577H148.092C147.739 30.9876 146.822 32.4202 145.352 33.4555C143.881 34.4908 142.008 35.0056 139.732 35.0056L139.727 35ZM135.701 24.3394H143.194C143.026 23.4049 142.64 22.7109 142.036 22.2577C141.432 21.7988 140.605 21.5693 139.559 21.5693C138.514 21.5693 137.697 21.8044 137.043 22.2689C136.389 22.7333 135.942 23.4272 135.701 24.3394Z" fill="white"/>
<path d="M152.196 34.6642V22.9124H149.68V17.8759H154.824V21.2335H155.998C156.428 20.0192 157.127 19.1238 158.095 18.5306C159.062 17.943 160.147 17.652 161.338 17.652H162.763V22.1289H161.114C159.733 22.1289 158.743 22.5095 158.134 23.2761C157.53 24.0428 157.228 25.0389 157.228 26.27V34.6642H152.196Z" fill="white"/>
<path d="M166.51 34.6642V22.9124H163.994V17.8759H169.138V20.674H170.312C170.983 19.7058 171.81 18.9448 172.789 18.3907C173.767 17.8423 175.02 17.5681 176.552 17.5681C178.939 17.5681 180.768 18.2117 182.043 19.4988C183.317 20.7859 183.96 22.5095 183.96 24.6752V34.6642H178.816V25.6825C178.816 24.5241 178.514 23.6511 177.911 23.0523C177.307 22.4535 176.418 22.1569 175.243 22.1569C174.069 22.1569 173.18 22.4535 172.576 23.0523C171.972 23.6511 171.671 24.5241 171.671 25.6825V34.6642H166.526H166.51Z" fill="white"/>
<path d="M195.361 35C193.516 35 191.911 34.6418 190.553 33.9199C189.194 33.2036 188.143 32.1852 187.41 30.8701C186.672 29.555 186.303 28.0049 186.303 26.2085C186.303 24.4122 186.661 22.8732 187.382 21.5805C188.098 20.2822 189.127 19.2861 190.458 18.5866C191.788 17.8871 193.36 17.5345 195.166 17.5345C196.972 17.5345 198.492 17.8759 199.778 18.5586C201.065 19.2414 202.049 20.2151 202.725 21.4854C203.407 22.7557 203.748 24.2723 203.748 26.0462V27.6971H191.252C191.458 28.7771 191.906 29.5942 192.594 30.1482C193.281 30.6966 194.198 30.9764 195.333 30.9764C196.245 30.9764 196.96 30.8309 197.475 30.5455C197.989 30.2545 198.358 29.7956 198.582 29.1577H203.726C203.374 30.9876 202.457 32.4202 200.986 33.4555C199.516 34.4908 197.643 35.0056 195.367 35.0056L195.361 35ZM191.335 24.3394H198.828C198.66 23.4049 198.274 22.7109 197.671 22.2577C197.067 21.7988 196.239 21.5693 195.194 21.5693C194.148 21.5693 193.332 21.8044 192.677 22.2689C192.023 22.7333 191.576 23.4272 191.335 24.3394Z" fill="white"/>
<path d="M211.94 34.6642C210.637 34.6642 209.625 34.3341 208.909 33.6737C208.194 33.0134 207.83 32.0005 207.83 30.635V21.9051H205.034V17.8759H207.886V12.8394H212.918V17.8759H216.609V21.9051H212.974V30.635H217V34.6642H211.94Z" fill="white"/>
</g>
<path d="M56 36H37V18H56V36Z" fill="white"/>
<path d="M56 71H37V53H56V71Z" fill="white"/>
<path d="M18.4949 53H0V36H18.4949H37V53H18.4949Z" fill="white"/>
<path d="M74 18H56V0H74V18Z" fill="white"/>
<path d="M74 89H56V71H74V89Z" fill="white"/>
<path d="M74 53H56V36H74V53Z" fill="white"/>
<defs>
<clipPath id="clip0_275_106">
<rect width="130" height="23" fill="white" transform="translate(87 12)"/>
</clipPath>
</defs>
</svg>
