<svg width="547" height="266" viewBox="0 0 547 266" fill="none" xmlns="http://www.w3.org/2000/svg">
<path d="M5.36 64.7998V-0.000196457H18.88V25.2798H50.72V-0.000196457H64.24V64.7998H50.72V37.1198H18.88V64.7998H5.36ZM99.5087 65.7598C94.2821 65.7598 89.7221 64.7465 85.8287 62.7198C81.9887 60.6398 79.0021 57.7331 76.8687 53.9998C74.7354 50.2665 73.6687 45.8398 73.6687 40.7198C73.6687 35.6531 74.7087 31.2531 76.7887 27.5198C78.9221 23.7865 81.9354 20.9065 85.8287 18.8798C89.7221 16.8531 94.3087 15.8398 99.5887 15.8398C104.815 15.8398 109.349 16.8531 113.189 18.8798C117.029 20.9065 119.989 23.7865 122.069 27.5198C124.149 31.2531 125.189 35.6798 125.189 40.7998C125.189 45.8665 124.149 50.2931 122.069 54.0798C119.989 57.8131 117.002 60.6931 113.109 62.7198C109.269 64.7465 104.735 65.7598 99.5087 65.7598ZM99.5087 54.2398C103.509 54.2398 106.575 53.0398 108.709 50.6398C110.842 48.1865 111.909 44.8798 111.909 40.7198C111.909 36.5598 110.842 33.3065 108.709 30.9598C106.575 28.5598 103.509 27.3598 99.5087 27.3598C95.4554 27.3598 92.3354 28.5598 90.1487 30.9598C88.0154 33.3065 86.9487 36.5598 86.9487 40.7198C86.9487 44.8798 88.0154 48.1865 90.1487 50.6398C92.3354 53.0398 95.4554 54.2398 99.5087 54.2398ZM143.207 64.7998L127.687 16.7998H141.287L150.887 48.1598H151.287L162.487 16.7998H174.967L186.167 48.1598H186.567L196.167 16.7998H209.607L194.168 64.7998H180.007L168.807 34.3998H168.487L157.367 64.7998H143.207Z" fill="white"/>
<path d="M19.04 164.8C15.6267 164.8 12.96 163.946 11.04 162.24C9.17333 160.48 8.24 157.813 8.24 154.24V127.2H-2.38419e-06V116.8H8.4V102.4H21.36V116.8H32.48V127.2H21.52V154.4H33.6V164.8H19.04ZM40.6975 164.8V97.5998H53.9775V123.68H54.2975C55.8442 121.12 57.9242 119.2 60.5375 117.92C63.1508 116.586 66.2442 115.92 69.8175 115.92C75.8442 115.92 80.6175 117.76 84.1375 121.44C87.7108 125.066 89.4975 129.946 89.4975 136.08V164.8H76.2175V138.56C76.2175 135.04 75.2575 132.373 73.3375 130.56C71.4708 128.693 68.7242 127.76 65.0975 127.76C61.4708 127.76 58.6975 128.693 56.7775 130.56C54.9108 132.373 53.9775 135.04 53.9775 138.56V164.8H40.6975ZM122.532 165.76C117.359 165.76 112.852 164.746 109.012 162.72C105.172 160.64 102.212 157.733 100.132 154C98.0525 150.213 97.0125 145.76 97.0125 140.64C97.0125 135.52 98.0258 131.12 100.052 127.44C102.079 123.706 104.959 120.853 108.692 118.88C112.479 116.853 116.932 115.84 122.052 115.84C127.066 115.84 131.359 116.8 134.932 118.72C138.559 120.64 141.332 123.386 143.252 126.96C145.172 130.533 146.132 134.8 146.132 139.76V144.24H109.732C110.266 147.813 111.626 150.533 113.812 152.4C115.999 154.266 118.879 155.2 122.452 155.2C125.279 155.2 127.519 154.72 129.172 153.76C130.826 152.8 131.999 151.333 132.692 149.36H145.972C144.906 154.48 142.319 158.506 138.212 161.44C134.106 164.32 128.879 165.76 122.532 165.76ZM110.052 135.44H133.412C132.986 132.4 131.812 130.133 129.892 128.64C127.972 127.093 125.386 126.32 122.132 126.32C118.879 126.32 116.212 127.093 114.132 128.64C112.106 130.186 110.746 132.453 110.052 135.44ZM178.635 164.8V99.9998H192.235V164.8H178.635ZM208.186 164.8V129.92H201.626V116.8H215.066V124.64H218.426C220.293 121.866 222.64 119.733 225.466 118.24C228.293 116.693 231.813 115.92 236.026 115.92C242.693 115.92 247.84 117.76 251.466 121.44C255.146 125.066 256.986 129.946 256.986 136.08V164.8H243.706V138.56C243.706 135.04 242.746 132.373 240.826 130.56C238.96 128.693 236.213 127.76 232.586 127.76C228.96 127.76 226.186 128.693 224.266 130.56C222.4 132.373 221.466 135.04 221.466 138.56V164.8H208.186ZM282.384 164.8C278.97 164.8 276.304 163.946 274.384 162.24C272.517 160.48 271.584 157.813 271.584 154.24V127.2H263.344V116.8H271.744V102.4H284.704V116.8H295.824V127.2H284.864V154.4H296.944V164.8H282.384ZM327.001 165.76C321.828 165.76 317.321 164.746 313.481 162.72C309.641 160.64 306.681 157.733 304.601 154C302.521 150.213 301.481 145.76 301.481 140.64C301.481 135.52 302.495 131.12 304.521 127.44C306.548 123.706 309.428 120.853 313.161 118.88C316.948 116.853 321.401 115.84 326.521 115.84C331.535 115.84 335.828 116.8 339.401 118.72C343.028 120.64 345.801 123.386 347.721 126.96C349.641 130.533 350.601 134.8 350.601 139.76V144.24H314.201C314.735 147.813 316.095 150.533 318.281 152.4C320.468 154.266 323.348 155.2 326.921 155.2C329.748 155.2 331.988 154.72 333.641 153.76C335.295 152.8 336.468 151.333 337.161 149.36H350.441C349.375 154.48 346.788 158.506 342.681 161.44C338.575 164.32 333.348 165.76 327.001 165.76ZM314.521 135.44H337.881C337.455 132.4 336.281 130.133 334.361 128.64C332.441 127.093 329.855 126.32 326.601 126.32C323.348 126.32 320.681 127.093 318.601 128.64C316.575 130.186 315.215 132.453 314.521 135.44ZM362.656 164.8V129.92H356.096V116.8H369.536V126.24H372.896C374.176 122.88 376.203 120.373 378.976 118.72C381.75 117.066 384.87 116.24 388.336 116.24H392.416V127.76H387.776C383.616 127.76 380.55 128.933 378.576 131.28C376.656 133.626 375.696 136.72 375.696 140.56V164.8H362.656ZM403.092 164.8V129.92H396.532V116.8H409.972V124.64H413.332C415.199 121.866 417.546 119.733 420.372 118.24C423.199 116.693 426.719 115.92 430.932 115.92C437.599 115.92 442.746 117.76 446.372 121.44C450.052 125.066 451.892 129.946 451.892 136.08V164.8H438.612V138.56C438.612 135.04 437.652 132.373 435.732 130.56C433.866 128.693 431.119 127.76 427.492 127.76C423.866 127.76 421.092 128.693 419.172 130.56C417.306 132.373 416.372 135.04 416.372 138.56V164.8H403.092ZM484.97 165.76C479.797 165.76 475.29 164.746 471.45 162.72C467.61 160.64 464.65 157.733 462.57 154C460.49 150.213 459.45 145.76 459.45 140.64C459.45 135.52 460.463 131.12 462.49 127.44C464.517 123.706 467.397 120.853 471.13 118.88C474.917 116.853 479.37 115.84 484.49 115.84C489.503 115.84 493.797 116.8 497.37 118.72C500.997 120.64 503.77 123.386 505.69 126.96C507.61 130.533 508.57 134.8 508.57 139.76V144.24H472.17C472.703 147.813 474.063 150.533 476.25 152.4C478.437 154.266 481.317 155.2 484.89 155.2C487.717 155.2 489.957 154.72 491.61 153.76C493.263 152.8 494.437 151.333 495.13 149.36H508.41C507.343 154.48 504.757 158.506 500.65 161.44C496.543 164.32 491.317 165.76 484.97 165.76ZM472.49 135.44H495.85C495.423 132.4 494.25 130.133 492.33 128.64C490.41 127.093 487.823 126.32 484.57 126.32C481.317 126.32 478.65 127.093 476.57 128.64C474.543 130.186 473.183 132.453 472.49 135.44ZM531.665 164.8C528.252 164.8 525.585 163.946 523.665 162.24C521.798 160.48 520.865 157.813 520.865 154.24V127.2H512.625V116.8H521.025V102.4H533.985V116.8H545.105V127.2H534.145V154.4H546.225V164.8H531.665ZM15.52 264.8L-2.38419e-06 216.8H13.6L23.2 248.16H23.6L34.8 216.8H47.28L58.48 248.16H58.88L68.48 216.8H81.92L66.48 264.8H52.32L41.12 234.4H40.8L29.68 264.8H15.52ZM110.29 265.76C105.063 265.76 100.503 264.746 96.61 262.72C92.77 260.64 89.7833 257.733 87.65 254C85.5167 250.266 84.45 245.84 84.45 240.72C84.45 235.653 85.49 231.253 87.57 227.52C89.7033 223.786 92.7167 220.906 96.61 218.88C100.503 216.853 105.09 215.84 110.37 215.84C115.597 215.84 120.13 216.853 123.97 218.88C127.81 220.906 130.77 223.786 132.85 227.52C134.93 231.253 135.97 235.68 135.97 240.8C135.97 245.866 134.93 250.293 132.85 254.08C130.77 257.813 127.783 260.693 123.89 262.72C120.05 264.746 115.517 265.76 110.29 265.76ZM110.29 254.24C114.29 254.24 117.357 253.04 119.49 250.64C121.623 248.186 122.69 244.88 122.69 240.72C122.69 236.56 121.623 233.306 119.49 230.96C117.357 228.56 114.29 227.36 110.29 227.36C106.237 227.36 103.117 228.56 100.93 230.96C98.7967 233.306 97.73 236.56 97.73 240.72C97.73 244.88 98.7967 248.186 100.93 250.64C103.117 253.04 106.237 254.24 110.29 254.24ZM148.062 264.8V229.92H141.502V216.8H154.942V226.24H158.302C159.582 222.88 161.609 220.373 164.382 218.72C167.156 217.066 170.276 216.24 173.742 216.24H177.822V227.76H173.182C169.022 227.76 165.956 228.933 163.982 231.28C162.062 233.626 161.102 236.72 161.102 240.56V264.8H148.062ZM184.979 264.8V197.6H198.259V234H198.579L217.459 216.8H233.299L212.899 235.2L234.819 264.8H219.299L203.539 243.28L198.259 247.6V264.8H184.979ZM258.786 265.76C251.746 265.76 246.173 264.293 242.066 261.36C238.013 258.373 235.826 254.213 235.506 248.88H248.306C248.733 251.173 249.826 252.88 251.586 254C253.4 255.12 255.986 255.68 259.346 255.68C264.84 255.68 267.586 254.16 267.586 251.12C267.586 249.893 267.16 248.933 266.306 248.24C265.506 247.493 264.146 246.933 262.226 246.56L251.506 244.48C241.906 242.613 237.106 238.106 237.106 230.96C237.106 226.373 238.946 222.72 242.626 220C246.306 217.226 251.4 215.84 257.906 215.84C264.36 215.84 269.48 217.253 273.266 220.08C277.053 222.906 279.133 226.853 279.506 231.92H266.706C266.12 229.68 265.08 228.053 263.586 227.04C262.093 226.026 259.933 225.52 257.106 225.52C254.653 225.52 252.786 225.893 251.506 226.64C250.226 227.333 249.586 228.4 249.586 229.84C249.586 230.853 249.986 231.706 250.786 232.4C251.586 233.093 252.813 233.6 254.466 233.92L265.426 236C270.44 237.013 274.12 238.64 276.466 240.88C278.813 243.12 279.986 246.16 279.986 250C279.986 254.96 278.146 258.826 274.466 261.6C270.84 264.373 265.613 265.76 258.786 265.76ZM298.087 244.32C298.087 242.293 298.327 240.453 298.807 238.8C299.341 237.146 300.141 235.573 301.207 234.08C302.274 232.586 303.687 231.093 305.447 229.6L309.687 225.84C311.661 224.133 313.127 222.666 314.087 221.44C315.047 220.16 315.527 218.56 315.527 216.64C315.527 214.56 314.727 212.933 313.127 211.76C311.527 210.533 309.394 209.92 306.727 209.92C304.114 209.92 301.981 210.56 300.327 211.84C298.674 213.12 297.607 215.12 297.127 217.84H283.847C284.594 211.76 286.941 207.12 290.887 203.92C294.887 200.666 300.194 199.04 306.807 199.04C311.181 199.04 314.994 199.733 318.247 201.12C321.501 202.506 324.034 204.506 325.847 207.12C327.661 209.68 328.567 212.746 328.567 216.32C328.567 219.573 327.874 222.32 326.487 224.56C325.154 226.8 323.047 229.146 320.167 231.6L314.727 236.32C312.807 237.973 311.501 239.333 310.807 240.4C310.167 241.466 309.794 242.773 309.687 244.32H298.087ZM303.847 265.76C301.714 265.76 299.901 265.04 298.407 263.6C296.914 262.106 296.167 260.293 296.167 258.16C296.167 255.973 296.914 254.16 298.407 252.72C299.901 251.226 301.714 250.48 303.847 250.48C305.981 250.48 307.767 251.226 309.207 252.72C310.701 254.16 311.447 255.973 311.447 258.16C311.447 260.293 310.701 262.106 309.207 263.6C307.767 265.04 305.981 265.76 303.847 265.76Z" fill="#0000CB"/>
</svg>
