<svg width="547" height="266" viewBox="0 0 547 266" fill="none" xmlns="http://www.w3.org/2000/svg">
<!-- NOTE: First path (white \"How\") removed to avoid duplicating the white heading already in Desktop-5 SVG. -->
<path d="M19.0401 164.8C15.6267 164.8 12.9601 163.947 11.0401 162.24C9.17339 160.48 8.24006 157.813 8.24006 154.24V127.2H5.8651e-05V116.8H8.40006V102.4H21.3601V116.8H32.4801V127.2H21.5201V154.4H33.6001V164.8H19.0401ZM40.6976 164.8V97.6H53.9776V123.68H54.2976C55.8442 121.12 57.9242 119.2 60.5376 117.92C63.1509 116.587 66.2442 115.92 69.8176 115.92C75.8442 115.92 80.6176 117.76 84.1376 121.44C87.7109 125.067 89.4976 129.947 89.4976 136.08V164.8H76.2176V138.56C76.2176 135.04 75.2576 132.373 73.3376 130.56C71.4709 128.693 68.7242 127.76 65.0976 127.76C61.4709 127.76 58.6976 128.693 56.7776 130.56C54.9109 132.373 53.9776 135.04 53.9776 138.56V164.8H40.6976ZM122.533 165.76C117.359 165.76 112.853 164.747 109.013 162.72C105.173 160.64 102.213 157.733 100.133 154C98.0526 150.213 97.0126 145.76 97.0126 140.64C97.0126 135.52 98.0259 131.12 100.053 127.44C102.079 123.707 104.959 120.853 108.693 118.88C112.479 116.853 116.933 115.84 122.053 115.84C127.066 115.84 131.359 116.8 134.933 118.72C138.559 120.64 141.333 123.387 143.253 126.96C145.173 130.533 146.133 134.8 146.133 139.76V144.24H109.733C110.266 147.813 111.626 150.533 113.813 152.4C115.999 154.267 118.879 155.2 122.453 155.2C125.279 155.2 127.519 154.72 129.173 153.76C130.826 152.8 131.999 151.333 132.693 149.36H145.973C144.906 154.48 142.319 158.507 138.213 161.44C134.106 164.32 128.879 165.76 122.533 165.76ZM110.053 135.44H133.413C132.986 132.4 131.813 130.133 129.893 128.64C127.973 127.093 125.386 126.32 122.133 126.32C118.879 126.32 116.213 127.093 114.133 128.64C112.106 130.187 110.746 132.453 110.053 135.44ZM178.635 164.8V100H192.235V164.8H178.635ZM208.186 164.8V129.92H201.626V116.8H215.066V124.64H218.426C220.293 121.867 222.64 119.733 225.466 118.24C228.293 116.693 231.813 115.92 236.026 115.92C242.693 115.92 247.84 117.76 251.466 121.44C255.146 125.067 256.986 129.947 256.986 136.08V164.8H243.706V138.56C243.706 135.04 242.746 132.373 240.826 130.56C238.96 128.693 236.213 127.76 232.586 127.76C228.96 127.76 226.186 128.693 224.266 130.56C222.4 132.373 221.466 135.04 221.466 138.56V164.8H208.186ZM282.384 164.8C278.97 164.8 276.304 163.947 274.384 162.24C272.517 160.48 271.584 157.813 271.584 154.24V127.2H263.344V116.8H271.744V102.4H284.704V116.8H295.824V127.2H284.864V154.4H296.944V164.8H282.384ZM327.001 165.76C321.828 165.76 317.321 164.747 313.481 162.72C309.641 160.64 306.681 157.733 304.601 154C302.521 150.213 301.481 145.76 301.481 140.64C301.481 135.52 302.495 131.12 304.521 127.44C306.548 123.707 309.428 120.853 313.161 118.88C316.948 116.853 321.401 115.84 326.521 115.84C331.535 115.84 335.828 116.8 339.401 118.72C343.028 120.64 345.801 123.387 347.721 126.96C349.641 130.533 350.601 134.8 350.601 139.76V144.24H314.201C314.735 147.813 316.095 150.533 318.281 152.4C320.468 154.267 323.348 155.2 326.921 155.2C329.748 155.2 331.988 154.72 333.641 153.76C335.295 152.8 336.468 151.333 337.161 149.36H350.441C349.375 154.48 346.788 158.507 342.681 161.44C338.575 164.32 333.348 165.76 327.001 165.76ZM314.521 135.44H337.881C337.455 132.4 336.281 130.133 334.361 128.64C332.441 127.093 329.855 126.32 326.601 126.32C323.348 126.32 320.681 127.093 318.601 128.64C316.575 130.187 315.215 132.453 314.521 135.44ZM362.656 164.8V129.92H356.096V116.8H369.536V126.24H372.896C374.176 122.88 376.203 120.373 378.976 118.72C381.75 117.067 384.87 116.24 388.336 116.24H392.416V127.76H387.776C383.616 127.76 380.55 128.933 378.576 131.28C376.656 133.627 375.696 136.72 375.696 140.56V164.8H362.656ZM403.093 164.8V129.92H396.533V116.8H409.973V124.64H413.333C415.199 121.867 417.546 119.733 420.373 118.24C423.199 116.693 426.719 115.92 430.933 115.92C437.599 115.92 442.746 117.76 446.373 121.44C450.053 125.067 451.893 129.947 451.893 136.08V164.8H438.613V138.56C438.613 135.04 437.653 132.373 435.733 130.56C433.866 128.693 431.119 127.76 427.493 127.76C423.866 127.76 421.093 128.693 419.173 130.56C417.306 132.373 416.373 135.04 416.373 138.56V164.8H403.093ZM484.97 165.76C479.797 165.76 475.29 164.747 471.45 162.72C467.61 160.64 464.65 157.733 462.57 154C460.49 150.213 459.45 145.76 459.45 140.64C459.45 135.52 460.463 131.12 462.49 127.44C464.517 123.707 467.397 120.853 471.13 118.88C474.917 116.853 479.37 115.84 484.49 115.84C489.503 115.84 493.797 116.8 497.37 118.72C500.997 120.64 503.77 123.387 505.69 126.96C507.61 130.533 508.57 134.8 508.57 139.76V144.24H472.17C472.703 147.813 474.063 150.533 476.25 152.4C478.437 154.267 481.317 155.2 484.89 155.2C487.717 155.2 489.957 154.72 491.61 153.76C493.263 152.8 494.437 151.333 495.13 149.36H508.41C507.343 154.48 504.757 158.507 500.65 161.44C496.543 164.32 491.317 165.76 484.97 165.76ZM472.49 135.44H495.85C495.423 132.4 494.25 130.133 492.33 128.64C490.41 127.093 487.823 126.32 484.57 126.32C481.317 126.32 478.65 127.093 476.57 128.64C474.543 130.187 473.183 132.453 472.49 135.44ZM531.665 164.8C528.252 164.8 525.585 163.947 523.665 162.24C521.798 160.48 520.865 157.813 520.865 154.24V127.2H512.625V116.8H521.025V102.4H533.985V116.8H545.105V127.2H534.145V154.4H546.225V164.8H531.665ZM15.5201 264.8L5.8651e-05 216.8H13.6001L23.2001 248.16H23.6001L34.8001 216.8H47.2801L58.4801 248.16H58.8801L68.4801 216.8H81.9201L66.4801 264.8H52.3201L41.1201 234.4H40.8001L29.6801 264.8H15.5201ZM110.29 265.76C105.063 265.76 100.503 264.747 96.6101 262.72C92.7701 260.64 89.7834 257.733 87.6501 254C85.5167 250.267 84.4501 245.84 84.4501 240.72C84.4501 235.653 85.4901 231.253 87.5701 227.52C89.7034 223.787 92.7167 220.907 96.6101 218.88C100.503 216.853 105.09 215.84 110.37 215.84C115.597 215.84 120.13 216.853 123.97 218.88C127.81 220.907 130.77 223.787 132.85 227.52C134.93 231.253 135.97 235.68 135.97 240.8C135.97 245.867 134.93 250.293 132.85 254.08C130.77 257.813 127.783 260.693 123.89 262.72C120.05 264.747 115.517 265.76 110.29 265.76ZM110.29 254.24C114.29 254.24 117.357 253.04 119.49 250.64C121.623 248.187 122.69 244.88 122.69 240.72C122.69 236.56 121.623 233.307 119.49 230.96C117.357 228.56 114.29 227.36 110.29 227.36C106.237 227.36 103.117 228.56 100.93 230.96C98.7967 233.307 97.7301 236.56 97.7301 240.72C97.7301 244.88 98.7967 248.187 100.93 250.64C103.117 253.04 106.237 254.24 110.29 254.24ZM148.063 264.8V229.92H141.503V216.8H154.943V226.24H158.303C159.583 222.88 161.609 220.373 164.383 218.72C167.156 217.067 170.276 216.24 173.743 216.24H177.823V227.76H173.183C169.023 227.76 165.956 228.933 163.983 231.28C162.063 233.627 161.103 236.72 161.103 240.56V264.8H148.063ZM184.979 264.8V197.6H198.259V234H198.579L217.459 216.8H233.299L212.899 235.2L234.819 264.8H219.299L203.539 243.28L198.259 247.6V264.8H184.979ZM258.786 265.76C251.746 265.76 246.173 264.293 242.066 261.36C238.013 258.373 235.826 254.213 235.506 248.88H248.306C248.733 251.173 249.826 252.88 251.586 254C253.4 255.12 255.986 255.68 259.346 255.68C264.84 255.68 267.586 254.16 267.586 251.12C267.586 249.893 267.16 248.933 266.306 248.24C265.506 247.493 264.146 246.933 262.226 246.56L251.506 244.48C241.906 242.613 237.106 238.107 237.106 230.96C237.106 226.373 238.946 222.72 242.626 220C246.306 217.227 251.4 215.84 257.906 215.84C264.36 215.84 269.48 217.253 273.266 220.08C277.053 222.907 279.133 226.853 279.506 231.92H266.706C266.12 229.68 265.08 228.053 263.586 227.04C262.093 226.027 259.933 225.52 257.106 225.52C254.653 225.52 252.786 225.893 251.506 226.64C250.226 227.333 249.586 228.4 249.586 229.84C249.586 230.853 249.986 231.707 250.786 232.4C251.586 233.093 252.813 233.6 254.466 233.92L265.426 236C270.44 237.013 274.12 238.64 276.466 240.88C278.813 243.12 279.986 246.16 279.986 250C279.986 254.96 278.146 258.827 274.466 261.6C270.84 264.373 265.613 265.76 258.786 265.76ZM298.088 244.32C298.088 242.293 298.328 240.453 298.808 238.8C299.341 237.147 300.141 235.573 301.208 234.08C302.274 232.587 303.688 231.093 305.448 229.6L309.688 225.84C311.661 224.133 313.128 222.667 314.088 221.44C315.048 220.16 315.528 218.56 315.528 216.64C315.528 214.56 314.728 212.933 313.128 211.76C311.528 210.533 309.394 209.92 306.728 209.92C304.114 209.92 301.981 210.56 300.328 211.84C298.674 213.12 297.608 215.12 297.128 217.84H283.848C284.594 211.76 286.941 207.12 290.888 203.92C294.888 200.667 300.194 199.04 306.808 199.04C311.181 199.04 314.994 199.733 318.248 201.12C321.501 202.507 324.034 204.507 325.848 207.12C327.661 209.68 328.568 212.747 328.568 216.32C328.568 219.573 327.874 222.32 326.488 224.56C325.154 226.8 323.048 229.147 320.168 231.6L314.728 236.32C312.808 237.973 311.501 239.333 310.808 240.4C310.168 241.467 309.794 242.773 309.688 244.32H298.088ZM303.848 265.76C301.714 265.76 299.901 265.04 298.408 263.6C296.914 262.107 296.168 260.293 296.168 258.16C296.168 255.973 296.914 254.16 298.408 252.72C299.901 251.227 301.714 250.48 303.848 250.48C305.981 250.48 307.768 251.227 309.208 252.72C310.701 254.16 311.448 255.973 311.448 258.16C311.448 260.293 310.701 262.107 309.208 263.6C307.768 265.04 305.981 265.76 303.848 265.76Z" fill="#0000CB"/>
</svg>
