<svg width="402" height="96" viewBox="0 0 402 96" fill="none" xmlns="http://www.w3.org/2000/svg">
<path d="M8.91329 19.6001H6.34662V2.98676H0.139956V0.700097H15.12V2.98676H8.91329V19.6001ZM17.8088 19.6001V9.799e-05H20.3288V7.65343H20.4221C20.8265 6.93788 21.3943 6.3701 22.1254 5.9501C22.8565 5.5301 23.7121 5.3201 24.6921 5.3201C25.7032 5.3201 26.5976 5.56121 27.3754 6.04343C28.1532 6.52565 28.7599 7.19454 29.1954 8.0501C29.631 8.90565 29.8488 9.90121 29.8488 11.0368V19.6001H27.3288V11.4101C27.3288 10.1968 27.0176 9.25565 26.3954 8.58676C25.7888 7.91788 24.9332 7.58343 23.8288 7.58343C22.7243 7.58343 21.861 7.91788 21.2388 8.58676C20.6321 9.25565 20.3288 10.1968 20.3288 11.4101V19.6001H17.8088ZM39.7829 19.8801C38.5229 19.8801 37.3951 19.5845 36.3996 18.9934C35.404 18.3868 34.6185 17.539 34.0429 16.4501C33.4829 15.3457 33.2029 14.0468 33.2029 12.5534C33.2029 11.0757 33.4829 9.8001 34.0429 8.72676C34.6029 7.63787 35.3651 6.79787 36.3296 6.20676C37.294 5.61565 38.3985 5.3201 39.6429 5.3201C40.8096 5.3201 41.844 5.58454 42.7463 6.11343C43.664 6.64232 44.3874 7.40454 44.9163 8.4001C45.4451 9.39565 45.7096 10.5701 45.7096 11.9234V13.0434H35.6296C35.7229 14.459 36.1429 15.5868 36.8896 16.4268C37.6363 17.2668 38.5929 17.6868 39.7596 17.6868C40.5996 17.6868 41.3151 17.4768 41.9063 17.0568C42.4974 16.6368 42.894 16.0612 43.0963 15.3301H45.6629C45.4763 16.279 45.1029 17.0957 44.5429 17.7801C43.9829 18.449 43.2985 18.9701 42.4896 19.3434C41.6807 19.7012 40.7785 19.8801 39.7829 19.8801ZM35.7463 11.1301H43.2596C43.1507 9.97899 42.7696 9.08454 42.1163 8.44676C41.4629 7.80899 40.6307 7.4901 39.6196 7.4901C38.624 7.4901 37.784 7.81676 37.0996 8.4701C36.4151 9.10788 35.964 9.99454 35.7463 11.1301ZM56.5333 19.6001V0.700097H59.1V19.6001H56.5333ZM63.8009 19.6001V5.6001H66.2976V7.86343H66.3909C66.7954 7.05454 67.3632 6.43232 68.0943 5.99676C68.8254 5.56121 69.6887 5.34343 70.6843 5.34343C71.6954 5.34343 72.5898 5.59232 73.3676 6.0901C74.1454 6.57232 74.7521 7.24121 75.1876 8.09676C75.6232 8.95232 75.8409 9.93232 75.8409 11.0368V19.6001H73.3209V11.4801C73.3209 10.2823 73.0098 9.34121 72.3876 8.65676C71.7809 7.97232 70.9254 7.6301 69.8209 7.6301C68.7165 7.6301 67.8532 7.97232 67.2309 8.65676C66.6243 9.34121 66.3209 10.2823 66.3209 11.4801V19.6001H63.8009ZM82.9518 19.6001C82.2362 19.6001 81.6762 19.4134 81.2718 19.0401C80.8673 18.6512 80.6651 18.0757 80.6651 17.3134V7.60676H78.2851V5.6001H80.6884V1.4001H83.1618V5.6001H86.4984V7.60676H83.1851V17.5934H86.8251V19.6001H82.9518ZM95.2907 19.8801C94.0307 19.8801 92.903 19.5845 91.9074 18.9934C90.9118 18.3868 90.1263 17.539 89.5507 16.4501C88.9907 15.3457 88.7107 14.0468 88.7107 12.5534C88.7107 11.0757 88.9907 9.8001 89.5507 8.72676C90.1107 7.63787 90.873 6.79787 91.8374 6.20676C92.8018 5.61565 93.9063 5.3201 95.1507 5.3201C96.3174 5.3201 97.3518 5.58454 98.2541 6.11343C99.1718 6.64232 99.8952 7.40454 100.424 8.4001C100.953 9.39565 101.217 10.5701 101.217 11.9234V13.0434H91.1374C91.2307 14.459 91.6507 15.5868 92.3974 16.4268C93.1441 17.2668 94.1007 17.6868 95.2674 17.6868C96.1074 17.6868 96.823 17.4768 97.4141 17.0568C98.0052 16.6368 98.4018 16.0612 98.6041 15.3301H101.171C100.984 16.279 100.611 17.0957 100.051 17.7801C99.4907 18.449 98.8063 18.9701 97.9974 19.3434C97.1885 19.7012 96.2863 19.8801 95.2907 19.8801ZM91.2541 11.1301H98.7674C98.6585 9.97899 98.2774 9.08454 97.6241 8.44676C96.9707 7.80899 96.1385 7.4901 95.1274 7.4901C94.1318 7.4901 93.2918 7.81676 92.6074 8.4701C91.923 9.10788 91.4718 9.99454 91.2541 11.1301ZM104.937 19.6001V5.6001H107.34V8.4001H107.433C107.744 7.52899 108.25 6.82899 108.95 6.3001C109.665 5.75565 110.537 5.48343 111.563 5.48343H112.59V7.72343H111.423C110.132 7.72343 109.144 8.13565 108.46 8.9601C107.791 9.78454 107.457 10.8968 107.457 12.2968V19.6001H104.937ZM115.508 19.6001V5.6001H118.005V7.86343H118.098C118.502 7.05454 119.07 6.43232 119.801 5.99676C120.532 5.56121 121.396 5.34343 122.391 5.34343C123.402 5.34343 124.297 5.59232 125.075 6.0901C125.852 6.57232 126.459 7.24121 126.895 8.09676C127.33 8.95232 127.548 9.93232 127.548 11.0368V19.6001H125.028V11.4801C125.028 10.2823 124.717 9.34121 124.095 8.65676C123.488 7.97232 122.632 7.6301 121.528 7.6301C120.424 7.6301 119.56 7.97232 118.938 8.65676C118.331 9.34121 118.028 10.2823 118.028 11.4801V19.6001H115.508ZM137.482 19.8801C136.222 19.8801 135.094 19.5845 134.099 18.9934C133.103 18.3868 132.318 17.539 131.742 16.4501C131.182 15.3457 130.902 14.0468 130.902 12.5534C130.902 11.0757 131.182 9.8001 131.742 8.72676C132.302 7.63787 133.064 6.79787 134.029 6.20676C134.993 5.61565 136.098 5.3201 137.342 5.3201C138.509 5.3201 139.543 5.58454 140.445 6.11343C141.363 6.64232 142.087 7.40454 142.615 8.4001C143.144 9.39565 143.409 10.5701 143.409 11.9234V13.0434H133.329C133.422 14.459 133.842 15.5868 134.589 16.4268C135.335 17.2668 136.292 17.6868 137.459 17.6868C138.299 17.6868 139.014 17.4768 139.605 17.0568C140.197 16.6368 140.593 16.0612 140.795 15.3301H143.362C143.175 16.279 142.802 17.0957 142.242 17.7801C141.682 18.449 140.998 18.9701 140.189 19.3434C139.38 19.7012 138.478 19.8801 137.482 19.8801ZM133.445 11.1301H140.959C140.85 9.97899 140.469 9.08454 139.815 8.44676C139.162 7.80899 138.33 7.4901 137.319 7.4901C136.323 7.4901 135.483 7.81676 134.799 8.4701C134.114 9.10788 133.663 9.99454 133.445 11.1301ZM149.835 19.6001C149.119 19.6001 148.559 19.4134 148.155 19.0401C147.75 18.6512 147.548 18.0757 147.548 17.3134V7.60676H145.168V5.6001H147.571V1.4001H150.045V5.6001H153.381V7.60676H150.068V17.5934H153.708V19.6001H149.835ZM163.375 19.6001V5.6001H165.895V19.6001H163.375ZM164.635 3.68676C164.199 3.68676 163.826 3.53121 163.515 3.2201C163.204 2.90899 163.048 2.53565 163.048 2.1001C163.048 1.66454 163.204 1.29121 163.515 0.980097C163.826 0.668986 164.199 0.513431 164.635 0.513431C165.07 0.513431 165.444 0.668986 165.755 0.980097C166.066 1.29121 166.222 1.66454 166.222 2.1001C166.222 2.53565 166.066 2.90899 165.755 3.2201C165.444 3.53121 165.07 3.68676 164.635 3.68676ZM175.029 19.8801C173.349 19.8801 171.981 19.4679 170.923 18.6434C169.881 17.8034 169.313 16.6834 169.219 15.2834H171.693C171.802 16.0923 172.152 16.7145 172.743 17.1501C173.334 17.5701 174.127 17.7801 175.123 17.7801C176.041 17.7801 176.741 17.6012 177.223 17.2434C177.705 16.8857 177.946 16.3801 177.946 15.7268C177.946 14.7001 177.238 14.039 175.823 13.7434L173.513 13.2301C170.993 12.7012 169.733 11.4568 169.733 9.49676C169.733 8.25232 170.199 7.24899 171.133 6.48676C172.066 5.70899 173.287 5.3201 174.796 5.3201C176.289 5.3201 177.518 5.71676 178.483 6.5101C179.463 7.28788 180.015 8.34565 180.139 9.68343H177.713C177.557 8.95232 177.215 8.39232 176.686 8.00343C176.173 7.59899 175.504 7.39676 174.679 7.39676C173.886 7.39676 173.256 7.56788 172.789 7.9101C172.323 8.25232 172.089 8.71899 172.089 9.3101C172.089 9.77676 172.253 10.1579 172.579 10.4534C172.906 10.7334 173.427 10.9512 174.143 11.1068L176.476 11.5968C177.752 11.8768 178.701 12.3434 179.323 12.9968C179.961 13.6345 180.279 14.4745 180.279 15.5168C180.279 16.8545 179.813 17.9201 178.879 18.7134C177.946 19.4912 176.663 19.8801 175.029 19.8801ZM194.019 19.8568C192.635 19.8568 191.507 19.4679 190.636 18.6901C189.78 17.8968 189.353 16.8779 189.353 15.6334C189.353 14.3112 189.78 13.2845 190.636 12.5534C191.507 11.8068 192.736 11.4334 194.323 11.4334H198.406V10.7334C198.406 9.70676 198.126 8.91343 197.566 8.35343C197.021 7.77788 196.251 7.4901 195.256 7.4901C194.431 7.4901 193.747 7.68454 193.203 8.07343C192.674 8.44676 192.324 8.98343 192.153 9.68343H189.586C189.819 8.3301 190.449 7.26454 191.476 6.48676C192.503 5.70899 193.778 5.3201 195.303 5.3201C197.029 5.3201 198.375 5.78676 199.339 6.7201C200.319 7.65343 200.809 8.96788 200.809 10.6634V19.6001H198.429V17.1734H198.336C197.978 17.9979 197.41 18.6512 196.633 19.1334C195.855 19.6157 194.984 19.8568 194.019 19.8568ZM194.533 17.7568C195.264 17.7568 195.917 17.5857 196.493 17.2434C197.084 16.9012 197.55 16.4423 197.893 15.8668C198.235 15.2757 198.406 14.6223 198.406 13.9068V13.3468H194.486C193.584 13.3468 192.891 13.5412 192.409 13.9301C191.943 14.3034 191.709 14.8323 191.709 15.5168C191.709 16.2012 191.966 16.7457 192.479 17.1501C192.993 17.5545 193.677 17.7568 194.533 17.7568ZM217.374 25.4801C215.647 25.4801 214.208 25.0601 213.057 24.2201C211.906 23.3957 211.237 22.2912 211.051 20.9068H213.734C213.89 21.6534 214.286 22.2368 214.924 22.6568C215.562 23.0768 216.363 23.2868 217.327 23.2868C218.572 23.2868 219.544 22.929 220.244 22.2134C220.96 21.4979 221.317 20.5257 221.317 19.2968V17.0334H221.224C220.882 17.8579 220.345 18.4957 219.614 18.9468C218.898 19.3823 218.051 19.6001 217.071 19.6001C215.888 19.6001 214.846 19.3045 213.944 18.7134C213.057 18.1068 212.365 17.2668 211.867 16.1934C211.37 15.1201 211.121 13.8757 211.121 12.4601C211.121 11.0445 211.37 9.8001 211.867 8.72676C212.365 7.65343 213.057 6.82121 213.944 6.2301C214.846 5.62343 215.888 5.3201 217.071 5.3201C218.051 5.3201 218.898 5.54565 219.614 5.99676C220.345 6.43232 220.882 7.05454 221.224 7.86343H221.317V5.6001H223.814V19.4134C223.814 21.2801 223.231 22.7579 222.064 23.8468C220.913 24.9357 219.35 25.4801 217.374 25.4801ZM217.677 17.3134C218.782 17.3134 219.661 16.9557 220.314 16.2401C220.967 15.5245 221.294 14.5757 221.294 13.3934V11.5268C221.294 10.3445 220.96 9.39565 220.291 8.6801C219.637 7.96454 218.766 7.60676 217.677 7.60676C216.448 7.60676 215.468 8.0501 214.737 8.93676C214.006 9.80788 213.641 10.9823 213.641 12.4601C213.641 13.9379 214.006 15.1201 214.737 16.0068C215.468 16.8779 216.448 17.3134 217.677 17.3134ZM228.125 19.6001V9.799e-05H230.645V19.6001H228.125ZM240.783 19.8801C239.523 19.8801 238.395 19.5845 237.399 18.9934C236.404 18.3868 235.618 17.539 235.043 16.4501C234.467 15.3612 234.179 14.0779 234.179 12.6001C234.179 11.1068 234.467 9.81565 235.043 8.72676C235.618 7.63787 236.404 6.79787 237.399 6.20676C238.395 5.61565 239.523 5.3201 240.783 5.3201C242.074 5.3201 243.217 5.61565 244.213 6.20676C245.208 6.79787 245.986 7.63787 246.546 8.72676C247.106 9.81565 247.386 11.1068 247.386 12.6001C247.386 14.0779 247.098 15.369 246.523 16.4734C245.963 17.5623 245.185 18.4023 244.189 18.9934C243.194 19.5845 242.058 19.8801 240.783 19.8801ZM240.783 17.5934C242.027 17.5934 243.015 17.1423 243.746 16.2401C244.493 15.3223 244.866 14.109 244.866 12.6001C244.866 11.0757 244.493 9.86232 243.746 8.9601C243.015 8.05788 242.027 7.60676 240.783 7.60676C239.554 7.60676 238.566 8.05788 237.819 8.9601C237.073 9.86232 236.699 11.0757 236.699 12.6001C236.699 14.109 237.073 15.3223 237.819 16.2401C238.566 17.1423 239.554 17.5934 240.783 17.5934ZM257.716 19.8801C255.662 19.8801 254.231 19.0245 253.422 17.3134H253.329V19.6001H250.832V9.799e-05H253.352V7.86343H253.446C254.239 6.16788 255.662 5.3201 257.716 5.3201C258.882 5.3201 259.901 5.62343 260.772 6.2301C261.643 6.83676 262.32 7.68454 262.802 8.77343C263.284 9.86232 263.526 11.1379 263.526 12.6001C263.526 14.0468 263.284 15.3223 262.802 16.4268C262.32 17.5157 261.643 18.3634 260.772 18.9701C259.901 19.5768 258.882 19.8801 257.716 19.8801ZM257.039 17.6401C258.252 17.6401 259.217 17.1812 259.932 16.2634C260.648 15.3457 261.006 14.1245 261.006 12.6001C261.006 11.0757 260.648 9.85454 259.932 8.93676C259.217 8.01899 258.252 7.5601 257.039 7.5601C255.872 7.5601 254.962 7.93343 254.309 8.6801C253.671 9.41121 253.352 10.3757 253.352 11.5734V13.6268C253.352 14.8245 253.671 15.7968 254.309 16.5434C254.962 17.2745 255.872 17.6401 257.039 17.6401ZM270.609 19.8568C269.225 19.8568 268.097 19.4679 267.226 18.6901C266.37 17.8968 265.942 16.8779 265.942 15.6334C265.942 14.3112 266.37 13.2845 267.226 12.5534C268.097 11.8068 269.326 11.4334 270.912 11.4334H274.996V10.7334C274.996 9.70676 274.716 8.91343 274.156 8.35343C273.611 7.77788 272.841 7.4901 271.846 7.4901C271.021 7.4901 270.337 7.68454 269.792 8.07343C269.263 8.44676 268.913 8.98343 268.742 9.68343H266.176C266.409 8.3301 267.039 7.26454 268.066 6.48676C269.092 5.70899 270.368 5.3201 271.892 5.3201C273.619 5.3201 274.965 5.78676 275.929 6.7201C276.909 7.65343 277.399 8.96788 277.399 10.6634V19.6001H275.019V17.1734H274.926C274.568 17.9979 274 18.6512 273.222 19.1334C272.445 19.6157 271.573 19.8568 270.609 19.8568ZM271.122 17.7568C271.853 17.7568 272.507 17.5857 273.082 17.2434C273.673 16.9012 274.14 16.4423 274.482 15.8668C274.825 15.2757 274.996 14.6223 274.996 13.9068V13.3468H271.076C270.173 13.3468 269.481 13.5412 268.999 13.9301C268.532 14.3034 268.299 14.8323 268.299 15.5168C268.299 16.2012 268.556 16.7457 269.069 17.1501C269.582 17.5545 270.267 17.7568 271.122 17.7568ZM281.609 19.6001V9.799e-05H284.129V19.6001H281.609ZM295.375 19.6001V5.6001H297.872V7.86343H297.965C298.37 7.05454 298.937 6.43232 299.668 5.99676C300.4 5.56121 301.263 5.34343 302.258 5.34343C303.27 5.34343 304.164 5.59232 304.942 6.0901C305.72 6.57232 306.326 7.24121 306.762 8.09676C307.197 8.95232 307.415 9.93232 307.415 11.0368V19.6001H304.895V11.4801C304.895 10.2823 304.584 9.34121 303.962 8.65676C303.355 7.97232 302.5 7.6301 301.395 7.6301C300.291 7.6301 299.427 7.97232 298.805 8.65676C298.198 9.34121 297.895 10.2823 297.895 11.4801V19.6001H295.375ZM317.349 19.8801C316.089 19.8801 314.962 19.5845 313.966 18.9934C312.97 18.3868 312.185 17.539 311.609 16.4501C311.049 15.3457 310.769 14.0468 310.769 12.5534C310.769 11.0757 311.049 9.8001 311.609 8.72676C312.169 7.63787 312.932 6.79787 313.896 6.20676C314.86 5.61565 315.965 5.3201 317.209 5.3201C318.376 5.3201 319.41 5.58454 320.313 6.11343C321.23 6.64232 321.954 7.40454 322.483 8.4001C323.012 9.39565 323.276 10.5701 323.276 11.9234V13.0434H313.196C313.289 14.459 313.709 15.5868 314.456 16.4268C315.203 17.2668 316.159 17.6868 317.326 17.6868C318.166 17.6868 318.882 17.4768 319.473 17.0568C320.064 16.6368 320.46 16.0612 320.663 15.3301H323.229C323.043 16.279 322.669 17.0957 322.109 17.7801C321.549 18.449 320.865 18.9701 320.056 19.3434C319.247 19.7012 318.345 19.8801 317.349 19.8801ZM313.313 11.1301H320.826C320.717 9.97899 320.336 9.08454 319.683 8.44676C319.029 7.80899 318.197 7.4901 317.186 7.4901C316.19 7.4901 315.35 7.81676 314.666 8.4701C313.982 9.10788 313.53 9.99454 313.313 11.1301ZM329.702 19.6001C328.986 19.6001 328.426 19.4134 328.022 19.0401C327.617 18.6512 327.415 18.0757 327.415 17.3134V7.60676H325.035V5.6001H327.438V1.4001H329.912V5.6001H333.248V7.60676H329.935V17.5934H333.575V19.6001H329.702ZM338.099 19.6001L334.086 5.6001H336.653L339.593 16.4968H339.686L343.116 5.6001H345.729L349.159 16.4968H349.253L352.193 5.6001H354.713L350.699 19.6001H347.899L344.446 8.6801H344.353L340.899 19.6001H338.099ZM362.599 19.8801C361.339 19.8801 360.211 19.5845 359.216 18.9934C358.22 18.3868 357.435 17.539 356.859 16.4501C356.284 15.3612 355.996 14.0779 355.996 12.6001C355.996 11.1068 356.284 9.81565 356.859 8.72676C357.435 7.63787 358.22 6.79787 359.216 6.20676C360.211 5.61565 361.339 5.3201 362.599 5.3201C363.89 5.3201 365.034 5.61565 366.029 6.20676C367.025 6.79787 367.803 7.63787 368.363 8.72676C368.923 9.81565 369.203 11.1068 369.203 12.6001C369.203 14.0779 368.915 15.369 368.339 16.4734C367.779 17.5623 367.001 18.4023 366.006 18.9934C365.01 19.5845 363.875 19.8801 362.599 19.8801ZM362.599 17.5934C363.844 17.5934 364.831 17.1423 365.563 16.2401C366.309 15.3223 366.683 14.109 366.683 12.6001C366.683 11.0757 366.309 9.86232 365.563 8.9601C364.831 8.05788 363.844 7.60676 362.599 7.60676C361.37 7.60676 360.383 8.05788 359.636 8.9601C358.889 9.86232 358.516 11.0757 358.516 12.6001C358.516 14.109 358.889 15.3223 359.636 16.2401C360.383 17.1423 361.37 17.5934 362.599 17.5934ZM372.905 19.6001V5.6001H375.309V8.4001H375.402C375.713 7.52899 376.219 6.82899 376.919 6.3001C377.634 5.75565 378.505 5.48343 379.532 5.48343H380.559V7.72343H379.392C378.101 7.72343 377.113 8.13565 376.429 8.9601C375.76 9.78454 375.425 10.8968 375.425 12.2968V19.6001H372.905ZM383.477 19.6001V9.799e-05H385.997V11.9001H386.09L392.157 5.6001H395.19L389.45 11.4568L395.727 19.6001H392.67L387.7 13.0434L385.997 14.5601V19.6001H383.477ZM7.51329 54.8801C6.25329 54.8801 5.12551 54.5845 4.12996 53.9934C3.1344 53.3868 2.34884 52.539 1.77329 51.4501C1.19773 50.3612 0.909956 49.0779 0.909956 47.6001C0.909956 46.1068 1.19773 44.8157 1.77329 43.7268C2.34884 42.6379 3.1344 41.7979 4.12996 41.2068C5.12551 40.6157 6.25329 40.3201 7.51329 40.3201C8.8044 40.3201 9.94773 40.6157 10.9433 41.2068C11.9388 41.7979 12.7166 42.6379 13.2766 43.7268C13.8366 44.8157 14.1166 46.1068 14.1166 47.6001C14.1166 49.0779 13.8288 50.369 13.2533 51.4734C12.6933 52.5623 11.9155 53.4023 10.92 53.9934C9.9244 54.5845 8.78885 54.8801 7.51329 54.8801ZM7.51329 52.5934C8.75773 52.5934 9.74551 52.1423 10.4766 51.2401C11.2233 50.3223 11.5966 49.109 11.5966 47.6001C11.5966 46.0757 11.2233 44.8623 10.4766 43.9601C9.74551 43.0579 8.75773 42.6068 7.51329 42.6068C6.2844 42.6068 5.29662 43.0579 4.54996 43.9601C3.80329 44.8623 3.42996 46.0757 3.42996 47.6001C3.42996 49.109 3.80329 50.3223 4.54996 51.2401C5.29662 52.1423 6.2844 52.5934 7.51329 52.5934ZM18.426 54.6001V42.6068H15.8593V40.6001H18.4493V37.3568C18.4493 36.5634 18.6516 35.9723 19.056 35.5834C19.476 35.1945 20.0593 35.0001 20.806 35.0001H24.3527V37.0068H20.9227V40.6001H24.0727V42.6068H20.946V54.6001H18.426ZM39.2714 54.8801C38.027 54.8801 36.907 54.5845 35.9114 53.9934C34.9314 53.3868 34.1536 52.539 33.5781 51.4501C33.0181 50.3612 32.7381 49.0779 32.7381 47.6001C32.7381 46.1068 33.0181 44.8157 33.5781 43.7268C34.1536 42.6379 34.9314 41.7979 35.9114 41.2068C36.907 40.6157 38.027 40.3201 39.2714 40.3201C40.2514 40.3201 41.1459 40.5068 41.9547 40.8801C42.7792 41.2379 43.4714 41.7823 44.0314 42.5134C44.607 43.229 45.0036 44.139 45.2214 45.2434H42.6081C42.3903 44.3257 41.9781 43.6568 41.3714 43.2368C40.7803 42.8168 40.0803 42.6068 39.2714 42.6068C38.0736 42.6068 37.1014 43.0579 36.3547 43.9601C35.6236 44.8623 35.2581 46.0757 35.2581 47.6001C35.2581 49.109 35.6236 50.3223 36.3547 51.2401C37.1014 52.1423 38.0736 52.5934 39.2714 52.5934C40.127 52.5934 40.8581 52.3679 41.4647 51.9168C42.087 51.4657 42.5147 50.7345 42.7481 49.7234H45.2914C45.0892 50.8745 44.7003 51.8312 44.1247 52.5934C43.5492 53.3557 42.8492 53.9312 42.0247 54.3201C41.2003 54.6934 40.2825 54.8801 39.2714 54.8801ZM53.8609 54.8801C52.6009 54.8801 51.4732 54.5845 50.4776 53.9934C49.4821 53.3868 48.6965 52.539 48.1209 51.4501C47.5454 50.3612 47.2576 49.0779 47.2576 47.6001C47.2576 46.1068 47.5454 44.8157 48.1209 43.7268C48.6965 42.6379 49.4821 41.7979 50.4776 41.2068C51.4732 40.6157 52.6009 40.3201 53.8609 40.3201C55.1521 40.3201 56.2954 40.6157 57.2909 41.2068C58.2865 41.7979 59.0643 42.6379 59.6243 43.7268C60.1843 44.8157 60.4643 46.1068 60.4643 47.6001C60.4643 49.0779 60.1765 50.369 59.6009 51.4734C59.0409 52.5623 58.2632 53.4023 57.2676 53.9934C56.2721 54.5845 55.1365 54.8801 53.8609 54.8801ZM53.8609 52.5934C55.1054 52.5934 56.0932 52.1423 56.8243 51.2401C57.5709 50.3223 57.9443 49.109 57.9443 47.6001C57.9443 46.0757 57.5709 44.8623 56.8243 43.9601C56.0932 43.0579 55.1054 42.6068 53.8609 42.6068C52.6321 42.6068 51.6443 43.0579 50.8976 43.9601C50.1509 44.8623 49.7776 46.0757 49.7776 47.6001C49.7776 49.109 50.1509 50.3223 50.8976 51.2401C51.6443 52.1423 52.6321 52.5934 53.8609 52.5934ZM63.9103 54.6001V40.6001H66.3837V42.8634H66.477C66.8348 42.039 67.3559 41.4168 68.0403 40.9968C68.7403 40.5612 69.557 40.3434 70.4903 40.3434C71.4392 40.3434 72.2792 40.5768 73.0103 41.0434C73.757 41.4945 74.3248 42.1479 74.7137 43.0034H74.7837C75.2503 42.1479 75.857 41.4945 76.6037 41.0434C77.3503 40.5768 78.2137 40.3434 79.1937 40.3434C80.1892 40.3434 81.0681 40.5768 81.8303 41.0434C82.5925 41.4945 83.1759 42.1401 83.5803 42.9801C84.0003 43.8201 84.2103 44.8079 84.2103 45.9434V54.6001H81.6903V46.3168C81.6903 45.1501 81.4103 44.2479 80.8503 43.6101C80.2903 42.9568 79.5125 42.6301 78.517 42.6301C77.537 42.6301 76.7592 42.9568 76.1837 43.6101C75.6081 44.2479 75.3203 45.1501 75.3203 46.3168V54.6001H72.8003V46.3168C72.8003 45.1501 72.5125 44.2479 71.937 43.6101C71.377 42.9568 70.5992 42.6301 69.6037 42.6301C68.6237 42.6301 67.8459 42.9568 67.2703 43.6101C66.7103 44.2479 66.4303 45.1501 66.4303 46.3168V54.6001H63.9103ZM88.3556 60.2001V40.6001H90.8523V42.8868H90.9456C91.7545 41.1757 93.1856 40.3201 95.239 40.3201C96.4056 40.3201 97.4245 40.6234 98.2956 41.2301C99.1667 41.8368 99.8434 42.6845 100.326 43.7734C100.808 44.8623 101.049 46.1379 101.049 47.6001C101.049 49.0468 100.808 50.3223 100.326 51.4268C99.8434 52.5157 99.1667 53.3634 98.2956 53.9701C97.4245 54.5768 96.4056 54.8801 95.239 54.8801C93.1856 54.8801 91.7623 54.0323 90.969 52.3368H90.8756V60.2001H88.3556ZM94.5623 52.6401C95.7756 52.6401 96.7401 52.1812 97.4556 51.2634C98.1712 50.3457 98.529 49.1245 98.529 47.6001C98.529 46.0757 98.1712 44.8545 97.4556 43.9368C96.7401 43.019 95.7756 42.5601 94.5623 42.5601C93.3956 42.5601 92.4856 42.9334 91.8323 43.6801C91.1945 44.4112 90.8756 45.3757 90.8756 46.5734V48.6268C90.8756 49.8245 91.1945 50.789 91.8323 51.5201C92.4856 52.2357 93.3956 52.609 94.5623 52.6401ZM109.532 54.8568C108.521 54.8568 107.627 54.6234 106.849 54.1568C106.087 53.6901 105.488 53.0368 105.052 52.1968C104.632 51.3568 104.422 50.3923 104.422 49.3034V40.6001H106.942V48.7434C106.942 49.9412 107.238 50.8823 107.829 51.5668C108.42 52.2357 109.245 52.5701 110.302 52.5701C111.407 52.5701 112.286 52.2201 112.939 51.5201C113.608 50.8045 113.942 49.8712 113.942 48.7201V40.6001H116.462V54.6001H113.966V52.1734H113.872C113.484 53.0445 112.916 53.7134 112.169 54.1801C111.422 54.6312 110.544 54.8568 109.532 54.8568ZM123.667 54.6001C122.951 54.6001 122.391 54.4134 121.987 54.0401C121.582 53.6512 121.38 53.0757 121.38 52.3134V42.6068H119V40.6001H121.403V36.4001H123.877V40.6001H127.213V42.6068H123.9V52.5934H127.54V54.6001H123.667ZM136.006 54.8801C134.746 54.8801 133.618 54.5845 132.622 53.9934C131.627 53.3868 130.841 52.539 130.266 51.4501C129.706 50.3457 129.426 49.0468 129.426 47.5534C129.426 46.0757 129.706 44.8001 130.266 43.7268C130.826 42.6379 131.588 41.7979 132.552 41.2068C133.517 40.6157 134.621 40.3201 135.866 40.3201C137.032 40.3201 138.067 40.5845 138.969 41.1134C139.887 41.6423 140.61 42.4045 141.139 43.4001C141.668 44.3957 141.932 45.5701 141.932 46.9234V48.0434H131.852C131.946 49.459 132.366 50.5868 133.112 51.4268C133.859 52.2668 134.816 52.6868 135.982 52.6868C136.822 52.6868 137.538 52.4768 138.129 52.0568C138.72 51.6368 139.117 51.0612 139.319 50.3301H141.886C141.699 51.279 141.326 52.0957 140.766 52.7801C140.206 53.449 139.521 53.9701 138.712 54.3434C137.903 54.7012 137.001 54.8801 136.006 54.8801ZM131.969 46.1301H139.482C139.373 44.979 138.992 44.0845 138.339 43.4468C137.686 42.809 136.853 42.4901 135.842 42.4901C134.847 42.4901 134.007 42.8168 133.322 43.4701C132.638 44.1079 132.187 44.9945 131.969 46.1301ZM145.651 54.6001V40.6001H148.055V43.4001H148.148C148.459 42.529 148.965 41.829 149.665 41.3001C150.38 40.7557 151.251 40.4834 152.278 40.4834H153.305V42.7234H152.138C150.847 42.7234 149.859 43.1357 149.175 43.9601C148.506 44.7845 148.171 45.8968 148.171 47.2968V54.6001H145.651ZM160.565 54.8801C158.885 54.8801 157.516 54.4679 156.458 53.6434C155.416 52.8034 154.848 51.6834 154.755 50.2834H157.228C157.337 51.0923 157.687 51.7145 158.278 52.1501C158.869 52.5701 159.662 52.7801 160.658 52.7801C161.576 52.7801 162.276 52.6012 162.758 52.2434C163.24 51.8857 163.481 51.3801 163.481 50.7268C163.481 49.7001 162.774 49.039 161.358 48.7434L159.048 48.2301C156.528 47.7012 155.268 46.4568 155.268 44.4968C155.268 43.2523 155.735 42.249 156.668 41.4868C157.601 40.709 158.822 40.3201 160.331 40.3201C161.825 40.3201 163.054 40.7168 164.018 41.5101C164.998 42.2879 165.55 43.3457 165.675 44.6834H163.248C163.092 43.9523 162.75 43.3923 162.221 43.0034C161.708 42.599 161.039 42.3968 160.215 42.3968C159.421 42.3968 158.791 42.5679 158.325 42.9101C157.858 43.2523 157.625 43.719 157.625 44.3101C157.625 44.7768 157.788 45.1579 158.115 45.4534C158.441 45.7334 158.962 45.9512 159.678 46.1068L162.011 46.5968C163.287 46.8768 164.236 47.3434 164.858 47.9968C165.496 48.6345 165.815 49.4745 165.815 50.5168C165.815 51.8545 165.348 52.9201 164.415 53.7134C163.481 54.4912 162.198 54.8801 160.565 54.8801ZM178.901 54.6001C178.185 54.6001 177.625 54.4134 177.221 54.0401C176.817 53.6512 176.614 53.0757 176.614 52.3134V42.6068H174.234V40.6001H176.638V36.4001H179.111V40.6001H182.448V42.6068H179.134V52.5934H182.774V54.6001H178.901ZM185.453 54.6001V35.0001H187.973V42.6534H188.067C188.471 41.9379 189.039 41.3701 189.77 40.9501C190.501 40.5301 191.357 40.3201 192.337 40.3201C193.348 40.3201 194.242 40.5612 195.02 41.0434C195.798 41.5257 196.404 42.1945 196.84 43.0501C197.276 43.9057 197.493 44.9012 197.493 46.0368V54.6001H194.973V46.4101C194.973 45.1968 194.662 44.2557 194.04 43.5868C193.433 42.9179 192.578 42.5834 191.473 42.5834C190.369 42.5834 189.506 42.9179 188.883 43.5868C188.277 44.2557 187.973 45.1968 187.973 46.4101V54.6001H185.453ZM205.257 54.8568C203.873 54.8568 202.745 54.4679 201.874 53.6901C201.019 52.8968 200.591 51.8779 200.591 50.6334C200.591 49.3112 201.019 48.2845 201.874 47.5534C202.745 46.8068 203.974 46.4334 205.561 46.4334H209.644V45.7334C209.644 44.7068 209.364 43.9134 208.804 43.3534C208.26 42.7779 207.49 42.4901 206.494 42.4901C205.67 42.4901 204.985 42.6845 204.441 43.0734C203.912 43.4468 203.562 43.9834 203.391 44.6834H200.824C201.057 43.3301 201.687 42.2645 202.714 41.4868C203.741 40.709 205.016 40.3201 206.541 40.3201C208.267 40.3201 209.613 40.7868 210.577 41.7201C211.557 42.6534 212.047 43.9679 212.047 45.6634V54.6001H209.667V52.1734H209.574C209.216 52.9979 208.649 53.6512 207.871 54.1334C207.093 54.6157 206.222 54.8568 205.257 54.8568ZM205.771 52.7568C206.502 52.7568 207.155 52.5857 207.731 52.2434C208.322 51.9012 208.789 51.4423 209.131 50.8668C209.473 50.2757 209.644 49.6223 209.644 48.9068V48.3468H205.724C204.822 48.3468 204.13 48.5412 203.647 48.9301C203.181 49.3034 202.947 49.8323 202.947 50.5168C202.947 51.2012 203.204 51.7457 203.717 52.1501C204.231 52.5545 204.915 52.7568 205.771 52.7568ZM219.151 54.6001C218.435 54.6001 217.875 54.4134 217.471 54.0401C217.067 53.6512 216.864 53.0757 216.864 52.3134V42.6068H214.484V40.6001H216.888V36.4001H219.361V40.6001H222.698V42.6068H219.384V52.5934H223.024V54.6001H219.151ZM238.361 54.8801C237.117 54.8801 235.997 54.5845 235.001 53.9934C234.021 53.3868 233.243 52.539 232.668 51.4501C232.108 50.3612 231.828 49.0779 231.828 47.6001C231.828 46.1068 232.108 44.8157 232.668 43.7268C233.243 42.6379 234.021 41.7979 235.001 41.2068C235.997 40.6157 237.117 40.3201 238.361 40.3201C239.341 40.3201 240.236 40.5068 241.045 40.8801C241.869 41.2379 242.561 41.7823 243.121 42.5134C243.697 43.229 244.093 44.139 244.311 45.2434H241.698C241.48 44.3257 241.068 43.6568 240.461 43.2368C239.87 42.8168 239.17 42.6068 238.361 42.6068C237.163 42.6068 236.191 43.0579 235.445 43.9601C234.713 44.8623 234.348 46.0757 234.348 47.6001C234.348 49.109 234.713 50.3223 235.445 51.2401C236.191 52.1423 237.163 52.5934 238.361 52.5934C239.217 52.5934 239.948 52.3679 240.555 51.9168C241.177 51.4657 241.605 50.7345 241.838 49.7234H244.381C244.179 50.8745 243.79 51.8312 243.215 52.5934C242.639 53.3557 241.939 53.9312 241.115 54.3201C240.29 54.6934 239.372 54.8801 238.361 54.8801ZM252.951 54.8801C251.691 54.8801 250.563 54.5845 249.567 53.9934C248.572 53.3868 247.786 52.539 247.211 51.4501C246.635 50.3612 246.347 49.0779 246.347 47.6001C246.347 46.1068 246.635 44.8157 247.211 43.7268C247.786 42.6379 248.572 41.7979 249.567 41.2068C250.563 40.6157 251.691 40.3201 252.951 40.3201C254.242 40.3201 255.385 40.6157 256.381 41.2068C257.376 41.7979 258.154 42.6379 258.714 43.7268C259.274 44.8157 259.554 46.1068 259.554 47.6001C259.554 49.0779 259.266 50.369 258.691 51.4734C258.131 52.5623 257.353 53.4023 256.357 53.9934C255.362 54.5845 254.226 54.8801 252.951 54.8801ZM252.951 52.5934C254.195 52.5934 255.183 52.1423 255.914 51.2401C256.661 50.3223 257.034 49.109 257.034 47.6001C257.034 46.0757 256.661 44.8623 255.914 43.9601C255.183 43.0579 254.195 42.6068 252.951 42.6068C251.722 42.6068 250.734 43.0579 249.987 43.9601C249.241 44.8623 248.867 46.0757 248.867 47.6001C248.867 49.109 249.241 50.3223 249.987 51.2401C250.734 52.1423 251.722 52.5934 252.951 52.5934ZM263 54.6001V40.6001H265.473V42.8634H265.567C265.925 42.039 266.446 41.4168 267.13 40.9968C267.83 40.5612 268.647 40.3434 269.58 40.3434C270.529 40.3434 271.369 40.5768 272.1 41.0434C272.847 41.4945 273.415 42.1479 273.803 43.0034H273.873C274.34 42.1479 274.947 41.4945 275.693 41.0434C276.44 40.5768 277.303 40.3434 278.283 40.3434C279.279 40.3434 280.158 40.5768 280.92 41.0434C281.682 41.4945 282.266 42.1401 282.67 42.9801C283.09 43.8201 283.3 44.8079 283.3 45.9434V54.6001H280.78V46.3168C280.78 45.1501 280.5 44.2479 279.94 43.6101C279.38 42.9568 278.602 42.6301 277.607 42.6301C276.627 42.6301 275.849 42.9568 275.273 43.6101C274.698 44.2479 274.41 45.1501 274.41 46.3168V54.6001H271.89V46.3168C271.89 45.1501 271.602 44.2479 271.027 43.6101C270.467 42.9568 269.689 42.6301 268.693 42.6301C267.713 42.6301 266.936 42.9568 266.36 43.6101C265.8 44.2479 265.52 45.1501 265.52 46.3168V54.6001H263ZM287.445 54.6001V40.6001H289.919V42.8634H290.012C290.37 42.039 290.891 41.4168 291.575 40.9968C292.275 40.5612 293.092 40.3434 294.025 40.3434C294.974 40.3434 295.814 40.5768 296.545 41.0434C297.292 41.4945 297.86 42.1479 298.249 43.0034H298.319C298.785 42.1479 299.392 41.4945 300.139 41.0434C300.885 40.5768 301.749 40.3434 302.729 40.3434C303.724 40.3434 304.603 40.5768 305.365 41.0434C306.128 41.4945 306.711 42.1401 307.115 42.9801C307.535 43.8201 307.745 44.8079 307.745 45.9434V54.6001H305.225V46.3168C305.225 45.1501 304.945 44.2479 304.385 43.6101C303.825 42.9568 303.048 42.6301 302.052 42.6301C301.072 42.6301 300.294 42.9568 299.719 43.6101C299.143 44.2479 298.855 45.1501 298.855 46.3168V54.6001H296.335V46.3168C296.335 45.1501 296.048 44.2479 295.472 43.6101C294.912 42.9568 294.134 42.6301 293.139 42.6301C292.159 42.6301 291.381 42.9568 290.805 43.6101C290.245 44.2479 289.965 45.1501 289.965 46.3168V54.6001H287.445ZM316.907 54.8568C315.896 54.8568 315.002 54.6234 314.224 54.1568C313.462 53.6901 312.863 53.0368 312.427 52.1968C312.007 51.3568 311.797 50.3923 311.797 49.3034V40.6001H314.317V48.7434C314.317 49.9412 314.613 50.8823 315.204 51.5668C315.795 52.2357 316.62 52.5701 317.677 52.5701C318.782 52.5701 319.661 52.2201 320.314 51.5201C320.983 50.8045 321.317 49.8712 321.317 48.7201V40.6001H323.837V54.6001H321.341V52.1734H321.247C320.859 53.0445 320.291 53.7134 319.544 54.1801C318.797 54.6312 317.919 54.8568 316.907 54.8568ZM328.078 54.6001V40.6001H330.575V42.8634H330.668C331.073 42.0545 331.641 41.4323 332.372 40.9968C333.103 40.5612 333.966 40.3434 334.962 40.3434C335.973 40.3434 336.867 40.5923 337.645 41.0901C338.423 41.5723 339.029 42.2412 339.465 43.0968C339.901 43.9523 340.118 44.9323 340.118 46.0368V54.6001H337.598V46.4801C337.598 45.2823 337.287 44.3412 336.665 43.6568C336.058 42.9723 335.203 42.6301 334.098 42.6301C332.994 42.6301 332.131 42.9723 331.508 43.6568C330.902 44.3412 330.598 45.2823 330.598 46.4801V54.6001H328.078ZM344.336 54.6001V40.6001H346.856V54.6001H344.336ZM345.596 38.6868C345.16 38.6868 344.787 38.5312 344.476 38.2201C344.165 37.909 344.009 37.5357 344.009 37.1001C344.009 36.6645 344.165 36.2912 344.476 35.9801C344.787 35.669 345.16 35.5134 345.596 35.5134C346.031 35.5134 346.405 35.669 346.716 35.9801C347.027 36.2912 347.182 36.6645 347.182 37.1001C347.182 37.5357 347.027 37.909 346.716 38.2201C346.405 38.5312 346.031 38.6868 345.596 38.6868ZM356.924 54.8801C355.679 54.8801 354.559 54.5845 353.564 53.9934C352.584 53.3868 351.806 52.539 351.23 51.4501C350.67 50.3612 350.39 49.0779 350.39 47.6001C350.39 46.1068 350.67 44.8157 351.23 43.7268C351.806 42.6379 352.584 41.7979 353.564 41.2068C354.559 40.6157 355.679 40.3201 356.924 40.3201C357.904 40.3201 358.798 40.5068 359.607 40.8801C360.432 41.2379 361.124 41.7823 361.684 42.5134C362.259 43.229 362.656 44.139 362.874 45.2434H360.26C360.043 44.3257 359.63 43.6568 359.024 43.2368C358.433 42.8168 357.733 42.6068 356.924 42.6068C355.726 42.6068 354.754 43.0579 354.007 43.9601C353.276 44.8623 352.91 46.0757 352.91 47.6001C352.91 49.109 353.276 50.3223 354.007 51.2401C354.754 52.1423 355.726 52.5934 356.924 52.5934C357.779 52.5934 358.51 52.3679 359.117 51.9168C359.739 51.4657 360.167 50.7345 360.4 49.7234H362.944C362.742 50.8745 362.353 51.8312 361.777 52.5934C361.202 53.3557 360.502 53.9312 359.677 54.3201C358.853 54.6934 357.935 54.8801 356.924 54.8801ZM369.32 54.8568C367.936 54.8568 366.808 54.4679 365.937 53.6901C365.081 52.8968 364.653 51.8779 364.653 50.6334C364.653 49.3112 365.081 48.2845 365.937 47.5534C366.808 46.8068 368.037 46.4334 369.623 46.4334H373.707V45.7334C373.707 44.7068 373.427 43.9134 372.867 43.3534C372.322 42.7779 371.552 42.4901 370.557 42.4901C369.732 42.4901 369.048 42.6845 368.503 43.0734C367.974 43.4468 367.624 43.9834 367.453 44.6834H364.887C365.12 43.3301 365.75 42.2645 366.777 41.4868C367.803 40.709 369.079 40.3201 370.603 40.3201C372.33 40.3201 373.676 40.7868 374.64 41.7201C375.62 42.6534 376.11 43.9679 376.11 45.6634V54.6001H373.73V52.1734H373.637C373.279 52.9979 372.711 53.6512 371.933 54.1334C371.156 54.6157 370.284 54.8568 369.32 54.8568ZM369.833 52.7568C370.564 52.7568 371.218 52.5857 371.793 52.2434C372.384 51.9012 372.851 51.4423 373.193 50.8668C373.536 50.2757 373.707 49.6223 373.707 48.9068V48.3468H369.787C368.884 48.3468 368.192 48.5412 367.71 48.9301C367.243 49.3034 367.01 49.8323 367.01 50.5168C367.01 51.2012 367.267 51.7457 367.78 52.1501C368.293 52.5545 368.978 52.7568 369.833 52.7568ZM383.213 54.6001C382.498 54.6001 381.938 54.4134 381.533 54.0401C381.129 53.6512 380.927 53.0757 380.927 52.3134V42.6068H378.547V40.6001H380.95V36.4001H383.423V40.6001H386.76V42.6068H383.447V52.5934H387.087V54.6001H383.213ZM395.552 54.8801C394.292 54.8801 393.165 54.5845 392.169 53.9934C391.174 53.3868 390.388 52.539 389.812 51.4501C389.252 50.3457 388.972 49.0468 388.972 47.5534C388.972 46.0757 389.252 44.8001 389.812 43.7268C390.372 42.6379 391.135 41.7979 392.099 41.2068C393.064 40.6157 394.168 40.3201 395.412 40.3201C396.579 40.3201 397.614 40.5845 398.516 41.1134C399.434 41.6423 400.157 42.4045 400.686 43.4001C401.215 44.3957 401.479 45.5701 401.479 46.9234V48.0434H391.399C391.492 49.459 391.912 50.5868 392.659 51.4268C393.406 52.2668 394.362 52.6868 395.529 52.6868C396.369 52.6868 397.085 52.4768 397.676 52.0568C398.267 51.6368 398.664 51.0612 398.866 50.3301H401.432C401.246 51.279 400.872 52.0957 400.312 52.7801C399.752 53.449 399.068 53.9701 398.259 54.3434C397.45 54.7012 396.548 54.8801 395.552 54.8801ZM391.516 46.1301H399.029C398.92 44.979 398.539 44.0845 397.886 43.4468C397.232 42.809 396.4 42.4901 395.389 42.4901C394.394 42.4901 393.554 42.8168 392.869 43.4701C392.185 44.1079 391.734 44.9945 391.516 46.1301ZM4.01329 89.6001L-4.39286e-05 75.6001H2.56662L5.50662 86.4968H5.59996L9.02996 75.6001H11.6433L15.0733 86.4968H15.1666L18.1066 75.6001H20.6266L16.6133 89.6001H13.8133L10.36 78.6801H10.2666L6.81329 89.6001H4.01329ZM23.2381 89.6001V75.6001H25.7581V89.6001H23.2381ZM24.4981 73.6868C24.0626 73.6868 23.6892 73.5312 23.3781 73.2201C23.067 72.909 22.9115 72.5357 22.9115 72.1001C22.9115 71.6645 23.067 71.2912 23.3781 70.9801C23.6892 70.669 24.0626 70.5134 24.4981 70.5134C24.9337 70.5134 25.307 70.669 25.6181 70.9801C25.9292 71.2912 26.0848 71.6645 26.0848 72.1001C26.0848 72.5357 25.9292 72.909 25.6181 73.2201C25.307 73.5312 24.9337 73.6868 24.4981 73.6868ZM33.0494 89.6001C32.3339 89.6001 31.7739 89.4134 31.3694 89.0401C30.965 88.6512 30.7628 88.0757 30.7628 87.3134V77.6068H28.3828V75.6001H30.7861V71.4001H33.2594V75.6001H36.5961V77.6068H33.2828V87.5934H36.9228V89.6001H33.0494ZM39.6017 89.6001V70.0001H42.1217V77.6534H42.2151C42.6195 76.9379 43.1873 76.3701 43.9184 75.9501C44.6495 75.5301 45.5051 75.3201 46.4851 75.3201C47.4962 75.3201 48.3906 75.5612 49.1684 76.0434C49.9462 76.5257 50.5528 77.1945 50.9884 78.0501C51.4239 78.9057 51.6417 79.9012 51.6417 81.0368V89.6001H49.1217V81.4101C49.1217 80.1968 48.8106 79.2557 48.1884 78.5868C47.5817 77.9179 46.7262 77.5834 45.6217 77.5834C44.5173 77.5834 43.6539 77.9179 43.0317 78.5868C42.4251 79.2557 42.1217 80.1968 42.1217 81.4101V89.6001H39.6017ZM68.4939 89.8801C67.2339 89.8801 66.1061 89.5845 65.1105 88.9934C64.115 88.3868 63.3294 87.539 62.7539 86.4501C62.1939 85.3457 61.9139 84.0468 61.9139 82.5534C61.9139 81.0757 62.1939 79.8001 62.7539 78.7268C63.3139 77.6379 64.0761 76.7979 65.0405 76.2068C66.005 75.6157 67.1094 75.3201 68.3539 75.3201C69.5205 75.3201 70.555 75.5845 71.4572 76.1134C72.375 76.6423 73.0983 77.4045 73.6272 78.4001C74.1561 79.3957 74.4205 80.5701 74.4205 81.9234V83.0434H64.3405C64.4339 84.459 64.8539 85.5868 65.6005 86.4268C66.3472 87.2668 67.3039 87.6868 68.4705 87.6868C69.3105 87.6868 70.0261 87.4768 70.6172 87.0568C71.2083 86.6368 71.605 86.0612 71.8072 85.3301H74.3739C74.1872 86.279 73.8139 87.0957 73.2539 87.7801C72.6939 88.449 72.0094 88.9701 71.2005 89.3434C70.3916 89.7012 69.4894 89.8801 68.4939 89.8801ZM64.4572 81.1301H71.9705C71.8616 79.979 71.4805 79.0845 70.8272 78.4468C70.1739 77.809 69.3416 77.4901 68.3305 77.4901C67.335 77.4901 66.495 77.8168 65.8105 78.4701C65.1261 79.1079 64.675 79.9945 64.4572 81.1301ZM81.4996 89.8568C80.1152 89.8568 78.9874 89.4679 78.1163 88.6901C77.2608 87.8968 76.833 86.8779 76.833 85.6334C76.833 84.3112 77.2608 83.2845 78.1163 82.5534C78.9874 81.8068 80.2163 81.4334 81.803 81.4334H85.8863V80.7334C85.8863 79.7068 85.6063 78.9134 85.0463 78.3534C84.5019 77.7779 83.7319 77.4901 82.7363 77.4901C81.9119 77.4901 81.2274 77.6845 80.683 78.0734C80.1541 78.4468 79.8041 78.9834 79.633 79.6834H77.0663C77.2996 78.3301 77.9296 77.2645 78.9563 76.4868C79.983 75.709 81.2585 75.3201 82.783 75.3201C84.5096 75.3201 85.8552 75.7868 86.8196 76.7201C87.7996 77.6534 88.2896 78.9679 88.2896 80.6634V89.6001H85.9096V87.1734H85.8163C85.4585 87.9979 84.8908 88.6512 84.113 89.1334C83.3352 89.6157 82.4641 89.8568 81.4996 89.8568ZM82.013 87.7568C82.7441 87.7568 83.3974 87.5857 83.973 87.2434C84.5641 86.9012 85.0308 86.4423 85.373 85.8668C85.7152 85.2757 85.8863 84.6223 85.8863 83.9068V83.3468H81.9663C81.0641 83.3468 80.3719 83.5412 79.8896 83.9301C79.423 84.3034 79.1896 84.8323 79.1896 85.5168C79.1896 86.2012 79.4463 86.7457 79.9596 87.1501C80.473 87.5545 81.1574 87.7568 82.013 87.7568ZM98.1699 89.8801C96.9254 89.8801 95.8054 89.5845 94.8099 88.9934C93.8299 88.3868 93.0521 87.539 92.4765 86.4501C91.9165 85.3612 91.6365 84.0779 91.6365 82.6001C91.6365 81.1068 91.9165 79.8157 92.4765 78.7268C93.0521 77.6379 93.8299 76.7979 94.8099 76.2068C95.8054 75.6157 96.9254 75.3201 98.1699 75.3201C99.1499 75.3201 100.044 75.5068 100.853 75.8801C101.678 76.2379 102.37 76.7823 102.93 77.5134C103.505 78.229 103.902 79.139 104.12 80.2434H101.507C101.289 79.3257 100.877 78.6568 100.27 78.2368C99.6787 77.8168 98.9787 77.6068 98.1699 77.6068C96.9721 77.6068 95.9999 78.0579 95.2532 78.9601C94.5221 79.8623 94.1565 81.0757 94.1565 82.6001C94.1565 84.109 94.5221 85.3223 95.2532 86.2401C95.9999 87.1423 96.9721 87.5934 98.1699 87.5934C99.0254 87.5934 99.7565 87.3679 100.363 86.9168C100.985 86.4657 101.413 85.7345 101.647 84.7234H104.19C103.988 85.8745 103.599 86.8312 103.023 87.5934C102.448 88.3557 101.748 88.9312 100.923 89.3201C100.099 89.6934 99.181 89.8801 98.1699 89.8801ZM106.949 89.6001V70.0001H109.469V77.6534H109.563C109.967 76.9379 110.535 76.3701 111.266 75.9501C111.997 75.5301 112.853 75.3201 113.833 75.3201C114.844 75.3201 115.738 75.5612 116.516 76.0434C117.294 76.5257 117.9 77.1945 118.336 78.0501C118.772 78.9057 118.989 79.9012 118.989 81.0368V89.6001H116.469V81.4101C116.469 80.1968 116.158 79.2557 115.536 78.5868C114.929 77.9179 114.074 77.5834 112.969 77.5834C111.865 77.5834 111.002 77.9179 110.379 78.5868C109.773 79.2557 109.469 80.1968 109.469 81.4101V89.6001H106.949ZM135.865 89.8801C134.605 89.8801 133.477 89.5845 132.482 88.9934C131.486 88.3868 130.7 87.539 130.125 86.4501C129.549 85.3612 129.262 84.0779 129.262 82.6001C129.262 81.1068 129.549 79.8157 130.125 78.7268C130.7 77.6379 131.486 76.7979 132.482 76.2068C133.477 75.6157 134.605 75.3201 135.865 75.3201C137.156 75.3201 138.299 75.6157 139.295 76.2068C140.29 76.7979 141.068 77.6379 141.628 78.7268C142.188 79.8157 142.468 81.1068 142.468 82.6001C142.468 84.0779 142.18 85.369 141.605 86.4734C141.045 87.5623 140.267 88.4023 139.272 88.9934C138.276 89.5845 137.14 89.8801 135.865 89.8801ZM135.865 87.5934C137.109 87.5934 138.097 87.1423 138.828 86.2401C139.575 85.3223 139.948 84.109 139.948 82.6001C139.948 81.0757 139.575 79.8623 138.828 78.9601C138.097 78.0579 137.109 77.6068 135.865 77.6068C134.636 77.6068 133.648 78.0579 132.902 78.9601C132.155 79.8623 131.782 81.0757 131.782 82.6001C131.782 84.109 132.155 85.3223 132.902 86.2401C133.648 87.1423 134.636 87.5934 135.865 87.5934ZM148.878 89.6001C148.162 89.6001 147.602 89.4134 147.198 89.0401C146.793 88.6512 146.591 88.0757 146.591 87.3134V77.6068H144.211V75.6001H146.614V71.4001H149.088V75.6001H152.424V77.6068H149.111V87.5934H152.751V89.6001H148.878ZM155.43 89.6001V70.0001H157.95V77.6534H158.043C158.448 76.9379 159.015 76.3701 159.747 75.9501C160.478 75.5301 161.333 75.3201 162.313 75.3201C163.324 75.3201 164.219 75.5612 164.997 76.0434C165.774 76.5257 166.381 77.1945 166.817 78.0501C167.252 78.9057 167.47 79.9012 167.47 81.0368V89.6001H164.95V81.4101C164.95 80.1968 164.639 79.2557 164.017 78.5868C163.41 77.9179 162.554 77.5834 161.45 77.5834C160.345 77.5834 159.482 77.9179 158.86 78.5868C158.253 79.2557 157.95 80.1968 157.95 81.4101V89.6001H155.43ZM177.404 89.8801C176.144 89.8801 175.016 89.5845 174.021 88.9934C173.025 88.3868 172.24 87.539 171.664 86.4501C171.104 85.3457 170.824 84.0468 170.824 82.5534C170.824 81.0757 171.104 79.8001 171.664 78.7268C172.224 77.6379 172.986 76.7979 173.951 76.2068C174.915 75.6157 176.02 75.3201 177.264 75.3201C178.431 75.3201 179.465 75.5845 180.367 76.1134C181.285 76.6423 182.008 77.4045 182.537 78.4001C183.066 79.3957 183.331 80.5701 183.331 81.9234V83.0434H173.251C173.344 84.459 173.764 85.5868 174.511 86.4268C175.257 87.2668 176.214 87.6868 177.381 87.6868C178.221 87.6868 178.936 87.4768 179.527 87.0568C180.118 86.6368 180.515 86.0612 180.717 85.3301H183.284C183.097 86.279 182.724 87.0957 182.164 87.7801C181.604 88.449 180.92 88.9701 180.111 89.3434C179.302 89.7012 178.4 89.8801 177.404 89.8801ZM173.367 81.1301H180.881C180.772 79.979 180.391 79.0845 179.737 78.4468C179.084 77.809 178.252 77.4901 177.241 77.4901C176.245 77.4901 175.405 77.8168 174.721 78.4701C174.036 79.1079 173.585 79.9945 173.367 81.1301ZM187.05 89.6001V75.6001H189.453V78.4001H189.546C189.858 77.529 190.363 76.829 191.063 76.3001C191.779 75.7557 192.65 75.4834 193.676 75.4834H194.703V77.7234H193.536C192.245 77.7234 191.258 78.1357 190.573 78.9601C189.904 79.7845 189.57 80.8968 189.57 82.2968V89.6001H187.05ZM209.556 89.8568C208.545 89.8568 207.65 89.6234 206.873 89.1568C206.11 88.6901 205.511 88.0368 205.076 87.1968C204.656 86.3568 204.446 85.3923 204.446 84.3034V75.6001H206.966V83.7434C206.966 84.9412 207.261 85.8823 207.853 86.5668C208.444 87.2357 209.268 87.5701 210.326 87.5701C211.43 87.5701 212.309 87.2201 212.963 86.5201C213.631 85.8045 213.966 84.8712 213.966 83.7201V75.6001H216.486V89.6001H213.989V87.1734H213.896C213.507 88.0445 212.939 88.7134 212.193 89.1801C211.446 89.6312 210.567 89.8568 209.556 89.8568ZM225.533 89.8801C223.853 89.8801 222.485 89.4679 221.427 88.6434C220.385 87.8034 219.817 86.6834 219.723 85.2834H222.197C222.306 86.0923 222.656 86.7145 223.247 87.1501C223.838 87.5701 224.631 87.7801 225.627 87.7801C226.545 87.7801 227.245 87.6012 227.727 87.2434C228.209 86.8857 228.45 86.3801 228.45 85.7268C228.45 84.7001 227.742 84.039 226.327 83.7434L224.017 83.2301C221.497 82.7012 220.237 81.4568 220.237 79.4968C220.237 78.2523 220.703 77.249 221.637 76.4868C222.57 75.709 223.791 75.3201 225.3 75.3201C226.793 75.3201 228.022 75.7168 228.987 76.5101C229.967 77.2879 230.519 78.3457 230.643 79.6834H228.217C228.061 78.9523 227.719 78.3923 227.19 78.0034C226.677 77.599 226.008 77.3968 225.183 77.3968C224.39 77.3968 223.76 77.5679 223.293 77.9101C222.827 78.2523 222.593 78.719 222.593 79.3101C222.593 79.7768 222.757 80.1579 223.083 80.4534C223.41 80.7334 223.931 80.9512 224.647 81.1068L226.98 81.5968C228.256 81.8768 229.205 82.3434 229.827 82.9968C230.465 83.6345 230.783 84.4745 230.783 85.5168C230.783 86.8545 230.317 87.9201 229.383 88.7134C228.45 89.4912 227.167 89.8801 225.533 89.8801ZM234.058 89.6001V75.6001H236.578V89.6001H234.058ZM235.318 73.6868C234.883 73.6868 234.51 73.5312 234.198 73.2201C233.887 72.909 233.732 72.5357 233.732 72.1001C233.732 71.6645 233.887 71.2912 234.198 70.9801C234.51 70.669 234.883 70.5134 235.318 70.5134C235.754 70.5134 236.127 70.669 236.438 70.9801C236.75 71.2912 236.905 71.6645 236.905 72.1001C236.905 72.5357 236.75 72.909 236.438 73.2201C236.127 73.5312 235.754 73.6868 235.318 73.6868ZM240.906 89.6001V75.6001H243.403V77.8634H243.496C243.901 77.0545 244.469 76.4323 245.2 75.9968C245.931 75.5612 246.794 75.3434 247.79 75.3434C248.801 75.3434 249.695 75.5923 250.473 76.0901C251.251 76.5723 251.858 77.2412 252.293 78.0968C252.729 78.9523 252.946 79.9323 252.946 81.0368V89.6001H250.426V81.4801C250.426 80.2823 250.115 79.3412 249.493 78.6568C248.886 77.9723 248.031 77.6301 246.926 77.6301C245.822 77.6301 244.959 77.9723 244.336 78.6568C243.73 79.3412 243.426 80.2823 243.426 81.4801V89.6001H240.906ZM262.601 95.4801C260.874 95.4801 259.435 95.0601 258.284 94.2201C257.133 93.3957 256.464 92.2912 256.277 90.9068H258.961C259.116 91.6534 259.513 92.2368 260.151 92.6568C260.788 93.0768 261.589 93.2868 262.554 93.2868C263.798 93.2868 264.771 92.929 265.471 92.2134C266.186 91.4979 266.544 90.5257 266.544 89.2968V87.0334H266.451C266.108 87.8579 265.572 88.4957 264.841 88.9468C264.125 89.3823 263.277 89.6001 262.297 89.6001C261.115 89.6001 260.073 89.3045 259.171 88.7134C258.284 88.1068 257.592 87.2668 257.094 86.1934C256.596 85.1201 256.347 83.8757 256.347 82.4601C256.347 81.0445 256.596 79.8001 257.094 78.7268C257.592 77.6534 258.284 76.8212 259.171 76.2301C260.073 75.6234 261.115 75.3201 262.297 75.3201C263.277 75.3201 264.125 75.5457 264.841 75.9968C265.572 76.4323 266.108 77.0545 266.451 77.8634H266.544V75.6001H269.041V89.4134C269.041 91.2801 268.457 92.7579 267.291 93.8468C266.139 94.9357 264.576 95.4801 262.601 95.4801ZM262.904 87.3134C264.008 87.3134 264.887 86.9557 265.541 86.2401C266.194 85.5245 266.521 84.5757 266.521 83.3934V81.5268C266.521 80.3445 266.186 79.3957 265.517 78.6801C264.864 77.9645 263.993 77.6068 262.904 77.6068C261.675 77.6068 260.695 78.0501 259.964 78.9368C259.233 79.8079 258.867 80.9823 258.867 82.4601C258.867 83.9379 259.233 85.1201 259.964 86.0068C260.695 86.8779 261.675 87.3134 262.904 87.3134ZM280.199 95.2001V75.6001H282.696V77.8868H282.789C283.598 76.1757 285.029 75.3201 287.083 75.3201C288.249 75.3201 289.268 75.6234 290.139 76.2301C291.01 76.8368 291.687 77.6845 292.169 78.7734C292.652 79.8623 292.893 81.1379 292.893 82.6001C292.893 84.0468 292.652 85.3223 292.169 86.4268C291.687 87.5157 291.01 88.3634 290.139 88.9701C289.268 89.5768 288.249 89.8801 287.083 89.8801C285.029 89.8801 283.606 89.0323 282.813 87.3368H282.719V95.2001H280.199ZM286.406 87.6401C287.619 87.6401 288.584 87.1812 289.299 86.2634C290.015 85.3457 290.373 84.1245 290.373 82.6001C290.373 81.0757 290.015 79.8545 289.299 78.9368C288.584 78.019 287.619 77.5601 286.406 77.5601C285.239 77.5601 284.329 77.9334 283.676 78.6801C283.038 79.4112 282.719 80.3757 282.719 81.5734V83.6268C282.719 84.8245 283.038 85.789 283.676 86.5201C284.329 87.2357 285.239 87.609 286.406 87.6401ZM296.616 89.6001V75.6001H299.02V78.4001H299.113C299.424 77.529 299.93 76.829 300.63 76.3001C301.345 75.7557 302.216 75.4834 303.243 75.4834H304.27V77.7234H303.103C301.812 77.7234 300.824 78.1357 300.14 78.9601C299.471 79.7845 299.136 80.8968 299.136 82.2968V89.6001H296.616ZM312.287 89.8801C311.027 89.8801 309.899 89.5845 308.903 88.9934C307.908 88.3868 307.122 87.539 306.547 86.4501C305.971 85.3612 305.683 84.0779 305.683 82.6001C305.683 81.1068 305.971 79.8157 306.547 78.7268C307.122 77.6379 307.908 76.7979 308.903 76.2068C309.899 75.6157 311.027 75.3201 312.287 75.3201C313.578 75.3201 314.721 75.6157 315.717 76.2068C316.712 76.7979 317.49 77.6379 318.05 78.7268C318.61 79.8157 318.89 81.1068 318.89 82.6001C318.89 84.0779 318.602 85.369 318.027 86.4734C317.467 87.5623 316.689 88.4023 315.693 88.9934C314.698 89.5845 313.562 89.8801 312.287 89.8801ZM312.287 87.5934C313.531 87.5934 314.519 87.1423 315.25 86.2401C315.997 85.3223 316.37 84.109 316.37 82.6001C316.37 81.0757 315.997 79.8623 315.25 78.9601C314.519 78.0579 313.531 77.6068 312.287 77.6068C311.058 77.6068 310.07 78.0579 309.323 78.9601C308.577 79.8623 308.203 81.0757 308.203 82.6001C308.203 84.109 308.577 85.3223 309.323 86.2401C310.07 87.1423 311.058 87.5934 312.287 87.5934ZM325.299 89.6001C324.584 89.6001 324.024 89.4134 323.619 89.0401C323.215 88.6512 323.013 88.0757 323.013 87.3134V77.6068H320.633V75.6001H323.036V71.4001H325.509V75.6001H328.846V77.6068H325.533V87.5934H329.173V89.6001H325.299ZM337.662 89.8801C336.402 89.8801 335.274 89.5845 334.278 88.9934C333.283 88.3868 332.497 87.539 331.922 86.4501C331.346 85.3612 331.058 84.0779 331.058 82.6001C331.058 81.1068 331.346 79.8157 331.922 78.7268C332.497 77.6379 333.283 76.7979 334.278 76.2068C335.274 75.6157 336.402 75.3201 337.662 75.3201C338.953 75.3201 340.096 75.6157 341.092 76.2068C342.087 76.7979 342.865 77.6379 343.425 78.7268C343.985 79.8157 344.265 81.1068 344.265 82.6001C344.265 84.0779 343.977 85.369 343.402 86.4734C342.842 87.5623 342.064 88.4023 341.068 88.9934C340.073 89.5845 338.937 89.8801 337.662 89.8801ZM337.662 87.5934C338.906 87.5934 339.894 87.1423 340.625 86.2401C341.372 85.3223 341.745 84.109 341.745 82.6001C341.745 81.0757 341.372 79.8623 340.625 78.9601C339.894 78.0579 338.906 77.6068 337.662 77.6068C336.433 77.6068 335.445 78.0579 334.698 78.9601C333.952 79.8623 333.578 81.0757 333.578 82.6001C333.578 84.109 333.952 85.3223 334.698 86.2401C335.445 87.1423 336.433 87.5934 337.662 87.5934ZM353.451 89.8801C352.207 89.8801 351.087 89.5845 350.091 88.9934C349.111 88.3868 348.333 87.539 347.758 86.4501C347.198 85.3612 346.918 84.0779 346.918 82.6001C346.918 81.1068 347.198 79.8157 347.758 78.7268C348.333 77.6379 349.111 76.7979 350.091 76.2068C351.087 75.6157 352.207 75.3201 353.451 75.3201C354.431 75.3201 355.326 75.5068 356.134 75.8801C356.959 76.2379 357.651 76.7823 358.211 77.5134C358.787 78.229 359.183 79.139 359.401 80.2434H356.788C356.57 79.3257 356.158 78.6568 355.551 78.2368C354.96 77.8168 354.26 77.6068 353.451 77.6068C352.253 77.6068 351.281 78.0579 350.534 78.9601C349.803 79.8623 349.438 81.0757 349.438 82.6001C349.438 84.109 349.803 85.3223 350.534 86.2401C351.281 87.1423 352.253 87.5934 353.451 87.5934C354.307 87.5934 355.038 87.3679 355.644 86.9168C356.267 86.4657 356.694 85.7345 356.928 84.7234H359.471C359.269 85.8745 358.88 86.8312 358.304 87.5934C357.729 88.3557 357.029 88.9312 356.204 89.3201C355.38 89.6934 354.462 89.8801 353.451 89.8801ZM368.041 89.8801C366.781 89.8801 365.653 89.5845 364.657 88.9934C363.662 88.3868 362.876 87.539 362.301 86.4501C361.725 85.3612 361.437 84.0779 361.437 82.6001C361.437 81.1068 361.725 79.8157 362.301 78.7268C362.876 77.6379 363.662 76.7979 364.657 76.2068C365.653 75.6157 366.781 75.3201 368.041 75.3201C369.332 75.3201 370.475 75.6157 371.471 76.2068C372.466 76.7979 373.244 77.6379 373.804 78.7268C374.364 79.8157 374.644 81.1068 374.644 82.6001C374.644 84.0779 374.356 85.369 373.781 86.4734C373.221 87.5623 372.443 88.4023 371.447 88.9934C370.452 89.5845 369.316 89.8801 368.041 89.8801ZM368.041 87.5934C369.285 87.5934 370.273 87.1423 371.004 86.2401C371.751 85.3223 372.124 84.109 372.124 82.6001C372.124 81.0757 371.751 79.8623 371.004 78.9601C370.273 78.0579 369.285 77.6068 368.041 77.6068C366.812 77.6068 365.824 78.0579 365.077 78.9601C364.331 79.8623 363.957 81.0757 363.957 82.6001C363.957 84.109 364.331 85.3223 365.077 86.2401C365.824 87.1423 366.812 87.5934 368.041 87.5934ZM378.16 89.6001V70.0001H380.68V89.6001H378.16ZM389.815 89.8801C388.135 89.8801 386.766 89.4679 385.708 88.6434C384.666 87.8034 384.098 86.6834 384.005 85.2834H386.478C386.587 86.0923 386.937 86.7145 387.528 87.1501C388.119 87.5701 388.912 87.7801 389.908 87.7801C390.826 87.7801 391.526 87.6012 392.008 87.2434C392.49 86.8857 392.731 86.3801 392.731 85.7268C392.731 84.7001 392.024 84.039 390.608 83.7434L388.298 83.2301C385.778 82.7012 384.518 81.4568 384.518 79.4968C384.518 78.2523 384.985 77.249 385.918 76.4868C386.851 75.709 388.072 75.3201 389.581 75.3201C391.075 75.3201 392.304 75.7168 393.268 76.5101C394.248 77.2879 394.8 78.3457 394.925 79.6834H392.498C392.342 78.9523 392 78.3923 391.471 78.0034C390.958 77.599 390.289 77.3968 389.465 77.3968C388.671 77.3968 388.041 77.5679 387.575 77.9101C387.108 78.2523 386.875 78.719 386.875 79.3101C386.875 79.7768 387.038 80.1579 387.365 80.4534C387.691 80.7334 388.212 80.9512 388.928 81.1068L391.261 81.5968C392.537 81.8768 393.486 82.3434 394.108 82.9968C394.746 83.6345 395.065 84.4745 395.065 85.5168C395.065 86.8545 394.598 87.9201 393.665 88.7134C392.731 89.4912 391.448 89.8801 389.815 89.8801ZM399.273 89.8801C398.76 89.8801 398.324 89.7012 397.966 89.3434C397.609 88.9857 397.43 88.5501 397.43 88.0368C397.43 87.5234 397.609 87.0879 397.966 86.7301C398.324 86.3723 398.76 86.1934 399.273 86.1934C399.786 86.1934 400.222 86.3723 400.58 86.7301C400.937 87.0879 401.116 87.5234 401.116 88.0368C401.116 88.5501 400.937 88.9857 400.58 89.3434C400.222 89.7012 399.786 89.8801 399.273 89.8801Z" fill="white"/>
</svg>
