<svg width="457" height="217" viewBox="0 0 457 217" fill="none" xmlns="http://www.w3.org/2000/svg">
<path d="M431.015 60.9524L405.029 34.9607L379.044 60.9524L405.029 86.9441L379.044 112.936L353.059 86.9441L327.073 60.9524L301.088 34.9607L275.103 60.9524L249.117 86.9441L223.132 112.936L197.147 86.9441L223.132 60.9524L197.147 34.9607L174.394 57.7186V29.083V0H145.319H116.263H87.187H58.1315H29.0556H0V29.083H29.0556H58.1315H87.187H116.263H145.319V58.1457H116.263H87.187H58.1315H29.0556H0V87.2288H29.0556H58.1315H87.187H116.263V116.291H145.319H174.394V116.169L197.147 138.927L223.132 164.919L249.117 190.911L275.103 216.903L301.088 190.911L275.103 164.919L249.117 138.927L275.103 112.936L301.088 138.927L327.073 112.936L353.059 138.927L327.073 164.919L301.088 190.911L327.073 216.903L353.059 190.911L379.044 164.919L405.029 138.927L431.015 112.936L457 86.9441L431.015 60.9524Z" fill="black"/>
</svg>
