<svg width="130" height="23" viewBox="0 0 130 23" fill="none" xmlns="http://www.w3.org/2000/svg">
<g clip-path="url(#clip0_208_1412)">
<path d="M0 22.6642V0H5.25591V22.6642H0Z" fill="white"/>
<path d="M10.7355 22.6645V10.9126H8.21936V5.87615H13.3634V8.6742H14.5376C15.2086 7.70607 16.0361 6.945 17.0146 6.39099C17.9931 5.84257 19.2456 5.56836 20.7776 5.56836C23.1652 5.56836 24.9936 6.21191 26.2684 7.49902C27.5432 8.78612 28.1862 10.5097 28.1862 12.6754V22.6645H23.0422V13.6827C23.0422 12.5243 22.7402 11.6513 22.1364 11.0525C21.5325 10.4538 20.6434 10.1572 19.4693 10.1572C18.2951 10.1572 17.406 10.4538 16.8022 11.0525C16.1983 11.6513 15.8964 12.5243 15.8964 13.6827V22.6645H10.7523H10.7355Z" fill="white"/>
<path d="M37.1548 22.6642C35.852 22.6642 34.84 22.334 34.1243 21.6737C33.4086 21.0133 33.0451 20.0004 33.0451 18.635V9.90505H30.2495V5.87585H33.1011V0.839355H38.1333V5.87585H41.8236V9.90505H38.1892V18.635H42.215V22.6642H37.1548Z" fill="white"/>
<path d="M52.7269 23.0001C50.8817 23.0001 49.277 22.642 47.9183 21.9201C46.5596 21.2038 45.5084 20.1853 44.7759 18.8702C44.0379 17.5551 43.6688 16.005 43.6688 14.2086C43.6688 12.4123 44.0267 10.8734 44.748 9.58065C45.4637 8.28236 46.4925 7.28625 47.8232 6.58674C49.154 5.88722 50.7252 5.53467 52.5312 5.53467C54.3372 5.53467 55.8581 5.87603 57.1441 6.55876C58.4301 7.24148 59.4142 8.2152 60.0908 9.48552C60.7729 10.7558 61.114 12.2724 61.114 14.0463V15.6972H48.6172C48.8241 16.7772 49.2714 17.5943 49.9591 18.1483C50.6469 18.6967 51.5639 18.9765 52.6989 18.9765C53.6103 18.9765 54.326 18.831 54.8404 18.5456C55.3548 18.2546 55.7239 17.7957 55.9475 17.1578H61.0916C60.7394 18.9877 59.8224 20.4203 58.3518 21.4556C56.8813 22.4909 55.0082 23.0057 52.7325 23.0057L52.7269 23.0001ZM48.7011 12.3395H56.1936C56.0258 11.405 55.64 10.7111 55.0361 10.2578C54.4323 9.7989 53.6047 9.56946 52.5591 9.56946C51.5136 9.56946 50.6972 9.8045 50.043 10.269C49.3888 10.7335 48.9415 11.4274 48.7011 12.3395Z" fill="white"/>
<path d="M65.1957 22.664V10.9122H62.6796V5.8757H67.8237V9.23336H68.9978C69.4284 8.01901 70.1273 7.12363 71.0946 6.53044C72.0619 5.94285 73.1467 5.65186 74.3376 5.65186H75.7634V10.1287H74.114C72.7329 10.1287 71.7432 10.5093 71.1338 11.2759C70.5299 12.0426 70.228 13.0387 70.228 14.2699V22.664H65.1957Z" fill="white"/>
<path d="M79.5097 22.6645V10.9126H76.9935V5.87615H82.1376V8.6742H83.3118C83.9828 7.70607 84.8103 6.945 85.7888 6.39099C86.7673 5.84257 88.0198 5.56836 89.5518 5.56836C91.9393 5.56836 93.7677 6.21191 95.0426 7.49902C96.3174 8.78612 96.9604 10.5097 96.9604 12.6754V22.6645H91.8163V13.6827C91.8163 12.5243 91.5144 11.6513 90.9105 11.0525C90.3066 10.4538 89.4176 10.1572 88.2434 10.1572C87.0692 10.1572 86.1802 10.4538 85.5763 11.0525C84.9725 11.6513 84.6705 12.5243 84.6705 13.6827V22.6645H79.5264H79.5097Z" fill="white"/>
<path d="M108.361 23.0001C106.516 23.0001 104.911 22.642 103.553 21.9201C102.194 21.2038 101.143 20.1853 100.41 18.8702C99.6723 17.5551 99.3032 16.005 99.3032 14.2086C99.3032 12.4123 99.6611 10.8734 100.382 9.58065C101.098 8.28236 102.127 7.28625 103.458 6.58674C104.788 5.88722 106.36 5.53467 108.166 5.53467C109.972 5.53467 111.492 5.87603 112.778 6.55876C114.065 7.24148 115.049 8.2152 115.725 9.48552C116.407 10.7558 116.748 12.2724 116.748 14.0463V15.6972H104.252C104.458 16.7772 104.906 17.5943 105.594 18.1483C106.281 18.6967 107.198 18.9765 108.333 18.9765C109.245 18.9765 109.96 18.831 110.475 18.5456C110.989 18.2546 111.358 17.7957 111.582 17.1578H116.726C116.374 18.9877 115.457 20.4203 113.986 21.4556C112.516 22.4909 110.643 23.0057 108.367 23.0057L108.361 23.0001ZM104.335 12.3395H111.828C111.66 11.405 111.274 10.7111 110.671 10.2578C110.067 9.7989 109.239 9.56946 108.194 9.56946C107.148 9.56946 106.332 9.8045 105.677 10.269C105.023 10.7335 104.576 11.4274 104.335 12.3395Z" fill="white"/>
<path d="M124.94 22.6642C123.637 22.6642 122.625 22.334 121.909 21.6737C121.194 21.0133 120.83 20.0004 120.83 18.635V9.90505H118.034V5.87585H120.886V0.839355H125.918V5.87585H129.609V9.90505H125.974V18.635H130V22.6642H124.94Z" fill="white"/>
</g>
<defs>
<clipPath id="clip0_208_1412">
<rect width="130" height="23" fill="white"/>
</clipPath>
</defs>
</svg>
