<svg width="100" height="15" viewBox="0 0 100 15" fill="none" xmlns="http://www.w3.org/2000/svg">
<path d="M3.05332 11.3198L-1.30236e-05 0.519824H2.63999L4.41332 7.30649H4.47999L6.59999 0.519824H8.73332L10.9733 7.30649H11.0267L12.7867 0.519824H15.44L12.3867 11.3198H9.91999L7.69332 4.22649H7.63999L5.51999 11.3198H3.05332ZM19.2842 11.4798C18.4042 11.4798 17.6397 11.3109 16.9908 10.9732C16.3419 10.6265 15.8397 10.142 15.4842 9.51982C15.1375 8.88871 14.9642 8.14649 14.9642 7.29316C14.9642 6.43982 15.133 5.70649 15.4708 5.09316C15.8175 4.47094 16.3064 3.99538 16.9375 3.66649C17.5775 3.32871 18.3286 3.15982 19.1908 3.15982C20.0442 3.15982 20.7775 3.32427 21.3908 3.65316C22.0042 3.97316 22.4708 4.43538 22.7908 5.03982C23.1197 5.64427 23.2842 6.36871 23.2842 7.21316V7.99982H17.3242C17.4219 8.51538 17.6353 8.90649 17.9642 9.17316C18.293 9.43094 18.7286 9.55982 19.2708 9.55982C19.7064 9.55982 20.0442 9.49316 20.2842 9.35982C20.533 9.2176 20.7108 8.99538 20.8175 8.69316H23.2708C23.1019 9.56427 22.6664 10.2487 21.9642 10.7465C21.2619 11.2354 20.3686 11.4798 19.2842 11.4798ZM17.3642 6.39982H20.9375C20.8575 5.95538 20.6708 5.62649 20.3775 5.41316C20.093 5.19094 19.7019 5.07982 19.2042 5.07982C18.7153 5.07982 18.3153 5.19094 18.0042 5.41316C17.693 5.63538 17.4797 5.96427 17.3642 6.39982ZM29.8267 11.4798C29.1511 11.4798 28.5689 11.3509 28.08 11.0932C27.6 10.8265 27.2178 10.4576 26.9333 9.98649H26.3733V11.3198H23.92V8.91982H25.12V0.119824H27.5733V4.34649H27.6267C27.8578 3.97316 28.1733 3.68427 28.5733 3.47982C28.9822 3.26649 29.4711 3.15982 30.04 3.15982C30.8133 3.15982 31.4711 3.33316 32.0133 3.67982C32.5555 4.02649 32.9689 4.51538 33.2533 5.14649C33.5378 5.76871 33.68 6.49316 33.68 7.31982C33.68 8.1376 33.5333 8.86205 33.24 9.49316C32.9467 10.1154 32.5155 10.6043 31.9467 10.9598C31.3778 11.3065 30.6711 11.4798 29.8267 11.4798ZM29.36 9.34649C29.9911 9.34649 30.4578 9.16427 30.76 8.79982C31.0711 8.43538 31.2267 7.94205 31.2267 7.31982C31.2267 6.6976 31.0711 6.20427 30.76 5.83982C30.4578 5.47538 29.9911 5.29316 29.36 5.29316C28.8089 5.29316 28.3733 5.44871 28.0533 5.75982C27.7333 6.06205 27.5733 6.48427 27.5733 7.02649V7.61316C27.5733 8.15538 27.7333 8.58205 28.0533 8.89316C28.3733 9.19538 28.8089 9.34649 29.36 9.34649ZM38.8606 11.3198V0.519824H41.3673V4.62649H46.3539V0.519824H48.8606V11.3198H46.3539V6.81316H41.3673V11.3198H38.8606ZM54.6812 11.4798C53.8012 11.4798 53.0323 11.3109 52.3746 10.9732C51.7168 10.6265 51.2057 10.142 50.8412 9.51982C50.4857 8.88871 50.3079 8.15094 50.3079 7.30649C50.3079 6.46205 50.4857 5.72871 50.8412 5.10649C51.2057 4.48427 51.7168 4.00427 52.3746 3.66649C53.0323 3.32871 53.8057 3.15982 54.6946 3.15982C55.5835 3.15982 56.3479 3.32871 56.9879 3.66649C57.6368 4.00427 58.139 4.48427 58.4946 5.10649C58.8501 5.72871 59.0279 6.46649 59.0279 7.31982C59.0279 8.16427 58.8501 8.90205 58.4946 9.53316C58.139 10.1554 57.6368 10.6354 56.9879 10.9732C56.339 11.3109 55.5701 11.4798 54.6812 11.4798ZM54.6812 9.34649C55.2946 9.34649 55.7612 9.16427 56.0812 8.79982C56.4101 8.42649 56.5746 7.92871 56.5746 7.30649C56.5746 6.68427 56.4101 6.19538 56.0812 5.83982C55.7612 5.47538 55.2946 5.29316 54.6812 5.29316C54.059 5.29316 53.5835 5.47538 53.2546 5.83982C52.9257 6.19538 52.7612 6.68427 52.7612 7.30649C52.7612 7.92871 52.9257 8.42649 53.2546 8.79982C53.5835 9.16427 54.059 9.34649 54.6812 9.34649ZM63.8567 11.4798C62.6567 11.4798 61.71 11.2265 61.0167 10.7198C60.3322 10.2132 59.9633 9.50649 59.91 8.59982H62.27C62.3411 8.95538 62.51 9.2176 62.7767 9.38649C63.0522 9.55538 63.4478 9.63982 63.9633 9.63982C64.7633 9.63982 65.1633 9.43094 65.1633 9.01316C65.1633 8.84427 65.1011 8.71094 64.9767 8.61316C64.8611 8.50649 64.6655 8.42649 64.39 8.37316L62.6033 8.02649C60.9678 7.70649 60.15 6.94205 60.15 5.73316C60.15 4.95094 60.4655 4.32871 61.0967 3.86649C61.7278 3.39538 62.5989 3.15982 63.71 3.15982C64.8211 3.15982 65.6967 3.39982 66.3367 3.87982C66.9767 4.35982 67.3233 5.03538 67.3767 5.90649H65.0167C64.9278 5.55982 64.7678 5.31094 64.5367 5.15982C64.3144 4.99982 63.9855 4.91982 63.55 4.91982C63.1944 4.91982 62.9189 4.96871 62.7233 5.06649C62.5367 5.16427 62.4433 5.31094 62.4433 5.50649C62.4433 5.64871 62.5011 5.76871 62.6167 5.86649C62.7322 5.96427 62.9055 6.03538 63.1367 6.07982L64.9767 6.43982C65.83 6.60871 66.4567 6.88427 66.8567 7.26649C67.2567 7.64871 67.4567 8.16427 67.4567 8.81316C67.4567 9.64871 67.1455 10.302 66.5233 10.7732C65.91 11.2443 65.0211 11.4798 63.8567 11.4798ZM71.3429 11.3198C70.7207 11.3198 70.2362 11.1643 69.8896 10.8532C69.5518 10.5332 69.3829 10.0487 69.3829 9.39982V5.23982H68.0496V3.31982H69.4096V0.919824H71.8096V3.31982H73.5696V5.23982H71.8362V9.39982H73.7562V11.3198H71.3429ZM74.9152 11.3198V3.31982H77.3685V11.3198H74.9152ZM76.1419 2.63982C75.7774 2.63982 75.4663 2.51094 75.2085 2.25316C74.9508 1.99538 74.8219 1.68427 74.8219 1.31982C74.8219 0.955379 74.9508 0.644268 75.2085 0.386491C75.4663 0.128713 75.7774 -0.00017643 76.1419 -0.00017643C76.5063 -0.00017643 76.8174 0.128713 77.0752 0.386491C77.333 0.644268 77.4619 0.955379 77.4619 1.31982C77.4619 1.68427 77.333 1.99538 77.0752 2.25316C76.8174 2.51094 76.5063 2.63982 76.1419 2.63982ZM79.6825 11.3198V5.71982H78.4825V3.31982H80.9358V4.65316H81.4958C81.8158 4.19094 82.2069 3.83094 82.6692 3.57316C83.1403 3.30649 83.7403 3.17316 84.4692 3.17316C85.6069 3.17316 86.478 3.47982 87.0825 4.09316C87.6958 4.70649 88.0025 5.52871 88.0025 6.55982V11.3198H85.5492V7.03982C85.5492 6.48871 85.4025 6.07094 85.1092 5.78649C84.8247 5.50205 84.4025 5.35982 83.8425 5.35982C83.2825 5.35982 82.8558 5.50205 82.5625 5.78649C82.278 6.07094 82.1358 6.48871 82.1358 7.03982V11.3198H79.6825ZM93.5337 14.6798C92.2982 14.6798 91.2937 14.4309 90.5204 13.9332C89.756 13.4443 89.3026 12.7598 89.1604 11.8798H91.7471C91.9515 12.4665 92.516 12.7598 93.4404 12.7598C94.0893 12.7598 94.5826 12.6132 94.9204 12.3198C95.2671 12.0265 95.4404 11.6087 95.4404 11.0665V10.0665H95.3737C95.1248 10.4843 94.796 10.7998 94.3871 11.0132C93.9871 11.2176 93.4982 11.3198 92.9204 11.3198C92.1737 11.3198 91.5204 11.1554 90.9604 10.8265C90.4093 10.4887 89.9782 10.0132 89.6671 9.39982C89.3648 8.78649 89.2137 8.06649 89.2137 7.23982C89.2137 5.99538 89.556 5.00427 90.2404 4.26649C90.9337 3.52871 91.8893 3.15982 93.1071 3.15982C93.7826 3.15982 94.3604 3.29316 94.8404 3.55982C95.3293 3.8176 95.716 4.18205 96.0004 4.65316H96.5604V3.31982H99.0137V5.71982H97.8137V11.0665C97.8137 12.222 97.4448 13.1109 96.7071 13.7332C95.9693 14.3643 94.9115 14.6798 93.5337 14.6798ZM93.5337 9.18649C94.1115 9.18649 94.5604 9.03094 94.8804 8.71982C95.2004 8.40871 95.3604 7.9776 95.3604 7.42649V7.02649C95.3604 6.48427 95.196 6.06205 94.8671 5.75982C94.5471 5.44871 94.1026 5.29316 93.5337 5.29316C92.9382 5.29316 92.476 5.46649 92.1471 5.81316C91.8271 6.15094 91.6671 6.63094 91.6671 7.25316C91.6671 7.87538 91.8271 8.35538 92.1471 8.69316C92.476 9.02205 92.9382 9.18649 93.5337 9.18649Z" fill="black"/>
</svg>
