<svg width="503" height="23" viewBox="0 0 503 23" fill="none" xmlns="http://www.w3.org/2000/svg">
<path d="M16.8 15.1999C17.12 14.5172 17.4294 13.9199 17.728 13.4079C18.048 12.8959 18.3574 12.4692 18.656 12.1279H2.19345e-05V10.7839H18.656C18.3574 10.4212 18.048 9.9839 17.728 9.4719C17.4294 8.9599 17.12 8.37323 16.8 7.7119H17.92C19.264 9.26924 20.672 10.4212 22.144 11.1679V11.7439C20.672 12.4692 19.264 13.6212 17.92 15.1999H16.8ZM40.7916 22.3999C39.9738 22.3999 39.3338 22.1866 38.8716 21.7599C38.4094 21.3155 38.1783 20.6577 38.1783 19.7866V8.69324H35.4583V6.3999H38.2049V1.5999H41.0316V6.3999H44.8449V8.69324H41.0583V20.1066H45.2183V22.3999H40.7916ZM48.2799 22.3999V-9.72748e-05H51.1599V8.74657H51.2666C51.7288 7.92879 52.3777 7.2799 53.2133 6.7999C54.0488 6.3199 55.0266 6.0799 56.1466 6.0799C57.3022 6.0799 58.3244 6.35546 59.2133 6.90657C60.1022 7.45768 60.7955 8.22212 61.2933 9.1999C61.791 10.1777 62.0399 11.3155 62.0399 12.6132V22.3999H59.1599V13.0399C59.1599 11.6532 58.8044 10.5777 58.0933 9.81324C57.3999 9.04879 56.4222 8.66657 55.1599 8.66657C53.8977 8.66657 52.911 9.04879 52.1999 9.81324C51.5066 10.5777 51.1599 11.6532 51.1599 13.0399V22.3999H48.2799ZM73.3933 22.7199C71.9533 22.7199 70.6644 22.3821 69.5266 21.7066C68.3888 21.0132 67.491 20.0443 66.8333 18.7999C66.1933 17.5377 65.8733 16.0532 65.8733 14.3466C65.8733 12.6577 66.1933 11.1999 66.8333 9.97324C67.4733 8.72879 68.3444 7.76879 69.4466 7.09324C70.5488 6.41768 71.811 6.0799 73.2333 6.0799C74.5666 6.0799 75.7488 6.38212 76.7799 6.98657C77.8288 7.59101 78.6555 8.46212 79.2599 9.5999C79.8644 10.7377 80.1666 12.0799 80.1666 13.6266V14.9066H68.6466C68.7533 16.5243 69.2333 17.8132 70.0866 18.7732C70.9399 19.7332 72.0333 20.2132 73.3666 20.2132C74.3266 20.2132 75.1444 19.9732 75.8199 19.4932C76.4955 19.0132 76.9488 18.3555 77.1799 17.5199H80.1133C79.8999 18.6043 79.4733 19.5377 78.8333 20.3199C78.1933 21.0843 77.411 21.6799 76.4866 22.1066C75.5622 22.5155 74.531 22.7199 73.3933 22.7199ZM68.7799 12.7199H77.3666C77.2422 11.4043 76.8066 10.3821 76.0599 9.65324C75.3133 8.92435 74.3622 8.5599 73.2066 8.5599C72.0688 8.5599 71.1088 8.93324 70.3266 9.6799C69.5444 10.4088 69.0288 11.4221 68.7799 12.7199ZM97.5233 22.7199C95.6033 22.7199 94.0388 22.2488 92.8299 21.3066C91.6388 20.3466 90.9899 19.0666 90.8833 17.4666H93.7099C93.8344 18.391 94.2344 19.1021 94.9099 19.5999C95.5855 20.0799 96.4922 20.3199 97.6299 20.3199C98.6788 20.3199 99.4788 20.1155 100.03 19.7066C100.581 19.2977 100.857 18.7199 100.857 17.9732C100.857 16.7999 100.048 16.0443 98.4299 15.7066L95.7899 15.1199C92.9099 14.5155 91.4699 13.0932 91.4699 10.8532C91.4699 9.43101 92.0033 8.28435 93.0699 7.41324C94.1366 6.52435 95.5322 6.0799 97.2566 6.0799C98.9633 6.0799 100.368 6.53324 101.47 7.4399C102.59 8.32879 103.221 9.53768 103.363 11.0666H100.59C100.412 10.231 100.021 9.59101 99.4166 9.14657C98.8299 8.68435 98.0655 8.45324 97.1233 8.45324C96.2166 8.45324 95.4966 8.64879 94.9633 9.0399C94.4299 9.43101 94.1633 9.96435 94.1633 10.6399C94.1633 11.1732 94.3499 11.6088 94.7233 11.9466C95.0966 12.2666 95.6922 12.5155 96.5099 12.6932L99.1766 13.2532C100.634 13.5732 101.719 14.1066 102.43 14.8532C103.159 15.5821 103.523 16.5421 103.523 17.7332C103.523 19.2621 102.99 20.4799 101.923 21.3866C100.857 22.2755 99.3899 22.7199 97.5233 22.7199ZM113.8 22.7199C112.36 22.7199 111.071 22.3821 109.933 21.7066C108.795 21.0132 107.897 20.0443 107.24 18.7999C106.6 17.5377 106.28 16.0532 106.28 14.3466C106.28 12.6577 106.6 11.1999 107.24 9.97324C107.88 8.72879 108.751 7.76879 109.853 7.09324C110.955 6.41768 112.217 6.0799 113.64 6.0799C114.973 6.0799 116.155 6.38212 117.186 6.98657C118.235 7.59101 119.062 8.46212 119.666 9.5999C120.271 10.7377 120.573 12.0799 120.573 13.6266V14.9066H109.053C109.16 16.5243 109.64 17.8132 110.493 18.7732C111.346 19.7332 112.44 20.2132 113.773 20.2132C114.733 20.2132 115.551 19.9732 116.226 19.4932C116.902 19.0132 117.355 18.3555 117.586 17.5199H120.52C120.306 18.6043 119.88 19.5377 119.24 20.3199C118.6 21.0843 117.817 21.6799 116.893 22.1066C115.968 22.5155 114.937 22.7199 113.8 22.7199ZM109.186 12.7199H117.773C117.648 11.4043 117.213 10.3821 116.466 9.65324C115.72 8.92435 114.768 8.5599 113.613 8.5599C112.475 8.5599 111.515 8.93324 110.733 9.6799C109.951 10.4088 109.435 11.4221 109.186 12.7199ZM124.823 22.3999V6.3999H127.57V9.5999H127.677C128.032 8.60435 128.61 7.80435 129.41 7.1999C130.228 6.57768 131.223 6.26657 132.397 6.26657H133.57V8.82657H132.237C130.761 8.82657 129.632 9.29768 128.85 10.2399C128.085 11.1821 127.703 12.4532 127.703 14.0532V22.3999H124.823ZM140.825 22.3999L134.638 6.3999H137.625L142.452 19.3332H142.558L147.332 6.3999H150.212L144.025 22.3999H140.825ZM158.893 22.7199C157.453 22.7199 156.164 22.3821 155.027 21.7066C153.889 21.0132 152.991 20.0443 152.333 18.7999C151.693 17.5377 151.373 16.0532 151.373 14.3466C151.373 12.6577 151.693 11.1999 152.333 9.97324C152.973 8.72879 153.844 7.76879 154.947 7.09324C156.049 6.41768 157.311 6.0799 158.733 6.0799C160.067 6.0799 161.249 6.38212 162.28 6.98657C163.329 7.59101 164.155 8.46212 164.76 9.5999C165.364 10.7377 165.667 12.0799 165.667 13.6266V14.9066H154.147C154.253 16.5243 154.733 17.8132 155.587 18.7732C156.44 19.7332 157.533 20.2132 158.867 20.2132C159.827 20.2132 160.644 19.9732 161.32 19.4932C161.995 19.0132 162.449 18.3555 162.68 17.5199H165.613C165.4 18.6043 164.973 19.5377 164.333 20.3199C163.693 21.0843 162.911 21.6799 161.987 22.1066C161.062 22.5155 160.031 22.7199 158.893 22.7199ZM154.28 12.7199H162.867C162.742 11.4043 162.307 10.3821 161.56 9.65324C160.813 8.92435 159.862 8.5599 158.707 8.5599C157.569 8.5599 156.609 8.93324 155.827 9.6799C155.044 10.4088 154.529 11.4221 154.28 12.7199ZM169.917 22.3999V6.3999H172.664V9.5999H172.77C173.126 8.60435 173.704 7.80435 174.504 7.1999C175.321 6.57768 176.317 6.26657 177.49 6.26657H178.664V8.82657H177.33C175.855 8.82657 174.726 9.29768 173.944 10.2399C173.179 11.1821 172.797 12.4532 172.797 14.0532V22.3999H169.917ZM193.292 22.3999C192.474 22.3999 191.834 22.1866 191.372 21.7599C190.909 21.3155 190.678 20.6577 190.678 19.7866V8.69324H187.958V6.3999H190.705V1.5999H193.532V6.3999H197.345V8.69324H193.558V20.1066H197.718V22.3999H193.292ZM200.78 22.3999V-9.72748e-05H203.66V8.74657H203.767C204.229 7.92879 204.878 7.2799 205.713 6.7999C206.549 6.3199 207.527 6.0799 208.647 6.0799C209.802 6.0799 210.824 6.35546 211.713 6.90657C212.602 7.45768 213.295 8.22212 213.793 9.1999C214.291 10.1777 214.54 11.3155 214.54 12.6132V22.3999H211.66V13.0399C211.66 11.6532 211.304 10.5777 210.593 9.81324C209.9 9.04879 208.922 8.66657 207.66 8.66657C206.398 8.66657 205.411 9.04879 204.7 9.81324C204.007 10.5777 203.66 11.6532 203.66 13.0399V22.3999H200.78ZM223.413 22.6932C221.831 22.6932 220.542 22.2488 219.547 21.3599C218.569 20.4532 218.08 19.2888 218.08 17.8666C218.08 16.3555 218.569 15.1821 219.547 14.3466C220.542 13.4932 221.947 13.0666 223.76 13.0666H228.427V12.2666C228.427 11.0932 228.107 10.1866 227.467 9.54657C226.844 8.88879 225.964 8.5599 224.827 8.5599C223.884 8.5599 223.102 8.78212 222.48 9.22657C221.875 9.65324 221.475 10.2666 221.28 11.0666H218.347C218.613 9.5199 219.333 8.30212 220.507 7.41324C221.68 6.52435 223.138 6.0799 224.88 6.0799C226.853 6.0799 228.391 6.61324 229.493 7.6799C230.613 8.74657 231.173 10.2488 231.173 12.1866V22.3999H228.453V19.6266H228.347C227.938 20.5688 227.289 21.3155 226.4 21.8666C225.511 22.4177 224.515 22.6932 223.413 22.6932ZM224 20.2932C224.835 20.2932 225.582 20.0977 226.24 19.7066C226.915 19.3155 227.449 18.791 227.84 18.1332C228.231 17.4577 228.427 16.711 228.427 15.8932V15.2532H223.947C222.915 15.2532 222.124 15.4755 221.573 15.9199C221.04 16.3466 220.773 16.951 220.773 17.7332C220.773 18.5155 221.067 19.1377 221.653 19.5999C222.24 20.0621 223.022 20.2932 224 20.2932ZM239.292 22.3999C238.474 22.3999 237.834 22.1866 237.372 21.7599C236.909 21.3155 236.678 20.6577 236.678 19.7866V8.69324H233.958V6.3999H236.705V1.5999H239.532V6.3999H243.345V8.69324H239.558V20.1066H243.718V22.3999H239.292ZM254.686 22.3999V-9.72748e-05H257.566V8.74657H257.673C258.135 7.92879 258.784 7.2799 259.62 6.7999C260.455 6.3199 261.433 6.0799 262.553 6.0799C263.708 6.0799 264.731 6.35546 265.62 6.90657C266.508 7.45768 267.202 8.22212 267.7 9.1999C268.197 10.1777 268.446 11.3155 268.446 12.6132V22.3999H265.566V13.0399C265.566 11.6532 265.211 10.5777 264.5 9.81324C263.806 9.04879 262.828 8.66657 261.566 8.66657C260.304 8.66657 259.317 9.04879 258.606 9.81324C257.913 10.5777 257.566 11.6532 257.566 13.0399V22.3999H254.686ZM279.826 22.7199C278.386 22.7199 277.097 22.3821 275.96 21.7066C274.822 21.0132 273.924 20.0443 273.266 18.7999C272.608 17.5555 272.28 16.0888 272.28 14.3999C272.28 12.6932 272.608 11.2177 273.266 9.97324C273.924 8.72879 274.822 7.76879 275.96 7.09324C277.097 6.41768 278.386 6.0799 279.826 6.0799C281.302 6.0799 282.608 6.41768 283.746 7.09324C284.884 7.76879 285.773 8.72879 286.413 9.97324C287.053 11.2177 287.373 12.6932 287.373 14.3999C287.373 16.0888 287.044 17.5643 286.386 18.8266C285.746 20.071 284.857 21.031 283.72 21.7066C282.582 22.3821 281.284 22.7199 279.826 22.7199ZM279.826 20.1066C281.248 20.1066 282.377 19.591 283.213 18.5599C284.066 17.511 284.493 16.1243 284.493 14.3999C284.493 12.6577 284.066 11.271 283.213 10.2399C282.377 9.20879 281.248 8.69324 279.826 8.69324C278.422 8.69324 277.293 9.20879 276.44 10.2399C275.586 11.271 275.16 12.6577 275.16 14.3999C275.16 16.1243 275.586 17.511 276.44 18.5599C277.293 19.591 278.422 20.1066 279.826 20.1066ZM296.805 22.7199C294.885 22.7199 293.32 22.2488 292.111 21.3066C290.92 20.3466 290.271 19.0666 290.165 17.4666H292.991C293.116 18.391 293.516 19.1021 294.191 19.5999C294.867 20.0799 295.773 20.3199 296.911 20.3199C297.96 20.3199 298.76 20.1155 299.311 19.7066C299.862 19.2977 300.138 18.7199 300.138 17.9732C300.138 16.7999 299.329 16.0443 297.711 15.7066L295.071 15.1199C292.191 14.5155 290.751 13.0932 290.751 10.8532C290.751 9.43101 291.285 8.28435 292.351 7.41324C293.418 6.52435 294.813 6.0799 296.538 6.0799C298.245 6.0799 299.649 6.53324 300.751 7.4399C301.871 8.32879 302.502 9.53768 302.645 11.0666H299.871C299.693 10.231 299.302 9.59101 298.698 9.14657C298.111 8.68435 297.347 8.45324 296.405 8.45324C295.498 8.45324 294.778 8.64879 294.245 9.0399C293.711 9.43101 293.445 9.96435 293.445 10.6399C293.445 11.1732 293.631 11.6088 294.005 11.9466C294.378 12.2666 294.973 12.5155 295.791 12.6932L298.458 13.2532C299.916 13.5732 301 14.1066 301.711 14.8532C302.44 15.5821 302.805 16.5421 302.805 17.7332C302.805 19.2621 302.271 20.4799 301.205 21.3866C300.138 22.2755 298.671 22.7199 296.805 22.7199ZM309.854 22.3999C309.036 22.3999 308.396 22.1866 307.934 21.7599C307.472 21.3155 307.241 20.6577 307.241 19.7866V8.69324H304.521V6.3999H307.267V1.5999H310.094V6.3999H313.907V8.69324H310.121V20.1066H314.281V22.3999H309.854ZM322.836 22.7199C320.916 22.7199 319.351 22.2488 318.142 21.3066C316.951 20.3466 316.302 19.0666 316.196 17.4666H319.022C319.147 18.391 319.547 19.1021 320.222 19.5999C320.898 20.0799 321.805 20.3199 322.942 20.3199C323.991 20.3199 324.791 20.1155 325.342 19.7066C325.894 19.2977 326.169 18.7199 326.169 17.9732C326.169 16.7999 325.36 16.0443 323.742 15.7066L321.102 15.1199C318.222 14.5155 316.782 13.0932 316.782 10.8532C316.782 9.43101 317.316 8.28435 318.382 7.41324C319.449 6.52435 320.845 6.0799 322.569 6.0799C324.276 6.0799 325.68 6.53324 326.782 7.4399C327.902 8.32879 328.534 9.53768 328.676 11.0666H325.902C325.725 10.231 325.334 9.59101 324.729 9.14657C324.142 8.68435 323.378 8.45324 322.436 8.45324C321.529 8.45324 320.809 8.64879 320.276 9.0399C319.742 9.43101 319.476 9.96435 319.476 10.6399C319.476 11.1732 319.662 11.6088 320.036 11.9466C320.409 12.2666 321.005 12.5155 321.822 12.6932L324.489 13.2532C325.947 13.5732 327.031 14.1066 327.742 14.8532C328.471 15.5821 328.836 16.5421 328.836 17.7332C328.836 19.2621 328.302 20.4799 327.236 21.3866C326.169 22.2755 324.702 22.7199 322.836 22.7199ZM343.792 22.3999C342.974 22.3999 342.334 22.1866 341.872 21.7599C341.409 21.3155 341.178 20.6577 341.178 19.7866V8.69324H338.458V6.3999H341.205V1.5999H344.032V6.3999H347.845V8.69324H344.058V20.1066H348.218V22.3999H343.792ZM351.28 22.3999V-9.72748e-05H354.16V8.74657H354.267C354.729 7.92879 355.378 7.2799 356.213 6.7999C357.049 6.3199 358.027 6.0799 359.147 6.0799C360.302 6.0799 361.324 6.35546 362.213 6.90657C363.102 7.45768 363.795 8.22212 364.293 9.1999C364.791 10.1777 365.04 11.3155 365.04 12.6132V22.3999H362.16V13.0399C362.16 11.6532 361.804 10.5777 361.093 9.81324C360.4 9.04879 359.422 8.66657 358.16 8.66657C356.898 8.66657 355.911 9.04879 355.2 9.81324C354.507 10.5777 354.16 11.6532 354.16 13.0399V22.3999H351.28ZM376.393 22.7199C374.953 22.7199 373.664 22.3821 372.527 21.7066C371.389 21.0132 370.491 20.0443 369.833 18.7999C369.193 17.5377 368.873 16.0532 368.873 14.3466C368.873 12.6577 369.193 11.1999 369.833 9.97324C370.473 8.72879 371.344 7.76879 372.447 7.09324C373.549 6.41768 374.811 6.0799 376.233 6.0799C377.567 6.0799 378.749 6.38212 379.78 6.98657C380.829 7.59101 381.655 8.46212 382.26 9.5999C382.864 10.7377 383.167 12.0799 383.167 13.6266V14.9066H371.647C371.753 16.5243 372.233 17.8132 373.087 18.7732C373.94 19.7332 375.033 20.2132 376.367 20.2132C377.327 20.2132 378.144 19.9732 378.82 19.4932C379.495 19.0132 379.949 18.3555 380.18 17.5199H383.113C382.9 18.6043 382.473 19.5377 381.833 20.3199C381.193 21.0843 380.411 21.6799 379.487 22.1066C378.562 22.5155 377.531 22.7199 376.393 22.7199ZM371.78 12.7199H380.367C380.242 11.4043 379.807 10.3821 379.06 9.65324C378.313 8.92435 377.362 8.5599 376.207 8.5599C375.069 8.5599 374.109 8.93324 373.327 9.6799C372.544 10.4088 372.029 11.4221 371.78 12.7199ZM397.67 22.3999L393.083 6.3999H396.017L399.377 18.8532H399.483L403.403 6.3999H406.39L410.31 18.8532H410.417L413.777 6.3999H416.657L412.07 22.3999H408.87L404.923 9.9199H404.817L400.87 22.3999H397.67ZM425.643 22.7199C424.203 22.7199 422.914 22.3821 421.777 21.7066C420.639 21.0132 419.741 20.0443 419.083 18.7999C418.443 17.5377 418.123 16.0532 418.123 14.3466C418.123 12.6577 418.443 11.1999 419.083 9.97324C419.723 8.72879 420.594 7.76879 421.697 7.09324C422.799 6.41768 424.061 6.0799 425.483 6.0799C426.817 6.0799 427.999 6.38212 429.03 6.98657C430.079 7.59101 430.905 8.46212 431.51 9.5999C432.114 10.7377 432.417 12.0799 432.417 13.6266V14.9066H420.897C421.003 16.5243 421.483 17.8132 422.337 18.7732C423.19 19.7332 424.283 20.2132 425.617 20.2132C426.577 20.2132 427.394 19.9732 428.07 19.4932C428.745 19.0132 429.199 18.3555 429.43 17.5199H432.363C432.15 18.6043 431.723 19.5377 431.083 20.3199C430.443 21.0843 429.661 21.6799 428.737 22.1066C427.812 22.5155 426.781 22.7199 425.643 22.7199ZM421.03 12.7199H429.617C429.492 11.4043 429.057 10.3821 428.31 9.65324C427.563 8.92435 426.612 8.5599 425.457 8.5599C424.319 8.5599 423.359 8.93324 422.577 9.6799C421.794 10.4088 421.279 11.4221 421.03 12.7199ZM444.24 22.7199C441.894 22.7199 440.258 21.7421 439.334 19.7866H439.227V22.3999H436.374V-9.72748e-05H439.254V8.98657H439.36C440.267 7.04879 441.894 6.0799 444.24 6.0799C445.574 6.0799 446.738 6.42657 447.734 7.1199C448.729 7.81323 449.503 8.78212 450.054 10.0266C450.605 11.271 450.88 12.7288 450.88 14.3999C450.88 16.0532 450.605 17.511 450.054 18.7732C449.503 20.0177 448.729 20.9866 447.734 21.6799C446.738 22.3732 445.574 22.7199 444.24 22.7199ZM443.467 20.1599C444.854 20.1599 445.956 19.6355 446.774 18.5866C447.591 17.5377 448 16.1421 448 14.3999C448 12.6577 447.591 11.2621 446.774 10.2132C445.956 9.16435 444.854 8.6399 443.467 8.6399C442.134 8.6399 441.094 9.06657 440.347 9.9199C439.618 10.7555 439.254 11.8577 439.254 13.2266V15.5732C439.254 16.9421 439.618 18.0532 440.347 18.9066C441.094 19.7421 442.134 20.1599 443.467 20.1599ZM460.336 22.7199C458.416 22.7199 456.851 22.2488 455.642 21.3066C454.451 20.3466 453.802 19.0666 453.696 17.4666H456.522C456.647 18.391 457.047 19.1021 457.722 19.5999C458.398 20.0799 459.305 20.3199 460.442 20.3199C461.491 20.3199 462.291 20.1155 462.842 19.7066C463.394 19.2977 463.669 18.7199 463.669 17.9732C463.669 16.7999 462.86 16.0443 461.242 15.7066L458.602 15.1199C455.722 14.5155 454.282 13.0932 454.282 10.8532C454.282 9.43101 454.816 8.28435 455.882 7.41324C456.949 6.52435 458.345 6.0799 460.069 6.0799C461.776 6.0799 463.18 6.53324 464.282 7.4399C465.402 8.32879 466.034 9.53768 466.176 11.0666H463.402C463.225 10.231 462.834 9.59101 462.229 9.14657C461.642 8.68435 460.878 8.45324 459.936 8.45324C459.029 8.45324 458.309 8.64879 457.776 9.0399C457.242 9.43101 456.976 9.96435 456.976 10.6399C456.976 11.1732 457.162 11.6088 457.536 11.9466C457.909 12.2666 458.505 12.5155 459.322 12.6932L461.989 13.2532C463.447 13.5732 464.531 14.1066 465.242 14.8532C465.971 15.5821 466.336 16.5421 466.336 17.7332C466.336 19.2621 465.802 20.4799 464.736 21.3866C463.669 22.2755 462.202 22.7199 460.336 22.7199ZM470.079 22.3999V6.3999H472.959V22.3999H470.079ZM471.519 4.21324C471.021 4.21324 470.594 4.03546 470.239 3.6799C469.883 3.32435 469.705 2.89768 469.705 2.3999C469.705 1.90212 469.883 1.47546 470.239 1.1199C470.594 0.764346 471.021 0.586569 471.519 0.586569C472.016 0.586569 472.443 0.764346 472.799 1.1199C473.154 1.47546 473.332 1.90212 473.332 2.3999C473.332 2.89768 473.154 3.32435 472.799 3.6799C472.443 4.03546 472.016 4.21324 471.519 4.21324ZM481.292 22.3999C480.474 22.3999 479.834 22.1866 479.372 21.7599C478.909 21.3155 478.678 20.6577 478.678 19.7866V8.69324H475.958V6.3999H478.705V1.5999H481.532V6.3999H485.345V8.69324H481.558V20.1066H485.718V22.3999H481.292ZM495.393 22.7199C493.953 22.7199 492.664 22.3821 491.527 21.7066C490.389 21.0132 489.491 20.0443 488.833 18.7999C488.193 17.5377 487.873 16.0532 487.873 14.3466C487.873 12.6577 488.193 11.1999 488.833 9.97324C489.473 8.72879 490.344 7.76879 491.447 7.09324C492.549 6.41768 493.811 6.0799 495.233 6.0799C496.567 6.0799 497.749 6.38212 498.78 6.98657C499.829 7.59101 500.655 8.46212 501.26 9.5999C501.864 10.7377 502.167 12.0799 502.167 13.6266V14.9066H490.647C490.753 16.5243 491.233 17.8132 492.087 18.7732C492.94 19.7332 494.033 20.2132 495.367 20.2132C496.327 20.2132 497.144 19.9732 497.82 19.4932C498.495 19.0132 498.949 18.3555 499.18 17.5199H502.113C501.9 18.6043 501.473 19.5377 500.833 20.3199C500.193 21.0843 499.411 21.6799 498.487 22.1066C497.562 22.5155 496.531 22.7199 495.393 22.7199ZM490.78 12.7199H499.367C499.242 11.4043 498.807 10.3821 498.06 9.65324C497.313 8.92435 496.362 8.5599 495.207 8.5599C494.069 8.5599 493.109 8.93324 492.327 9.6799C491.544 10.4088 491.029 11.4221 490.78 12.7199Z" fill="black"/>
</svg>
