<svg width="123" height="12" viewBox="0 0 123 12" fill="none" xmlns="http://www.w3.org/2000/svg">
<path d="M-0.000227809 11.2V0.400012H4.37311C5.54644 0.400012 6.55977 0.61779 7.41311 1.05335C8.26644 1.4889 8.92422 2.11112 9.38644 2.92001C9.84866 3.7289 10.0798 4.6889 10.0798 5.80001C10.0798 6.90223 9.84422 7.85779 9.37311 8.66668C8.91088 9.47557 8.25311 10.1022 7.39977 10.5467C6.54644 10.9822 5.53755 11.2 4.37311 11.2H-0.000227809ZM2.50644 9.06668H4.37311C5.43088 9.06668 6.22644 8.76446 6.75977 8.16001C7.30199 7.55557 7.57311 6.7689 7.57311 5.80001C7.57311 4.82223 7.30199 4.03557 6.75977 3.44001C6.22644 2.83557 5.43088 2.53335 4.37311 2.53335H2.50644V9.06668ZM22.1341 11.2H19.4808L14.1875 4.13335H14.1341V11.2H11.7341V0.400012H14.2808L19.6808 7.66668H19.7341V0.400012H22.1341V11.2ZM28.6654 11.36C27.1898 11.36 26.0121 11.04 25.1321 10.4C24.261 9.75112 23.7854 8.8489 23.7054 7.69335H26.2654C26.3632 8.25335 26.621 8.67112 27.0387 8.94668C27.4565 9.22223 28.0298 9.36001 28.7587 9.36001C29.4165 9.36001 29.9054 9.26223 30.2254 9.06668C30.5543 8.86223 30.7187 8.56001 30.7187 8.16001C30.7187 7.8489 30.6165 7.6089 30.4121 7.44001C30.2165 7.26223 29.8876 7.12446 29.4254 7.02668L27.1454 6.54668C26.1143 6.32446 25.3498 5.96446 24.8521 5.46668C24.3543 4.9689 24.1054 4.31557 24.1054 3.50668C24.1054 2.48446 24.4921 1.68446 25.2654 1.10668C26.0476 0.528901 27.1098 0.240012 28.4521 0.240012C29.8032 0.240012 30.8921 0.542234 31.7187 1.14668C32.5454 1.75112 33.0032 2.59557 33.0921 3.68001H30.5321C30.2832 2.66668 29.541 2.16001 28.3054 2.16001C27.7632 2.16001 27.3365 2.25779 27.0254 2.45335C26.7143 2.64001 26.5587 2.91112 26.5587 3.26668C26.5587 3.80001 26.941 4.14668 27.7054 4.30668L30.0921 4.80001C31.1676 5.02223 31.9498 5.38668 32.4387 5.89335C32.9276 6.40001 33.1721 7.0889 33.1721 7.96001C33.1721 9.03557 32.781 9.87112 31.9987 10.4667C31.2254 11.0622 30.1143 11.36 28.6654 11.36ZM40.8194 11.3467C39.8594 11.3467 39.1082 11.12 38.566 10.6667C38.0327 10.2045 37.766 9.59112 37.766 8.82668C37.766 8.03557 38.046 7.42668 38.606 7.00001C39.1749 6.56446 39.9838 6.34668 41.0327 6.34668H43.1794V6.05335C43.1794 5.32446 42.7171 4.96001 41.7927 4.96001C40.9749 4.96001 40.4771 5.23557 40.2994 5.78668H37.8727C38.0594 4.88001 38.4816 4.19557 39.1394 3.73335C39.7971 3.27112 40.6771 3.04001 41.7794 3.04001C42.9971 3.04001 43.926 3.31112 44.566 3.85335C45.206 4.38668 45.526 5.1689 45.526 6.20001V8.80001H46.6727V11.2H44.2194V9.86668H43.6594C43.3838 10.3467 43.0194 10.7156 42.566 10.9733C42.1127 11.2222 41.5305 11.3467 40.8194 11.3467ZM41.1927 9.50668C41.5838 9.50668 41.926 9.44001 42.2194 9.30668C42.5216 9.17335 42.7571 8.99112 42.926 8.76001C43.0949 8.5289 43.1794 8.27112 43.1794 7.98668V7.94668H41.1394C40.4549 7.94668 40.1127 8.20001 40.1127 8.70668C40.1127 8.96446 40.206 9.16446 40.3927 9.30668C40.5882 9.44001 40.8549 9.50668 41.1927 9.50668ZM48.1341 11.2V5.60001H46.9341V3.20001H49.3875V4.53335H49.9475C50.2675 4.07112 50.6586 3.71112 51.1208 3.45335C51.5919 3.18668 52.1919 3.05335 52.9208 3.05335C54.0586 3.05335 54.9297 3.36001 55.5341 3.97335C56.1475 4.58668 56.4541 5.4089 56.4541 6.44001V11.2H54.0008V6.92001C54.0008 6.3689 53.8541 5.95112 53.5608 5.66668C53.2764 5.38223 52.8541 5.24001 52.2941 5.24001C51.7341 5.24001 51.3075 5.38223 51.0141 5.66668C50.7297 5.95112 50.5875 6.3689 50.5875 6.92001V11.2H48.1341ZM61.4254 11.36C60.5898 11.36 59.8832 11.1867 59.3054 10.84C58.7365 10.4845 58.3054 9.99557 58.0121 9.37335C57.7187 8.74223 57.5721 8.01779 57.5721 7.20001C57.5721 6.37335 57.7143 5.6489 57.9987 5.02668C58.2832 4.39557 58.6965 3.90668 59.2387 3.56001C59.7898 3.21335 60.4476 3.04001 61.2121 3.04001C61.781 3.04001 62.2698 3.14668 62.6787 3.36001C63.0876 3.56446 63.4032 3.85335 63.6254 4.22668H63.6787V1.23978e-05H66.1321V8.80001H67.3321V11.2H64.8787V9.86668H64.3187C64.0343 10.3378 63.6476 10.7067 63.1587 10.9733C62.6787 11.2311 62.101 11.36 61.4254 11.36ZM61.8921 9.22668C62.4432 9.22668 62.8787 9.07557 63.1987 8.77335C63.5187 8.46223 63.6787 8.03557 63.6787 7.49335V6.90668C63.6787 6.36446 63.5187 5.94223 63.1987 5.64001C62.8787 5.3289 62.4432 5.17335 61.8921 5.17335C61.261 5.17335 60.7898 5.35557 60.4787 5.72001C60.1765 6.08446 60.0254 6.57779 60.0254 7.20001C60.0254 7.82223 60.1765 8.31557 60.4787 8.68001C60.7898 9.04446 61.261 9.22668 61.8921 9.22668ZM76.806 11.36C75.3305 11.36 74.1527 11.04 73.2727 10.4C72.4016 9.75112 71.926 8.8489 71.846 7.69335H74.406C74.5038 8.25335 74.7616 8.67112 75.1794 8.94668C75.5971 9.22223 76.1705 9.36001 76.8994 9.36001C77.5571 9.36001 78.046 9.26223 78.366 9.06668C78.6949 8.86223 78.8594 8.56001 78.8594 8.16001C78.8594 7.8489 78.7571 7.6089 78.5527 7.44001C78.3571 7.26223 78.0282 7.12446 77.566 7.02668L75.286 6.54668C74.2549 6.32446 73.4905 5.96446 72.9927 5.46668C72.4949 4.9689 72.246 4.31557 72.246 3.50668C72.246 2.48446 72.6327 1.68446 73.406 1.10668C74.1882 0.528901 75.2505 0.240012 76.5927 0.240012C77.9438 0.240012 79.0327 0.542234 79.8594 1.14668C80.686 1.75112 81.1438 2.59557 81.2327 3.68001H78.6727C78.4238 2.66668 77.6816 2.16001 76.446 2.16001C75.9038 2.16001 75.4771 2.25779 75.166 2.45335C74.8549 2.64001 74.6994 2.91112 74.6994 3.26668C74.6994 3.80001 75.0816 4.14668 75.846 4.30668L78.2327 4.80001C79.3082 5.02223 80.0905 5.38668 80.5794 5.89335C81.0682 6.40001 81.3127 7.0889 81.3127 7.96001C81.3127 9.03557 80.9216 9.87112 80.1394 10.4667C79.366 11.0622 78.2549 11.36 76.806 11.36ZM86.4389 11.36C85.5589 11.36 84.7945 11.1911 84.1456 10.8533C83.4967 10.5067 82.9945 10.0222 82.6389 9.40001C82.2923 8.7689 82.1189 8.02668 82.1189 7.17335C82.1189 6.32001 82.2878 5.58668 82.6256 4.97335C82.9723 4.35112 83.4612 3.87557 84.0923 3.54668C84.7323 3.2089 85.4834 3.04001 86.3456 3.04001C87.1989 3.04001 87.9323 3.20446 88.5456 3.53335C89.1589 3.85335 89.6256 4.31557 89.9456 4.92001C90.2745 5.52446 90.4389 6.2489 90.4389 7.09335V7.88001H84.4789C84.5767 8.39557 84.7901 8.78668 85.1189 9.05335C85.4478 9.31112 85.8834 9.44001 86.4256 9.44001C86.8612 9.44001 87.1989 9.37335 87.4389 9.24001C87.6878 9.09779 87.8656 8.87557 87.9723 8.57335H90.4256C90.2567 9.44446 89.8212 10.1289 89.1189 10.6267C88.4167 11.1156 87.5234 11.36 86.4389 11.36ZM84.5189 6.28001H88.0923C88.0123 5.83557 87.8256 5.50668 87.5323 5.29335C87.2478 5.07112 86.8567 4.96001 86.3589 4.96001C85.87 4.96001 85.4701 5.07112 85.1589 5.29335C84.8478 5.51557 84.6345 5.84446 84.5189 6.28001ZM92.3814 11.2V5.60001H91.1814V3.20001H93.6348V4.80001H94.1948C94.3992 4.22223 94.7325 3.79557 95.1948 3.52001C95.657 3.23557 96.1725 3.09335 96.7414 3.09335H97.4214V5.22668H96.6348C95.977 5.22668 95.5014 5.4089 95.2081 5.77335C94.9237 6.13779 94.7814 6.61335 94.7814 7.20001V11.2H92.3814ZM101.266 11.2L97.8256 3.20001H100.426L102.506 8.30668H102.559L104.586 3.20001H107.132L103.692 11.2H101.266ZM111.642 11.36C110.762 11.36 109.998 11.1911 109.349 10.8533C108.7 10.5067 108.198 10.0222 107.842 9.40001C107.495 8.7689 107.322 8.02668 107.322 7.17335C107.322 6.32001 107.491 5.58668 107.829 4.97335C108.175 4.35112 108.664 3.87557 109.295 3.54668C109.935 3.2089 110.687 3.04001 111.549 3.04001C112.402 3.04001 113.135 3.20446 113.749 3.53335C114.362 3.85335 114.829 4.31557 115.149 4.92001C115.478 5.52446 115.642 6.2489 115.642 7.09335V7.88001H109.682C109.78 8.39557 109.993 8.78668 110.322 9.05335C110.651 9.31112 111.087 9.44001 111.629 9.44001C112.064 9.44001 112.402 9.37335 112.642 9.24001C112.891 9.09779 113.069 8.87557 113.175 8.57335H115.629C115.46 9.44446 115.024 10.1289 114.322 10.6267C113.62 11.1156 112.727 11.36 111.642 11.36ZM109.722 6.28001H113.295C113.215 5.83557 113.029 5.50668 112.735 5.29335C112.451 5.07112 112.06 4.96001 111.562 4.96001C111.073 4.96001 110.673 5.07112 110.362 5.29335C110.051 5.51557 109.838 5.84446 109.722 6.28001ZM117.585 11.2V5.60001H116.385V3.20001H118.838V4.80001H119.398C119.602 4.22223 119.936 3.79557 120.398 3.52001C120.86 3.23557 121.376 3.09335 121.945 3.09335H122.625V5.22668H121.838C121.18 5.22668 120.705 5.4089 120.411 5.77335C120.127 6.13779 119.985 6.61335 119.985 7.20001V11.2H117.585Z" fill="#0000CB"/>
</svg>
