<svg width="114" height="12" viewBox="0 0 114 12" fill="none" xmlns="http://www.w3.org/2000/svg">
<path d="M-0.000227809 11.32V0.520007H4.37311C5.54644 0.520007 6.55977 0.737785 7.41311 1.17334C8.26644 1.6089 8.92422 2.23112 9.38644 3.04001C9.84866 3.8489 10.0798 4.8089 10.0798 5.92001C10.0798 7.02223 9.84422 7.97779 9.37311 8.78667C8.91088 9.59556 8.25311 10.2222 7.39977 10.6667C6.54644 11.1022 5.53755 11.32 4.37311 11.32H-0.000227809ZM2.50644 9.18667H4.37311C5.43088 9.18667 6.22644 8.88445 6.75977 8.28001C7.30199 7.67556 7.57311 6.8889 7.57311 5.92001C7.57311 4.94223 7.30199 4.15556 6.75977 3.56001C6.22644 2.95556 5.43088 2.65334 4.37311 2.65334H2.50644V9.18667ZM15.4141 11.48C14.5341 11.48 13.7653 11.3111 13.1075 10.9733C12.4497 10.6267 11.9386 10.1422 11.5741 9.52001C11.2186 8.8889 11.0408 8.15112 11.0408 7.30667C11.0408 6.46223 11.2186 5.7289 11.5741 5.10667C11.9386 4.48445 12.4497 4.00445 13.1075 3.66667C13.7653 3.3289 14.5386 3.16001 15.4275 3.16001C16.3164 3.16001 17.0808 3.3289 17.7208 3.66667C18.3697 4.00445 18.8719 4.48445 19.2275 5.10667C19.583 5.7289 19.7608 6.46667 19.7608 7.32001C19.7608 8.16445 19.583 8.90223 19.2275 9.53334C18.8719 10.1556 18.3697 10.6356 17.7208 10.9733C17.0719 11.3111 16.303 11.48 15.4141 11.48ZM15.4141 9.34667C16.0275 9.34667 16.4941 9.16445 16.8141 8.80001C17.143 8.42667 17.3075 7.9289 17.3075 7.30667C17.3075 6.68445 17.143 6.19556 16.8141 5.84001C16.4941 5.47556 16.0275 5.29334 15.4141 5.29334C14.7919 5.29334 14.3164 5.47556 13.9875 5.84001C13.6586 6.19556 13.4941 6.68445 13.4941 7.30667C13.4941 7.9289 13.6586 8.42667 13.9875 8.80001C14.3164 9.16445 14.7919 9.34667 15.4141 9.34667ZM21.6029 11.32V5.72001H20.4029V3.32001H22.8562V4.65334H23.4162C23.7185 4.18223 24.0962 3.81778 24.5496 3.56001C25.0118 3.30223 25.5851 3.17334 26.2696 3.17334C26.9185 3.17334 27.4696 3.28445 27.9229 3.50667C28.3851 3.72001 28.7585 4.03556 29.0429 4.45334H29.0962C29.7273 3.60001 30.634 3.17334 31.8162 3.17334C32.874 3.17334 33.7096 3.48001 34.3229 4.09334C34.9451 4.70667 35.2562 5.5289 35.2562 6.56001V11.32H32.8029V7.04001C32.8029 5.92001 32.2785 5.36001 31.2296 5.36001C30.1807 5.36001 29.6562 5.92001 29.6562 7.04001V11.32H27.2029V7.04001C27.2029 5.92001 26.6696 5.36001 25.6029 5.36001C25.0873 5.36001 24.7007 5.49779 24.4429 5.77334C24.1851 6.0489 24.0562 6.47112 24.0562 7.04001V11.32H21.6029ZM39.4756 11.4667C38.5156 11.4667 37.7645 11.24 37.2223 10.7867C36.6889 10.3245 36.4223 9.71112 36.4223 8.94667C36.4223 8.15556 36.7023 7.54667 37.2623 7.12001C37.8312 6.68445 38.6401 6.46667 39.6889 6.46667H41.8356V6.17334C41.8356 5.44445 41.3734 5.08001 40.4489 5.08001C39.6312 5.08001 39.1334 5.35556 38.9556 5.90667H36.5289C36.7156 5.00001 37.1378 4.31556 37.7956 3.85334C38.4534 3.39112 39.3334 3.16001 40.4356 3.16001C41.6534 3.16001 42.5823 3.43112 43.2223 3.97334C43.8623 4.50667 44.1823 5.2889 44.1823 6.32001V8.92001H45.3289V11.32H42.8756V9.98667H42.3156C42.0401 10.4667 41.6756 10.8356 41.2223 11.0933C40.7689 11.3422 40.1867 11.4667 39.4756 11.4667ZM39.8489 9.62667C40.24 9.62667 40.5823 9.56001 40.8756 9.42667C41.1778 9.29334 41.4134 9.11112 41.5823 8.88001C41.7512 8.6489 41.8356 8.39112 41.8356 8.10667V8.06667H39.7956C39.1112 8.06667 38.7689 8.32001 38.7689 8.82667C38.7689 9.08445 38.8623 9.28445 39.0489 9.42667C39.2445 9.56001 39.5112 9.62667 39.8489 9.62667ZM46.57 11.32V3.32001H49.0233V11.32H46.57ZM47.7966 2.64001C47.4322 2.64001 47.1211 2.51112 46.8633 2.25334C46.6055 1.99556 46.4766 1.68445 46.4766 1.32001C46.4766 0.955563 46.6055 0.644451 46.8633 0.386674C47.1211 0.128896 47.4322 6.67572e-06 47.7966 6.67572e-06C48.1611 6.67572e-06 48.4722 0.128896 48.73 0.386674C48.9878 0.644451 49.1166 0.955563 49.1166 1.32001C49.1166 1.68445 48.9878 1.99556 48.73 2.25334C48.4722 2.51112 48.1611 2.64001 47.7966 2.64001ZM51.3373 11.32V5.72001H50.1373V3.32001H52.5906V4.65334H53.1506C53.4706 4.19112 53.8617 3.83112 54.3239 3.57334C54.7951 3.30667 55.3951 3.17334 56.1239 3.17334C57.2617 3.17334 58.1328 3.48001 58.7373 4.09334C59.3506 4.70667 59.6573 5.5289 59.6573 6.56001V11.32H57.2039V7.04001C57.2039 6.4889 57.0573 6.07112 56.7639 5.78667C56.4795 5.50223 56.0573 5.36001 55.4973 5.36001C54.9373 5.36001 54.5106 5.50223 54.2173 5.78667C53.9328 6.07112 53.7906 6.4889 53.7906 7.04001V11.32H51.3373ZM67.6162 11.4667C66.6562 11.4667 65.9051 11.24 65.3629 10.7867C64.8296 10.3245 64.5629 9.71112 64.5629 8.94667C64.5629 8.15556 64.8429 7.54667 65.4029 7.12001C65.9718 6.68445 66.7807 6.46667 67.8296 6.46667H69.9762V6.17334C69.9762 5.44445 69.514 5.08001 68.5896 5.08001C67.7718 5.08001 67.274 5.35556 67.0962 5.90667H64.6696C64.8562 5.00001 65.2785 4.31556 65.9362 3.85334C66.594 3.39112 67.474 3.16001 68.5762 3.16001C69.794 3.16001 70.7229 3.43112 71.3629 3.97334C72.0029 4.50667 72.3229 5.2889 72.3229 6.32001V8.92001H73.4696V11.32H71.0162V9.98667H70.4562C70.1807 10.4667 69.8162 10.8356 69.3629 11.0933C68.9096 11.3422 68.3273 11.4667 67.6162 11.4667ZM67.9896 9.62667C68.3807 9.62667 68.7229 9.56001 69.0162 9.42667C69.3185 9.29334 69.554 9.11112 69.7229 8.88001C69.8918 8.6489 69.9762 8.39112 69.9762 8.10667V8.06667H67.9362C67.2518 8.06667 66.9096 8.32001 66.9096 8.82667C66.9096 9.08445 67.0029 9.28445 67.1896 9.42667C67.3851 9.56001 67.6518 9.62667 67.9896 9.62667ZM74.931 11.32V5.72001H73.731V3.32001H76.1844V4.65334H76.7444C77.0644 4.19112 77.4555 3.83112 77.9177 3.57334C78.3888 3.30667 78.9888 3.17334 79.7177 3.17334C80.8555 3.17334 81.7266 3.48001 82.331 4.09334C82.9444 4.70667 83.251 5.5289 83.251 6.56001V11.32H80.7977V7.04001C80.7977 6.4889 80.651 6.07112 80.3577 5.78667C80.0732 5.50223 79.651 5.36001 79.091 5.36001C78.531 5.36001 78.1044 5.50223 77.811 5.78667C77.5266 6.07112 77.3844 6.4889 77.3844 7.04001V11.32H74.931ZM88.2223 11.48C87.3867 11.48 86.68 11.3067 86.1023 10.96C85.5334 10.6045 85.1023 10.1156 84.8089 9.49334C84.5156 8.86223 84.3689 8.13779 84.3689 7.32001C84.3689 6.49334 84.5112 5.7689 84.7956 5.14667C85.08 4.51556 85.4934 4.02667 86.0356 3.68001C86.5867 3.33334 87.2445 3.16001 88.0089 3.16001C88.5778 3.16001 89.0667 3.26667 89.4756 3.48001C89.8845 3.68445 90.2 3.97334 90.4223 4.34667H90.4756V0.120008H92.9289V8.92001H94.1289V11.32H91.6756V9.98667H91.1156C90.8312 10.4578 90.4445 10.8267 89.9556 11.0933C89.4756 11.3511 88.8978 11.48 88.2223 11.48ZM88.6889 9.34667C89.24 9.34667 89.6756 9.19556 89.9956 8.89334C90.3156 8.58223 90.4756 8.15556 90.4756 7.61334V7.02667C90.4756 6.48445 90.3156 6.06223 89.9956 5.76001C89.6756 5.4489 89.24 5.29334 88.6889 5.29334C88.0578 5.29334 87.5867 5.47556 87.2756 5.84001C86.9734 6.20445 86.8223 6.69779 86.8223 7.32001C86.8223 7.94223 86.9734 8.43556 87.2756 8.80001C87.5867 9.16445 88.0578 9.34667 88.6889 9.34667ZM99.2829 11.32V0.520007H101.79V11.32H99.2829ZM104 11.32V0.520007H109.24C110.458 0.520007 111.409 0.831118 112.093 1.45334C112.778 2.06667 113.12 2.91556 113.12 4.00001C113.12 5.07556 112.778 5.92445 112.093 6.54667C111.409 7.1689 110.458 7.48001 109.24 7.48001H106.506V11.32H104ZM106.506 5.29334H109.08C109.578 5.29334 109.955 5.18223 110.213 4.96001C110.48 4.7289 110.613 4.4089 110.613 4.00001C110.613 3.58223 110.48 3.26223 110.213 3.04001C109.955 2.81778 109.578 2.70667 109.08 2.70667H106.506V5.29334Z" fill="#0000CB"/>
</svg>
