<svg width="100" height="15" viewBox="0 0 100 15" fill="none" xmlns="http://www.w3.org/2000/svg">
<path d="M3.05332 11.32L-1.30236e-05 0.520007H2.63999L4.41332 7.30667H4.47999L6.59999 0.520007H8.73332L10.9733 7.30667H11.0267L12.7867 0.520007H15.44L12.3867 11.32H9.91999L7.69332 4.22667H7.63999L5.51999 11.32H3.05332ZM19.2842 11.48C18.4042 11.48 17.6397 11.3111 16.9908 10.9733C16.3419 10.6267 15.8397 10.1422 15.4842 9.52001C15.1375 8.8889 14.9642 8.14667 14.9642 7.29334C14.9642 6.44001 15.133 5.70667 15.4708 5.09334C15.8175 4.47112 16.3064 3.99556 16.9375 3.66667C17.5775 3.3289 18.3286 3.16001 19.1908 3.16001C20.0442 3.16001 20.7775 3.32445 21.3908 3.65334C22.0042 3.97334 22.4708 4.43556 22.7908 5.04001C23.1197 5.64445 23.2842 6.3689 23.2842 7.21334V8.00001H17.3242C17.4219 8.51556 17.6353 8.90667 17.9642 9.17334C18.293 9.43112 18.7286 9.56001 19.2708 9.56001C19.7064 9.56001 20.0442 9.49334 20.2842 9.36001C20.533 9.21779 20.7108 8.99556 20.8175 8.69334H23.2708C23.1019 9.56445 22.6664 10.2489 21.9642 10.7467C21.2619 11.2356 20.3686 11.48 19.2842 11.48ZM17.3642 6.40001H20.9375C20.8575 5.95556 20.6708 5.62667 20.3775 5.41334C20.093 5.19112 19.7019 5.08001 19.2042 5.08001C18.7153 5.08001 18.3153 5.19112 18.0042 5.41334C17.693 5.63556 17.4797 5.96445 17.3642 6.40001ZM29.8267 11.48C29.1511 11.48 28.5689 11.3511 28.08 11.0933C27.6 10.8267 27.2178 10.4578 26.9333 9.98667H26.3733V11.32H23.92V8.92001H25.12V0.120008H27.5733V4.34667H27.6267C27.8578 3.97334 28.1733 3.68445 28.5733 3.48001C28.9822 3.26667 29.4711 3.16001 30.04 3.16001C30.8133 3.16001 31.4711 3.33334 32.0133 3.68001C32.5555 4.02667 32.9689 4.51556 33.2533 5.14667C33.5378 5.7689 33.68 6.49334 33.68 7.32001C33.68 8.13779 33.5333 8.86223 33.24 9.49334C32.9467 10.1156 32.5155 10.6045 31.9467 10.96C31.3778 11.3067 30.6711 11.48 29.8267 11.48ZM29.36 9.34667C29.9911 9.34667 30.4578 9.16445 30.76 8.80001C31.0711 8.43556 31.2267 7.94223 31.2267 7.32001C31.2267 6.69779 31.0711 6.20445 30.76 5.84001C30.4578 5.47556 29.9911 5.29334 29.36 5.29334C28.8089 5.29334 28.3733 5.4489 28.0533 5.76001C27.7333 6.06223 27.5733 6.48445 27.5733 7.02667V7.61334C27.5733 8.15556 27.7333 8.58223 28.0533 8.89334C28.3733 9.19556 28.8089 9.34667 29.36 9.34667ZM38.8606 11.32V0.520007H41.3673V4.62667H46.3539V0.520007H48.8606V11.32H46.3539V6.81334H41.3673V11.32H38.8606ZM54.6812 11.48C53.8012 11.48 53.0323 11.3111 52.3746 10.9733C51.7168 10.6267 51.2057 10.1422 50.8412 9.52001C50.4857 8.8889 50.3079 8.15112 50.3079 7.30667C50.3079 6.46223 50.4857 5.7289 50.8412 5.10667C51.2057 4.48445 51.7168 4.00445 52.3746 3.66667C53.0323 3.3289 53.8057 3.16001 54.6946 3.16001C55.5835 3.16001 56.3479 3.3289 56.9879 3.66667C57.6368 4.00445 58.139 4.48445 58.4946 5.10667C58.8501 5.7289 59.0279 6.46667 59.0279 7.32001C59.0279 8.16445 58.8501 8.90223 58.4946 9.53334C58.139 10.1556 57.6368 10.6356 56.9879 10.9733C56.339 11.3111 55.5701 11.48 54.6812 11.48ZM54.6812 9.34667C55.2946 9.34667 55.7612 9.16445 56.0812 8.80001C56.4101 8.42667 56.5746 7.9289 56.5746 7.30667C56.5746 6.68445 56.4101 6.19556 56.0812 5.84001C55.7612 5.47556 55.2946 5.29334 54.6812 5.29334C54.059 5.29334 53.5835 5.47556 53.2546 5.84001C52.9257 6.19556 52.7612 6.68445 52.7612 7.30667C52.7612 7.9289 52.9257 8.42667 53.2546 8.80001C53.5835 9.16445 54.059 9.34667 54.6812 9.34667ZM63.8567 11.48C62.6567 11.48 61.71 11.2267 61.0167 10.72C60.3322 10.2133 59.9633 9.50667 59.91 8.60001H62.27C62.3411 8.95556 62.51 9.21779 62.7767 9.38667C63.0522 9.55556 63.4478 9.64001 63.9633 9.64001C64.7633 9.64001 65.1633 9.43112 65.1633 9.01334C65.1633 8.84445 65.1011 8.71112 64.9767 8.61334C64.8611 8.50667 64.6655 8.42667 64.39 8.37334L62.6033 8.02667C60.9678 7.70667 60.15 6.94223 60.15 5.73334C60.15 4.95112 60.4655 4.3289 61.0967 3.86667C61.7278 3.39556 62.5989 3.16001 63.71 3.16001C64.8211 3.16001 65.6967 3.40001 66.3367 3.88001C66.9767 4.36001 67.3233 5.03556 67.3767 5.90667H65.0167C64.9278 5.56001 64.7678 5.31112 64.5367 5.16001C64.3144 5.00001 63.9855 4.92001 63.55 4.92001C63.1944 4.92001 62.9189 4.9689 62.7233 5.06667C62.5367 5.16445 62.4433 5.31112 62.4433 5.50667C62.4433 5.6489 62.5011 5.7689 62.6167 5.86667C62.7322 5.96445 62.9055 6.03556 63.1367 6.08001L64.9767 6.44001C65.83 6.6089 66.4567 6.88445 66.8567 7.26667C67.2567 7.6489 67.4567 8.16445 67.4567 8.81334C67.4567 9.6489 67.1455 10.3022 66.5233 10.7733C65.91 11.2445 65.0211 11.48 63.8567 11.48ZM71.3429 11.32C70.7207 11.32 70.2362 11.1645 69.8896 10.8533C69.5518 10.5333 69.3829 10.0489 69.3829 9.40001V5.24001H68.0496V3.32001H69.4096V0.920007H71.8096V3.32001H73.5696V5.24001H71.8362V9.40001H73.7562V11.32H71.3429ZM74.9152 11.32V3.32001H77.3685V11.32H74.9152ZM76.1419 2.64001C75.7774 2.64001 75.4663 2.51112 75.2085 2.25334C74.9508 1.99556 74.8219 1.68445 74.8219 1.32001C74.8219 0.955563 74.9508 0.644451 75.2085 0.386674C75.4663 0.128896 75.7774 6.67572e-06 76.1419 6.67572e-06C76.5063 6.67572e-06 76.8174 0.128896 77.0752 0.386674C77.333 0.644451 77.4619 0.955563 77.4619 1.32001C77.4619 1.68445 77.333 1.99556 77.0752 2.25334C76.8174 2.51112 76.5063 2.64001 76.1419 2.64001ZM79.6825 11.32V5.72001H78.4825V3.32001H80.9358V4.65334H81.4958C81.8158 4.19112 82.2069 3.83112 82.6692 3.57334C83.1403 3.30667 83.7403 3.17334 84.4692 3.17334C85.6069 3.17334 86.478 3.48001 87.0825 4.09334C87.6958 4.70667 88.0025 5.5289 88.0025 6.56001V11.32H85.5492V7.04001C85.5492 6.4889 85.4025 6.07112 85.1092 5.78667C84.8247 5.50223 84.4025 5.36001 83.8425 5.36001C83.2825 5.36001 82.8558 5.50223 82.5625 5.78667C82.278 6.07112 82.1358 6.4889 82.1358 7.04001V11.32H79.6825ZM93.5337 14.68C92.2982 14.68 91.2937 14.4311 90.5204 13.9333C89.756 13.4445 89.3026 12.76 89.1604 11.88H91.7471C91.9515 12.4667 92.516 12.76 93.4404 12.76C94.0893 12.76 94.5826 12.6133 94.9204 12.32C95.2671 12.0267 95.4404 11.6089 95.4404 11.0667V10.0667H95.3737C95.1248 10.4845 94.796 10.8 94.3871 11.0133C93.9871 11.2178 93.4982 11.32 92.9204 11.32C92.1737 11.32 91.5204 11.1556 90.9604 10.8267C90.4093 10.4889 89.9782 10.0133 89.6671 9.40001C89.3648 8.78667 89.2137 8.06667 89.2137 7.24001C89.2137 5.99556 89.556 5.00445 90.2404 4.26667C90.9337 3.5289 91.8893 3.16001 93.1071 3.16001C93.7826 3.16001 94.3604 3.29334 94.8404 3.56001C95.3293 3.81778 95.716 4.18223 96.0004 4.65334H96.5604V3.32001H99.0137V5.72001H97.8137V11.0667C97.8137 12.2222 97.4448 13.1111 96.7071 13.7333C95.9693 14.3645 94.9115 14.68 93.5337 14.68ZM93.5337 9.18667C94.1115 9.18667 94.5604 9.03112 94.8804 8.72001C95.2004 8.4089 95.3604 7.97778 95.3604 7.42667V7.02667C95.3604 6.48445 95.196 6.06223 94.8671 5.76001C94.5471 5.4489 94.1026 5.29334 93.5337 5.29334C92.9382 5.29334 92.476 5.46667 92.1471 5.81334C91.8271 6.15112 91.6671 6.63112 91.6671 7.25334C91.6671 7.87556 91.8271 8.35556 92.1471 8.69334C92.476 9.02223 92.9382 9.18667 93.5337 9.18667Z" fill="#0000CB"/>
</svg>
