<svg width="496" height="90" viewBox="0 0 496 90" fill="none" xmlns="http://www.w3.org/2000/svg">
<path d="M1.46997 19.6V0.699975H7.39664C9.27886 0.699975 10.92 1.08109 12.32 1.84331C13.72 2.60553 14.8011 3.69442 15.5633 5.10998C16.3255 6.52553 16.7066 8.20553 16.7066 10.15C16.7066 12.0789 16.3177 13.7511 15.54 15.1666C14.7777 16.5822 13.6966 17.6789 12.2966 18.4566C10.9122 19.2189 9.27886 19.6 7.39664 19.6H1.46997ZM4.05997 17.3133H7.39664C8.8433 17.3133 10.0644 17.0178 11.06 16.4266C12.0555 15.82 12.81 14.98 13.3233 13.9066C13.8366 12.8333 14.0933 11.5811 14.0933 10.15C14.0933 7.98775 13.5177 6.25331 12.3666 4.94664C11.2311 3.63997 9.57441 2.98664 7.39664 2.98664H4.05997V17.3133ZM23.6979 19.8566C22.3134 19.8566 21.1857 19.4678 20.3146 18.69C19.459 17.8966 19.0312 16.8778 19.0312 15.6333C19.0312 14.3111 19.459 13.2844 20.3146 12.5533C21.1857 11.8066 22.4146 11.4333 24.0012 11.4333H28.0846V10.7333C28.0846 9.70664 27.8046 8.91331 27.2446 8.35331C26.7001 7.77775 25.9301 7.48998 24.9346 7.48998C24.1101 7.48998 23.4257 7.68442 22.8812 8.07331C22.3523 8.44664 22.0023 8.98331 21.8312 9.68331H19.2646C19.4979 8.32998 20.1279 7.26442 21.1546 6.48664C22.1812 5.70886 23.4568 5.31998 24.9812 5.31998C26.7079 5.31998 28.0534 5.78664 29.0179 6.71998C29.9979 7.65331 30.4879 8.96775 30.4879 10.6633V19.6H28.1079V17.1733H28.0146C27.6568 17.9978 27.089 18.6511 26.3112 19.1333C25.5334 19.6155 24.6623 19.8566 23.6979 19.8566ZM24.2112 17.7566C24.9423 17.7566 25.5957 17.5855 26.1712 17.2433C26.7623 16.9011 27.229 16.4422 27.5712 15.8666C27.9134 15.2755 28.0846 14.6222 28.0846 13.9066V13.3466H24.1646C23.2623 13.3466 22.5701 13.5411 22.0879 13.93C21.6212 14.3033 21.3879 14.8322 21.3879 15.5166C21.3879 16.2011 21.6446 16.7455 22.1579 17.15C22.6712 17.5544 23.3557 17.7566 24.2112 17.7566ZM37.5914 19.6C36.8759 19.6 36.3159 19.4133 35.9114 19.04C35.507 18.6511 35.3048 18.0755 35.3048 17.3133V7.60664H32.9248V5.59998H35.3281V1.39997H37.8014V5.59998H41.1381V7.60664H37.8248V17.5933H41.4648V19.6H37.5914ZM47.7604 19.8566C46.3759 19.8566 45.2482 19.4678 44.3771 18.69C43.5215 17.8966 43.0937 16.8778 43.0937 15.6333C43.0937 14.3111 43.5215 13.2844 44.3771 12.5533C45.2482 11.8066 46.4771 11.4333 48.0637 11.4333H52.1471V10.7333C52.1471 9.70664 51.8671 8.91331 51.3071 8.35331C50.7626 7.77775 49.9926 7.48998 48.9971 7.48998C48.1726 7.48998 47.4882 7.68442 46.9437 8.07331C46.4148 8.44664 46.0648 8.98331 45.8937 9.68331H43.3271C43.5604 8.32998 44.1904 7.26442 45.2171 6.48664C46.2437 5.70886 47.5193 5.31998 49.0437 5.31998C50.7704 5.31998 52.1159 5.78664 53.0804 6.71998C54.0604 7.65331 54.5504 8.96775 54.5504 10.6633V19.6H52.1704V17.1733H52.0771C51.7193 17.9978 51.1515 18.6511 50.3737 19.1333C49.5959 19.6155 48.7248 19.8566 47.7604 19.8566ZM48.2737 17.7566C49.0048 17.7566 49.6582 17.5855 50.2337 17.2433C50.8248 16.9011 51.2915 16.4422 51.6337 15.8666C51.9759 15.2755 52.1471 14.6222 52.1471 13.9066V13.3466H48.2271C47.3248 13.3466 46.6326 13.5411 46.1504 13.93C45.6837 14.3033 45.4504 14.8322 45.4504 15.5166C45.4504 16.2011 45.7071 16.7455 46.2204 17.15C46.7337 17.5544 47.4182 17.7566 48.2737 17.7566ZM68.5719 19.6C67.8563 19.6 67.2963 19.4133 66.8919 19.04C66.4875 18.6511 66.2852 18.0755 66.2852 17.3133V7.60664H63.9052V5.59998H66.3086V1.39997H68.7819V5.59998H72.1186V7.60664H68.8052V17.5933H72.4452V19.6H68.5719ZM75.3809 19.6V5.59998H77.7842V8.39998H77.8775C78.1886 7.52886 78.6942 6.82886 79.3942 6.29997C80.1097 5.75553 80.9809 5.48331 82.0075 5.48331H83.0342V7.72331H81.8675C80.5764 7.72331 79.5886 8.13553 78.9042 8.95998C78.2353 9.78442 77.9009 10.8966 77.9009 12.2966V19.6H75.3809ZM89.1041 19.8566C87.7197 19.8566 86.5919 19.4678 85.7208 18.69C84.8652 17.8966 84.4375 16.8778 84.4375 15.6333C84.4375 14.3111 84.8652 13.2844 85.7208 12.5533C86.5919 11.8066 87.8208 11.4333 89.4075 11.4333H93.4908V10.7333C93.4908 9.70664 93.2108 8.91331 92.6508 8.35331C92.1064 7.77775 91.3364 7.48998 90.3408 7.48998C89.5164 7.48998 88.8319 7.68442 88.2875 8.07331C87.7586 8.44664 87.4086 8.98331 87.2375 9.68331H84.6708C84.9041 8.32998 85.5341 7.26442 86.5608 6.48664C87.5875 5.70886 88.863 5.31998 90.3875 5.31998C92.1141 5.31998 93.4597 5.78664 94.4241 6.71998C95.4041 7.65331 95.8941 8.96775 95.8941 10.6633V19.6H93.5141V17.1733H93.4208C93.063 17.9978 92.4952 18.6511 91.7175 19.1333C90.9397 19.6155 90.0686 19.8566 89.1041 19.8566ZM89.6175 17.7566C90.3486 17.7566 91.0019 17.5855 91.5775 17.2433C92.1686 16.9011 92.6352 16.4422 92.9775 15.8666C93.3197 15.2755 93.4908 14.6222 93.4908 13.9066V13.3466H89.5708C88.6686 13.3466 87.9764 13.5411 87.4941 13.93C87.0275 14.3033 86.7941 14.8322 86.7941 15.5166C86.7941 16.2011 87.0508 16.7455 87.5641 17.15C88.0775 17.5544 88.7619 17.7566 89.6175 17.7566ZM102.753 19.6L97.3401 5.59998H99.9534L104.177 16.9166H104.27L108.447 5.59998H110.967L105.553 19.6H102.753ZM118.563 19.88C117.303 19.88 116.175 19.5844 115.18 18.9933C114.184 18.3866 113.399 17.5389 112.823 16.45C112.263 15.3455 111.983 14.0466 111.983 12.5533C111.983 11.0755 112.263 9.79998 112.823 8.72664C113.383 7.63775 114.145 6.79775 115.11 6.20664C116.074 5.61553 117.179 5.31998 118.423 5.31998C119.59 5.31998 120.624 5.58442 121.527 6.11331C122.444 6.6422 123.168 7.40442 123.697 8.39998C124.225 9.39553 124.49 10.57 124.49 11.9233V13.0433H114.41C114.503 14.4589 114.923 15.5866 115.67 16.4266C116.417 17.2666 117.373 17.6866 118.54 17.6866C119.38 17.6866 120.095 17.4766 120.687 17.0566C121.278 16.6366 121.674 16.0611 121.877 15.33H124.443C124.257 16.2789 123.883 17.0955 123.323 17.78C122.763 18.4489 122.079 18.97 121.27 19.3433C120.461 19.7011 119.559 19.88 118.563 19.88ZM114.527 11.13H122.04C121.931 9.97886 121.55 9.08442 120.897 8.44664C120.243 7.80886 119.411 7.48998 118.4 7.48998C117.404 7.48998 116.564 7.81664 115.88 8.46998C115.195 9.10775 114.744 9.99442 114.527 11.13ZM128.022 19.6V-2.40803e-05H130.542V19.6H128.022ZM139.677 19.88C137.997 19.88 136.628 19.4678 135.57 18.6433C134.528 17.8033 133.96 16.6833 133.867 15.2833H136.34C136.449 16.0922 136.799 16.7144 137.39 17.15C137.981 17.57 138.775 17.78 139.77 17.78C140.688 17.78 141.388 17.6011 141.87 17.2433C142.353 16.8855 142.594 16.38 142.594 15.7266C142.594 14.7 141.886 14.0389 140.47 13.7433L138.16 13.23C135.64 12.7011 134.38 11.4566 134.38 9.49664C134.38 8.2522 134.847 7.24886 135.78 6.48664C136.714 5.70886 137.935 5.31998 139.444 5.31998C140.937 5.31998 142.166 5.71664 143.13 6.50998C144.11 7.28775 144.663 8.34553 144.787 9.68331H142.36C142.205 8.9522 141.863 8.3922 141.334 8.00331C140.82 7.59886 140.151 7.39664 139.327 7.39664C138.534 7.39664 137.904 7.56775 137.437 7.90998C136.97 8.2522 136.737 8.71886 136.737 9.30998C136.737 9.77664 136.9 10.1578 137.227 10.4533C137.554 10.7333 138.075 10.9511 138.79 11.1066L141.124 11.5966C142.399 11.8766 143.348 12.3433 143.97 12.9966C144.608 13.6344 144.927 14.4744 144.927 15.5166C144.927 16.8544 144.46 17.92 143.527 18.7133C142.594 19.4911 141.31 19.88 139.677 19.88ZM155.12 19.6V5.59998H157.64V19.6H155.12ZM156.38 3.68664C155.944 3.68664 155.571 3.53109 155.26 3.21997C154.949 2.90886 154.793 2.53553 154.793 2.09998C154.793 1.66442 154.949 1.29109 155.26 0.979975C155.571 0.668864 155.944 0.513309 156.38 0.513309C156.816 0.513309 157.189 0.668864 157.5 0.979975C157.811 1.29109 157.967 1.66442 157.967 2.09998C157.967 2.53553 157.811 2.90886 157.5 3.21997C157.189 3.53109 156.816 3.68664 156.38 3.68664ZM161.968 19.6V5.59998H164.465V7.86331H164.558C164.962 7.05442 165.53 6.4322 166.261 5.99664C166.992 5.56109 167.856 5.34331 168.851 5.34331C169.862 5.34331 170.757 5.5922 171.535 6.08998C172.312 6.5722 172.919 7.24109 173.355 8.09664C173.79 8.9522 174.008 9.9322 174.008 11.0366V19.6H171.488V11.48C171.488 10.2822 171.177 9.34109 170.555 8.65664C169.948 7.9722 169.092 7.62998 167.988 7.62998C166.883 7.62998 166.02 7.9722 165.398 8.65664C164.791 9.34109 164.488 10.2822 164.488 11.48V19.6H161.968ZM189.88 19.88C188.2 19.88 186.831 19.4678 185.773 18.6433C184.731 17.8033 184.163 16.6833 184.07 15.2833H186.543C186.652 16.0922 187.002 16.7144 187.593 17.15C188.185 17.57 188.978 17.78 189.973 17.78C190.891 17.78 191.591 17.6011 192.073 17.2433C192.556 16.8855 192.797 16.38 192.797 15.7266C192.797 14.7 192.089 14.0389 190.673 13.7433L188.363 13.23C185.843 12.7011 184.583 11.4566 184.583 9.49664C184.583 8.2522 185.05 7.24886 185.983 6.48664C186.917 5.70886 188.138 5.31998 189.647 5.31998C191.14 5.31998 192.369 5.71664 193.333 6.50998C194.313 7.28775 194.866 8.34553 194.99 9.68331H192.563C192.408 8.9522 192.066 8.3922 191.537 8.00331C191.023 7.59886 190.355 7.39664 189.53 7.39664C188.737 7.39664 188.107 7.56775 187.64 7.90998C187.173 8.2522 186.94 8.71886 186.94 9.30998C186.94 9.77664 187.103 10.1578 187.43 10.4533C187.757 10.7333 188.278 10.9511 188.993 11.1066L191.327 11.5966C192.602 11.8766 193.551 12.3433 194.173 12.9966C194.811 13.6344 195.13 14.4744 195.13 15.5166C195.13 16.8544 194.663 17.92 193.73 18.7133C192.797 19.4911 191.513 19.88 189.88 19.88ZM198.335 19.6V5.59998H200.808V7.86331H200.902C201.26 7.03886 201.781 6.41664 202.465 5.99664C203.165 5.56109 203.982 5.34331 204.915 5.34331C205.864 5.34331 206.704 5.57664 207.435 6.04331C208.182 6.49442 208.75 7.14775 209.138 8.00331H209.208C209.675 7.14775 210.282 6.49442 211.028 6.04331C211.775 5.57664 212.638 5.34331 213.618 5.34331C214.614 5.34331 215.493 5.57664 216.255 6.04331C217.017 6.49442 217.601 7.13998 218.005 7.97997C218.425 8.81998 218.635 9.80775 218.635 10.9433V19.6H216.115V11.3166C216.115 10.15 215.835 9.24775 215.275 8.60998C214.715 7.95664 213.937 7.62998 212.942 7.62998C211.962 7.62998 211.184 7.95664 210.608 8.60998C210.033 9.24775 209.745 10.15 209.745 11.3166V19.6H207.225V11.3166C207.225 10.15 206.937 9.24775 206.362 8.60998C205.802 7.95664 205.024 7.62998 204.028 7.62998C203.048 7.62998 202.271 7.95664 201.695 8.60998C201.135 9.24775 200.855 10.15 200.855 11.3166V19.6H198.335ZM226.397 19.8566C225.013 19.8566 223.885 19.4678 223.014 18.69C222.158 17.8966 221.73 16.8778 221.73 15.6333C221.73 14.3111 222.158 13.2844 223.014 12.5533C223.885 11.8066 225.114 11.4333 226.7 11.4333H230.784V10.7333C230.784 9.70664 230.504 8.91331 229.944 8.35331C229.399 7.77775 228.629 7.48998 227.634 7.48998C226.809 7.48998 226.125 7.68442 225.58 8.07331C225.052 8.44664 224.702 8.98331 224.53 9.68331H221.964C222.197 8.32998 222.827 7.26442 223.854 6.48664C224.88 5.70886 226.156 5.31998 227.68 5.31998C229.407 5.31998 230.753 5.78664 231.717 6.71998C232.697 7.65331 233.187 8.96775 233.187 10.6633V19.6H230.807V17.1733H230.714C230.356 17.9978 229.788 18.6511 229.01 19.1333C228.233 19.6155 227.362 19.8566 226.397 19.8566ZM226.91 17.7566C227.642 17.7566 228.295 17.5855 228.87 17.2433C229.462 16.9011 229.928 16.4422 230.27 15.8666C230.613 15.2755 230.784 14.6222 230.784 13.9066V13.3466H226.864C225.962 13.3466 225.269 13.5411 224.787 13.93C224.32 14.3033 224.087 14.8322 224.087 15.5166C224.087 16.2011 224.344 16.7455 224.857 17.15C225.37 17.5544 226.055 17.7566 226.91 17.7566ZM237.397 19.6V-2.40803e-05H239.917V19.6H237.397ZM244.315 19.6V-2.40803e-05H246.835V19.6H244.315ZM263.098 19.8566C262.087 19.8566 261.192 19.6233 260.415 19.1566C259.652 18.69 259.053 18.0366 258.618 17.1966C258.198 16.3566 257.988 15.3922 257.988 14.3033V5.59998H260.508V13.7433C260.508 14.9411 260.803 15.8822 261.395 16.5666C261.986 17.2355 262.81 17.57 263.868 17.57C264.972 17.57 265.851 17.22 266.505 16.52C267.173 15.8044 267.508 14.8711 267.508 13.72V5.59998H270.028V19.6H267.531V17.1733H267.438C267.049 18.0444 266.481 18.7133 265.735 19.18C264.988 19.6311 264.109 19.8566 263.098 19.8566ZM274.269 19.6V5.59998H276.765V7.86331H276.859C277.263 7.05442 277.831 6.4322 278.562 5.99664C279.293 5.56109 280.156 5.34331 281.152 5.34331C282.163 5.34331 283.058 5.5922 283.835 6.08998C284.613 6.5722 285.22 7.24109 285.655 8.09664C286.091 8.9522 286.309 9.9322 286.309 11.0366V19.6H283.789V11.48C283.789 10.2822 283.478 9.34109 282.855 8.65664C282.249 7.9722 281.393 7.62998 280.289 7.62998C279.184 7.62998 278.321 7.9722 277.699 8.65664C277.092 9.34109 276.789 10.2822 276.789 11.48V19.6H274.269ZM290.526 19.6V5.59998H293.046V19.6H290.526ZM291.786 3.68664C291.351 3.68664 290.977 3.53109 290.666 3.21997C290.355 2.90886 290.2 2.53553 290.2 2.09998C290.2 1.66442 290.355 1.29109 290.666 0.979975C290.977 0.668864 291.351 0.513309 291.786 0.513309C292.222 0.513309 292.595 0.668864 292.906 0.979975C293.217 1.29109 293.373 1.66442 293.373 2.09998C293.373 2.53553 293.217 2.90886 292.906 3.21997C292.595 3.53109 292.222 3.68664 291.786 3.68664ZM300.338 19.6C299.622 19.6 299.062 19.4133 298.658 19.04C298.253 18.6511 298.051 18.0755 298.051 17.3133V7.60664H295.671V5.59998H298.074V1.39997H300.548V5.59998H303.884V7.60664H300.571V17.5933H304.211V19.6H300.338ZM311.696 19.88C310.016 19.88 308.648 19.4678 307.59 18.6433C306.548 17.8033 305.98 16.6833 305.886 15.2833H308.36C308.469 16.0922 308.819 16.7144 309.41 17.15C310.001 17.57 310.794 17.78 311.79 17.78C312.708 17.78 313.408 17.6011 313.89 17.2433C314.372 16.8855 314.613 16.38 314.613 15.7266C314.613 14.7 313.905 14.0389 312.49 13.7433L310.18 13.23C307.66 12.7011 306.4 11.4566 306.4 9.49664C306.4 8.2522 306.866 7.24886 307.8 6.48664C308.733 5.70886 309.954 5.31998 311.463 5.31998C312.956 5.31998 314.185 5.71664 315.15 6.50998C316.13 7.28775 316.682 8.34553 316.806 9.68331H314.38C314.224 8.9522 313.882 8.3922 313.353 8.00331C312.84 7.59886 312.171 7.39664 311.346 7.39664C310.553 7.39664 309.923 7.56775 309.456 7.90998C308.99 8.2522 308.756 8.71886 308.756 9.30998C308.756 9.77664 308.92 10.1578 309.246 10.4533C309.573 10.7333 310.094 10.9511 310.81 11.1066L313.143 11.5966C314.419 11.8766 315.368 12.3433 315.99 12.9966C316.628 13.6344 316.946 14.4744 316.946 15.5166C316.946 16.8544 316.48 17.92 315.546 18.7133C314.613 19.4911 313.33 19.88 311.696 19.88ZM332.81 19.88C331.565 19.88 330.445 19.5844 329.45 18.9933C328.47 18.3866 327.692 17.5389 327.116 16.45C326.556 15.3611 326.276 14.0778 326.276 12.6C326.276 11.1066 326.556 9.81553 327.116 8.72664C327.692 7.63775 328.47 6.79775 329.45 6.20664C330.445 5.61553 331.565 5.31998 332.81 5.31998C333.79 5.31998 334.684 5.50664 335.493 5.87998C336.317 6.23775 337.01 6.7822 337.57 7.51331C338.145 8.22886 338.542 9.13886 338.76 10.2433H336.146C335.928 9.32553 335.516 8.65664 334.91 8.23664C334.318 7.81664 333.618 7.60664 332.81 7.60664C331.612 7.60664 330.64 8.05775 329.893 8.95998C329.162 9.8622 328.796 11.0755 328.796 12.6C328.796 14.1089 329.162 15.3222 329.893 16.24C330.64 17.1422 331.612 17.5933 332.81 17.5933C333.665 17.5933 334.396 17.3678 335.003 16.9166C335.625 16.4655 336.053 15.7344 336.286 14.7233H338.83C338.627 15.8744 338.238 16.8311 337.663 17.5933C337.087 18.3555 336.387 18.9311 335.563 19.32C334.738 19.6933 333.821 19.88 332.81 19.88ZM345.206 19.8566C343.821 19.8566 342.693 19.4678 341.822 18.69C340.967 17.8966 340.539 16.8778 340.539 15.6333C340.539 14.3111 340.967 13.2844 341.822 12.5533C342.693 11.8066 343.922 11.4333 345.509 11.4333H349.592V10.7333C349.592 9.70664 349.312 8.91331 348.752 8.35331C348.208 7.77775 347.438 7.48998 346.442 7.48998C345.618 7.48998 344.933 7.68442 344.389 8.07331C343.86 8.44664 343.51 8.98331 343.339 9.68331H340.772C341.006 8.32998 341.636 7.26442 342.662 6.48664C343.689 5.70886 344.965 5.31998 346.489 5.31998C348.216 5.31998 349.561 5.78664 350.526 6.71998C351.506 7.65331 351.996 8.96775 351.996 10.6633V19.6H349.616V17.1733H349.522C349.165 17.9978 348.597 18.6511 347.819 19.1333C347.041 19.6155 346.17 19.8566 345.206 19.8566ZM345.719 17.7566C346.45 17.7566 347.103 17.5855 347.679 17.2433C348.27 16.9011 348.737 16.4422 349.079 15.8666C349.421 15.2755 349.592 14.6222 349.592 13.9066V13.3466H345.672C344.77 13.3466 344.078 13.5411 343.596 13.93C343.129 14.3033 342.896 14.8322 342.896 15.5166C342.896 16.2011 343.152 16.7455 343.666 17.15C344.179 17.5544 344.863 17.7566 345.719 17.7566ZM356.206 19.6V-2.40803e-05H358.726V19.6H356.206ZM363.124 19.6V-2.40803e-05H365.644V19.6H363.124ZM375.759 19.88C374.499 19.88 373.371 19.5844 372.375 18.9933C371.38 18.3866 370.594 17.5389 370.019 16.45C369.459 15.3455 369.179 14.0466 369.179 12.5533C369.179 11.0755 369.459 9.79998 370.019 8.72664C370.579 7.63775 371.341 6.79775 372.305 6.20664C373.27 5.61553 374.374 5.31998 375.619 5.31998C376.785 5.31998 377.82 5.58442 378.722 6.11331C379.64 6.6422 380.363 7.40442 380.892 8.39998C381.421 9.39553 381.685 10.57 381.685 11.9233V13.0433H371.605C371.699 14.4589 372.119 15.5866 372.865 16.4266C373.612 17.2666 374.569 17.6866 375.735 17.6866C376.575 17.6866 377.291 17.4766 377.882 17.0566C378.473 16.6366 378.87 16.0611 379.072 15.33H381.639C381.452 16.2789 381.079 17.0955 380.519 17.78C379.959 18.4489 379.274 18.97 378.465 19.3433C377.656 19.7011 376.754 19.88 375.759 19.88ZM371.722 11.13H379.235C379.126 9.97886 378.745 9.08442 378.092 8.44664C377.439 7.80886 376.606 7.48998 375.595 7.48998C374.6 7.48998 373.76 7.81664 373.075 8.46998C372.391 9.10775 371.94 9.99442 371.722 11.13ZM390.164 19.88C388.998 19.88 387.979 19.5766 387.108 18.97C386.237 18.3633 385.56 17.5155 385.078 16.4266C384.595 15.3222 384.354 14.0466 384.354 12.6C384.354 11.1378 384.595 9.8622 385.078 8.77331C385.56 7.68442 386.237 6.83664 387.108 6.22997C387.979 5.62331 388.998 5.31998 390.164 5.31998C392.218 5.31998 393.641 6.16775 394.434 7.86331H394.528V-2.40803e-05H397.048V19.6H394.551V17.3133H394.458C393.649 19.0244 392.218 19.88 390.164 19.88ZM390.841 17.64C392.008 17.64 392.91 17.2744 393.548 16.5433C394.201 15.7966 394.528 14.8244 394.528 13.6266V11.5733C394.528 10.3755 394.201 9.41109 393.548 8.67998C392.91 7.93331 392.008 7.55998 390.841 7.55998C389.643 7.55998 388.679 8.01886 387.948 8.93664C387.232 9.85442 386.874 11.0755 386.874 12.6C386.874 14.1244 387.232 15.3455 387.948 16.2633C388.679 17.1811 389.643 17.64 390.841 17.64ZM1.04997 60.2V40.6H3.54664V42.8866H3.63997C4.44886 41.1755 5.87997 40.32 7.9333 40.32C9.09997 40.32 10.1189 40.6233 10.99 41.23C11.8611 41.8366 12.5377 42.6844 13.02 43.7733C13.5022 44.8622 13.7433 46.1378 13.7433 47.6C13.7433 49.0466 13.5022 50.3222 13.02 51.4266C12.5377 52.5155 11.8611 53.3633 10.99 53.97C10.1189 54.5766 9.09997 54.88 7.9333 54.88C5.87997 54.88 4.45664 54.0322 3.6633 52.3366H3.56997V60.2H1.04997ZM7.25664 52.64C8.46997 52.64 9.43441 52.1811 10.15 51.2633C10.8655 50.3455 11.2233 49.1244 11.2233 47.6C11.2233 46.0755 10.8655 44.8544 10.15 43.9366C9.43441 43.0189 8.46997 42.56 7.25664 42.56C6.08997 42.56 5.17997 42.9333 4.52664 43.68C3.88886 44.4111 3.56997 45.3755 3.56997 46.5733V48.6266C3.56997 49.8244 3.88886 50.7889 4.52664 51.52C5.17997 52.2355 6.08997 52.6089 7.25664 52.64ZM20.8268 54.8566C19.4423 54.8566 18.3146 54.4678 17.4435 53.69C16.5879 52.8966 16.1601 51.8778 16.1601 50.6333C16.1601 49.3111 16.5879 48.2844 17.4435 47.5533C18.3146 46.8066 19.5435 46.4333 21.1301 46.4333H25.2135V45.7333C25.2135 44.7066 24.9335 43.9133 24.3735 43.3533C23.829 42.7778 23.059 42.49 22.0635 42.49C21.239 42.49 20.5546 42.6844 20.0101 43.0733C19.4812 43.4466 19.1312 43.9833 18.9601 44.6833H16.3935C16.6268 43.33 17.2568 42.2644 18.2835 41.4866C19.3101 40.7089 20.5857 40.32 22.1101 40.32C23.8368 40.32 25.1823 40.7866 26.1468 41.72C27.1268 42.6533 27.6168 43.9678 27.6168 45.6633V54.6H25.2368V52.1733H25.1435C24.7857 52.9978 24.2179 53.6511 23.4401 54.1333C22.6623 54.6155 21.7912 54.8566 20.8268 54.8566ZM21.3401 52.7566C22.0712 52.7566 22.7246 52.5855 23.3001 52.2433C23.8912 51.9011 24.3579 51.4422 24.7001 50.8666C25.0423 50.2755 25.2135 49.6222 25.2135 48.9066V48.3466H21.2935C20.3912 48.3466 19.699 48.5411 19.2168 48.93C18.7501 49.3033 18.5168 49.8322 18.5168 50.5166C18.5168 51.2011 18.7735 51.7455 19.2868 52.15C19.8001 52.5544 20.4846 52.7566 21.3401 52.7566ZM37.497 54.88C36.2526 54.88 35.1326 54.5844 34.137 53.9933C33.157 53.3866 32.3792 52.5389 31.8037 51.45C31.2437 50.3611 30.9637 49.0778 30.9637 47.6C30.9637 46.1066 31.2437 44.8155 31.8037 43.7266C32.3792 42.6378 33.157 41.7978 34.137 41.2066C35.1326 40.6155 36.2526 40.32 37.497 40.32C38.477 40.32 39.3714 40.5066 40.1803 40.88C41.0048 41.2378 41.697 41.7822 42.257 42.5133C42.8326 43.2289 43.2292 44.1389 43.447 45.2433H40.8337C40.6159 44.3255 40.2037 43.6566 39.597 43.2366C39.0059 42.8166 38.3059 42.6066 37.497 42.6066C36.2992 42.6066 35.327 43.0578 34.5803 43.96C33.8492 44.8622 33.4837 46.0755 33.4837 47.6C33.4837 49.1089 33.8492 50.3222 34.5803 51.24C35.327 52.1422 36.2992 52.5933 37.497 52.5933C38.3526 52.5933 39.0837 52.3678 39.6903 51.9166C40.3126 51.4655 40.7403 50.7344 40.9737 49.7233H43.517C43.3148 50.8744 42.9259 51.8311 42.3503 52.5933C41.7748 53.3555 41.0748 53.9311 40.2503 54.32C39.4259 54.6933 38.5081 54.88 37.497 54.88ZM46.2765 54.6V35H48.7965V46.9H48.8899L54.9565 40.6H57.9899L52.2499 46.4566L58.5265 54.6H55.4699L50.4999 48.0433L48.7965 49.56V54.6H46.2765ZM66.0905 54.88C64.8305 54.88 63.7028 54.5844 62.7072 53.9933C61.7117 53.3866 60.9261 52.5389 60.3505 51.45C59.7905 50.3455 59.5105 49.0466 59.5105 47.5533C59.5105 46.0755 59.7905 44.8 60.3505 43.7266C60.9105 42.6378 61.6728 41.7978 62.6372 41.2066C63.6017 40.6155 64.7061 40.32 65.9505 40.32C67.1172 40.32 68.1517 40.5844 69.0539 41.1133C69.9717 41.6422 70.695 42.4044 71.2239 43.4C71.7528 44.3955 72.0172 45.57 72.0172 46.9233V48.0433H61.9372C62.0305 49.4589 62.4505 50.5866 63.1972 51.4266C63.9439 52.2666 64.9005 52.6866 66.0672 52.6866C66.9072 52.6866 67.6228 52.4766 68.2139 52.0566C68.805 51.6366 69.2017 51.0611 69.4039 50.33H71.9705C71.7839 51.2789 71.4105 52.0955 70.8505 52.78C70.2905 53.4489 69.6061 53.97 68.7972 54.3433C67.9883 54.7011 67.0861 54.88 66.0905 54.88ZM62.0539 46.13H69.5672C69.4583 44.9789 69.0772 44.0844 68.4239 43.4466C67.7705 42.8089 66.9383 42.49 65.9272 42.49C64.9317 42.49 64.0917 42.8166 63.4072 43.47C62.7228 44.1078 62.2717 44.9944 62.0539 46.13ZM78.443 54.6C77.7274 54.6 77.1674 54.4133 76.763 54.04C76.3585 53.6511 76.1563 53.0755 76.1563 52.3133V42.6066H73.7763V40.6H76.1797V36.4H78.653V40.6H81.9897V42.6066H78.6763V52.5933H82.3163V54.6H78.443ZM89.8019 54.88C88.1219 54.88 86.7531 54.4678 85.6953 53.6433C84.6531 52.8033 84.0853 51.6833 83.9919 50.2833H86.4653C86.5742 51.0922 86.9242 51.7144 87.5153 52.15C88.1064 52.57 88.8997 52.78 89.8953 52.78C90.8131 52.78 91.5131 52.6011 91.9953 52.2433C92.4775 51.8855 92.7186 51.38 92.7186 50.7266C92.7186 49.7 92.0108 49.0389 90.5953 48.7433L88.2853 48.23C85.7653 47.7011 84.5053 46.4566 84.5053 44.4966C84.5053 43.2522 84.9719 42.2489 85.9053 41.4866C86.8386 40.7089 88.0597 40.32 89.5686 40.32C91.0619 40.32 92.2908 40.7166 93.2553 41.51C94.2353 42.2878 94.7875 43.3455 94.9119 44.6833H92.4853C92.3297 43.9522 91.9875 43.3922 91.4586 43.0033C90.9453 42.5989 90.2764 42.3966 89.4519 42.3966C88.6586 42.3966 88.0286 42.5678 87.5619 42.91C87.0953 43.2522 86.8619 43.7189 86.8619 44.31C86.8619 44.7766 87.0253 45.1578 87.3519 45.4533C87.6786 45.7333 88.1997 45.9511 88.9153 46.1066L91.2486 46.5966C92.5242 46.8766 93.4731 47.3433 94.0953 47.9966C94.7331 48.6344 95.0519 49.4744 95.0519 50.5166C95.0519 51.8544 94.5853 52.92 93.6519 53.7133C92.7186 54.4911 91.4353 54.88 89.8019 54.88ZM96.9503 58.38V56.7933H97.837C98.257 56.7933 98.5681 56.6844 98.7703 56.4666C98.9881 56.2489 99.097 55.9378 99.097 55.5333V54.6H97.6737V51.4733H100.847V55.5566C100.847 56.4433 100.606 57.1355 100.124 57.6333C99.6414 58.1311 98.9414 58.38 98.0237 58.38H96.9503ZM113.747 54.6L109.733 40.6H112.3L115.24 51.4966H115.333L118.763 40.6H121.377L124.807 51.4966H124.9L127.84 40.6H130.36L126.347 54.6H123.547L120.093 43.68H120L116.547 54.6H113.747ZM132.902 54.6V35H135.422V42.6533H135.515C135.919 41.9378 136.487 41.37 137.218 40.95C137.949 40.53 138.805 40.32 139.785 40.32C140.796 40.32 141.69 40.5611 142.468 41.0433C143.246 41.5255 143.853 42.1944 144.288 43.05C144.724 43.9055 144.942 44.9011 144.942 46.0366V54.6H142.422V46.41C142.422 45.1966 142.11 44.2555 141.488 43.5866C140.882 42.9178 140.026 42.5833 138.922 42.5833C137.817 42.5833 136.954 42.9178 136.332 43.5866C135.725 44.2555 135.422 45.1966 135.422 46.41V54.6H132.902ZM149.159 54.6V40.6H151.679V54.6H149.159ZM150.419 38.6866C149.983 38.6866 149.61 38.5311 149.299 38.22C148.988 37.9089 148.832 37.5355 148.832 37.1C148.832 36.6644 148.988 36.2911 149.299 35.98C149.61 35.6689 149.983 35.5133 150.419 35.5133C150.855 35.5133 151.228 35.6689 151.539 35.98C151.85 36.2911 152.006 36.6644 152.006 37.1C152.006 37.5355 151.85 37.9089 151.539 38.22C151.228 38.5311 150.855 38.6866 150.419 38.6866ZM161.747 54.88C160.503 54.88 159.383 54.5844 158.387 53.9933C157.407 53.3866 156.629 52.5389 156.054 51.45C155.494 50.3611 155.214 49.0778 155.214 47.6C155.214 46.1066 155.494 44.8155 156.054 43.7266C156.629 42.6378 157.407 41.7978 158.387 41.2066C159.383 40.6155 160.503 40.32 161.747 40.32C162.727 40.32 163.621 40.5066 164.43 40.88C165.255 41.2378 165.947 41.7822 166.507 42.5133C167.083 43.2289 167.479 44.1389 167.697 45.2433H165.084C164.866 44.3255 164.454 43.6566 163.847 43.2366C163.256 42.8166 162.556 42.6066 161.747 42.6066C160.549 42.6066 159.577 43.0578 158.83 43.96C158.099 44.8622 157.734 46.0755 157.734 47.6C157.734 49.1089 158.099 50.3222 158.83 51.24C159.577 52.1422 160.549 52.5933 161.747 52.5933C162.603 52.5933 163.334 52.3678 163.94 51.9166C164.563 51.4655 164.99 50.7344 165.224 49.7233H167.767C167.565 50.8744 167.176 51.8311 166.6 52.5933C166.025 53.3555 165.325 53.9311 164.5 54.32C163.676 54.6933 162.758 54.88 161.747 54.88ZM170.527 54.6V35H173.047V42.6533H173.14C173.544 41.9378 174.112 41.37 174.843 40.95C175.574 40.53 176.43 40.32 177.41 40.32C178.421 40.32 179.315 40.5611 180.093 41.0433C180.871 41.5255 181.478 42.1944 181.913 43.05C182.349 43.9055 182.567 44.9011 182.567 46.0366V54.6H180.047V46.41C180.047 45.1966 179.735 44.2555 179.113 43.5866C178.507 42.9178 177.651 42.5833 176.547 42.5833C175.442 42.5833 174.579 42.9178 173.957 43.5866C173.35 44.2555 173.047 45.1966 173.047 46.41V54.6H170.527ZM193.632 54.6V40.6H196.105V42.8633H196.199C196.556 42.0389 197.078 41.4166 197.762 40.9966C198.462 40.5611 199.279 40.3433 200.212 40.3433C201.161 40.3433 202.001 40.5766 202.732 41.0433C203.479 41.4944 204.046 42.1478 204.435 43.0033H204.505C204.972 42.1478 205.579 41.4944 206.325 41.0433C207.072 40.5766 207.935 40.3433 208.915 40.3433C209.911 40.3433 210.79 40.5766 211.552 41.0433C212.314 41.4944 212.898 42.14 213.302 42.98C213.722 43.82 213.932 44.8078 213.932 45.9433V54.6H211.412V46.3166C211.412 45.15 211.132 44.2478 210.572 43.61C210.012 42.9566 209.234 42.63 208.239 42.63C207.259 42.63 206.481 42.9566 205.905 43.61C205.33 44.2478 205.042 45.15 205.042 46.3166V54.6H202.522V46.3166C202.522 45.15 202.234 44.2478 201.659 43.61C201.099 42.9566 200.321 42.63 199.325 42.63C198.345 42.63 197.568 42.9566 196.992 43.61C196.432 44.2478 196.152 45.15 196.152 46.3166V54.6H193.632ZM223.887 54.88C222.627 54.88 221.5 54.5844 220.504 53.9933C219.508 53.3866 218.723 52.5389 218.147 51.45C217.572 50.3611 217.284 49.0778 217.284 47.6C217.284 46.1066 217.572 44.8155 218.147 43.7266C218.723 42.6378 219.508 41.7978 220.504 41.2066C221.5 40.6155 222.627 40.32 223.887 40.32C225.178 40.32 226.322 40.6155 227.317 41.2066C228.313 41.7978 229.091 42.6378 229.651 43.7266C230.211 44.8155 230.491 46.1066 230.491 47.6C230.491 49.0778 230.203 50.3689 229.627 51.4733C229.067 52.5622 228.29 53.4022 227.294 53.9933C226.298 54.5844 225.163 54.88 223.887 54.88ZM223.887 52.5933C225.132 52.5933 226.12 52.1422 226.851 51.24C227.597 50.3222 227.971 49.1089 227.971 47.6C227.971 46.0755 227.597 44.8622 226.851 43.96C226.12 43.0578 225.132 42.6066 223.887 42.6066C222.658 42.6066 221.671 43.0578 220.924 43.96C220.177 44.8622 219.804 46.0755 219.804 47.6C219.804 49.1089 220.177 50.3222 220.924 51.24C221.671 52.1422 222.658 52.5933 223.887 52.5933ZM236.902 54.6L231.489 40.6H234.102L238.325 51.9166H238.419L242.595 40.6H245.115L239.702 54.6H236.902ZM252.712 54.88C251.452 54.88 250.324 54.5844 249.328 53.9933C248.333 53.3866 247.547 52.5389 246.972 51.45C246.412 50.3455 246.132 49.0466 246.132 47.5533C246.132 46.0755 246.412 44.8 246.972 43.7266C247.532 42.6378 248.294 41.7978 249.258 41.2066C250.223 40.6155 251.327 40.32 252.572 40.32C253.738 40.32 254.773 40.5844 255.675 41.1133C256.593 41.6422 257.316 42.4044 257.845 43.4C258.374 44.3955 258.638 45.57 258.638 46.9233V48.0433H248.558C248.652 49.4589 249.072 50.5866 249.818 51.4266C250.565 52.2666 251.522 52.6866 252.688 52.6866C253.528 52.6866 254.244 52.4766 254.835 52.0566C255.426 51.6366 255.823 51.0611 256.025 50.33H258.592C258.405 51.2789 258.032 52.0955 257.472 52.78C256.912 53.4489 256.227 53.97 255.418 54.3433C254.609 54.7011 253.707 54.88 252.712 54.88ZM248.675 46.13H256.188C256.079 44.9789 255.698 44.0844 255.045 43.4466C254.392 42.8089 253.559 42.49 252.548 42.49C251.553 42.49 250.713 42.8166 250.028 43.47C249.344 44.1078 248.893 44.9944 248.675 46.13ZM271.982 54.6C271.266 54.6 270.706 54.4133 270.302 54.04C269.898 53.6511 269.695 53.0755 269.695 52.3133V42.6066H267.315V40.6H269.719V36.4H272.192V40.6H275.529V42.6066H272.215V52.5933H275.855V54.6H271.982ZM278.534 54.6V35H281.054V42.6533H281.148C281.552 41.9378 282.12 41.37 282.851 40.95C283.582 40.53 284.438 40.32 285.418 40.32C286.429 40.32 287.323 40.5611 288.101 41.0433C288.879 41.5255 289.485 42.1944 289.921 43.05C290.357 43.9055 290.574 44.9011 290.574 46.0366V54.6H288.054V46.41C288.054 45.1966 287.743 44.2555 287.121 43.5866C286.514 42.9178 285.659 42.5833 284.554 42.5833C283.45 42.5833 282.587 42.9178 281.964 43.5866C281.358 44.2555 281.054 45.1966 281.054 46.41V54.6H278.534ZM294.979 54.6V40.6H297.382V43.4H297.475C297.786 42.5289 298.292 41.8289 298.992 41.3C299.707 40.7555 300.579 40.4833 301.605 40.4833H302.632V42.7233H301.465C300.174 42.7233 299.186 43.1355 298.502 43.96C297.833 44.7844 297.499 45.8966 297.499 47.2966V54.6H294.979ZM310.649 54.88C309.389 54.88 308.261 54.5844 307.266 53.9933C306.27 53.3866 305.485 52.5389 304.909 51.45C304.333 50.3611 304.046 49.0778 304.046 47.6C304.046 46.1066 304.333 44.8155 304.909 43.7266C305.485 42.6378 306.27 41.7978 307.266 41.2066C308.261 40.6155 309.389 40.32 310.649 40.32C311.94 40.32 313.083 40.6155 314.079 41.2066C315.075 41.7978 315.852 42.6378 316.412 43.7266C316.972 44.8155 317.252 46.1066 317.252 47.6C317.252 49.0778 316.965 50.3689 316.389 51.4733C315.829 52.5622 315.051 53.4022 314.056 53.9933C313.06 54.5844 311.925 54.88 310.649 54.88ZM310.649 52.5933C311.893 52.5933 312.881 52.1422 313.612 51.24C314.359 50.3222 314.732 49.1089 314.732 47.6C314.732 46.0755 314.359 44.8622 313.612 43.96C312.881 43.0578 311.893 42.6066 310.649 42.6066C309.42 42.6066 308.432 43.0578 307.686 43.96C306.939 44.8622 306.566 46.0755 306.566 47.6C306.566 49.1089 306.939 50.3222 307.686 51.24C308.432 52.1422 309.42 52.5933 310.649 52.5933ZM325.715 54.8566C324.704 54.8566 323.81 54.6233 323.032 54.1566C322.27 53.69 321.671 53.0366 321.235 52.1966C320.815 51.3566 320.605 50.3922 320.605 49.3033V40.6H323.125V48.7433C323.125 49.9411 323.421 50.8822 324.012 51.5666C324.603 52.2355 325.427 52.57 326.485 52.57C327.59 52.57 328.468 52.22 329.122 51.52C329.791 50.8044 330.125 49.8711 330.125 48.72V40.6H332.645V54.6H330.148V52.1733H330.055C329.666 53.0444 329.098 53.7133 328.352 54.18C327.605 54.6311 326.726 54.8566 325.715 54.8566ZM342.393 60.48C340.666 60.48 339.227 60.06 338.076 59.22C336.925 58.3955 336.256 57.2911 336.069 55.9066H338.753C338.908 56.6533 339.305 57.2366 339.943 57.6566C340.58 58.0766 341.381 58.2866 342.346 58.2866C343.59 58.2866 344.563 57.9289 345.263 57.2133C345.978 56.4978 346.336 55.5255 346.336 54.2966V52.0333H346.243C345.9 52.8578 345.364 53.4955 344.633 53.9466C343.917 54.3822 343.069 54.6 342.089 54.6C340.907 54.6 339.865 54.3044 338.963 53.7133C338.076 53.1066 337.384 52.2666 336.886 51.1933C336.388 50.12 336.139 48.8755 336.139 47.46C336.139 46.0444 336.388 44.8 336.886 43.7266C337.384 42.6533 338.076 41.8211 338.963 41.23C339.865 40.6233 340.907 40.32 342.089 40.32C343.069 40.32 343.917 40.5455 344.633 40.9966C345.364 41.4322 345.9 42.0544 346.243 42.8633H346.336V40.6H348.833V54.4133C348.833 56.28 348.249 57.7578 347.083 58.8466C345.931 59.9355 344.368 60.48 342.393 60.48ZM342.696 52.3133C343.8 52.3133 344.679 51.9555 345.333 51.24C345.986 50.5244 346.313 49.5755 346.313 48.3933V46.5266C346.313 45.3444 345.978 44.3955 345.309 43.68C344.656 42.9644 343.785 42.6066 342.696 42.6066C341.467 42.6066 340.487 43.05 339.756 43.9366C339.025 44.8078 338.659 45.9822 338.659 47.46C338.659 48.9378 339.025 50.12 339.756 51.0066C340.487 51.8778 341.467 52.3133 342.696 52.3133ZM353.073 54.6V35H355.593V42.6533H355.687C356.091 41.9378 356.659 41.37 357.39 40.95C358.121 40.53 358.977 40.32 359.957 40.32C360.968 40.32 361.862 40.5611 362.64 41.0433C363.418 41.5255 364.025 42.1944 364.46 43.05C364.896 43.9055 365.113 44.9011 365.113 46.0366V54.6H362.593V46.41C362.593 45.1966 362.282 44.2555 361.66 43.5866C361.053 42.9178 360.198 42.5833 359.093 42.5833C357.989 42.5833 357.126 42.9178 356.503 43.5866C355.897 44.2555 355.593 45.1966 355.593 46.41V54.6H353.073ZM376.436 54.6V40.6H378.839V43.4H378.932C379.243 42.5289 379.749 41.8289 380.449 41.3C381.164 40.7555 382.036 40.4833 383.062 40.4833H384.089V42.7233H382.922C381.631 42.7233 380.643 43.1355 379.959 43.96C379.29 44.7844 378.956 45.8966 378.956 47.2966V54.6H376.436ZM392.106 54.88C390.846 54.88 389.718 54.5844 388.723 53.9933C387.727 53.3866 386.942 52.5389 386.366 51.45C385.791 50.3611 385.503 49.0778 385.503 47.6C385.503 46.1066 385.791 44.8155 386.366 43.7266C386.942 42.6378 387.727 41.7978 388.723 41.2066C389.718 40.6155 390.846 40.32 392.106 40.32C393.397 40.32 394.541 40.6155 395.536 41.2066C396.532 41.7978 397.309 42.6378 397.869 43.7266C398.429 44.8155 398.709 46.1066 398.709 47.6C398.709 49.0778 398.422 50.3689 397.846 51.4733C397.286 52.5622 396.508 53.4022 395.513 53.9933C394.517 54.5844 393.382 54.88 392.106 54.88ZM392.106 52.5933C393.351 52.5933 394.338 52.1422 395.069 51.24C395.816 50.3222 396.189 49.1089 396.189 47.6C396.189 46.0755 395.816 44.8622 395.069 43.96C394.338 43.0578 393.351 42.6066 392.106 42.6066C390.877 42.6066 389.889 43.0578 389.143 43.96C388.396 44.8622 388.023 46.0755 388.023 47.6C388.023 49.1089 388.396 50.3222 389.143 51.24C389.889 52.1422 390.877 52.5933 392.106 52.5933ZM407.172 54.8566C406.161 54.8566 405.267 54.6233 404.489 54.1566C403.727 53.69 403.128 53.0366 402.692 52.1966C402.272 51.3566 402.062 50.3922 402.062 49.3033V40.6H404.582V48.7433C404.582 49.9411 404.878 50.8822 405.469 51.5666C406.06 52.2355 406.884 52.57 407.942 52.57C409.047 52.57 409.925 52.22 410.579 51.52C411.248 50.8044 411.582 49.8711 411.582 48.72V40.6H414.102V54.6H411.605V52.1733H411.512C411.123 53.0444 410.555 53.7133 409.809 54.18C409.062 54.6311 408.183 54.8566 407.172 54.8566ZM421.306 54.6C420.591 54.6 420.031 54.4133 419.626 54.04C419.222 53.6511 419.02 53.0755 419.02 52.3133V42.6066H416.64V40.6H419.043V36.4H421.516V40.6H424.853V42.6066H421.54V52.5933H425.18V54.6H421.306ZM433.645 54.88C432.385 54.88 431.257 54.5844 430.262 53.9933C429.266 53.3866 428.481 52.5389 427.905 51.45C427.345 50.3455 427.065 49.0466 427.065 47.5533C427.065 46.0755 427.345 44.8 427.905 43.7266C428.465 42.6378 429.227 41.7978 430.192 41.2066C431.156 40.6155 432.261 40.32 433.505 40.32C434.672 40.32 435.706 40.5844 436.609 41.1133C437.526 41.6422 438.25 42.4044 438.779 43.4C439.307 44.3955 439.572 45.57 439.572 46.9233V48.0433H429.492C429.585 49.4589 430.005 50.5866 430.752 51.4266C431.499 52.2666 432.455 52.6866 433.622 52.6866C434.462 52.6866 435.177 52.4766 435.769 52.0566C436.36 51.6366 436.756 51.0611 436.959 50.33H439.525C439.339 51.2789 438.965 52.0955 438.405 52.78C437.845 53.4489 437.161 53.97 436.352 54.3433C435.543 54.7011 434.641 54.88 433.645 54.88ZM429.609 46.13H437.122C437.013 44.9789 436.632 44.0844 435.979 43.4466C435.325 42.8089 434.493 42.49 433.482 42.49C432.486 42.49 431.646 42.8166 430.962 43.47C430.277 44.1078 429.826 44.9944 429.609 46.13ZM443.291 54.6V40.6H445.694V43.4H445.788C446.099 42.5289 446.604 41.8289 447.304 41.3C448.02 40.7555 448.891 40.4833 449.918 40.4833H450.944V42.7233H449.778C448.487 42.7233 447.499 43.1355 446.814 43.96C446.145 44.7844 445.811 45.8966 445.811 47.2966V54.6H443.291ZM458.204 54.88C456.524 54.88 455.155 54.4678 454.098 53.6433C453.055 52.8033 452.488 51.6833 452.394 50.2833H454.868C454.977 51.0922 455.327 51.7144 455.918 52.15C456.509 52.57 457.302 52.78 458.298 52.78C459.215 52.78 459.915 52.6011 460.398 52.2433C460.88 51.8855 461.121 51.38 461.121 50.7266C461.121 49.7 460.413 49.0389 458.998 48.7433L456.688 48.23C454.168 47.7011 452.908 46.4566 452.908 44.4966C452.908 43.2522 453.374 42.2489 454.308 41.4866C455.241 40.7089 456.462 40.32 457.971 40.32C459.464 40.32 460.693 40.7166 461.658 41.51C462.638 42.2878 463.19 43.3455 463.314 44.6833H460.888C460.732 43.9522 460.39 43.3922 459.861 43.0033C459.348 42.5989 458.679 42.3966 457.854 42.3966C457.061 42.3966 456.431 42.5678 455.964 42.91C455.498 43.2522 455.264 43.7189 455.264 44.31C455.264 44.7766 455.428 45.1578 455.754 45.4533C456.081 45.7333 456.602 45.9511 457.318 46.1066L459.651 46.5966C460.927 46.8766 461.875 47.3433 462.498 47.9966C463.135 48.6344 463.454 49.4744 463.454 50.5166C463.454 51.8544 462.988 52.92 462.054 53.7133C461.121 54.4911 459.838 54.88 458.204 54.88ZM4.66664 89.8566C3.28219 89.8566 2.15441 89.4678 1.2833 88.69C0.427747 87.8966 -3.0905e-05 86.8778 -3.0905e-05 85.6333C-3.0905e-05 84.3111 0.427747 83.2844 1.2833 82.5533C2.15441 81.8066 3.3833 81.4333 4.96997 81.4333H9.0533V80.7333C9.0533 79.7066 8.7733 78.9133 8.2133 78.3533C7.66886 77.7778 6.89886 77.49 5.9033 77.49C5.07886 77.49 4.39441 77.6844 3.84997 78.0733C3.32108 78.4466 2.97108 78.9833 2.79997 79.6833H0.233302C0.466636 78.33 1.09664 77.2644 2.1233 76.4866C3.14997 75.7089 4.42552 75.32 5.94997 75.32C7.67664 75.32 9.02219 75.7866 9.98664 76.72C10.9666 77.6533 11.4566 78.9678 11.4566 80.6633V89.6H9.07664V87.1733H8.9833C8.62552 87.9978 8.05775 88.6511 7.27997 89.1333C6.50219 89.6155 5.63108 89.8566 4.66664 89.8566ZM5.17997 87.7566C5.91108 87.7566 6.56441 87.5855 7.13997 87.2433C7.73108 86.9011 8.19775 86.4422 8.53997 85.8666C8.88219 85.2755 9.0533 84.6222 9.0533 83.9066V83.3466H5.1333C4.23108 83.3466 3.53886 83.5411 3.05664 83.93C2.58997 84.3033 2.35664 84.8322 2.35664 85.5166C2.35664 86.2011 2.6133 86.7455 3.12664 87.15C3.63997 87.5544 4.32441 87.7566 5.17997 87.7566ZM15.5968 89.6V75.6H18.0935V77.8633H18.1868C18.5913 77.0544 19.1591 76.4322 19.8902 75.9966C20.6213 75.5611 21.4846 75.3433 22.4802 75.3433C23.4913 75.3433 24.3857 75.5922 25.1635 76.09C25.9413 76.5722 26.548 77.2411 26.9835 78.0966C27.4191 78.9522 27.6368 79.9322 27.6368 81.0366V89.6H25.1168V81.48C25.1168 80.2822 24.8057 79.3411 24.1835 78.6566C23.5768 77.9722 22.7213 77.63 21.6168 77.63C20.5124 77.63 19.6491 77.9722 19.0268 78.6566C18.4202 79.3411 18.1168 80.2822 18.1168 81.48V89.6H15.5968ZM36.801 89.88C35.6343 89.88 34.6155 89.5766 33.7443 88.97C32.8732 88.3633 32.1966 87.5155 31.7143 86.4266C31.2321 85.3222 30.991 84.0466 30.991 82.6C30.991 81.1378 31.2321 79.8622 31.7143 78.7733C32.1966 77.6844 32.8732 76.8366 33.7443 76.23C34.6155 75.6233 35.6343 75.32 36.801 75.32C38.8543 75.32 40.2777 76.1678 41.071 77.8633H41.1643V70H43.6843V89.6H41.1877V87.3133H41.0943C40.2855 89.0244 38.8543 89.88 36.801 89.88ZM37.4777 87.64C38.6443 87.64 39.5466 87.2744 40.1843 86.5433C40.8377 85.7966 41.1643 84.8244 41.1643 83.6266V81.5733C41.1643 80.3755 40.8377 79.4111 40.1843 78.68C39.5466 77.9333 38.6443 77.56 37.4777 77.56C36.2799 77.56 35.3155 78.0189 34.5843 78.9366C33.8688 79.8544 33.511 81.0755 33.511 82.6C33.511 84.1244 33.8688 85.3455 34.5843 86.2633C35.3155 87.1811 36.2799 87.64 37.4777 87.64ZM54.8625 89.6V75.6H57.3591V77.8633H57.4525C57.8569 77.0544 58.4247 76.4322 59.1558 75.9966C59.8869 75.5611 60.7502 75.3433 61.7458 75.3433C62.7569 75.3433 63.6514 75.5922 64.4291 76.09C65.2069 76.5722 65.8136 77.2411 66.2491 78.0966C66.6847 78.9522 66.9025 79.9322 66.9025 81.0366V89.6H64.3825V81.48C64.3825 80.2822 64.0714 79.3411 63.4491 78.6566C62.8425 77.9722 61.9869 77.63 60.8825 77.63C59.778 77.63 58.9147 77.9722 58.2925 78.6566C57.6858 79.3411 57.3825 80.2822 57.3825 81.48V89.6H54.8625ZM76.8366 89.88C75.5766 89.88 74.4489 89.5844 73.4533 88.9933C72.4577 88.3866 71.6722 87.5389 71.0966 86.45C70.5366 85.3455 70.2566 84.0466 70.2566 82.5533C70.2566 81.0755 70.5366 79.8 71.0966 78.7266C71.6566 77.6378 72.4189 76.7978 73.3833 76.2066C74.3477 75.6155 75.4522 75.32 76.6966 75.32C77.8633 75.32 78.8977 75.5844 79.8 76.1133C80.7177 76.6422 81.4411 77.4044 81.97 78.4C82.4989 79.3955 82.7633 80.57 82.7633 81.9233V83.0433H72.6833C72.7766 84.4589 73.1966 85.5866 73.9433 86.4266C74.69 87.2666 75.6466 87.6866 76.8133 87.6866C77.6533 87.6866 78.3689 87.4766 78.96 87.0566C79.5511 86.6366 79.9477 86.0611 80.15 85.33H82.7166C82.53 86.2789 82.1566 87.0955 81.5966 87.78C81.0366 88.4489 80.3522 88.97 79.5433 89.3433C78.7344 89.7011 77.8322 89.88 76.8366 89.88ZM72.8 81.13H80.3133C80.2044 79.9789 79.8233 79.0844 79.17 78.4466C78.5166 77.8089 77.6844 77.49 76.6733 77.49C75.6777 77.49 74.8377 77.8166 74.1533 78.47C73.4689 79.1078 73.0177 79.9944 72.8 81.13ZM89.1891 89.6C88.4735 89.6 87.9135 89.4133 87.5091 89.04C87.1046 88.6511 86.9024 88.0755 86.9024 87.3133V77.6066H84.5224V75.6H86.9258V71.4H89.3991V75.6H92.7358V77.6066H89.4224V87.5933H93.0624V89.6H89.1891ZM97.5865 89.6L93.5732 75.6H96.1399L99.0799 86.4966H99.1732L102.603 75.6H105.217L108.647 86.4966H108.74L111.68 75.6H114.2L110.187 89.6H107.387L103.933 78.68H103.84L100.387 89.6H97.5865ZM122.087 89.88C120.827 89.88 119.699 89.5844 118.703 88.9933C117.708 88.3866 116.922 87.5389 116.347 86.45C115.771 85.3611 115.483 84.0778 115.483 82.6C115.483 81.1066 115.771 79.8155 116.347 78.7266C116.922 77.6378 117.708 76.7978 118.703 76.2066C119.699 75.6155 120.827 75.32 122.087 75.32C123.378 75.32 124.521 75.6155 125.517 76.2066C126.512 76.7978 127.29 77.6378 127.85 78.7266C128.41 79.8155 128.69 81.1066 128.69 82.6C128.69 84.0778 128.402 85.3689 127.827 86.4733C127.267 87.5622 126.489 88.4022 125.493 88.9933C124.498 89.5844 123.362 89.88 122.087 89.88ZM122.087 87.5933C123.331 87.5933 124.319 87.1422 125.05 86.24C125.797 85.3222 126.17 84.1089 126.17 82.6C126.17 81.0755 125.797 79.8622 125.05 78.96C124.319 78.0578 123.331 77.6066 122.087 77.6066C120.858 77.6066 119.87 78.0578 119.123 78.96C118.377 79.8622 118.003 81.0755 118.003 82.6C118.003 84.1089 118.377 85.3222 119.123 86.24C119.87 87.1422 120.858 87.5933 122.087 87.5933ZM132.393 89.6V75.6H134.796V78.4H134.889C135.2 77.5289 135.706 76.8289 136.406 76.3C137.121 75.7555 137.993 75.4833 139.019 75.4833H140.046V77.7233H138.879C137.588 77.7233 136.6 78.1355 135.916 78.96C135.247 79.7844 134.913 80.8966 134.913 82.2966V89.6H132.393ZM142.964 89.6V70H145.484V81.9H145.577L151.644 75.6H154.677L148.937 81.4566L155.214 89.6H152.157L147.187 83.0433L145.484 84.56V89.6H142.964ZM161.579 89.88C159.899 89.88 158.53 89.4678 157.473 88.6433C156.43 87.8033 155.863 86.6833 155.769 85.2833H158.243C158.352 86.0922 158.702 86.7144 159.293 87.15C159.884 87.57 160.677 87.78 161.673 87.78C162.59 87.78 163.29 87.6011 163.773 87.2433C164.255 86.8855 164.496 86.38 164.496 85.7266C164.496 84.7 163.788 84.0389 162.373 83.7433L160.063 83.23C157.543 82.7011 156.283 81.4566 156.283 79.4966C156.283 78.2522 156.749 77.2489 157.683 76.4866C158.616 75.7089 159.837 75.32 161.346 75.32C162.839 75.32 164.068 75.7166 165.033 76.51C166.013 77.2878 166.565 78.3455 166.689 79.6833H164.263C164.107 78.9522 163.765 78.3922 163.236 78.0033C162.723 77.5989 162.054 77.3966 161.229 77.3966C160.436 77.3966 159.806 77.5678 159.339 77.91C158.873 78.2522 158.639 78.7189 158.639 79.31C158.639 79.7766 158.803 80.1578 159.129 80.4533C159.456 80.7333 159.977 80.9511 160.693 81.1066L163.026 81.5966C164.302 81.8766 165.25 82.3433 165.873 82.9966C166.51 83.6344 166.829 84.4744 166.829 85.5166C166.829 86.8544 166.363 87.92 165.429 88.7133C164.496 89.4911 163.213 89.88 161.579 89.88ZM179.916 89.6C179.2 89.6 178.64 89.4133 178.236 89.04C177.831 88.6511 177.629 88.0755 177.629 87.3133V77.6066H175.249V75.6H177.652V71.4H180.126V75.6H183.462V77.6066H180.149V87.5933H183.789V89.6H179.916ZM192.278 89.88C191.018 89.88 189.89 89.5844 188.895 88.9933C187.899 88.3866 187.113 87.5389 186.538 86.45C185.962 85.3611 185.675 84.0778 185.675 82.6C185.675 81.1066 185.962 79.8155 186.538 78.7266C187.113 77.6378 187.899 76.7978 188.895 76.2066C189.89 75.6155 191.018 75.32 192.278 75.32C193.569 75.32 194.712 75.6155 195.708 76.2066C196.703 76.7978 197.481 77.6378 198.041 78.7266C198.601 79.8155 198.881 81.1066 198.881 82.6C198.881 84.0778 198.593 85.3689 198.018 86.4733C197.458 87.5622 196.68 88.4022 195.685 88.9933C194.689 89.5844 193.553 89.88 192.278 89.88ZM192.278 87.5933C193.522 87.5933 194.51 87.1422 195.241 86.24C195.988 85.3222 196.361 84.1089 196.361 82.6C196.361 81.0755 195.988 79.8622 195.241 78.96C194.51 78.0578 193.522 77.6066 192.278 77.6066C191.049 77.6066 190.061 78.0578 189.315 78.96C188.568 79.8622 188.195 81.0755 188.195 82.6C188.195 84.1089 188.568 85.3222 189.315 86.24C190.061 87.1422 191.049 87.5933 192.278 87.5933ZM209.502 89.6V75.6H211.905V78.4H211.999C212.31 77.5289 212.815 76.8289 213.515 76.3C214.231 75.7555 215.102 75.4833 216.129 75.4833H217.155V77.7233H215.989C214.698 77.7233 213.71 78.1355 213.025 78.96C212.356 79.7844 212.022 80.8966 212.022 82.2966V89.6H209.502ZM225.149 89.88C223.889 89.88 222.761 89.5844 221.766 88.9933C220.77 88.3866 219.985 87.5389 219.409 86.45C218.849 85.3455 218.569 84.0466 218.569 82.5533C218.569 81.0755 218.849 79.8 219.409 78.7266C219.969 77.6378 220.731 76.7978 221.696 76.2066C222.66 75.6155 223.765 75.32 225.009 75.32C226.176 75.32 227.21 75.5844 228.112 76.1133C229.03 76.6422 229.754 77.4044 230.282 78.4C230.811 79.3955 231.076 80.57 231.076 81.9233V83.0433H220.996C221.089 84.4589 221.509 85.5866 222.256 86.4266C223.002 87.2666 223.959 87.6866 225.126 87.6866C225.966 87.6866 226.681 87.4766 227.272 87.0566C227.864 86.6366 228.26 86.0611 228.462 85.33H231.029C230.842 86.2789 230.469 87.0955 229.909 87.78C229.349 88.4489 228.665 88.97 227.856 89.3433C227.047 89.7011 226.145 89.88 225.149 89.88ZM221.112 81.13H228.626C228.517 79.9789 228.136 79.0844 227.482 78.4466C226.829 77.8089 225.997 77.49 224.986 77.49C223.99 77.49 223.15 77.8166 222.466 78.47C221.781 79.1078 221.33 79.9944 221.112 81.13ZM238.155 89.8566C236.77 89.8566 235.643 89.4678 234.772 88.69C233.916 87.8966 233.488 86.8778 233.488 85.6333C233.488 84.3111 233.916 83.2844 234.772 82.5533C235.643 81.8066 236.872 81.4333 238.458 81.4333H242.542V80.7333C242.542 79.7066 242.262 78.9133 241.702 78.3533C241.157 77.7778 240.387 77.49 239.392 77.49C238.567 77.49 237.883 77.6844 237.338 78.0733C236.809 78.4466 236.459 78.9833 236.288 79.6833H233.722C233.955 78.33 234.585 77.2644 235.612 76.4866C236.638 75.7089 237.914 75.32 239.438 75.32C241.165 75.32 242.51 75.7866 243.475 76.72C244.455 77.6533 244.945 78.9678 244.945 80.6633V89.6H242.565V87.1733H242.472C242.114 87.9978 241.546 88.6511 240.768 89.1333C239.99 89.6155 239.119 89.8566 238.155 89.8566ZM238.668 87.7566C239.399 87.7566 240.053 87.5855 240.628 87.2433C241.219 86.9011 241.686 86.4422 242.028 85.8666C242.37 85.2755 242.542 84.6222 242.542 83.9066V83.3466H238.622C237.719 83.3466 237.027 83.5411 236.545 83.93C236.078 84.3033 235.845 84.8322 235.845 85.5166C235.845 86.2011 236.102 86.7455 236.615 87.15C237.128 87.5544 237.813 87.7566 238.668 87.7566ZM254.825 89.88C253.581 89.88 252.461 89.5844 251.465 88.9933C250.485 88.3866 249.707 87.5389 249.132 86.45C248.572 85.3611 248.292 84.0778 248.292 82.6C248.292 81.1066 248.572 79.8155 249.132 78.7266C249.707 77.6378 250.485 76.7978 251.465 76.2066C252.461 75.6155 253.581 75.32 254.825 75.32C255.805 75.32 256.7 75.5066 257.508 75.88C258.333 76.2378 259.025 76.7822 259.585 77.5133C260.161 78.2289 260.557 79.1389 260.775 80.2433H258.162C257.944 79.3255 257.532 78.6566 256.925 78.2366C256.334 77.8166 255.634 77.6066 254.825 77.6066C253.627 77.6066 252.655 78.0578 251.908 78.96C251.177 79.8622 250.812 81.0755 250.812 82.6C250.812 84.1089 251.177 85.3222 251.908 86.24C252.655 87.1422 253.627 87.5933 254.825 87.5933C255.681 87.5933 256.412 87.3678 257.018 86.9166C257.641 86.4655 258.068 85.7344 258.302 84.7233H260.845C260.643 85.8744 260.254 86.8311 259.678 87.5933C259.103 88.3555 258.403 88.9311 257.578 89.32C256.754 89.6933 255.836 89.88 254.825 89.88ZM263.605 89.6V70H266.125V77.6533H266.218C266.622 76.9378 267.19 76.37 267.921 75.95C268.652 75.53 269.508 75.32 270.488 75.32C271.499 75.32 272.394 75.5611 273.171 76.0433C273.949 76.5255 274.556 77.1944 274.991 78.05C275.427 78.9055 275.645 79.9011 275.645 81.0366V89.6H273.125V81.41C273.125 80.1966 272.814 79.2555 272.191 78.5866C271.585 77.9178 270.729 77.5833 269.625 77.5833C268.52 77.5833 267.657 77.9178 267.035 78.5866C266.428 79.2555 266.125 80.1966 266.125 81.41V89.6H263.605ZM289.673 89.6C288.958 89.6 288.398 89.4133 287.993 89.04C287.589 88.6511 287.387 88.0755 287.387 87.3133V77.6066H285.007V75.6H287.41V71.4H289.883V75.6H293.22V77.6066H289.907V87.5933H293.547V89.6H289.673ZM296.226 89.6V70H298.746V77.6533H298.839C299.244 76.9378 299.811 76.37 300.542 75.95C301.274 75.53 302.129 75.32 303.109 75.32C304.12 75.32 305.015 75.5611 305.792 76.0433C306.57 76.5255 307.177 77.1944 307.612 78.05C308.048 78.9055 308.266 79.9011 308.266 81.0366V89.6H305.746V81.41C305.746 80.1966 305.435 79.2555 304.812 78.5866C304.206 77.9178 303.35 77.5833 302.246 77.5833C301.141 77.5833 300.278 77.9178 299.656 78.5866C299.049 79.2555 298.746 80.1966 298.746 81.41V89.6H296.226ZM318.2 89.88C316.94 89.88 315.812 89.5844 314.817 88.9933C313.821 88.3866 313.035 87.5389 312.46 86.45C311.9 85.3455 311.62 84.0466 311.62 82.5533C311.62 81.0755 311.9 79.8 312.46 78.7266C313.02 77.6378 313.782 76.7978 314.747 76.2066C315.711 75.6155 316.815 75.32 318.06 75.32C319.227 75.32 320.261 75.5844 321.163 76.1133C322.081 76.6422 322.804 77.4044 323.333 78.4C323.862 79.3955 324.127 80.57 324.127 81.9233V83.0433H314.047C314.14 84.4589 314.56 85.5866 315.307 86.4266C316.053 87.2666 317.01 87.6866 318.177 87.6866C319.017 87.6866 319.732 87.4766 320.323 87.0566C320.914 86.6366 321.311 86.0611 321.513 85.33H324.08C323.893 86.2789 323.52 87.0955 322.96 87.78C322.4 88.4489 321.715 88.97 320.907 89.3433C320.098 89.7011 319.195 89.88 318.2 89.88ZM314.163 81.13H321.677C321.568 79.9789 321.187 79.0844 320.533 78.4466C319.88 77.8089 319.048 77.49 318.037 77.49C317.041 77.49 316.201 77.8166 315.517 78.47C314.832 79.1078 314.381 79.9944 314.163 81.13ZM327.659 89.6V75.6H330.179V89.6H327.659ZM328.919 73.6866C328.483 73.6866 328.11 73.5311 327.799 73.22C327.488 72.9089 327.332 72.5355 327.332 72.1C327.332 71.6644 327.488 71.2911 327.799 70.98C328.11 70.6689 328.483 70.5133 328.919 70.5133C329.355 70.5133 329.728 70.6689 330.039 70.98C330.35 71.2911 330.506 71.6644 330.506 72.1C330.506 72.5355 330.35 72.9089 330.039 73.22C329.728 73.5311 329.355 73.6866 328.919 73.6866ZM334.764 89.6V75.6H337.167V78.4H337.26C337.571 77.5289 338.077 76.8289 338.777 76.3C339.493 75.7555 340.364 75.4833 341.39 75.4833H342.417V77.7233H341.25C339.959 77.7233 338.971 78.1355 338.287 78.96C337.618 79.7844 337.284 80.8966 337.284 82.2966V89.6H334.764ZM357.27 89.88C356.103 89.88 355.084 89.5766 354.213 88.97C353.342 88.3633 352.665 87.5155 352.183 86.4266C351.701 85.3222 351.46 84.0466 351.46 82.6C351.46 81.1378 351.701 79.8622 352.183 78.7733C352.665 77.6844 353.342 76.8366 354.213 76.23C355.084 75.6233 356.103 75.32 357.27 75.32C359.323 75.32 360.746 76.1678 361.54 77.8633H361.633V70H364.153V89.6H361.656V87.3133H361.563C360.754 89.0244 359.323 89.88 357.27 89.88ZM357.946 87.64C359.113 87.64 360.015 87.2744 360.653 86.5433C361.306 85.7966 361.633 84.8244 361.633 83.6266V81.5733C361.633 80.3755 361.306 79.4111 360.653 78.68C360.015 77.9333 359.113 77.56 357.946 77.56C356.749 77.56 355.784 78.0189 355.053 78.9366C354.338 79.8544 353.98 81.0755 353.98 82.6C353.98 84.1244 354.338 85.3455 355.053 86.2633C355.784 87.1811 356.749 87.64 357.946 87.64ZM374.2 89.88C372.94 89.88 371.812 89.5844 370.817 88.9933C369.821 88.3866 369.035 87.5389 368.46 86.45C367.9 85.3455 367.62 84.0466 367.62 82.5533C367.62 81.0755 367.9 79.8 368.46 78.7266C369.02 77.6378 369.782 76.7978 370.747 76.2066C371.711 75.6155 372.815 75.32 374.06 75.32C375.227 75.32 376.261 75.5844 377.163 76.1133C378.081 76.6422 378.804 77.4044 379.333 78.4C379.862 79.3955 380.127 80.57 380.127 81.9233V83.0433H370.047C370.14 84.4589 370.56 85.5866 371.307 86.4266C372.053 87.2666 373.01 87.6866 374.177 87.6866C375.017 87.6866 375.732 87.4766 376.323 87.0566C376.914 86.6366 377.311 86.0611 377.513 85.33H380.08C379.893 86.2789 379.52 87.0955 378.96 87.78C378.4 88.4489 377.715 88.97 376.907 89.3433C376.098 89.7011 375.195 89.88 374.2 89.88ZM370.163 81.13H377.677C377.568 79.9789 377.187 79.0844 376.533 78.4466C375.88 77.8089 375.048 77.49 374.037 77.49C373.041 77.49 372.201 77.8166 371.517 78.47C370.832 79.1078 370.381 79.9944 370.163 81.13ZM388.396 89.88C386.716 89.88 385.347 89.4678 384.289 88.6433C383.247 87.8033 382.679 86.6833 382.586 85.2833H385.059C385.168 86.0922 385.518 86.7144 386.109 87.15C386.7 87.57 387.493 87.78 388.489 87.78C389.407 87.78 390.107 87.6011 390.589 87.2433C391.071 86.8855 391.312 86.38 391.312 85.7266C391.312 84.7 390.605 84.0389 389.189 83.7433L386.879 83.23C384.359 82.7011 383.099 81.4566 383.099 79.4966C383.099 78.2522 383.566 77.2489 384.499 76.4866C385.432 75.7089 386.653 75.32 388.162 75.32C389.656 75.32 390.885 75.7166 391.849 76.51C392.829 77.2878 393.381 78.3455 393.506 79.6833H391.079C390.923 78.9522 390.581 78.3922 390.052 78.0033C389.539 77.5989 388.87 77.3966 388.046 77.3966C387.252 77.3966 386.622 77.5678 386.156 77.91C385.689 78.2522 385.456 78.7189 385.456 79.31C385.456 79.7766 385.619 80.1578 385.946 80.4533C386.272 80.7333 386.793 80.9511 387.509 81.1066L389.842 81.5966C391.118 81.8766 392.067 82.3433 392.689 82.9966C393.327 83.6344 393.646 84.4744 393.646 85.5166C393.646 86.8544 393.179 87.92 392.246 88.7133C391.312 89.4911 390.029 89.88 388.396 89.88ZM399.814 89.6C399.099 89.6 398.539 89.4133 398.134 89.04C397.73 88.6511 397.527 88.0755 397.527 87.3133V77.6066H395.147V75.6H397.551V71.4H400.024V75.6H403.361V77.6066H400.047V87.5933H403.687V89.6H399.814ZM406.436 89.6V75.6H408.956V89.6H406.436ZM407.696 73.6866C407.261 73.6866 406.887 73.5311 406.576 73.22C406.265 72.9089 406.11 72.5355 406.11 72.1C406.11 71.6644 406.265 71.2911 406.576 70.98C406.887 70.6689 407.261 70.5133 407.696 70.5133C408.132 70.5133 408.505 70.6689 408.816 70.98C409.127 71.2911 409.283 71.6644 409.283 72.1C409.283 72.5355 409.127 72.9089 408.816 73.22C408.505 73.5311 408.132 73.6866 407.696 73.6866ZM413.284 89.6V75.6H415.781V77.8633H415.874C416.279 77.0544 416.847 76.4322 417.578 75.9966C418.309 75.5611 419.172 75.3433 420.168 75.3433C421.179 75.3433 422.073 75.5922 422.851 76.09C423.629 76.5722 424.235 77.2411 424.671 78.0966C425.107 78.9522 425.324 79.9322 425.324 81.0366V89.6H422.804V81.48C422.804 80.2822 422.493 79.3411 421.871 78.6566C421.264 77.9722 420.409 77.63 419.304 77.63C418.2 77.63 417.337 77.9722 416.714 78.6566C416.108 79.3411 415.804 80.2822 415.804 81.48V89.6H413.284ZM433.089 89.8566C431.704 89.8566 430.576 89.4678 429.705 88.69C428.85 87.8966 428.422 86.8778 428.422 85.6333C428.422 84.3111 428.85 83.2844 429.705 82.5533C430.576 81.8066 431.805 81.4333 433.392 81.4333H437.475V80.7333C437.475 79.7066 437.195 78.9133 436.635 78.3533C436.091 77.7778 435.321 77.49 434.325 77.49C433.501 77.49 432.816 77.6844 432.272 78.0733C431.743 78.4466 431.393 78.9833 431.222 79.6833H428.655C428.889 78.33 429.519 77.2644 430.545 76.4866C431.572 75.7089 432.847 75.32 434.372 75.32C436.099 75.32 437.444 75.7866 438.409 76.72C439.389 77.6533 439.879 78.9678 439.879 80.6633V89.6H437.499V87.1733H437.405C437.047 87.9978 436.48 88.6511 435.702 89.1333C434.924 89.6155 434.053 89.8566 433.089 89.8566ZM433.602 87.7566C434.333 87.7566 434.986 87.5855 435.562 87.2433C436.153 86.9011 436.62 86.4422 436.962 85.8666C437.304 85.2755 437.475 84.6222 437.475 83.9066V83.3466H433.555C432.653 83.3466 431.961 83.5411 431.479 83.93C431.012 84.3033 430.779 84.8322 430.779 85.5166C430.779 86.2011 431.035 86.7455 431.549 87.15C432.062 87.5544 432.746 87.7566 433.602 87.7566ZM446.982 89.6C446.266 89.6 445.706 89.4133 445.302 89.04C444.898 88.6511 444.695 88.0755 444.695 87.3133V77.6066H442.315V75.6H444.719V71.4H447.192V75.6H450.529V77.6066H447.215V87.5933H450.855V89.6H446.982ZM453.604 89.6V75.6H456.124V89.6H453.604ZM454.864 73.6866C454.429 73.6866 454.055 73.5311 453.744 73.22C453.433 72.9089 453.278 72.5355 453.278 72.1C453.278 71.6644 453.433 71.2911 453.744 70.98C454.055 70.6689 454.429 70.5133 454.864 70.5133C455.3 70.5133 455.673 70.6689 455.984 70.98C456.295 71.2911 456.451 71.6644 456.451 72.1C456.451 72.5355 456.295 72.9089 455.984 73.22C455.673 73.5311 455.3 73.6866 454.864 73.6866ZM466.262 89.88C465.002 89.88 463.875 89.5844 462.879 88.9933C461.883 88.3866 461.098 87.5389 460.522 86.45C459.947 85.3611 459.659 84.0778 459.659 82.6C459.659 81.1066 459.947 79.8155 460.522 78.7266C461.098 77.6378 461.883 76.7978 462.879 76.2066C463.875 75.6155 465.002 75.32 466.262 75.32C467.553 75.32 468.697 75.6155 469.692 76.2066C470.688 76.7978 471.466 77.6378 472.026 78.7266C472.586 79.8155 472.866 81.1066 472.866 82.6C472.866 84.0778 472.578 85.3689 472.002 86.4733C471.442 87.5622 470.665 88.4022 469.669 88.9933C468.673 89.5844 467.538 89.88 466.262 89.88ZM466.262 87.5933C467.507 87.5933 468.495 87.1422 469.226 86.24C469.972 85.3222 470.346 84.1089 470.346 82.6C470.346 81.0755 469.972 79.8622 469.226 78.96C468.495 78.0578 467.507 77.6066 466.262 77.6066C465.033 77.6066 464.046 78.0578 463.299 78.96C462.552 79.8622 462.179 81.0755 462.179 82.6C462.179 84.1089 462.552 85.3222 463.299 86.24C464.046 87.1422 465.033 87.5933 466.262 87.5933ZM476.312 89.6V75.6H478.808V77.8633H478.902C479.306 77.0544 479.874 76.4322 480.605 75.9966C481.336 75.5611 482.199 75.3433 483.195 75.3433C484.206 75.3433 485.101 75.5922 485.878 76.09C486.656 76.5722 487.263 77.2411 487.698 78.0966C488.134 78.9522 488.352 79.9322 488.352 81.0366V89.6H485.832V81.48C485.832 80.2822 485.521 79.3411 484.898 78.6566C484.292 77.9722 483.436 77.63 482.332 77.63C481.227 77.63 480.364 77.9722 479.742 78.6566C479.135 79.3411 478.832 80.2822 478.832 81.48V89.6H476.312ZM493.503 89.88C492.989 89.88 492.554 89.7011 492.196 89.3433C491.838 88.9855 491.659 88.55 491.659 88.0366C491.659 87.5233 491.838 87.0878 492.196 86.73C492.554 86.3722 492.989 86.1933 493.503 86.1933C494.016 86.1933 494.451 86.3722 494.809 86.73C495.167 87.0878 495.346 87.5233 495.346 88.0366C495.346 88.55 495.167 88.9855 494.809 89.3433C494.451 89.7011 494.016 89.88 493.503 89.88Z" fill="white"/>
</svg>
