<svg width="442" height="331" viewBox="0 0 442 331" fill="none" xmlns="http://www.w3.org/2000/svg">
<path d="M301.929 139.996L281.069 119.136L260.209 98.2764L239.349 119.136L260.209 139.996L239.349 160.856L218.489 139.996L197.629 119.136L176.77 139.996L155.91 160.856L135.05 139.996L155.91 119.136L135.05 98.2764L114.19 119.136L93.3303 139.996L114.19 160.856L93.3303 181.716L114.19 202.575L135.05 181.716L155.91 202.575L176.77 181.716L197.629 202.575L218.489 181.716L239.349 202.575L260.209 181.716L281.069 202.575L301.929 181.716L281.069 160.856L301.929 139.996Z" fill="black"/>
<path d="M197.63 244.295L218.49 265.155L239.35 244.295L260.209 223.435L239.35 202.575L218.49 223.435L197.63 244.295Z" fill="black"/>
<path d="M155.91 202.575L135.051 223.435L155.91 244.295L176.77 265.155L197.63 244.295L176.77 223.435L155.91 202.575Z" fill="black"/>
<path d="M239.349 77.4168L218.489 56.5569L197.63 77.4168L176.77 56.5569L155.91 77.4168L176.77 98.2766L197.63 119.136L218.489 98.2766L239.349 77.4168Z" fill="black"/>
<path d="M371.919 69.9897V93.3306H348.578H325.253H301.929V116.655V139.996H325.253H348.578H371.919V116.655H395.243V93.3306H418.584V69.9897H395.243H371.919Z" fill="#2F00FF"/>
<path d="M418.584 0H395.243V23.3409H418.584V46.6652V69.9898H441.908V46.6652V23.3409V0H418.584Z" fill="#2F00FF"/>
<path d="M69.9898 116.655V93.3307H46.6653H23.3245V69.9898V46.6652V23.3409H46.6653V0H23.3245H0V23.3409V46.6652V69.9898V93.3307V116.655H23.3245V139.996H46.6653H69.9898H93.3306V116.655H69.9898Z" fill="#2F00FF"/>
<path d="M239.35 286.015L218.49 265.155L197.63 286.015L218.49 306.875V330.199H241.814V306.858H218.49L239.35 286.015Z" fill="black"/>
<path d="M176.757 265.165L155.902 286.021L176.757 306.877L197.613 286.021L176.757 265.165Z" fill="black"/>
<path d="M176.754 306.874H153.429V330.199H176.754V306.874Z" fill="black"/>
</svg>
