<svg width="316" height="294" viewBox="0 0 316 294" fill="none" xmlns="http://www.w3.org/2000/svg">
<path d="M180.067 20.8599L159.207 0L138.347 20.8599L117.487 0L96.6276 20.8599L117.487 41.7198L138.347 62.5794L159.207 41.7198L180.067 20.8599Z" fill="black"/>
<path d="M285.868 146.019H256.357H226.863H221.787L242.647 125.159L263.506 104.299L242.647 83.4395L221.787 62.5796L200.927 83.4395L221.787 104.299L200.927 125.159L180.067 104.299L159.207 83.4395L138.347 62.5796L117.488 83.4395L96.6277 104.299L75.7679 125.159L54.908 104.299L75.7679 83.4395L54.908 62.5796L34.0482 83.4395L13.1884 104.299L34.0482 125.159L54.908 146.019L75.7679 166.879L96.6277 187.739L117.488 208.599L138.347 187.739L117.488 166.879L96.6277 146.019L117.488 125.159L138.347 146.019L159.207 125.159L180.067 146.019H167.858H138.364V175.513V187.722L138.347 187.739L138.364 187.755V205.024V234.518V243.838H116.655H93.3306H70.0061V220.514H46.6653V197.173H23.3408V173.848V150.508V127.183H0V150.508V173.848V197.173V220.514H23.3408V243.838H46.6653V267.163H70.0061H93.3306H108.869V293.523H138.364H167.858H197.369H226.863H256.357H285.868V264.029H315.362V234.518V205.024V175.513V146.019H285.868Z" fill="black"/>
</svg>
