<svg width="311" height="189" viewBox="0 0 311 189" fill="none" xmlns="http://www.w3.org/2000/svg">
<path d="M2.7733 22.3999V0.799902H5.70663V22.3999H2.7733ZM12.0658 22.3999V8.69324H9.13247V6.3999H12.0925V2.69324C12.0925 1.78657 12.3236 1.11101 12.7858 0.666569C13.2658 0.222125 13.9325 -9.72748e-05 14.7858 -9.72748e-05H18.8391V2.29324H14.9191V6.3999H18.5191V8.69324H14.9458V22.3999H12.0658ZM28.6625 28.7999V26.5066H32.2891L33.7558 22.4799L27.0625 6.3999H30.0491L35.1425 18.9066H35.2491L39.7291 6.3999H42.6358L36.6091 22.3999L35.1958 26.1599C34.8758 26.9955 34.5291 27.6443 34.1558 28.1066C33.8002 28.5688 33.1958 28.7999 32.3425 28.7999H28.6625ZM51.3441 22.7199C49.9041 22.7199 48.6152 22.3821 47.4775 21.7066C46.3397 21.0132 45.4419 20.0443 44.7841 18.7999C44.1264 17.5555 43.7975 16.0888 43.7975 14.3999C43.7975 12.6932 44.1264 11.2177 44.7841 9.97324C45.4419 8.72879 46.3397 7.76879 47.4775 7.09324C48.6152 6.41768 49.9041 6.0799 51.3441 6.0799C52.8197 6.0799 54.1264 6.41768 55.2641 7.09324C56.4019 7.76879 57.2908 8.72879 57.9308 9.97324C58.5708 11.2177 58.8908 12.6932 58.8908 14.3999C58.8908 16.0888 58.5619 17.5643 57.9041 18.8266C57.2641 20.071 56.3752 21.031 55.2375 21.7066C54.0997 22.3821 52.8019 22.7199 51.3441 22.7199ZM51.3441 20.1066C52.7664 20.1066 53.8952 19.591 54.7308 18.5599C55.5841 17.511 56.0108 16.1243 56.0108 14.3999C56.0108 12.6577 55.5841 11.271 54.7308 10.2399C53.8952 9.20879 52.7664 8.69324 51.3441 8.69324C49.9397 8.69324 48.8108 9.20879 47.9575 10.2399C47.1041 11.271 46.6775 12.6577 46.6775 14.3999C46.6775 16.1243 47.1041 17.511 47.9575 18.5599C48.8108 19.591 49.9397 20.1066 51.3441 20.1066ZM68.5625 22.6932C67.4069 22.6932 66.3847 22.4266 65.4958 21.8932C64.6247 21.3599 63.9402 20.6132 63.4425 19.6532C62.9625 18.6932 62.7225 17.591 62.7225 16.3466V6.3999H65.6025V15.7066C65.6025 17.0755 65.9402 18.151 66.6158 18.9332C67.2914 19.6977 68.2336 20.0799 69.4425 20.0799C70.7047 20.0799 71.7091 19.6799 72.4558 18.8799C73.2202 18.0621 73.6025 16.9955 73.6025 15.6799V6.3999H76.4825V22.3999H73.6291V19.6266H73.5225C73.078 20.6221 72.4291 21.3866 71.5758 21.9199C70.7225 22.4355 69.718 22.6932 68.5625 22.6932ZM95.8754 22.7199C94.4354 22.7199 93.1465 22.3821 92.0087 21.7066C90.8709 21.0132 89.9732 20.0443 89.3154 18.7999C88.6576 17.5555 88.3287 16.0888 88.3287 14.3999C88.3287 12.6932 88.6576 11.2177 89.3154 9.97324C89.9732 8.72879 90.8709 7.76879 92.0087 7.09324C93.1465 6.41768 94.4354 6.0799 95.8754 6.0799C97.3509 6.0799 98.6576 6.41768 99.7954 7.09324C100.933 7.76879 101.822 8.72879 102.462 9.97324C103.102 11.2177 103.422 12.6932 103.422 14.3999C103.422 16.0888 103.093 17.5643 102.435 18.8266C101.795 20.071 100.906 21.031 99.7687 21.7066C98.6309 22.3821 97.3332 22.7199 95.8754 22.7199ZM95.8754 20.1066C97.2976 20.1066 98.4265 19.591 99.262 18.5599C100.115 17.511 100.542 16.1243 100.542 14.3999C100.542 12.6577 100.115 11.271 99.262 10.2399C98.4265 9.20879 97.2976 8.69324 95.8754 8.69324C94.4709 8.69324 93.342 9.20879 92.4887 10.2399C91.6354 11.271 91.2087 12.6577 91.2087 14.3999C91.2087 16.1243 91.6354 17.511 92.4887 18.5599C93.342 19.591 94.4709 20.1066 95.8754 20.1066ZM107.36 28.7999V6.3999H110.214V9.01324H110.32C111.245 7.05768 112.88 6.0799 115.227 6.0799C116.56 6.0799 117.725 6.42657 118.72 7.1199C119.716 7.81323 120.489 8.78212 121.04 10.0266C121.591 11.271 121.867 12.7288 121.867 14.3999C121.867 16.0532 121.591 17.511 121.04 18.7732C120.489 20.0177 119.716 20.9866 118.72 21.6799C117.725 22.3732 116.56 22.7199 115.227 22.7199C112.88 22.7199 111.254 21.751 110.347 19.8132H110.24V28.7999H107.36ZM114.454 20.1599C115.84 20.1599 116.943 19.6355 117.76 18.5866C118.578 17.5377 118.987 16.1421 118.987 14.3999C118.987 12.6577 118.578 11.2621 117.76 10.2132C116.943 9.16435 115.84 8.6399 114.454 8.6399C113.12 8.6399 112.08 9.06657 111.334 9.9199C110.605 10.7555 110.24 11.8577 110.24 13.2266V15.5732C110.24 16.9421 110.605 18.0443 111.334 18.8799C112.08 19.6977 113.12 20.1243 114.454 20.1599ZM132.442 22.7199C131.002 22.7199 129.714 22.3821 128.576 21.7066C127.438 21.0132 126.54 20.0443 125.882 18.7999C125.242 17.5377 124.922 16.0532 124.922 14.3466C124.922 12.6577 125.242 11.1999 125.882 9.97324C126.522 8.72879 127.394 7.76879 128.496 7.09324C129.598 6.41768 130.86 6.0799 132.282 6.0799C133.616 6.0799 134.798 6.38212 135.829 6.98657C136.878 7.59101 137.705 8.46212 138.309 9.5999C138.914 10.7377 139.216 12.0799 139.216 13.6266V14.9066H127.696C127.802 16.5243 128.282 17.8132 129.136 18.7732C129.989 19.7332 131.082 20.2132 132.416 20.2132C133.376 20.2132 134.194 19.9732 134.869 19.4932C135.545 19.0132 135.998 18.3555 136.229 17.5199H139.162C138.949 18.6043 138.522 19.5377 137.882 20.3199C137.242 21.0843 136.46 21.6799 135.536 22.1066C134.611 22.5155 133.58 22.7199 132.442 22.7199ZM127.829 12.7199H136.416C136.291 11.4043 135.856 10.3821 135.109 9.65324C134.362 8.92435 133.411 8.5599 132.256 8.5599C131.118 8.5599 130.158 8.93324 129.376 9.6799C128.594 10.4088 128.078 11.4221 127.829 12.7199ZM143.173 22.3999V6.3999H146.026V8.98657H146.133C146.595 8.06212 147.244 7.35101 148.08 6.85324C148.915 6.35546 149.902 6.10657 151.04 6.10657C152.195 6.10657 153.217 6.39101 154.106 6.9599C154.995 7.51101 155.688 8.27546 156.186 9.25324C156.684 10.231 156.933 11.351 156.933 12.6132V22.3999H154.053V13.1199C154.053 11.751 153.697 10.6755 152.986 9.89324C152.293 9.11101 151.315 8.7199 150.053 8.7199C148.791 8.7199 147.804 9.11101 147.093 9.89324C146.4 10.6755 146.053 11.751 146.053 13.1199V22.3999H143.173ZM168.912 28.7999V26.5066H172.539L174.006 22.4799L167.312 6.3999H170.299L175.392 18.9066H175.499L179.979 6.3999H182.886L176.859 22.3999L175.446 26.1599C175.126 26.9955 174.779 27.6443 174.406 28.1066C174.05 28.5688 173.446 28.7999 172.592 28.7999H168.912ZM191.594 22.7199C190.154 22.7199 188.865 22.3821 187.727 21.7066C186.59 21.0132 185.692 20.0443 185.034 18.7999C184.376 17.5555 184.047 16.0888 184.047 14.3999C184.047 12.6932 184.376 11.2177 185.034 9.97324C185.692 8.72879 186.59 7.76879 187.727 7.09324C188.865 6.41768 190.154 6.0799 191.594 6.0799C193.07 6.0799 194.376 6.41768 195.514 7.09324C196.652 7.76879 197.541 8.72879 198.181 9.97324C198.821 11.2177 199.141 12.6932 199.141 14.3999C199.141 16.0888 198.812 17.5643 198.154 18.8266C197.514 20.071 196.625 21.031 195.487 21.7066C194.35 22.3821 193.052 22.7199 191.594 22.7199ZM191.594 20.1066C193.016 20.1066 194.145 19.591 194.981 18.5599C195.834 17.511 196.261 16.1243 196.261 14.3999C196.261 12.6577 195.834 11.271 194.981 10.2399C194.145 9.20879 193.016 8.69324 191.594 8.69324C190.19 8.69324 189.061 9.20879 188.207 10.2399C187.354 11.271 186.927 12.6577 186.927 14.3999C186.927 16.1243 187.354 17.511 188.207 18.5599C189.061 19.591 190.19 20.1066 191.594 20.1066ZM208.812 22.6932C207.657 22.6932 206.635 22.4266 205.746 21.8932C204.875 21.3599 204.19 20.6132 203.692 19.6532C203.212 18.6932 202.972 17.591 202.972 16.3466V6.3999H205.852V15.7066C205.852 17.0755 206.19 18.151 206.866 18.9332C207.541 19.6977 208.484 20.0799 209.692 20.0799C210.955 20.0799 211.959 19.6799 212.706 18.8799C213.47 18.0621 213.852 16.9955 213.852 15.6799V6.3999H216.732V22.3999H213.879V19.6266H213.772C213.328 20.6221 212.679 21.3866 211.826 21.9199C210.972 22.4355 209.968 22.6932 208.812 22.6932ZM221.872 22.3999V6.3999H224.619V9.5999H224.726C225.081 8.60435 225.659 7.80435 226.459 7.1999C227.277 6.57768 228.272 6.26657 229.446 6.26657H230.619V8.82657H229.286C227.81 8.82657 226.681 9.29768 225.899 10.2399C225.135 11.1821 224.752 12.4532 224.752 14.0532V22.3999H221.872ZM10.1333 62.7199C7.78663 62.7199 6.15108 61.7421 5.22663 59.7866H5.11997V62.3999H2.26663V39.9999H5.14663V48.9866H5.2533C6.15997 47.0488 7.78663 46.0799 10.1333 46.0799C11.4666 46.0799 12.6311 46.4266 13.6266 47.1199C14.6222 47.8132 15.3955 48.7821 15.9466 50.0266C16.4977 51.271 16.7733 52.7288 16.7733 54.3999C16.7733 56.0532 16.4977 57.511 15.9466 58.7732C15.3955 60.0177 14.6222 60.9866 13.6266 61.6799C12.6311 62.3732 11.4666 62.7199 10.1333 62.7199ZM9.35997 60.1599C10.7466 60.1599 11.8489 59.6355 12.6666 58.5866C13.4844 57.5377 13.8933 56.1421 13.8933 54.3999C13.8933 52.6577 13.4844 51.2621 12.6666 50.2132C11.8489 49.1643 10.7466 48.6399 9.35997 48.6399C8.02663 48.6399 6.98663 49.0666 6.23997 49.9199C5.51108 50.7555 5.14663 51.8577 5.14663 53.2266V55.5732C5.14663 56.9421 5.51108 58.0532 6.23997 58.9066C6.98663 59.7421 8.02663 60.1599 9.35997 60.1599ZM21.0287 62.3999V46.3999H23.7754V49.5999H23.882C24.2376 48.6043 24.8154 47.8043 25.6154 47.1999C26.4332 46.5777 27.4287 46.2666 28.602 46.2666H29.7754V48.8266H28.442C26.9665 48.8266 25.8376 49.2977 25.0554 50.2399C24.2909 51.1821 23.9087 52.4532 23.9087 54.0532V62.3999H21.0287ZM38.9379 62.7199C37.4979 62.7199 36.209 62.3821 35.0712 61.7066C33.9334 61.0132 33.0357 60.0443 32.3779 58.7999C31.7201 57.5555 31.3912 56.0888 31.3912 54.3999C31.3912 52.6932 31.7201 51.2177 32.3779 49.9732C33.0357 48.7288 33.9334 47.7688 35.0712 47.0932C36.209 46.4177 37.4979 46.0799 38.9379 46.0799C40.4134 46.0799 41.7201 46.4177 42.8579 47.0932C43.9957 47.7688 44.8845 48.7288 45.5245 49.9732C46.1646 51.2177 46.4846 52.6932 46.4846 54.3999C46.4846 56.0888 46.1557 57.5643 45.4979 58.8266C44.8579 60.071 43.969 61.031 42.8312 61.7066C41.6934 62.3821 40.3957 62.7199 38.9379 62.7199ZM38.9379 60.1066C40.3601 60.1066 41.489 59.591 42.3245 58.5599C43.1779 57.511 43.6045 56.1243 43.6045 54.3999C43.6045 52.6577 43.1779 51.271 42.3245 50.2399C41.489 49.2088 40.3601 48.6932 38.9379 48.6932C37.5334 48.6932 36.4045 49.2088 35.5512 50.2399C34.6979 51.271 34.2712 52.6577 34.2712 54.3999C34.2712 56.1243 34.6979 57.511 35.5512 58.5599C36.4045 59.591 37.5334 60.1066 38.9379 60.1066ZM52.5316 62.3999L47.945 46.3999H50.8783L54.2383 58.8532H54.345L58.265 46.3999H61.2516L65.1716 58.8532H65.2783L68.6383 46.3999H71.5183L66.9316 62.3999H63.7316L59.785 49.9199H59.6783L55.7316 62.3999H52.5316ZM78.8537 62.7199C76.9337 62.7199 75.3693 62.2488 74.1604 61.3066C72.9693 60.3466 72.3204 59.0666 72.2137 57.4666H75.0404C75.1648 58.391 75.5648 59.1021 76.2404 59.5999C76.9159 60.0799 77.8226 60.3199 78.9604 60.3199C80.0093 60.3199 80.8093 60.1155 81.3604 59.7066C81.9115 59.2977 82.187 58.7199 82.187 57.9732C82.187 56.7999 81.3782 56.0443 79.7604 55.7066L77.1204 55.1199C74.2404 54.5155 72.8004 53.0932 72.8004 50.8532C72.8004 49.431 73.3337 48.2843 74.4004 47.4132C75.467 46.5243 76.8626 46.0799 78.587 46.0799C80.2937 46.0799 81.6982 46.5332 82.8004 47.4399C83.9204 48.3288 84.5515 49.5377 84.6937 51.0666H81.9204C81.7426 50.231 81.3515 49.591 80.747 49.1466C80.1604 48.6843 79.3959 48.4532 78.4537 48.4532C77.547 48.4532 76.827 48.6488 76.2937 49.0399C75.7604 49.431 75.4937 49.9643 75.4937 50.6399C75.4937 51.1732 75.6804 51.6088 76.0537 51.9466C76.427 52.2666 77.0226 52.5155 77.8404 52.6932L80.507 53.2532C81.9648 53.5732 83.0493 54.1066 83.7604 54.8532C84.4893 55.5821 84.8537 56.5421 84.8537 57.7332C84.8537 59.2621 84.3204 60.4799 83.2537 61.3866C82.187 62.2755 80.7204 62.7199 78.8537 62.7199ZM95.13 62.7199C93.69 62.7199 92.4011 62.3821 91.2633 61.7066C90.1255 61.0132 89.2277 60.0443 88.57 58.7999C87.93 57.5377 87.61 56.0532 87.61 54.3466C87.61 52.6577 87.93 51.1999 88.57 49.9732C89.21 48.7288 90.0811 47.7688 91.1833 47.0932C92.2855 46.4177 93.5477 46.0799 94.97 46.0799C96.3033 46.0799 97.4855 46.3821 98.5166 46.9866C99.5655 47.591 100.392 48.4621 100.997 49.5999C101.601 50.7377 101.903 52.0799 101.903 53.6266V54.9066H90.3833C90.49 56.5243 90.97 57.8132 91.8233 58.7732C92.6766 59.7332 93.77 60.2132 95.1033 60.2132C96.0633 60.2132 96.8811 59.9732 97.5566 59.4932C98.2322 59.0132 98.6855 58.3555 98.9166 57.5199H101.85C101.637 58.6043 101.21 59.5377 100.57 60.3199C99.93 61.0843 99.1477 61.6799 98.2233 62.1066C97.2989 62.5155 96.2677 62.7199 95.13 62.7199ZM90.5166 52.7199H99.1033C98.9789 51.4043 98.5433 50.3821 97.7966 49.6532C97.05 48.9243 96.0989 48.5599 94.9433 48.5599C93.8055 48.5599 92.8455 48.9332 92.0633 49.6799C91.2811 50.4088 90.7655 51.4221 90.5166 52.7199ZM106.154 62.3999V46.3999H108.9V49.5999H109.007C109.363 48.6043 109.94 47.8043 110.74 47.1999C111.558 46.5777 112.554 46.2666 113.727 46.2666H114.9V48.8266H113.567C112.091 48.8266 110.963 49.2977 110.18 50.2399C109.416 51.1821 109.034 52.4532 109.034 54.0532V62.3999H106.154ZM130.275 62.6932C128.693 62.6932 127.404 62.2488 126.408 61.3599C125.431 60.4532 124.942 59.2888 124.942 57.8666C124.942 56.3555 125.431 55.1821 126.408 54.3466C127.404 53.4932 128.808 53.0666 130.622 53.0666H135.288V52.2666C135.288 51.0932 134.968 50.1866 134.328 49.5466C133.706 48.8888 132.826 48.5599 131.688 48.5599C130.746 48.5599 129.964 48.7821 129.342 49.2266C128.737 49.6532 128.337 50.2666 128.142 51.0666H125.208C125.475 49.5199 126.195 48.3021 127.368 47.4132C128.542 46.5243 129.999 46.0799 131.742 46.0799C133.715 46.0799 135.253 46.6132 136.355 47.6799C137.475 48.7466 138.035 50.2488 138.035 52.1866V62.3999H135.315V59.6266H135.208C134.799 60.5688 134.151 61.3155 133.262 61.8666C132.373 62.4177 131.377 62.6932 130.275 62.6932ZM130.862 60.2932C131.697 60.2932 132.444 60.0977 133.102 59.7066C133.777 59.3155 134.311 58.791 134.702 58.1332C135.093 57.4577 135.288 56.711 135.288 55.8932V55.2532H130.808C129.777 55.2532 128.986 55.4755 128.435 55.9199C127.902 56.3466 127.635 56.951 127.635 57.7332C127.635 58.5155 127.928 59.1377 128.515 59.5999C129.102 60.0621 129.884 60.2932 130.862 60.2932ZM142.767 62.3999V46.3999H145.62V48.9866H145.727C146.189 48.0621 146.838 47.351 147.673 46.8532C148.509 46.3555 149.496 46.1066 150.633 46.1066C151.789 46.1066 152.811 46.391 153.7 46.9599C154.589 47.511 155.282 48.2755 155.78 49.2532C156.278 50.231 156.527 51.351 156.527 52.6132V62.3999H153.647V53.1199C153.647 51.751 153.291 50.6755 152.58 49.8932C151.887 49.111 150.909 48.7199 149.647 48.7199C148.384 48.7199 147.398 49.111 146.687 49.8932C145.993 50.6755 145.647 51.751 145.647 53.1199V62.3999H142.767ZM167 62.7199C165.667 62.7199 164.502 62.3732 163.507 61.6799C162.511 60.9866 161.738 60.0177 161.187 58.7732C160.636 57.511 160.36 56.0532 160.36 54.3999C160.36 52.7288 160.636 51.271 161.187 50.0266C161.738 48.7821 162.511 47.8132 163.507 47.1199C164.502 46.4266 165.667 46.0799 167 46.0799C169.347 46.0799 170.973 47.0488 171.88 48.9866H171.987V39.9999H174.867V62.3999H172.013V59.7866H171.907C170.982 61.7421 169.347 62.7199 167 62.7199ZM167.773 60.1599C169.107 60.1599 170.138 59.7421 170.867 58.9066C171.613 58.0532 171.987 56.9421 171.987 55.5732V53.2266C171.987 51.8577 171.613 50.7555 170.867 49.9199C170.138 49.0666 169.107 48.6399 167.773 48.6399C166.404 48.6399 165.302 49.1643 164.467 50.2132C163.649 51.2621 163.24 52.6577 163.24 54.3999C163.24 56.1421 163.649 57.5377 164.467 58.5866C165.302 59.6355 166.404 60.1599 167.773 60.1599ZM191.028 62.3999C190.211 62.3999 189.571 62.1866 189.108 61.7599C188.646 61.3155 188.415 60.6577 188.415 59.7866V48.6932H185.695V46.3999H188.442V41.5999H191.268V46.3999H195.082V48.6932H191.295V60.1066H195.455V62.3999H191.028ZM197.319 68.7999V66.5066H200.945L202.412 62.4799L195.719 46.3999H198.705L203.799 58.9066H203.905L208.385 46.3999H211.292L205.265 62.3999L203.852 66.1599C203.532 66.9955 203.185 67.6443 202.812 68.1066C202.456 68.5688 201.852 68.7999 200.999 68.7999H197.319ZM213.892 68.7999V46.3999H216.745V49.0132H216.852C217.776 47.0577 219.412 46.0799 221.758 46.0799C223.092 46.0799 224.256 46.4266 225.252 47.1199C226.247 47.8132 227.021 48.7821 227.572 50.0266C228.123 51.271 228.398 52.7288 228.398 54.3999C228.398 56.0532 228.123 57.511 227.572 58.7732C227.021 60.0177 226.247 60.9866 225.252 61.6799C224.256 62.3732 223.092 62.7199 221.758 62.7199C219.412 62.7199 217.785 61.751 216.878 59.8132H216.772V68.7999H213.892ZM220.985 60.1599C222.372 60.1599 223.474 59.6355 224.292 58.5866C225.109 57.5377 225.518 56.1421 225.518 54.3999C225.518 52.6577 225.109 51.2621 224.292 50.2132C223.474 49.1643 222.372 48.6399 220.985 48.6399C219.652 48.6399 218.612 49.0666 217.865 49.9199C217.136 50.7555 216.772 51.8577 216.772 53.2266V55.5732C216.772 56.9421 217.136 58.0443 217.865 58.8799C218.612 59.6977 219.652 60.1243 220.985 60.1599ZM238.974 62.7199C237.534 62.7199 236.245 62.3821 235.107 61.7066C233.969 61.0132 233.071 60.0443 232.414 58.7999C231.774 57.5377 231.454 56.0532 231.454 54.3466C231.454 52.6577 231.774 51.1999 232.414 49.9732C233.054 48.7288 233.925 47.7688 235.027 47.0932C236.129 46.4177 237.391 46.0799 238.814 46.0799C240.147 46.0799 241.329 46.3821 242.36 46.9866C243.409 47.591 244.236 48.4621 244.84 49.5999C245.445 50.7377 245.747 52.0799 245.747 53.6266V54.9066H234.227C234.334 56.5243 234.814 57.8132 235.667 58.7732C236.52 59.7332 237.614 60.2132 238.947 60.2132C239.907 60.2132 240.725 59.9732 241.4 59.4932C242.076 59.0132 242.529 58.3555 242.76 57.5199H245.694C245.48 58.6043 245.054 59.5377 244.414 60.3199C243.774 61.0843 242.991 61.6799 242.067 62.1066C241.143 62.5155 240.111 62.7199 238.974 62.7199ZM234.36 52.7199H242.947C242.823 51.4043 242.387 50.3821 241.64 49.6532C240.894 48.9243 239.943 48.5599 238.787 48.5599C237.649 48.5599 236.689 48.9332 235.907 49.6799C235.125 50.4088 234.609 51.4221 234.36 52.7199ZM261.744 62.6932C260.161 62.6932 258.873 62.2488 257.877 61.3599C256.899 60.4532 256.41 59.2888 256.41 57.8666C256.41 56.3555 256.899 55.1821 257.877 54.3466C258.873 53.4932 260.277 53.0666 262.09 53.0666H266.757V52.2666C266.757 51.0932 266.437 50.1866 265.797 49.5466C265.175 48.8888 264.295 48.5599 263.157 48.5599C262.215 48.5599 261.433 48.7821 260.81 49.2266C260.206 49.6532 259.806 50.2666 259.61 51.0666H256.677C256.944 49.5199 257.664 48.3021 258.837 47.4132C260.01 46.5243 261.468 46.0799 263.21 46.0799C265.184 46.0799 266.721 46.6132 267.824 47.6799C268.944 48.7466 269.504 50.2488 269.504 52.1866V62.3999H266.784V59.6266H266.677C266.268 60.5688 265.619 61.3155 264.73 61.8666C263.841 62.4177 262.846 62.6932 261.744 62.6932ZM262.33 60.2932C263.166 60.2932 263.913 60.0977 264.57 59.7066C265.246 59.3155 265.779 58.791 266.17 58.1332C266.561 57.4577 266.757 56.711 266.757 55.8932V55.2532H262.277C261.246 55.2532 260.455 55.4755 259.904 55.9199C259.37 56.3466 259.104 56.951 259.104 57.7332C259.104 58.5155 259.397 59.1377 259.984 59.5999C260.57 60.0621 261.353 60.2932 262.33 60.2932ZM4.90663 102.4L0.319966 86.3999H3.2533L6.6133 98.8532H6.71997L10.64 86.3999H13.6266L17.5466 98.8532H17.6533L21.0133 86.3999H23.8933L19.3066 102.4H16.1066L12.16 89.9199H12.0533L8.10663 102.4H4.90663ZM32.88 102.72C31.44 102.72 30.1511 102.382 29.0133 101.707C27.8755 101.013 26.9777 100.044 26.32 98.7999C25.68 97.5377 25.36 96.0532 25.36 94.3466C25.36 92.6577 25.68 91.1999 26.32 89.9732C26.96 88.7288 27.8311 87.7688 28.9333 87.0932C30.0355 86.4177 31.2977 86.0799 32.72 86.0799C34.0533 86.0799 35.2355 86.3821 36.2666 86.9866C37.3155 87.591 38.1422 88.4621 38.7466 89.5999C39.3511 90.7377 39.6533 92.0799 39.6533 93.6266V94.9066H28.1333C28.24 96.5243 28.72 97.8132 29.5733 98.7732C30.4266 99.7332 31.52 100.213 32.8533 100.213C33.8133 100.213 34.6311 99.9732 35.3066 99.4932C35.9822 99.0132 36.4355 98.3555 36.6666 97.5199H39.6C39.3866 98.6043 38.96 99.5377 38.32 100.32C37.68 101.084 36.8977 101.68 35.9733 102.107C35.0489 102.515 34.0177 102.72 32.88 102.72ZM28.2666 92.7199H36.8533C36.7289 91.4043 36.2933 90.3821 35.5466 89.6532C34.8 88.9243 33.8489 88.5599 32.6933 88.5599C31.5555 88.5599 30.5955 88.9332 29.8133 89.6799C29.0311 90.4088 28.5155 91.4221 28.2666 92.7199ZM51.477 102.72C49.1304 102.72 47.4948 101.742 46.5704 99.7866H46.4637V102.4H43.6104V79.9999H46.4904V88.9866H46.597C47.5037 87.0488 49.1304 86.0799 51.477 86.0799C52.8104 86.0799 53.9748 86.4266 54.9704 87.1199C55.9659 87.8132 56.7393 88.7821 57.2904 90.0266C57.8415 91.271 58.1171 92.7288 58.1171 94.3999C58.1171 96.0532 57.8415 97.511 57.2904 98.7732C56.7393 100.018 55.9659 100.987 54.9704 101.68C53.9748 102.373 52.8104 102.72 51.477 102.72ZM50.7037 100.16C52.0904 100.16 53.1926 99.6355 54.0104 98.5866C54.8282 97.5377 55.237 96.1421 55.237 94.3999C55.237 92.6577 54.8282 91.2621 54.0104 90.2132C53.1926 89.1643 52.0904 88.6399 50.7037 88.6399C49.3704 88.6399 48.3304 89.0666 47.5837 89.9199C46.8548 90.7555 46.4904 91.8577 46.4904 93.2266V95.5732C46.4904 96.9421 46.8548 98.0532 47.5837 98.9066C48.3304 99.7421 49.3704 100.16 50.7037 100.16ZM67.5725 102.72C65.6525 102.72 64.088 102.249 62.8791 101.307C61.688 100.347 61.0391 99.0666 60.9325 97.4666H63.7591C63.8836 98.391 64.2836 99.1021 64.9591 99.5999C65.6347 100.08 66.5414 100.32 67.6791 100.32C68.728 100.32 69.528 100.115 70.0791 99.7066C70.6302 99.2977 70.9058 98.7199 70.9058 97.9732C70.9058 96.7999 70.0969 96.0443 68.4791 95.7066L65.8391 95.1199C62.9591 94.5155 61.5191 93.0932 61.5191 90.8532C61.5191 89.431 62.0525 88.2843 63.1191 87.4132C64.1858 86.5243 65.5814 86.0799 67.3058 86.0799C69.0125 86.0799 70.4169 86.5332 71.5191 87.4399C72.6391 88.3288 73.2702 89.5377 73.4125 91.0666H70.6391C70.4614 90.231 70.0702 89.591 69.4658 89.1466C68.8791 88.6843 68.1147 88.4532 67.1725 88.4532C66.2658 88.4532 65.5458 88.6488 65.0125 89.0399C64.4791 89.431 64.2125 89.9643 64.2125 90.6399C64.2125 91.1732 64.3991 91.6088 64.7725 91.9466C65.1458 92.2666 65.7414 92.5155 66.5591 92.6932L69.2258 93.2532C70.6836 93.5732 71.768 94.1066 72.4791 94.8532C73.208 95.5821 73.5725 96.5421 73.5725 97.7332C73.5725 99.2621 73.0391 100.48 71.9725 101.387C70.9058 102.275 69.4391 102.72 67.5725 102.72ZM77.3154 102.4V86.3999H80.1954V102.4H77.3154ZM78.7554 84.2132C78.2576 84.2132 77.8309 84.0355 77.4754 83.6799C77.1198 83.3243 76.942 82.8977 76.942 82.3999C76.942 81.9021 77.1198 81.4755 77.4754 81.1199C77.8309 80.7643 78.2576 80.5866 78.7554 80.5866C79.2532 80.5866 79.6798 80.7643 80.0354 81.1199C80.3909 81.4755 80.5687 81.9021 80.5687 82.3999C80.5687 82.8977 80.3909 83.3243 80.0354 83.6799C79.6798 84.0355 79.2532 84.2132 78.7554 84.2132ZM88.5283 102.4C87.7105 102.4 87.0705 102.187 86.6083 101.76C86.1461 101.315 85.915 100.658 85.915 99.7866V88.6932H83.195V86.3999H85.9416V81.5999H88.7683V86.3999H92.5816V88.6932H88.795V100.107H92.955V102.4H88.5283ZM102.63 102.72C101.19 102.72 99.9011 102.382 98.7633 101.707C97.6255 101.013 96.7277 100.044 96.07 98.7999C95.43 97.5377 95.11 96.0532 95.11 94.3466C95.11 92.6577 95.43 91.1999 96.07 89.9732C96.71 88.7288 97.5811 87.7688 98.6833 87.0932C99.7855 86.4177 101.048 86.0799 102.47 86.0799C103.803 86.0799 104.986 86.3821 106.017 86.9866C107.066 87.591 107.892 88.4621 108.497 89.5999C109.101 90.7377 109.403 92.0799 109.403 93.6266V94.9066H97.8833C97.99 96.5243 98.47 97.8132 99.3233 98.7732C100.177 99.7332 101.27 100.213 102.603 100.213C103.563 100.213 104.381 99.9732 105.057 99.4932C105.732 99.0132 106.186 98.3555 106.417 97.5199H109.35C109.137 98.6043 108.71 99.5377 108.07 100.32C107.43 101.084 106.648 101.68 105.723 102.107C104.799 102.515 103.768 102.72 102.63 102.72ZM98.0166 92.7199H106.603C106.479 91.4043 106.043 90.3821 105.297 89.6532C104.55 88.9243 103.599 88.5599 102.443 88.5599C101.306 88.5599 100.346 88.9332 99.5633 89.6799C98.7811 90.4088 98.2655 91.4221 98.0166 92.7199ZM125.4 102.693C123.818 102.693 122.529 102.249 121.533 101.36C120.556 100.453 120.067 99.2888 120.067 97.8666C120.067 96.3555 120.556 95.1821 121.533 94.3466C122.529 93.4932 123.933 93.0666 125.747 93.0666H130.413V92.2666C130.413 91.0932 130.093 90.1866 129.453 89.5466C128.831 88.8888 127.951 88.5599 126.813 88.5599C125.871 88.5599 125.089 88.7821 124.467 89.2266C123.862 89.6532 123.462 90.2666 123.267 91.0666H120.333C120.6 89.5199 121.32 88.3021 122.493 87.4132C123.667 86.5243 125.124 86.0799 126.867 86.0799C128.84 86.0799 130.378 86.6132 131.48 87.6799C132.6 88.7466 133.16 90.2488 133.16 92.1866V102.4H130.44V99.6266H130.333C129.924 100.569 129.276 101.315 128.387 101.867C127.498 102.418 126.502 102.693 125.4 102.693ZM125.987 100.293C126.822 100.293 127.569 100.098 128.227 99.7066C128.902 99.3155 129.436 98.791 129.827 98.1332C130.218 97.4577 130.413 96.711 130.413 95.8932V95.2532H125.933C124.902 95.2532 124.111 95.4755 123.56 95.9199C123.027 96.3466 122.76 96.951 122.76 97.7332C122.76 98.5155 123.053 99.1377 123.64 99.5999C124.227 100.062 125.009 100.293 125.987 100.293ZM143.625 102.72C142.292 102.72 141.127 102.373 140.132 101.68C139.136 100.987 138.363 100.018 137.812 98.7732C137.261 97.511 136.985 96.0532 136.985 94.3999C136.985 92.7288 137.261 91.271 137.812 90.0266C138.363 88.7821 139.136 87.8132 140.132 87.1199C141.127 86.4266 142.292 86.0799 143.625 86.0799C145.972 86.0799 147.598 87.0488 148.505 88.9866H148.612V79.9999H151.492V102.4H148.638V99.7866H148.532C147.607 101.742 145.972 102.72 143.625 102.72ZM144.398 100.16C145.732 100.16 146.763 99.7421 147.492 98.9066C148.238 98.0532 148.612 96.9421 148.612 95.5732V93.2266C148.612 91.8577 148.238 90.7555 147.492 89.9199C146.763 89.0666 145.732 88.6399 144.398 88.6399C143.029 88.6399 141.927 89.1643 141.092 90.2132C140.274 91.2621 139.865 92.6577 139.865 94.3999C139.865 96.1421 140.274 97.5377 141.092 98.5866C141.927 99.6355 143.029 100.16 144.398 100.16ZM162.094 102.72C160.76 102.72 159.596 102.373 158.6 101.68C157.605 100.987 156.831 100.018 156.28 98.7732C155.729 97.511 155.454 96.0532 155.454 94.3999C155.454 92.7288 155.729 91.271 156.28 90.0266C156.831 88.7821 157.605 87.8132 158.6 87.1199C159.596 86.4266 160.76 86.0799 162.094 86.0799C164.44 86.0799 166.067 87.0488 166.974 88.9866H167.08V79.9999H169.96V102.4H167.107V99.7866H167C166.076 101.742 164.44 102.72 162.094 102.72ZM162.867 100.16C164.2 100.16 165.231 99.7421 165.96 98.9066C166.707 98.0532 167.08 96.9421 167.08 95.5732V93.2266C167.08 91.8577 166.707 90.7555 165.96 89.9199C165.231 89.0666 164.2 88.6399 162.867 88.6399C161.498 88.6399 160.396 89.1643 159.56 90.2132C158.743 91.2621 158.334 92.6577 158.334 94.3999C158.334 96.1421 158.743 97.5377 159.56 98.5866C160.396 99.6355 161.498 100.16 162.867 100.16ZM175.122 102.4V86.3999H177.869V89.5999H177.976C178.331 88.6043 178.909 87.8043 179.709 87.1999C180.527 86.5777 181.522 86.2666 182.696 86.2666H183.869V88.8266H182.536C181.06 88.8266 179.931 89.2977 179.149 90.2399C178.385 91.1821 178.002 92.4532 178.002 94.0532V102.4H175.122ZM193.005 102.72C191.565 102.72 190.276 102.382 189.138 101.707C188.001 101.013 187.103 100.044 186.445 98.7999C185.805 97.5377 185.485 96.0532 185.485 94.3466C185.485 92.6577 185.805 91.1999 186.445 89.9732C187.085 88.7288 187.956 87.7688 189.058 87.0932C190.161 86.4177 191.423 86.0799 192.845 86.0799C194.178 86.0799 195.361 86.3821 196.392 86.9866C197.441 87.591 198.267 88.4621 198.872 89.5999C199.476 90.7377 199.778 92.0799 199.778 93.6266V94.9066H188.258C188.365 96.5243 188.845 97.8132 189.698 98.7732C190.552 99.7332 191.645 100.213 192.978 100.213C193.938 100.213 194.756 99.9732 195.432 99.4932C196.107 99.0132 196.561 98.3555 196.792 97.5199H199.725C199.512 98.6043 199.085 99.5377 198.445 100.32C197.805 101.084 197.023 101.68 196.098 102.107C195.174 102.515 194.143 102.72 193.005 102.72ZM188.392 92.7199H196.978C196.854 91.4043 196.418 90.3821 195.672 89.6532C194.925 88.9243 193.974 88.5599 192.818 88.5599C191.681 88.5599 190.721 88.9332 189.938 89.6799C189.156 90.4088 188.641 91.4221 188.392 92.7199ZM209.229 102.72C207.309 102.72 205.744 102.249 204.535 101.307C203.344 100.347 202.695 99.0666 202.589 97.4666H205.415C205.54 98.391 205.94 99.1021 206.615 99.5999C207.291 100.08 208.198 100.32 209.335 100.32C210.384 100.32 211.184 100.115 211.735 99.7066C212.286 99.2977 212.562 98.7199 212.562 97.9732C212.562 96.7999 211.753 96.0443 210.135 95.7066L207.495 95.1199C204.615 94.5155 203.175 93.0932 203.175 90.8532C203.175 89.431 203.709 88.2843 204.775 87.4132C205.842 86.5243 207.238 86.0799 208.962 86.0799C210.669 86.0799 212.073 86.5332 213.175 87.4399C214.295 88.3288 214.926 89.5377 215.069 91.0666H212.295C212.118 90.231 211.726 89.591 211.122 89.1466C210.535 88.6843 209.771 88.4532 208.829 88.4532C207.922 88.4532 207.202 88.6488 206.669 89.0399C206.135 89.431 205.869 89.9643 205.869 90.6399C205.869 91.1732 206.055 91.6088 206.429 91.9466C206.802 92.2666 207.398 92.5155 208.215 92.6932L210.882 93.2532C212.34 93.5732 213.424 94.1066 214.135 94.8532C214.864 95.5821 215.229 96.5421 215.229 97.7332C215.229 99.2621 214.695 100.48 213.629 101.387C212.562 102.275 211.095 102.72 209.229 102.72ZM224.385 102.72C222.465 102.72 220.901 102.249 219.692 101.307C218.501 100.347 217.852 99.0666 217.745 97.4666H220.572C220.696 98.391 221.096 99.1021 221.772 99.5999C222.447 100.08 223.354 100.32 224.492 100.32C225.541 100.32 226.341 100.115 226.892 99.7066C227.443 99.2977 227.718 98.7199 227.718 97.9732C227.718 96.7999 226.909 96.0443 225.292 95.7066L222.652 95.1199C219.772 94.5155 218.332 93.0932 218.332 90.8532C218.332 89.431 218.865 88.2843 219.932 87.4132C220.998 86.5243 222.394 86.0799 224.118 86.0799C225.825 86.0799 227.229 86.5332 228.332 87.4399C229.452 88.3288 230.083 89.5377 230.225 91.0666H227.452C227.274 90.231 226.883 89.591 226.278 89.1466C225.692 88.6843 224.927 88.4532 223.985 88.4532C223.078 88.4532 222.358 88.6488 221.825 89.0399C221.292 89.431 221.025 89.9643 221.025 90.6399C221.025 91.1732 221.212 91.6088 221.585 91.9466C221.958 92.2666 222.554 92.5155 223.372 92.6932L226.038 93.2532C227.496 93.5732 228.581 94.1066 229.292 94.8532C230.021 95.5821 230.385 96.5421 230.385 97.7332C230.385 99.2621 229.852 100.48 228.785 101.387C227.718 102.275 226.252 102.72 224.385 102.72ZM232.555 106.72V104.907H233.568C234.048 104.907 234.403 104.782 234.635 104.533C234.883 104.284 235.008 103.929 235.008 103.467V102.4H233.381V98.8266H237.008V103.493C237.008 104.507 236.732 105.298 236.181 105.867C235.63 106.435 234.83 106.72 233.781 106.72H232.555ZM248.444 108.8V106.507H252.07L253.537 102.48L246.844 86.3999H249.83L254.924 98.9066H255.03L259.51 86.3999H262.417L256.39 102.4L254.977 106.16C254.657 106.995 254.31 107.644 253.937 108.107C253.581 108.569 252.977 108.8 252.124 108.8H248.444ZM271.125 102.72C269.685 102.72 268.396 102.382 267.259 101.707C266.121 101.013 265.223 100.044 264.565 98.7999C263.908 97.5555 263.579 96.0888 263.579 94.3999C263.579 92.6932 263.908 91.2177 264.565 89.9732C265.223 88.7288 266.121 87.7688 267.259 87.0932C268.396 86.4177 269.685 86.0799 271.125 86.0799C272.601 86.0799 273.908 86.4177 275.045 87.0932C276.183 87.7688 277.072 88.7288 277.712 89.9732C278.352 91.2177 278.672 92.6932 278.672 94.3999C278.672 96.0888 278.343 97.5643 277.685 98.8266C277.045 100.071 276.156 101.031 275.019 101.707C273.881 102.382 272.583 102.72 271.125 102.72ZM271.125 100.107C272.548 100.107 273.676 99.591 274.512 98.5599C275.365 97.511 275.792 96.1243 275.792 94.3999C275.792 92.6577 275.365 91.271 274.512 90.2399C273.676 89.2088 272.548 88.6932 271.125 88.6932C269.721 88.6932 268.592 89.2088 267.739 90.2399C266.885 91.271 266.459 92.6577 266.459 94.3999C266.459 96.1243 266.885 97.511 267.739 98.5599C268.592 99.591 269.721 100.107 271.125 100.107ZM288.344 102.693C287.188 102.693 286.166 102.427 285.277 101.893C284.406 101.36 283.721 100.613 283.224 99.6532C282.744 98.6932 282.504 97.591 282.504 96.3466V86.3999H285.384V95.7066C285.384 97.0755 285.721 98.151 286.397 98.9332C287.073 99.6977 288.015 100.08 289.224 100.08C290.486 100.08 291.49 99.6799 292.237 98.8799C293.001 98.0621 293.384 96.9955 293.384 95.6799V86.3999H296.264V102.4H293.41V99.6266H293.304C292.859 100.622 292.21 101.387 291.357 101.92C290.504 102.435 289.499 102.693 288.344 102.693ZM301.404 102.4V86.3999H304.15V89.5999H304.257C304.613 88.6043 305.19 87.8043 305.99 87.1999C306.808 86.5777 307.804 86.2666 308.977 86.2666H310.15V88.8266H308.817C307.341 88.8266 306.213 89.2977 305.43 90.2399C304.666 91.1821 304.284 92.4532 304.284 94.0532V102.4H301.404ZM2.55997 142.4V126.4H5.30663V129.6H5.4133C5.76885 128.604 6.34663 127.804 7.14663 127.2C7.96441 126.578 8.95997 126.267 10.1333 126.267H11.3066V128.827H9.9733C8.49774 128.827 7.36885 129.298 6.58663 130.24C5.82219 131.182 5.43997 132.453 5.43997 134.053V142.4H2.55997ZM20.4425 142.72C19.0025 142.72 17.7136 142.382 16.5758 141.707C15.438 141.013 14.5402 140.044 13.8825 138.8C13.2425 137.538 12.9225 136.053 12.9225 134.347C12.9225 132.658 13.2425 131.2 13.8825 129.973C14.5225 128.729 15.3936 127.769 16.4958 127.093C17.598 126.418 18.8602 126.08 20.2825 126.08C21.6158 126.08 22.798 126.382 23.8291 126.987C24.878 127.591 25.7047 128.462 26.3091 129.6C26.9136 130.738 27.2158 132.08 27.2158 133.627V134.907H15.6958C15.8025 136.524 16.2825 137.813 17.1358 138.773C17.9891 139.733 19.0825 140.213 20.4158 140.213C21.3758 140.213 22.1936 139.973 22.8691 139.493C23.5447 139.013 23.998 138.355 24.2291 137.52H27.1625C26.9491 138.604 26.5225 139.538 25.8825 140.32C25.2425 141.084 24.4602 141.68 23.5358 142.107C22.6114 142.515 21.5802 142.72 20.4425 142.72ZM15.8291 132.72H24.4158C24.2914 131.404 23.8558 130.382 23.1091 129.653C22.3625 128.924 21.4114 128.56 20.2558 128.56C19.118 128.56 18.158 128.933 17.3758 129.68C16.5936 130.409 16.078 131.422 15.8291 132.72ZM41.8929 148.8V139.813H41.7862C40.8795 141.751 39.2529 142.72 36.9062 142.72C35.5729 142.72 34.4084 142.373 33.4129 141.68C32.4173 140.987 31.644 140.018 31.0929 138.773C30.5418 137.511 30.2662 136.053 30.2662 134.4C30.2662 132.729 30.5418 131.271 31.0929 130.027C31.644 128.782 32.4173 127.813 33.4129 127.12C34.4084 126.427 35.5729 126.08 36.9062 126.08C39.2529 126.08 40.8884 127.058 41.8129 129.013H41.9195V126.4H44.7729V148.8H41.8929ZM37.6795 140.16C39.0129 140.124 40.044 139.698 40.7729 138.88C41.5195 138.044 41.8929 136.942 41.8929 135.573V133.227C41.8929 131.858 41.5195 130.755 40.7729 129.92C40.044 129.067 39.0129 128.64 37.6795 128.64C36.3107 128.64 35.2084 129.164 34.3729 130.213C33.5551 131.262 33.1462 132.658 33.1462 134.4C33.1462 136.142 33.5551 137.538 34.3729 138.587C35.2084 139.635 36.3107 140.16 37.6795 140.16ZM55.375 142.693C54.2194 142.693 53.1972 142.427 52.3083 141.893C51.4372 141.36 50.7527 140.613 50.255 139.653C49.775 138.693 49.535 137.591 49.535 136.347V126.4H52.415V135.707C52.415 137.075 52.7527 138.151 53.4283 138.933C54.1039 139.698 55.0461 140.08 56.255 140.08C57.5172 140.08 58.5216 139.68 59.2683 138.88C60.0327 138.062 60.415 136.995 60.415 135.68V126.4H63.295V142.4H60.4416V139.627H60.335C59.8905 140.622 59.2416 141.387 58.3883 141.92C57.535 142.435 56.5305 142.693 55.375 142.693ZM74.755 142.72C73.315 142.72 72.0261 142.382 70.8883 141.707C69.7505 141.013 68.8527 140.044 68.195 138.8C67.555 137.538 67.235 136.053 67.235 134.347C67.235 132.658 67.555 131.2 68.195 129.973C68.835 128.729 69.7061 127.769 70.8083 127.093C71.9105 126.418 73.1727 126.08 74.595 126.08C75.9283 126.08 77.1105 126.382 78.1416 126.987C79.1905 127.591 80.0172 128.462 80.6216 129.6C81.2261 130.738 81.5283 132.08 81.5283 133.627V134.907H70.0083C70.115 136.524 70.595 137.813 71.4483 138.773C72.3016 139.733 73.395 140.213 74.7283 140.213C75.6883 140.213 76.5061 139.973 77.1816 139.493C77.8572 139.013 78.3105 138.355 78.5416 137.52H81.475C81.2616 138.604 80.835 139.538 80.195 140.32C79.555 141.084 78.7727 141.68 77.8483 142.107C76.9239 142.515 75.8927 142.72 74.755 142.72ZM70.1416 132.72H78.7283C78.6039 131.404 78.1683 130.382 77.4216 129.653C76.675 128.924 75.7239 128.56 74.5683 128.56C73.4305 128.56 72.4705 128.933 71.6883 129.68C70.9061 130.409 70.3905 131.422 70.1416 132.72ZM90.9787 142.72C89.0587 142.72 87.4943 142.249 86.2854 141.307C85.0943 140.347 84.4454 139.067 84.3387 137.467H87.1654C87.2898 138.391 87.6898 139.102 88.3654 139.6C89.0409 140.08 89.9476 140.32 91.0854 140.32C92.1343 140.32 92.9343 140.115 93.4854 139.707C94.0365 139.298 94.312 138.72 94.312 137.973C94.312 136.8 93.5032 136.044 91.8854 135.707L89.2454 135.12C86.3654 134.515 84.9254 133.093 84.9254 130.853C84.9254 129.431 85.4587 128.284 86.5254 127.413C87.592 126.524 88.9876 126.08 90.712 126.08C92.4187 126.08 93.8232 126.533 94.9254 127.44C96.0454 128.329 96.6765 129.538 96.8187 131.067H94.0454C93.8676 130.231 93.4765 129.591 92.872 129.147C92.2854 128.684 91.5209 128.453 90.5787 128.453C89.672 128.453 88.952 128.649 88.4187 129.04C87.8854 129.431 87.6187 129.964 87.6187 130.64C87.6187 131.173 87.8054 131.609 88.1787 131.947C88.552 132.267 89.1476 132.515 89.9654 132.693L92.632 133.253C94.0898 133.573 95.1743 134.107 95.8854 134.853C96.6143 135.582 96.9787 136.542 96.9787 137.733C96.9787 139.262 96.4454 140.48 95.3787 141.387C94.312 142.275 92.8454 142.72 90.9787 142.72ZM104.028 142.4C103.211 142.4 102.571 142.187 102.108 141.76C101.646 141.315 101.415 140.658 101.415 139.787V128.693H98.695V126.4H101.442V121.6H104.268V126.4H108.082V128.693H104.295V140.107H108.455V142.4H104.028ZM122.81 142.4C121.992 142.4 121.352 142.187 120.89 141.76C120.427 141.315 120.196 140.658 120.196 139.787V128.693H117.476V126.4H120.223V121.6H123.05V126.4H126.863V128.693H123.076V140.107H127.236V142.4H122.81ZM130.591 142.4V126.4H133.338V129.6H133.445C133.8 128.604 134.378 127.804 135.178 127.2C135.996 126.578 136.991 126.267 138.165 126.267H139.338V128.827H138.005C136.529 128.827 135.4 129.298 134.618 130.24C133.853 131.182 133.471 132.453 133.471 134.053V142.4H130.591ZM146.275 142.693C144.693 142.693 143.404 142.249 142.408 141.36C141.431 140.453 140.942 139.289 140.942 137.867C140.942 136.355 141.431 135.182 142.408 134.347C143.404 133.493 144.808 133.067 146.622 133.067H151.288V132.267C151.288 131.093 150.968 130.187 150.328 129.547C149.706 128.889 148.826 128.56 147.688 128.56C146.746 128.56 145.964 128.782 145.342 129.227C144.737 129.653 144.337 130.267 144.142 131.067H141.208C141.475 129.52 142.195 128.302 143.368 127.413C144.542 126.524 145.999 126.08 147.742 126.08C149.715 126.08 151.253 126.613 152.355 127.68C153.475 128.747 154.035 130.249 154.035 132.187V142.4H151.315V139.627H151.208C150.799 140.569 150.151 141.315 149.262 141.867C148.373 142.418 147.377 142.693 146.275 142.693ZM146.862 140.293C147.697 140.293 148.444 140.098 149.102 139.707C149.777 139.315 150.311 138.791 150.702 138.133C151.093 137.458 151.288 136.711 151.288 135.893V135.253H146.808C145.777 135.253 144.986 135.475 144.435 135.92C143.902 136.347 143.635 136.951 143.635 137.733C143.635 138.515 143.928 139.138 144.515 139.6C145.102 140.062 145.884 140.293 146.862 140.293ZM161.874 142.4L155.687 126.4H158.674L163.501 139.333H163.607L168.381 126.4H171.261L165.074 142.4H161.874ZM179.942 142.72C178.502 142.72 177.214 142.382 176.076 141.707C174.938 141.013 174.04 140.044 173.382 138.8C172.742 137.538 172.422 136.053 172.422 134.347C172.422 132.658 172.742 131.2 173.382 129.973C174.022 128.729 174.894 127.769 175.996 127.093C177.098 126.418 178.36 126.08 179.782 126.08C181.116 126.08 182.298 126.382 183.329 126.987C184.378 127.591 185.205 128.462 185.809 129.6C186.414 130.738 186.716 132.08 186.716 133.627V134.907H175.196C175.302 136.524 175.782 137.813 176.636 138.773C177.489 139.733 178.582 140.213 179.916 140.213C180.876 140.213 181.694 139.973 182.369 139.493C183.045 139.013 183.498 138.355 183.729 137.52H186.662C186.449 138.604 186.022 139.538 185.382 140.32C184.742 141.084 183.96 141.68 183.036 142.107C182.111 142.515 181.08 142.72 179.942 142.72ZM175.329 132.72H183.916C183.791 131.404 183.356 130.382 182.609 129.653C181.862 128.924 180.911 128.56 179.756 128.56C178.618 128.56 177.658 128.933 176.876 129.68C176.094 130.409 175.578 131.422 175.329 132.72ZM190.753 142.4V120H193.633V142.4H190.753ZM204.072 142.72C202.152 142.72 200.588 142.249 199.379 141.307C198.188 140.347 197.539 139.067 197.432 137.467H200.259C200.384 138.391 200.784 139.102 201.459 139.6C202.135 140.08 203.041 140.32 204.179 140.32C205.228 140.32 206.028 140.115 206.579 139.707C207.13 139.298 207.406 138.72 207.406 137.973C207.406 136.8 206.597 136.044 204.979 135.707L202.339 135.12C199.459 134.515 198.019 133.093 198.019 130.853C198.019 129.431 198.552 128.284 199.619 127.413C200.686 126.524 202.081 126.08 203.806 126.08C205.512 126.08 206.917 126.533 208.019 127.44C209.139 128.329 209.77 129.538 209.912 131.067H207.139C206.961 130.231 206.57 129.591 205.966 129.147C205.379 128.684 204.615 128.453 203.672 128.453C202.766 128.453 202.046 128.649 201.512 129.04C200.979 129.431 200.712 129.964 200.712 130.64C200.712 131.173 200.899 131.609 201.272 131.947C201.646 132.267 202.241 132.515 203.059 132.693L205.726 133.253C207.184 133.573 208.268 134.107 208.979 134.853C209.708 135.582 210.072 136.542 210.072 137.733C210.072 139.262 209.539 140.48 208.472 141.387C207.406 142.275 205.939 142.72 204.072 142.72ZM222.628 142.4V128.693H219.695V126.4H222.655V122.693C222.655 121.787 222.886 121.111 223.348 120.667C223.828 120.222 224.495 120 225.348 120H229.402V122.293H225.482V126.4H229.082V128.693H225.508V142.4H222.628ZM232.279 142.4V126.4H235.025V129.6H235.132C235.488 128.604 236.065 127.804 236.865 127.2C237.683 126.578 238.679 126.267 239.852 126.267H241.025V128.827H239.692C238.216 128.827 237.088 129.298 236.305 130.24C235.541 131.182 235.159 132.453 235.159 134.053V142.4H232.279ZM250.188 142.72C248.748 142.72 247.459 142.382 246.321 141.707C245.183 141.013 244.286 140.044 243.628 138.8C242.97 137.555 242.641 136.089 242.641 134.4C242.641 132.693 242.97 131.218 243.628 129.973C244.286 128.729 245.183 127.769 246.321 127.093C247.459 126.418 248.748 126.08 250.188 126.08C251.663 126.08 252.97 126.418 254.108 127.093C255.246 127.769 256.135 128.729 256.775 129.973C257.415 131.218 257.735 132.693 257.735 134.4C257.735 136.089 257.406 137.564 256.748 138.827C256.108 140.071 255.219 141.031 254.081 141.707C252.943 142.382 251.646 142.72 250.188 142.72ZM250.188 140.107C251.61 140.107 252.739 139.591 253.575 138.56C254.428 137.511 254.855 136.124 254.855 134.4C254.855 132.658 254.428 131.271 253.575 130.24C252.739 129.209 251.61 128.693 250.188 128.693C248.783 128.693 247.655 129.209 246.801 130.24C245.948 131.271 245.521 132.658 245.521 134.4C245.521 136.124 245.948 137.511 246.801 138.56C247.655 139.591 248.783 140.107 250.188 140.107ZM261.673 142.4V126.4H264.5V128.987H264.606C265.015 128.044 265.611 127.333 266.393 126.853C267.193 126.355 268.126 126.107 269.193 126.107C270.277 126.107 271.237 126.373 272.073 126.907C272.926 127.422 273.575 128.169 274.02 129.147H274.1C274.633 128.169 275.326 127.422 276.18 126.907C277.033 126.373 278.02 126.107 279.14 126.107C280.277 126.107 281.282 126.373 282.153 126.907C283.024 127.422 283.691 128.16 284.153 129.12C284.633 130.08 284.873 131.209 284.873 132.507V142.4H281.993V132.933C281.993 131.6 281.673 130.569 281.033 129.84C280.393 129.093 279.504 128.72 278.366 128.72C277.246 128.72 276.357 129.093 275.7 129.84C275.042 130.569 274.713 131.6 274.713 132.933V142.4H271.833V132.933C271.833 131.6 271.504 130.569 270.846 129.84C270.206 129.093 269.317 128.72 268.18 128.72C267.06 128.72 266.171 129.093 265.513 129.84C264.873 130.569 264.553 131.6 264.553 132.933V142.4H261.673ZM1.59997 188.8V186.507H5.22663L6.6933 182.48L-3.41833e-05 166.4H2.98663L8.07997 178.907H8.18663L12.6666 166.4H15.5733L9.54663 182.4L8.1333 186.16C7.8133 186.995 7.46663 187.644 7.0933 188.107C6.73774 188.569 6.1333 188.8 5.27997 188.8H1.59997ZM24.2816 182.72C22.8416 182.72 21.5527 182.382 20.415 181.707C19.2772 181.013 18.3794 180.044 17.7216 178.8C17.0639 177.555 16.735 176.089 16.735 174.4C16.735 172.693 17.0639 171.218 17.7216 169.973C18.3794 168.729 19.2772 167.769 20.415 167.093C21.5527 166.418 22.8416 166.08 24.2816 166.08C25.7572 166.08 27.0639 166.418 28.2016 167.093C29.3394 167.769 30.2283 168.729 30.8683 169.973C31.5083 171.218 31.8283 172.693 31.8283 174.4C31.8283 176.089 31.4994 177.564 30.8416 178.827C30.2016 180.071 29.3127 181.031 28.175 181.707C27.0372 182.382 25.7394 182.72 24.2816 182.72ZM24.2816 180.107C25.7039 180.107 26.8327 179.591 27.6683 178.56C28.5216 177.511 28.9483 176.124 28.9483 174.4C28.9483 172.658 28.5216 171.271 27.6683 170.24C26.8327 169.209 25.7039 168.693 24.2816 168.693C22.8772 168.693 21.7483 169.209 20.895 170.24C20.0416 171.271 19.615 172.658 19.615 174.4C19.615 176.124 20.0416 177.511 20.895 178.56C21.7483 179.591 22.8772 180.107 24.2816 180.107ZM41.5 182.693C40.3444 182.693 39.3222 182.427 38.4333 181.893C37.5622 181.36 36.8777 180.613 36.38 179.653C35.9 178.693 35.66 177.591 35.66 176.347V166.4H38.54V175.707C38.54 177.075 38.8777 178.151 39.5533 178.933C40.2289 179.698 41.1711 180.08 42.38 180.08C43.6422 180.08 44.6466 179.68 45.3933 178.88C46.1577 178.062 46.54 176.995 46.54 175.68V166.4H49.42V182.4H46.5666V179.627H46.46C46.0155 180.622 45.3666 181.387 44.5133 181.92C43.66 182.435 42.6555 182.693 41.5 182.693ZM54.56 182.4V166.4H57.3066V169.6H57.4133C57.7689 168.604 58.3466 167.804 59.1466 167.2C59.9644 166.578 60.96 166.267 62.1333 166.267H63.3066V168.827H61.9733C60.4977 168.827 59.3689 169.298 58.5866 170.24C57.8222 171.182 57.44 172.453 57.44 174.053V182.4H54.56ZM81.1079 182.72C79.6857 182.72 78.4057 182.382 77.2679 181.707C76.1479 181.013 75.259 180.044 74.6012 178.8C73.9612 177.555 73.6412 176.089 73.6412 174.4C73.6412 172.693 73.9612 171.218 74.6012 169.973C75.259 168.729 76.1479 167.769 77.2679 167.093C78.4057 166.418 79.6857 166.08 81.1079 166.08C82.2279 166.08 83.2501 166.293 84.1745 166.72C85.1168 167.129 85.9079 167.751 86.5479 168.587C87.2057 169.404 87.659 170.444 87.9079 171.707H84.9212C84.6723 170.658 84.2012 169.893 83.5079 169.413C82.8323 168.933 82.0323 168.693 81.1079 168.693C79.739 168.693 78.6279 169.209 77.7745 170.24C76.939 171.271 76.5212 172.658 76.5212 174.4C76.5212 176.124 76.939 177.511 77.7745 178.56C78.6279 179.591 79.739 180.107 81.1079 180.107C82.0857 180.107 82.9212 179.849 83.6145 179.333C84.3257 178.818 84.8145 177.982 85.0812 176.827H87.9879C87.7568 178.142 87.3123 179.235 86.6545 180.107C85.9968 180.978 85.1968 181.635 84.2545 182.08C83.3123 182.507 82.2634 182.72 81.1079 182.72ZM97.7816 182.72C96.3416 182.72 95.0527 182.382 93.915 181.707C92.7772 181.013 91.8794 180.044 91.2216 178.8C90.5639 177.555 90.235 176.089 90.235 174.4C90.235 172.693 90.5639 171.218 91.2216 169.973C91.8794 168.729 92.7772 167.769 93.915 167.093C95.0527 166.418 96.3416 166.08 97.7816 166.08C99.2572 166.08 100.564 166.418 101.702 167.093C102.839 167.769 103.728 168.729 104.368 169.973C105.008 171.218 105.328 172.693 105.328 174.4C105.328 176.089 104.999 177.564 104.342 178.827C103.702 180.071 102.813 181.031 101.675 181.707C100.537 182.382 99.2394 182.72 97.7816 182.72ZM97.7816 180.107C99.2039 180.107 100.333 179.591 101.168 178.56C102.022 177.511 102.448 176.124 102.448 174.4C102.448 172.658 102.022 171.271 101.168 170.24C100.333 169.209 99.2039 168.693 97.7816 168.693C96.3772 168.693 95.2483 169.209 94.395 170.24C93.5416 171.271 93.115 172.658 93.115 174.4C93.115 176.124 93.5416 177.511 94.395 178.56C95.2483 179.591 96.3772 180.107 97.7816 180.107ZM109.267 182.4V166.4H112.093V168.987H112.2C112.609 168.044 113.204 167.333 113.987 166.853C114.787 166.355 115.72 166.107 116.787 166.107C117.871 166.107 118.831 166.373 119.667 166.907C120.52 167.422 121.169 168.169 121.613 169.147H121.693C122.227 168.169 122.92 167.422 123.773 166.907C124.627 166.373 125.613 166.107 126.733 166.107C127.871 166.107 128.876 166.373 129.747 166.907C130.618 167.422 131.284 168.16 131.747 169.12C132.227 170.08 132.467 171.209 132.467 172.507V182.4H129.587V172.933C129.587 171.6 129.267 170.569 128.627 169.84C127.987 169.093 127.098 168.72 125.96 168.72C124.84 168.72 123.951 169.093 123.293 169.84C122.636 170.569 122.307 171.6 122.307 172.933V182.4H119.427V172.933C119.427 171.6 119.098 170.569 118.44 169.84C117.8 169.093 116.911 168.72 115.773 168.72C114.653 168.72 113.764 169.093 113.107 169.84C112.467 170.569 112.147 171.6 112.147 172.933V182.4H109.267ZM137.204 188.8V166.4H140.057V169.013H140.164C141.089 167.058 142.724 166.08 145.071 166.08C146.404 166.08 147.569 166.427 148.564 167.12C149.56 167.813 150.333 168.782 150.884 170.027C151.435 171.271 151.711 172.729 151.711 174.4C151.711 176.053 151.435 177.511 150.884 178.773C150.333 180.018 149.56 180.987 148.564 181.68C147.569 182.373 146.404 182.72 145.071 182.72C142.724 182.72 141.097 181.751 140.191 179.813H140.084V188.8H137.204ZM144.297 180.16C145.684 180.16 146.786 179.635 147.604 178.587C148.422 177.538 148.831 176.142 148.831 174.4C148.831 172.658 148.422 171.262 147.604 170.213C146.786 169.164 145.684 168.64 144.297 168.64C142.964 168.64 141.924 169.067 141.177 169.92C140.449 170.755 140.084 171.858 140.084 173.227V175.573C140.084 176.942 140.449 178.044 141.177 178.88C141.924 179.698 142.964 180.124 144.297 180.16ZM161.406 182.693C160.251 182.693 159.228 182.427 158.34 181.893C157.468 181.36 156.784 180.613 156.286 179.653C155.806 178.693 155.566 177.591 155.566 176.347V166.4H158.446V175.707C158.446 177.075 158.784 178.151 159.46 178.933C160.135 179.698 161.077 180.08 162.286 180.08C163.548 180.08 164.553 179.68 165.3 178.88C166.064 178.062 166.446 176.995 166.446 175.68V166.4H169.326V182.4H166.473V179.627H166.366C165.922 180.622 165.273 181.387 164.42 181.92C163.566 182.435 162.562 182.693 161.406 182.693ZM177.56 182.4C176.742 182.4 176.102 182.187 175.64 181.76C175.177 181.315 174.946 180.658 174.946 179.787V168.693H172.226V166.4H174.973V161.6H177.8V166.4H181.613V168.693H177.826V180.107H181.986V182.4H177.56ZM191.661 182.72C190.221 182.72 188.932 182.382 187.795 181.707C186.657 181.013 185.759 180.044 185.101 178.8C184.461 177.538 184.141 176.053 184.141 174.347C184.141 172.658 184.461 171.2 185.101 169.973C185.741 168.729 186.612 167.769 187.715 167.093C188.817 166.418 190.079 166.08 191.501 166.08C192.835 166.08 194.017 166.382 195.048 166.987C196.097 167.591 196.923 168.462 197.528 169.6C198.132 170.738 198.435 172.08 198.435 173.627V174.907H186.915C187.021 176.524 187.501 177.813 188.355 178.773C189.208 179.733 190.301 180.213 191.635 180.213C192.595 180.213 193.412 179.973 194.088 179.493C194.763 179.013 195.217 178.355 195.448 177.52H198.381C198.168 178.604 197.741 179.538 197.101 180.32C196.461 181.084 195.679 181.68 194.755 182.107C193.83 182.515 192.799 182.72 191.661 182.72ZM187.048 172.72H195.635C195.51 171.404 195.075 170.382 194.328 169.653C193.581 168.924 192.63 168.56 191.475 168.56C190.337 168.56 189.377 168.933 188.595 169.68C187.812 170.409 187.297 171.422 187.048 172.72ZM202.685 182.4V166.4H205.432V169.6H205.538C205.894 168.604 206.472 167.804 207.272 167.2C208.089 166.578 209.085 166.267 210.258 166.267H211.432V168.827H210.098C208.623 168.827 207.494 169.298 206.712 170.24C205.947 171.182 205.565 172.453 205.565 174.053V182.4H202.685Z" fill="black"/>
</svg>
