<svg width="402" height="96" viewBox="0 0 402 96" fill="none" xmlns="http://www.w3.org/2000/svg">
<path d="M8.91329 19.6H6.34662V2.98664H0.139956V0.699975H15.12V2.98664H8.91329V19.6ZM17.8088 19.6V-2.40803e-05H20.3288V7.65331H20.4221C20.8265 6.93775 21.3943 6.36998 22.1254 5.94998C22.8565 5.52998 23.7121 5.31998 24.6921 5.31998C25.7032 5.31998 26.5976 5.56109 27.3754 6.04331C28.1532 6.52553 28.7599 7.19442 29.1954 8.04997C29.631 8.90553 29.8488 9.90109 29.8488 11.0366V19.6H27.3288V11.41C27.3288 10.1966 27.0176 9.25553 26.3954 8.58664C25.7888 7.91775 24.9332 7.58331 23.8288 7.58331C22.7243 7.58331 21.861 7.91775 21.2388 8.58664C20.6321 9.25553 20.3288 10.1966 20.3288 11.41V19.6H17.8088ZM39.7829 19.88C38.5229 19.88 37.3951 19.5844 36.3996 18.9933C35.404 18.3866 34.6185 17.5389 34.0429 16.45C33.4829 15.3455 33.2029 14.0466 33.2029 12.5533C33.2029 11.0755 33.4829 9.79998 34.0429 8.72664C34.6029 7.63775 35.3651 6.79775 36.3296 6.20664C37.294 5.61553 38.3985 5.31998 39.6429 5.31998C40.8096 5.31998 41.844 5.58442 42.7463 6.11331C43.664 6.6422 44.3874 7.40442 44.9163 8.39998C45.4451 9.39553 45.7096 10.57 45.7096 11.9233V13.0433H35.6296C35.7229 14.4589 36.1429 15.5866 36.8896 16.4266C37.6363 17.2666 38.5929 17.6866 39.7596 17.6866C40.5996 17.6866 41.3151 17.4766 41.9063 17.0566C42.4974 16.6366 42.894 16.0611 43.0963 15.33H45.6629C45.4763 16.2789 45.1029 17.0955 44.5429 17.78C43.9829 18.4489 43.2985 18.97 42.4896 19.3433C41.6807 19.7011 40.7785 19.88 39.7829 19.88ZM35.7463 11.13H43.2596C43.1507 9.97886 42.7696 9.08442 42.1163 8.44664C41.4629 7.80886 40.6307 7.48998 39.6196 7.48998C38.624 7.48998 37.784 7.81664 37.0996 8.46998C36.4151 9.10775 35.964 9.99442 35.7463 11.13ZM56.5333 19.6V0.699975H59.1V19.6H56.5333ZM63.8009 19.6V5.59998H66.2976V7.86331H66.3909C66.7954 7.05442 67.3632 6.4322 68.0943 5.99664C68.8254 5.56109 69.6887 5.34331 70.6843 5.34331C71.6954 5.34331 72.5898 5.5922 73.3676 6.08998C74.1454 6.5722 74.7521 7.24109 75.1876 8.09664C75.6232 8.9522 75.8409 9.9322 75.8409 11.0366V19.6H73.3209V11.48C73.3209 10.2822 73.0098 9.34109 72.3876 8.65664C71.7809 7.9722 70.9254 7.62998 69.8209 7.62998C68.7165 7.62998 67.8532 7.9722 67.2309 8.65664C66.6243 9.34109 66.3209 10.2822 66.3209 11.48V19.6H63.8009ZM82.9518 19.6C82.2362 19.6 81.6762 19.4133 81.2718 19.04C80.8673 18.6511 80.6651 18.0755 80.6651 17.3133V7.60664H78.2851V5.59998H80.6884V1.39997H83.1618V5.59998H86.4984V7.60664H83.1851V17.5933H86.8251V19.6H82.9518ZM95.2907 19.88C94.0307 19.88 92.903 19.5844 91.9074 18.9933C90.9118 18.3866 90.1263 17.5389 89.5507 16.45C88.9907 15.3455 88.7107 14.0466 88.7107 12.5533C88.7107 11.0755 88.9907 9.79998 89.5507 8.72664C90.1107 7.63775 90.873 6.79775 91.8374 6.20664C92.8018 5.61553 93.9063 5.31998 95.1507 5.31998C96.3174 5.31998 97.3518 5.58442 98.2541 6.11331C99.1718 6.6422 99.8952 7.40442 100.424 8.39998C100.953 9.39553 101.217 10.57 101.217 11.9233V13.0433H91.1374C91.2307 14.4589 91.6507 15.5866 92.3974 16.4266C93.1441 17.2666 94.1007 17.6866 95.2674 17.6866C96.1074 17.6866 96.823 17.4766 97.4141 17.0566C98.0052 16.6366 98.4018 16.0611 98.6041 15.33H101.171C100.984 16.2789 100.611 17.0955 100.051 17.78C99.4907 18.4489 98.8063 18.97 97.9974 19.3433C97.1885 19.7011 96.2863 19.88 95.2907 19.88ZM91.2541 11.13H98.7674C98.6585 9.97886 98.2774 9.08442 97.6241 8.44664C96.9707 7.80886 96.1385 7.48998 95.1274 7.48998C94.1318 7.48998 93.2918 7.81664 92.6074 8.46998C91.923 9.10775 91.4718 9.99442 91.2541 11.13ZM104.937 19.6V5.59998H107.34V8.39998H107.433C107.744 7.52886 108.25 6.82886 108.95 6.29997C109.665 5.75553 110.537 5.48331 111.563 5.48331H112.59V7.72331H111.423C110.132 7.72331 109.144 8.13553 108.46 8.95998C107.791 9.78442 107.457 10.8966 107.457 12.2966V19.6H104.937ZM115.508 19.6V5.59998H118.005V7.86331H118.098C118.502 7.05442 119.07 6.4322 119.801 5.99664C120.532 5.56109 121.396 5.34331 122.391 5.34331C123.402 5.34331 124.297 5.5922 125.075 6.08998C125.852 6.5722 126.459 7.24109 126.895 8.09664C127.33 8.9522 127.548 9.9322 127.548 11.0366V19.6H125.028V11.48C125.028 10.2822 124.717 9.34109 124.095 8.65664C123.488 7.9722 122.632 7.62998 121.528 7.62998C120.424 7.62998 119.56 7.9722 118.938 8.65664C118.331 9.34109 118.028 10.2822 118.028 11.48V19.6H115.508ZM137.482 19.88C136.222 19.88 135.094 19.5844 134.099 18.9933C133.103 18.3866 132.318 17.5389 131.742 16.45C131.182 15.3455 130.902 14.0466 130.902 12.5533C130.902 11.0755 131.182 9.79998 131.742 8.72664C132.302 7.63775 133.064 6.79775 134.029 6.20664C134.993 5.61553 136.098 5.31998 137.342 5.31998C138.509 5.31998 139.543 5.58442 140.445 6.11331C141.363 6.6422 142.087 7.40442 142.615 8.39998C143.144 9.39553 143.409 10.57 143.409 11.9233V13.0433H133.329C133.422 14.4589 133.842 15.5866 134.589 16.4266C135.335 17.2666 136.292 17.6866 137.459 17.6866C138.299 17.6866 139.014 17.4766 139.605 17.0566C140.197 16.6366 140.593 16.0611 140.795 15.33H143.362C143.175 16.2789 142.802 17.0955 142.242 17.78C141.682 18.4489 140.998 18.97 140.189 19.3433C139.38 19.7011 138.478 19.88 137.482 19.88ZM133.445 11.13H140.959C140.85 9.97886 140.469 9.08442 139.815 8.44664C139.162 7.80886 138.33 7.48998 137.319 7.48998C136.323 7.48998 135.483 7.81664 134.799 8.46998C134.114 9.10775 133.663 9.99442 133.445 11.13ZM149.835 19.6C149.119 19.6 148.559 19.4133 148.155 19.04C147.75 18.6511 147.548 18.0755 147.548 17.3133V7.60664H145.168V5.59998H147.571V1.39997H150.045V5.59998H153.381V7.60664H150.068V17.5933H153.708V19.6H149.835ZM163.375 19.6V5.59998H165.895V19.6H163.375ZM164.635 3.68664C164.199 3.68664 163.826 3.53109 163.515 3.21997C163.204 2.90886 163.048 2.53553 163.048 2.09998C163.048 1.66442 163.204 1.29109 163.515 0.979975C163.826 0.668864 164.199 0.513309 164.635 0.513309C165.07 0.513309 165.444 0.668864 165.755 0.979975C166.066 1.29109 166.222 1.66442 166.222 2.09998C166.222 2.53553 166.066 2.90886 165.755 3.21997C165.444 3.53109 165.07 3.68664 164.635 3.68664ZM175.029 19.88C173.349 19.88 171.981 19.4678 170.923 18.6433C169.881 17.8033 169.313 16.6833 169.219 15.2833H171.693C171.802 16.0922 172.152 16.7144 172.743 17.15C173.334 17.57 174.127 17.78 175.123 17.78C176.041 17.78 176.741 17.6011 177.223 17.2433C177.705 16.8855 177.946 16.38 177.946 15.7266C177.946 14.7 177.238 14.0389 175.823 13.7433L173.513 13.23C170.993 12.7011 169.733 11.4566 169.733 9.49664C169.733 8.2522 170.199 7.24886 171.133 6.48664C172.066 5.70886 173.287 5.31998 174.796 5.31998C176.289 5.31998 177.518 5.71664 178.483 6.50998C179.463 7.28775 180.015 8.34553 180.139 9.68331H177.713C177.557 8.9522 177.215 8.3922 176.686 8.00331C176.173 7.59886 175.504 7.39664 174.679 7.39664C173.886 7.39664 173.256 7.56775 172.789 7.90998C172.323 8.2522 172.089 8.71886 172.089 9.30998C172.089 9.77664 172.253 10.1578 172.579 10.4533C172.906 10.7333 173.427 10.9511 174.143 11.1066L176.476 11.5966C177.752 11.8766 178.701 12.3433 179.323 12.9966C179.961 13.6344 180.279 14.4744 180.279 15.5166C180.279 16.8544 179.813 17.92 178.879 18.7133C177.946 19.4911 176.663 19.88 175.029 19.88ZM194.019 19.8566C192.635 19.8566 191.507 19.4678 190.636 18.69C189.78 17.8966 189.353 16.8778 189.353 15.6333C189.353 14.3111 189.78 13.2844 190.636 12.5533C191.507 11.8066 192.736 11.4333 194.323 11.4333H198.406V10.7333C198.406 9.70664 198.126 8.91331 197.566 8.35331C197.021 7.77775 196.251 7.48998 195.256 7.48998C194.431 7.48998 193.747 7.68442 193.203 8.07331C192.674 8.44664 192.324 8.98331 192.153 9.68331H189.586C189.819 8.32998 190.449 7.26442 191.476 6.48664C192.503 5.70886 193.778 5.31998 195.303 5.31998C197.029 5.31998 198.375 5.78664 199.339 6.71998C200.319 7.65331 200.809 8.96775 200.809 10.6633V19.6H198.429V17.1733H198.336C197.978 17.9978 197.41 18.6511 196.633 19.1333C195.855 19.6155 194.984 19.8566 194.019 19.8566ZM194.533 17.7566C195.264 17.7566 195.917 17.5855 196.493 17.2433C197.084 16.9011 197.55 16.4422 197.893 15.8666C198.235 15.2755 198.406 14.6222 198.406 13.9066V13.3466H194.486C193.584 13.3466 192.891 13.5411 192.409 13.93C191.943 14.3033 191.709 14.8322 191.709 15.5166C191.709 16.2011 191.966 16.7455 192.479 17.15C192.993 17.5544 193.677 17.7566 194.533 17.7566ZM217.374 25.48C215.647 25.48 214.208 25.06 213.057 24.22C211.906 23.3955 211.237 22.2911 211.051 20.9066H213.734C213.89 21.6533 214.286 22.2366 214.924 22.6566C215.562 23.0766 216.363 23.2866 217.327 23.2866C218.572 23.2866 219.544 22.9289 220.244 22.2133C220.96 21.4978 221.317 20.5255 221.317 19.2966V17.0333H221.224C220.882 17.8578 220.345 18.4955 219.614 18.9466C218.898 19.3822 218.051 19.6 217.071 19.6C215.888 19.6 214.846 19.3044 213.944 18.7133C213.057 18.1066 212.365 17.2666 211.867 16.1933C211.37 15.12 211.121 13.8755 211.121 12.46C211.121 11.0444 211.37 9.79998 211.867 8.72664C212.365 7.65331 213.057 6.82109 213.944 6.22997C214.846 5.62331 215.888 5.31998 217.071 5.31998C218.051 5.31998 218.898 5.54553 219.614 5.99664C220.345 6.4322 220.882 7.05442 221.224 7.86331H221.317V5.59998H223.814V19.4133C223.814 21.28 223.231 22.7578 222.064 23.8466C220.913 24.9355 219.35 25.48 217.374 25.48ZM217.677 17.3133C218.782 17.3133 219.661 16.9555 220.314 16.24C220.967 15.5244 221.294 14.5755 221.294 13.3933V11.5266C221.294 10.3444 220.96 9.39553 220.291 8.67998C219.637 7.96442 218.766 7.60664 217.677 7.60664C216.448 7.60664 215.468 8.04998 214.737 8.93664C214.006 9.80775 213.641 10.9822 213.641 12.46C213.641 13.9378 214.006 15.12 214.737 16.0066C215.468 16.8778 216.448 17.3133 217.677 17.3133ZM228.125 19.6V-2.40803e-05H230.645V19.6H228.125ZM240.783 19.88C239.523 19.88 238.395 19.5844 237.399 18.9933C236.404 18.3866 235.618 17.5389 235.043 16.45C234.467 15.3611 234.179 14.0778 234.179 12.6C234.179 11.1066 234.467 9.81553 235.043 8.72664C235.618 7.63775 236.404 6.79775 237.399 6.20664C238.395 5.61553 239.523 5.31998 240.783 5.31998C242.074 5.31998 243.217 5.61553 244.213 6.20664C245.208 6.79775 245.986 7.63775 246.546 8.72664C247.106 9.81553 247.386 11.1066 247.386 12.6C247.386 14.0778 247.098 15.3689 246.523 16.4733C245.963 17.5622 245.185 18.4022 244.189 18.9933C243.194 19.5844 242.058 19.88 240.783 19.88ZM240.783 17.5933C242.027 17.5933 243.015 17.1422 243.746 16.24C244.493 15.3222 244.866 14.1089 244.866 12.6C244.866 11.0755 244.493 9.8622 243.746 8.95998C243.015 8.05775 242.027 7.60664 240.783 7.60664C239.554 7.60664 238.566 8.05775 237.819 8.95998C237.073 9.8622 236.699 11.0755 236.699 12.6C236.699 14.1089 237.073 15.3222 237.819 16.24C238.566 17.1422 239.554 17.5933 240.783 17.5933ZM257.716 19.88C255.662 19.88 254.231 19.0244 253.422 17.3133H253.329V19.6H250.832V-2.40803e-05H253.352V7.86331H253.446C254.239 6.16775 255.662 5.31998 257.716 5.31998C258.882 5.31998 259.901 5.62331 260.772 6.22997C261.643 6.83664 262.32 7.68442 262.802 8.77331C263.284 9.8622 263.526 11.1378 263.526 12.6C263.526 14.0466 263.284 15.3222 262.802 16.4266C262.32 17.5155 261.643 18.3633 260.772 18.97C259.901 19.5766 258.882 19.88 257.716 19.88ZM257.039 17.64C258.252 17.64 259.217 17.1811 259.932 16.2633C260.648 15.3455 261.006 14.1244 261.006 12.6C261.006 11.0755 260.648 9.85442 259.932 8.93664C259.217 8.01886 258.252 7.55998 257.039 7.55998C255.872 7.55998 254.962 7.93331 254.309 8.67998C253.671 9.41109 253.352 10.3755 253.352 11.5733V13.6266C253.352 14.8244 253.671 15.7966 254.309 16.5433C254.962 17.2744 255.872 17.64 257.039 17.64ZM270.609 19.8566C269.225 19.8566 268.097 19.4678 267.226 18.69C266.37 17.8966 265.942 16.8778 265.942 15.6333C265.942 14.3111 266.37 13.2844 267.226 12.5533C268.097 11.8066 269.326 11.4333 270.912 11.4333H274.996V10.7333C274.996 9.70664 274.716 8.91331 274.156 8.35331C273.611 7.77775 272.841 7.48998 271.846 7.48998C271.021 7.48998 270.337 7.68442 269.792 8.07331C269.263 8.44664 268.913 8.98331 268.742 9.68331H266.176C266.409 8.32998 267.039 7.26442 268.066 6.48664C269.092 5.70886 270.368 5.31998 271.892 5.31998C273.619 5.31998 274.965 5.78664 275.929 6.71998C276.909 7.65331 277.399 8.96775 277.399 10.6633V19.6H275.019V17.1733H274.926C274.568 17.9978 274 18.6511 273.222 19.1333C272.445 19.6155 271.573 19.8566 270.609 19.8566ZM271.122 17.7566C271.853 17.7566 272.507 17.5855 273.082 17.2433C273.673 16.9011 274.14 16.4422 274.482 15.8666C274.825 15.2755 274.996 14.6222 274.996 13.9066V13.3466H271.076C270.173 13.3466 269.481 13.5411 268.999 13.93C268.532 14.3033 268.299 14.8322 268.299 15.5166C268.299 16.2011 268.556 16.7455 269.069 17.15C269.582 17.5544 270.267 17.7566 271.122 17.7566ZM281.609 19.6V-2.40803e-05H284.129V19.6H281.609ZM295.375 19.6V5.59998H297.872V7.86331H297.965C298.37 7.05442 298.937 6.4322 299.668 5.99664C300.4 5.56109 301.263 5.34331 302.258 5.34331C303.27 5.34331 304.164 5.5922 304.942 6.08998C305.72 6.5722 306.326 7.24109 306.762 8.09664C307.197 8.9522 307.415 9.9322 307.415 11.0366V19.6H304.895V11.48C304.895 10.2822 304.584 9.34109 303.962 8.65664C303.355 7.9722 302.5 7.62998 301.395 7.62998C300.291 7.62998 299.427 7.9722 298.805 8.65664C298.198 9.34109 297.895 10.2822 297.895 11.48V19.6H295.375ZM317.349 19.88C316.089 19.88 314.962 19.5844 313.966 18.9933C312.97 18.3866 312.185 17.5389 311.609 16.45C311.049 15.3455 310.769 14.0466 310.769 12.5533C310.769 11.0755 311.049 9.79998 311.609 8.72664C312.169 7.63775 312.932 6.79775 313.896 6.20664C314.86 5.61553 315.965 5.31998 317.209 5.31998C318.376 5.31998 319.41 5.58442 320.313 6.11331C321.23 6.6422 321.954 7.40442 322.483 8.39998C323.012 9.39553 323.276 10.57 323.276 11.9233V13.0433H313.196C313.289 14.4589 313.709 15.5866 314.456 16.4266C315.203 17.2666 316.159 17.6866 317.326 17.6866C318.166 17.6866 318.882 17.4766 319.473 17.0566C320.064 16.6366 320.46 16.0611 320.663 15.33H323.229C323.043 16.2789 322.669 17.0955 322.109 17.78C321.549 18.4489 320.865 18.97 320.056 19.3433C319.247 19.7011 318.345 19.88 317.349 19.88ZM313.313 11.13H320.826C320.717 9.97886 320.336 9.08442 319.683 8.44664C319.029 7.80886 318.197 7.48998 317.186 7.48998C316.19 7.48998 315.35 7.81664 314.666 8.46998C313.982 9.10775 313.53 9.99442 313.313 11.13ZM329.702 19.6C328.986 19.6 328.426 19.4133 328.022 19.04C327.617 18.6511 327.415 18.0755 327.415 17.3133V7.60664H325.035V5.59998H327.438V1.39997H329.912V5.59998H333.248V7.60664H329.935V17.5933H333.575V19.6H329.702ZM338.099 19.6L334.086 5.59998H336.653L339.593 16.4966H339.686L343.116 5.59998H345.729L349.159 16.4966H349.253L352.193 5.59998H354.713L350.699 19.6H347.899L344.446 8.67998H344.353L340.899 19.6H338.099ZM362.599 19.88C361.339 19.88 360.211 19.5844 359.216 18.9933C358.22 18.3866 357.435 17.5389 356.859 16.45C356.284 15.3611 355.996 14.0778 355.996 12.6C355.996 11.1066 356.284 9.81553 356.859 8.72664C357.435 7.63775 358.22 6.79775 359.216 6.20664C360.211 5.61553 361.339 5.31998 362.599 5.31998C363.89 5.31998 365.034 5.61553 366.029 6.20664C367.025 6.79775 367.803 7.63775 368.363 8.72664C368.923 9.81553 369.203 11.1066 369.203 12.6C369.203 14.0778 368.915 15.3689 368.339 16.4733C367.779 17.5622 367.001 18.4022 366.006 18.9933C365.01 19.5844 363.875 19.88 362.599 19.88ZM362.599 17.5933C363.844 17.5933 364.831 17.1422 365.563 16.24C366.309 15.3222 366.683 14.1089 366.683 12.6C366.683 11.0755 366.309 9.8622 365.563 8.95998C364.831 8.05775 363.844 7.60664 362.599 7.60664C361.37 7.60664 360.383 8.05775 359.636 8.95998C358.889 9.8622 358.516 11.0755 358.516 12.6C358.516 14.1089 358.889 15.3222 359.636 16.24C360.383 17.1422 361.37 17.5933 362.599 17.5933ZM372.905 19.6V5.59998H375.309V8.39998H375.402C375.713 7.52886 376.219 6.82886 376.919 6.29997C377.634 5.75553 378.505 5.48331 379.532 5.48331H380.559V7.72331H379.392C378.101 7.72331 377.113 8.13553 376.429 8.95998C375.76 9.78442 375.425 10.8966 375.425 12.2966V19.6H372.905ZM383.477 19.6V-2.40803e-05H385.997V11.9H386.09L392.157 5.59998H395.19L389.45 11.4566L395.727 19.6H392.67L387.7 13.0433L385.997 14.56V19.6H383.477ZM7.51329 54.88C6.25329 54.88 5.12551 54.5844 4.12996 53.9933C3.1344 53.3866 2.34884 52.5389 1.77329 51.45C1.19773 50.3611 0.909956 49.0778 0.909956 47.6C0.909956 46.1066 1.19773 44.8155 1.77329 43.7266C2.34884 42.6378 3.1344 41.7978 4.12996 41.2066C5.12551 40.6155 6.25329 40.32 7.51329 40.32C8.8044 40.32 9.94773 40.6155 10.9433 41.2066C11.9388 41.7978 12.7166 42.6378 13.2766 43.7266C13.8366 44.8155 14.1166 46.1066 14.1166 47.6C14.1166 49.0778 13.8288 50.3689 13.2533 51.4733C12.6933 52.5622 11.9155 53.4022 10.92 53.9933C9.9244 54.5844 8.78885 54.88 7.51329 54.88ZM7.51329 52.5933C8.75773 52.5933 9.74551 52.1422 10.4766 51.24C11.2233 50.3222 11.5966 49.1089 11.5966 47.6C11.5966 46.0755 11.2233 44.8622 10.4766 43.96C9.74551 43.0578 8.75773 42.6066 7.51329 42.6066C6.2844 42.6066 5.29662 43.0578 4.54996 43.96C3.80329 44.8622 3.42996 46.0755 3.42996 47.6C3.42996 49.1089 3.80329 50.3222 4.54996 51.24C5.29662 52.1422 6.2844 52.5933 7.51329 52.5933ZM18.426 54.6V42.6066H15.8593V40.6H18.4493V37.3566C18.4493 36.5633 18.6516 35.9722 19.056 35.5833C19.476 35.1944 20.0593 35 20.806 35H24.3527V37.0066H20.9227V40.6H24.0727V42.6066H20.946V54.6H18.426ZM39.2714 54.88C38.027 54.88 36.907 54.5844 35.9114 53.9933C34.9314 53.3866 34.1536 52.5389 33.5781 51.45C33.0181 50.3611 32.7381 49.0778 32.7381 47.6C32.7381 46.1066 33.0181 44.8155 33.5781 43.7266C34.1536 42.6378 34.9314 41.7978 35.9114 41.2066C36.907 40.6155 38.027 40.32 39.2714 40.32C40.2514 40.32 41.1459 40.5066 41.9547 40.88C42.7792 41.2378 43.4714 41.7822 44.0314 42.5133C44.607 43.2289 45.0036 44.1389 45.2214 45.2433H42.6081C42.3903 44.3255 41.9781 43.6566 41.3714 43.2366C40.7803 42.8166 40.0803 42.6066 39.2714 42.6066C38.0736 42.6066 37.1014 43.0578 36.3547 43.96C35.6236 44.8622 35.2581 46.0755 35.2581 47.6C35.2581 49.1089 35.6236 50.3222 36.3547 51.24C37.1014 52.1422 38.0736 52.5933 39.2714 52.5933C40.127 52.5933 40.8581 52.3678 41.4647 51.9166C42.087 51.4655 42.5147 50.7344 42.7481 49.7233H45.2914C45.0892 50.8744 44.7003 51.8311 44.1247 52.5933C43.5492 53.3555 42.8492 53.9311 42.0247 54.32C41.2003 54.6933 40.2825 54.88 39.2714 54.88ZM53.8609 54.88C52.6009 54.88 51.4732 54.5844 50.4776 53.9933C49.4821 53.3866 48.6965 52.5389 48.1209 51.45C47.5454 50.3611 47.2576 49.0778 47.2576 47.6C47.2576 46.1066 47.5454 44.8155 48.1209 43.7266C48.6965 42.6378 49.4821 41.7978 50.4776 41.2066C51.4732 40.6155 52.6009 40.32 53.8609 40.32C55.1521 40.32 56.2954 40.6155 57.2909 41.2066C58.2865 41.7978 59.0643 42.6378 59.6243 43.7266C60.1843 44.8155 60.4643 46.1066 60.4643 47.6C60.4643 49.0778 60.1765 50.3689 59.6009 51.4733C59.0409 52.5622 58.2632 53.4022 57.2676 53.9933C56.2721 54.5844 55.1365 54.88 53.8609 54.88ZM53.8609 52.5933C55.1054 52.5933 56.0932 52.1422 56.8243 51.24C57.5709 50.3222 57.9443 49.1089 57.9443 47.6C57.9443 46.0755 57.5709 44.8622 56.8243 43.96C56.0932 43.0578 55.1054 42.6066 53.8609 42.6066C52.6321 42.6066 51.6443 43.0578 50.8976 43.96C50.1509 44.8622 49.7776 46.0755 49.7776 47.6C49.7776 49.1089 50.1509 50.3222 50.8976 51.24C51.6443 52.1422 52.6321 52.5933 53.8609 52.5933ZM63.9103 54.6V40.6H66.3837V42.8633H66.477C66.8348 42.0389 67.3559 41.4166 68.0403 40.9966C68.7403 40.5611 69.557 40.3433 70.4903 40.3433C71.4392 40.3433 72.2792 40.5766 73.0103 41.0433C73.757 41.4944 74.3248 42.1478 74.7137 43.0033H74.7837C75.2503 42.1478 75.857 41.4944 76.6037 41.0433C77.3503 40.5766 78.2137 40.3433 79.1937 40.3433C80.1892 40.3433 81.0681 40.5766 81.8303 41.0433C82.5925 41.4944 83.1759 42.14 83.5803 42.98C84.0003 43.82 84.2103 44.8078 84.2103 45.9433V54.6H81.6903V46.3166C81.6903 45.15 81.4103 44.2478 80.8503 43.61C80.2903 42.9566 79.5125 42.63 78.517 42.63C77.537 42.63 76.7592 42.9566 76.1837 43.61C75.6081 44.2478 75.3203 45.15 75.3203 46.3166V54.6H72.8003V46.3166C72.8003 45.15 72.5125 44.2478 71.937 43.61C71.377 42.9566 70.5992 42.63 69.6037 42.63C68.6237 42.63 67.8459 42.9566 67.2703 43.61C66.7103 44.2478 66.4303 45.15 66.4303 46.3166V54.6H63.9103ZM88.3556 60.2V40.6H90.8523V42.8866H90.9456C91.7545 41.1755 93.1856 40.32 95.239 40.32C96.4056 40.32 97.4245 40.6233 98.2956 41.23C99.1667 41.8366 99.8434 42.6844 100.326 43.7733C100.808 44.8622 101.049 46.1378 101.049 47.6C101.049 49.0466 100.808 50.3222 100.326 51.4266C99.8434 52.5155 99.1667 53.3633 98.2956 53.97C97.4245 54.5766 96.4056 54.88 95.239 54.88C93.1856 54.88 91.7623 54.0322 90.969 52.3366H90.8756V60.2H88.3556ZM94.5623 52.64C95.7756 52.64 96.7401 52.1811 97.4556 51.2633C98.1712 50.3455 98.529 49.1244 98.529 47.6C98.529 46.0755 98.1712 44.8544 97.4556 43.9366C96.7401 43.0189 95.7756 42.56 94.5623 42.56C93.3956 42.56 92.4856 42.9333 91.8323 43.68C91.1945 44.4111 90.8756 45.3755 90.8756 46.5733V48.6266C90.8756 49.8244 91.1945 50.7889 91.8323 51.52C92.4856 52.2355 93.3956 52.6089 94.5623 52.64ZM109.532 54.8566C108.521 54.8566 107.627 54.6233 106.849 54.1566C106.087 53.69 105.488 53.0366 105.052 52.1966C104.632 51.3566 104.422 50.3922 104.422 49.3033V40.6H106.942V48.7433C106.942 49.9411 107.238 50.8822 107.829 51.5666C108.42 52.2355 109.245 52.57 110.302 52.57C111.407 52.57 112.286 52.22 112.939 51.52C113.608 50.8044 113.942 49.8711 113.942 48.72V40.6H116.462V54.6H113.966V52.1733H113.872C113.484 53.0444 112.916 53.7133 112.169 54.18C111.422 54.6311 110.544 54.8566 109.532 54.8566ZM123.667 54.6C122.951 54.6 122.391 54.4133 121.987 54.04C121.582 53.6511 121.38 53.0755 121.38 52.3133V42.6066H119V40.6H121.403V36.4H123.877V40.6H127.213V42.6066H123.9V52.5933H127.54V54.6H123.667ZM136.006 54.88C134.746 54.88 133.618 54.5844 132.622 53.9933C131.627 53.3866 130.841 52.5389 130.266 51.45C129.706 50.3455 129.426 49.0466 129.426 47.5533C129.426 46.0755 129.706 44.8 130.266 43.7266C130.826 42.6378 131.588 41.7978 132.552 41.2066C133.517 40.6155 134.621 40.32 135.866 40.32C137.032 40.32 138.067 40.5844 138.969 41.1133C139.887 41.6422 140.61 42.4044 141.139 43.4C141.668 44.3955 141.932 45.57 141.932 46.9233V48.0433H131.852C131.946 49.4589 132.366 50.5866 133.112 51.4266C133.859 52.2666 134.816 52.6866 135.982 52.6866C136.822 52.6866 137.538 52.4766 138.129 52.0566C138.72 51.6366 139.117 51.0611 139.319 50.33H141.886C141.699 51.2789 141.326 52.0955 140.766 52.78C140.206 53.4489 139.521 53.97 138.712 54.3433C137.903 54.7011 137.001 54.88 136.006 54.88ZM131.969 46.13H139.482C139.373 44.9789 138.992 44.0844 138.339 43.4466C137.686 42.8089 136.853 42.49 135.842 42.49C134.847 42.49 134.007 42.8166 133.322 43.47C132.638 44.1078 132.187 44.9944 131.969 46.13ZM145.651 54.6V40.6H148.055V43.4H148.148C148.459 42.5289 148.965 41.8289 149.665 41.3C150.38 40.7555 151.251 40.4833 152.278 40.4833H153.305V42.7233H152.138C150.847 42.7233 149.859 43.1355 149.175 43.96C148.506 44.7844 148.171 45.8966 148.171 47.2966V54.6H145.651ZM160.565 54.88C158.885 54.88 157.516 54.4678 156.458 53.6433C155.416 52.8033 154.848 51.6833 154.755 50.2833H157.228C157.337 51.0922 157.687 51.7144 158.278 52.15C158.869 52.57 159.662 52.78 160.658 52.78C161.576 52.78 162.276 52.6011 162.758 52.2433C163.24 51.8855 163.481 51.38 163.481 50.7266C163.481 49.7 162.774 49.0389 161.358 48.7433L159.048 48.23C156.528 47.7011 155.268 46.4566 155.268 44.4966C155.268 43.2522 155.735 42.2489 156.668 41.4866C157.601 40.7089 158.822 40.32 160.331 40.32C161.825 40.32 163.054 40.7166 164.018 41.51C164.998 42.2878 165.55 43.3455 165.675 44.6833H163.248C163.092 43.9522 162.75 43.3922 162.221 43.0033C161.708 42.5989 161.039 42.3966 160.215 42.3966C159.421 42.3966 158.791 42.5678 158.325 42.91C157.858 43.2522 157.625 43.7189 157.625 44.31C157.625 44.7766 157.788 45.1578 158.115 45.4533C158.441 45.7333 158.962 45.9511 159.678 46.1066L162.011 46.5966C163.287 46.8766 164.236 47.3433 164.858 47.9966C165.496 48.6344 165.815 49.4744 165.815 50.5166C165.815 51.8544 165.348 52.92 164.415 53.7133C163.481 54.4911 162.198 54.88 160.565 54.88ZM178.901 54.6C178.185 54.6 177.625 54.4133 177.221 54.04C176.817 53.6511 176.614 53.0755 176.614 52.3133V42.6066H174.234V40.6H176.638V36.4H179.111V40.6H182.448V42.6066H179.134V52.5933H182.774V54.6H178.901ZM185.453 54.6V35H187.973V42.6533H188.067C188.471 41.9378 189.039 41.37 189.77 40.95C190.501 40.53 191.357 40.32 192.337 40.32C193.348 40.32 194.242 40.5611 195.02 41.0433C195.798 41.5255 196.404 42.1944 196.84 43.05C197.276 43.9055 197.493 44.9011 197.493 46.0366V54.6H194.973V46.41C194.973 45.1966 194.662 44.2555 194.04 43.5866C193.433 42.9178 192.578 42.5833 191.473 42.5833C190.369 42.5833 189.506 42.9178 188.883 43.5866C188.277 44.2555 187.973 45.1966 187.973 46.41V54.6H185.453ZM205.257 54.8566C203.873 54.8566 202.745 54.4678 201.874 53.69C201.019 52.8966 200.591 51.8778 200.591 50.6333C200.591 49.3111 201.019 48.2844 201.874 47.5533C202.745 46.8066 203.974 46.4333 205.561 46.4333H209.644V45.7333C209.644 44.7066 209.364 43.9133 208.804 43.3533C208.26 42.7778 207.49 42.49 206.494 42.49C205.67 42.49 204.985 42.6844 204.441 43.0733C203.912 43.4466 203.562 43.9833 203.391 44.6833H200.824C201.057 43.33 201.687 42.2644 202.714 41.4866C203.741 40.7089 205.016 40.32 206.541 40.32C208.267 40.32 209.613 40.7866 210.577 41.72C211.557 42.6533 212.047 43.9678 212.047 45.6633V54.6H209.667V52.1733H209.574C209.216 52.9978 208.649 53.6511 207.871 54.1333C207.093 54.6155 206.222 54.8566 205.257 54.8566ZM205.771 52.7566C206.502 52.7566 207.155 52.5855 207.731 52.2433C208.322 51.9011 208.789 51.4422 209.131 50.8666C209.473 50.2755 209.644 49.6222 209.644 48.9066V48.3466H205.724C204.822 48.3466 204.13 48.5411 203.647 48.93C203.181 49.3033 202.947 49.8322 202.947 50.5166C202.947 51.2011 203.204 51.7455 203.717 52.15C204.231 52.5544 204.915 52.7566 205.771 52.7566ZM219.151 54.6C218.435 54.6 217.875 54.4133 217.471 54.04C217.067 53.6511 216.864 53.0755 216.864 52.3133V42.6066H214.484V40.6H216.888V36.4H219.361V40.6H222.698V42.6066H219.384V52.5933H223.024V54.6H219.151ZM238.361 54.88C237.117 54.88 235.997 54.5844 235.001 53.9933C234.021 53.3866 233.243 52.5389 232.668 51.45C232.108 50.3611 231.828 49.0778 231.828 47.6C231.828 46.1066 232.108 44.8155 232.668 43.7266C233.243 42.6378 234.021 41.7978 235.001 41.2066C235.997 40.6155 237.117 40.32 238.361 40.32C239.341 40.32 240.236 40.5066 241.045 40.88C241.869 41.2378 242.561 41.7822 243.121 42.5133C243.697 43.2289 244.093 44.1389 244.311 45.2433H241.698C241.48 44.3255 241.068 43.6566 240.461 43.2366C239.87 42.8166 239.17 42.6066 238.361 42.6066C237.163 42.6066 236.191 43.0578 235.445 43.96C234.713 44.8622 234.348 46.0755 234.348 47.6C234.348 49.1089 234.713 50.3222 235.445 51.24C236.191 52.1422 237.163 52.5933 238.361 52.5933C239.217 52.5933 239.948 52.3678 240.555 51.9166C241.177 51.4655 241.605 50.7344 241.838 49.7233H244.381C244.179 50.8744 243.79 51.8311 243.215 52.5933C242.639 53.3555 241.939 53.9311 241.115 54.32C240.29 54.6933 239.372 54.88 238.361 54.88ZM252.951 54.88C251.691 54.88 250.563 54.5844 249.567 53.9933C248.572 53.3866 247.786 52.5389 247.211 51.45C246.635 50.3611 246.347 49.0778 246.347 47.6C246.347 46.1066 246.635 44.8155 247.211 43.7266C247.786 42.6378 248.572 41.7978 249.567 41.2066C250.563 40.6155 251.691 40.32 252.951 40.32C254.242 40.32 255.385 40.6155 256.381 41.2066C257.376 41.7978 258.154 42.6378 258.714 43.7266C259.274 44.8155 259.554 46.1066 259.554 47.6C259.554 49.0778 259.266 50.3689 258.691 51.4733C258.131 52.5622 257.353 53.4022 256.357 53.9933C255.362 54.5844 254.226 54.88 252.951 54.88ZM252.951 52.5933C254.195 52.5933 255.183 52.1422 255.914 51.24C256.661 50.3222 257.034 49.1089 257.034 47.6C257.034 46.0755 256.661 44.8622 255.914 43.96C255.183 43.0578 254.195 42.6066 252.951 42.6066C251.722 42.6066 250.734 43.0578 249.987 43.96C249.241 44.8622 248.867 46.0755 248.867 47.6C248.867 49.1089 249.241 50.3222 249.987 51.24C250.734 52.1422 251.722 52.5933 252.951 52.5933ZM263 54.6V40.6H265.473V42.8633H265.567C265.925 42.0389 266.446 41.4166 267.13 40.9966C267.83 40.5611 268.647 40.3433 269.58 40.3433C270.529 40.3433 271.369 40.5766 272.1 41.0433C272.847 41.4944 273.415 42.1478 273.803 43.0033H273.873C274.34 42.1478 274.947 41.4944 275.693 41.0433C276.44 40.5766 277.303 40.3433 278.283 40.3433C279.279 40.3433 280.158 40.5766 280.92 41.0433C281.682 41.4944 282.266 42.14 282.67 42.98C283.09 43.82 283.3 44.8078 283.3 45.9433V54.6H280.78V46.3166C280.78 45.15 280.5 44.2478 279.94 43.61C279.38 42.9566 278.602 42.63 277.607 42.63C276.627 42.63 275.849 42.9566 275.273 43.61C274.698 44.2478 274.41 45.15 274.41 46.3166V54.6H271.89V46.3166C271.89 45.15 271.602 44.2478 271.027 43.61C270.467 42.9566 269.689 42.63 268.693 42.63C267.713 42.63 266.936 42.9566 266.36 43.61C265.8 44.2478 265.52 45.15 265.52 46.3166V54.6H263ZM287.445 54.6V40.6H289.919V42.8633H290.012C290.37 42.0389 290.891 41.4166 291.575 40.9966C292.275 40.5611 293.092 40.3433 294.025 40.3433C294.974 40.3433 295.814 40.5766 296.545 41.0433C297.292 41.4944 297.86 42.1478 298.249 43.0033H298.319C298.785 42.1478 299.392 41.4944 300.139 41.0433C300.885 40.5766 301.749 40.3433 302.729 40.3433C303.724 40.3433 304.603 40.5766 305.365 41.0433C306.128 41.4944 306.711 42.14 307.115 42.98C307.535 43.82 307.745 44.8078 307.745 45.9433V54.6H305.225V46.3166C305.225 45.15 304.945 44.2478 304.385 43.61C303.825 42.9566 303.048 42.63 302.052 42.63C301.072 42.63 300.294 42.9566 299.719 43.61C299.143 44.2478 298.855 45.15 298.855 46.3166V54.6H296.335V46.3166C296.335 45.15 296.048 44.2478 295.472 43.61C294.912 42.9566 294.134 42.63 293.139 42.63C292.159 42.63 291.381 42.9566 290.805 43.61C290.245 44.2478 289.965 45.15 289.965 46.3166V54.6H287.445ZM316.907 54.8566C315.896 54.8566 315.002 54.6233 314.224 54.1566C313.462 53.69 312.863 53.0366 312.427 52.1966C312.007 51.3566 311.797 50.3922 311.797 49.3033V40.6H314.317V48.7433C314.317 49.9411 314.613 50.8822 315.204 51.5666C315.795 52.2355 316.62 52.57 317.677 52.57C318.782 52.57 319.661 52.22 320.314 51.52C320.983 50.8044 321.317 49.8711 321.317 48.72V40.6H323.837V54.6H321.341V52.1733H321.247C320.859 53.0444 320.291 53.7133 319.544 54.18C318.797 54.6311 317.919 54.8566 316.907 54.8566ZM328.078 54.6V40.6H330.575V42.8633H330.668C331.073 42.0544 331.641 41.4322 332.372 40.9966C333.103 40.5611 333.966 40.3433 334.962 40.3433C335.973 40.3433 336.867 40.5922 337.645 41.09C338.423 41.5722 339.029 42.2411 339.465 43.0966C339.901 43.9522 340.118 44.9322 340.118 46.0366V54.6H337.598V46.48C337.598 45.2822 337.287 44.3411 336.665 43.6566C336.058 42.9722 335.203 42.63 334.098 42.63C332.994 42.63 332.131 42.9722 331.508 43.6566C330.902 44.3411 330.598 45.2822 330.598 46.48V54.6H328.078ZM344.336 54.6V40.6H346.856V54.6H344.336ZM345.596 38.6866C345.16 38.6866 344.787 38.5311 344.476 38.22C344.165 37.9089 344.009 37.5355 344.009 37.1C344.009 36.6644 344.165 36.2911 344.476 35.98C344.787 35.6689 345.16 35.5133 345.596 35.5133C346.031 35.5133 346.405 35.6689 346.716 35.98C347.027 36.2911 347.182 36.6644 347.182 37.1C347.182 37.5355 347.027 37.9089 346.716 38.22C346.405 38.5311 346.031 38.6866 345.596 38.6866ZM356.924 54.88C355.679 54.88 354.559 54.5844 353.564 53.9933C352.584 53.3866 351.806 52.5389 351.23 51.45C350.67 50.3611 350.39 49.0778 350.39 47.6C350.39 46.1066 350.67 44.8155 351.23 43.7266C351.806 42.6378 352.584 41.7978 353.564 41.2066C354.559 40.6155 355.679 40.32 356.924 40.32C357.904 40.32 358.798 40.5066 359.607 40.88C360.432 41.2378 361.124 41.7822 361.684 42.5133C362.259 43.2289 362.656 44.1389 362.874 45.2433H360.26C360.043 44.3255 359.63 43.6566 359.024 43.2366C358.433 42.8166 357.733 42.6066 356.924 42.6066C355.726 42.6066 354.754 43.0578 354.007 43.96C353.276 44.8622 352.91 46.0755 352.91 47.6C352.91 49.1089 353.276 50.3222 354.007 51.24C354.754 52.1422 355.726 52.5933 356.924 52.5933C357.779 52.5933 358.51 52.3678 359.117 51.9166C359.739 51.4655 360.167 50.7344 360.4 49.7233H362.944C362.742 50.8744 362.353 51.8311 361.777 52.5933C361.202 53.3555 360.502 53.9311 359.677 54.32C358.853 54.6933 357.935 54.88 356.924 54.88ZM369.32 54.8566C367.936 54.8566 366.808 54.4678 365.937 53.69C365.081 52.8966 364.653 51.8778 364.653 50.6333C364.653 49.3111 365.081 48.2844 365.937 47.5533C366.808 46.8066 368.037 46.4333 369.623 46.4333H373.707V45.7333C373.707 44.7066 373.427 43.9133 372.867 43.3533C372.322 42.7778 371.552 42.49 370.557 42.49C369.732 42.49 369.048 42.6844 368.503 43.0733C367.974 43.4466 367.624 43.9833 367.453 44.6833H364.887C365.12 43.33 365.75 42.2644 366.777 41.4866C367.803 40.7089 369.079 40.32 370.603 40.32C372.33 40.32 373.676 40.7866 374.64 41.72C375.62 42.6533 376.11 43.9678 376.11 45.6633V54.6H373.73V52.1733H373.637C373.279 52.9978 372.711 53.6511 371.933 54.1333C371.156 54.6155 370.284 54.8566 369.32 54.8566ZM369.833 52.7566C370.564 52.7566 371.218 52.5855 371.793 52.2433C372.384 51.9011 372.851 51.4422 373.193 50.8666C373.536 50.2755 373.707 49.6222 373.707 48.9066V48.3466H369.787C368.884 48.3466 368.192 48.5411 367.71 48.93C367.243 49.3033 367.01 49.8322 367.01 50.5166C367.01 51.2011 367.267 51.7455 367.78 52.15C368.293 52.5544 368.978 52.7566 369.833 52.7566ZM383.213 54.6C382.498 54.6 381.938 54.4133 381.533 54.04C381.129 53.6511 380.927 53.0755 380.927 52.3133V42.6066H378.547V40.6H380.95V36.4H383.423V40.6H386.76V42.6066H383.447V52.5933H387.087V54.6H383.213ZM395.552 54.88C394.292 54.88 393.165 54.5844 392.169 53.9933C391.174 53.3866 390.388 52.5389 389.812 51.45C389.252 50.3455 388.972 49.0466 388.972 47.5533C388.972 46.0755 389.252 44.8 389.812 43.7266C390.372 42.6378 391.135 41.7978 392.099 41.2066C393.064 40.6155 394.168 40.32 395.412 40.32C396.579 40.32 397.614 40.5844 398.516 41.1133C399.434 41.6422 400.157 42.4044 400.686 43.4C401.215 44.3955 401.479 45.57 401.479 46.9233V48.0433H391.399C391.492 49.4589 391.912 50.5866 392.659 51.4266C393.406 52.2666 394.362 52.6866 395.529 52.6866C396.369 52.6866 397.085 52.4766 397.676 52.0566C398.267 51.6366 398.664 51.0611 398.866 50.33H401.432C401.246 51.2789 400.872 52.0955 400.312 52.78C399.752 53.4489 399.068 53.97 398.259 54.3433C397.45 54.7011 396.548 54.88 395.552 54.88ZM391.516 46.13H399.029C398.92 44.9789 398.539 44.0844 397.886 43.4466C397.232 42.8089 396.4 42.49 395.389 42.49C394.394 42.49 393.554 42.8166 392.869 43.47C392.185 44.1078 391.734 44.9944 391.516 46.13ZM4.01329 89.6L-4.39286e-05 75.6H2.56662L5.50662 86.4966H5.59996L9.02996 75.6H11.6433L15.0733 86.4966H15.1666L18.1066 75.6H20.6266L16.6133 89.6H13.8133L10.36 78.68H10.2666L6.81329 89.6H4.01329ZM23.2381 89.6V75.6H25.7581V89.6H23.2381ZM24.4981 73.6866C24.0626 73.6866 23.6892 73.5311 23.3781 73.22C23.067 72.9089 22.9115 72.5355 22.9115 72.1C22.9115 71.6644 23.067 71.2911 23.3781 70.98C23.6892 70.6689 24.0626 70.5133 24.4981 70.5133C24.9337 70.5133 25.307 70.6689 25.6181 70.98C25.9292 71.2911 26.0848 71.6644 26.0848 72.1C26.0848 72.5355 25.9292 72.9089 25.6181 73.22C25.307 73.5311 24.9337 73.6866 24.4981 73.6866ZM33.0494 89.6C32.3339 89.6 31.7739 89.4133 31.3694 89.04C30.965 88.6511 30.7628 88.0755 30.7628 87.3133V77.6066H28.3828V75.6H30.7861V71.4H33.2594V75.6H36.5961V77.6066H33.2828V87.5933H36.9228V89.6H33.0494ZM39.6017 89.6V70H42.1217V77.6533H42.2151C42.6195 76.9378 43.1873 76.37 43.9184 75.95C44.6495 75.53 45.5051 75.32 46.4851 75.32C47.4962 75.32 48.3906 75.5611 49.1684 76.0433C49.9462 76.5255 50.5528 77.1944 50.9884 78.05C51.4239 78.9055 51.6417 79.9011 51.6417 81.0366V89.6H49.1217V81.41C49.1217 80.1966 48.8106 79.2555 48.1884 78.5866C47.5817 77.9178 46.7262 77.5833 45.6217 77.5833C44.5173 77.5833 43.6539 77.9178 43.0317 78.5866C42.4251 79.2555 42.1217 80.1966 42.1217 81.41V89.6H39.6017ZM68.4939 89.88C67.2339 89.88 66.1061 89.5844 65.1105 88.9933C64.115 88.3866 63.3294 87.5389 62.7539 86.45C62.1939 85.3455 61.9139 84.0466 61.9139 82.5533C61.9139 81.0755 62.1939 79.8 62.7539 78.7266C63.3139 77.6378 64.0761 76.7978 65.0405 76.2066C66.005 75.6155 67.1094 75.32 68.3539 75.32C69.5205 75.32 70.555 75.5844 71.4572 76.1133C72.375 76.6422 73.0983 77.4044 73.6272 78.4C74.1561 79.3955 74.4205 80.57 74.4205 81.9233V83.0433H64.3405C64.4339 84.4589 64.8539 85.5866 65.6005 86.4266C66.3472 87.2666 67.3039 87.6866 68.4705 87.6866C69.3105 87.6866 70.0261 87.4766 70.6172 87.0566C71.2083 86.6366 71.605 86.0611 71.8072 85.33H74.3739C74.1872 86.2789 73.8139 87.0955 73.2539 87.78C72.6939 88.4489 72.0094 88.97 71.2005 89.3433C70.3916 89.7011 69.4894 89.88 68.4939 89.88ZM64.4572 81.13H71.9705C71.8616 79.9789 71.4805 79.0844 70.8272 78.4466C70.1739 77.8089 69.3416 77.49 68.3305 77.49C67.335 77.49 66.495 77.8166 65.8105 78.47C65.1261 79.1078 64.675 79.9944 64.4572 81.13ZM81.4996 89.8566C80.1152 89.8566 78.9874 89.4678 78.1163 88.69C77.2608 87.8966 76.833 86.8778 76.833 85.6333C76.833 84.3111 77.2608 83.2844 78.1163 82.5533C78.9874 81.8066 80.2163 81.4333 81.803 81.4333H85.8863V80.7333C85.8863 79.7066 85.6063 78.9133 85.0463 78.3533C84.5019 77.7778 83.7319 77.49 82.7363 77.49C81.9119 77.49 81.2274 77.6844 80.683 78.0733C80.1541 78.4466 79.8041 78.9833 79.633 79.6833H77.0663C77.2996 78.33 77.9296 77.2644 78.9563 76.4866C79.983 75.7089 81.2585 75.32 82.783 75.32C84.5096 75.32 85.8552 75.7866 86.8196 76.72C87.7996 77.6533 88.2896 78.9678 88.2896 80.6633V89.6H85.9096V87.1733H85.8163C85.4585 87.9978 84.8908 88.6511 84.113 89.1333C83.3352 89.6155 82.4641 89.8566 81.4996 89.8566ZM82.013 87.7566C82.7441 87.7566 83.3974 87.5855 83.973 87.2433C84.5641 86.9011 85.0308 86.4422 85.373 85.8666C85.7152 85.2755 85.8863 84.6222 85.8863 83.9066V83.3466H81.9663C81.0641 83.3466 80.3719 83.5411 79.8896 83.93C79.423 84.3033 79.1896 84.8322 79.1896 85.5166C79.1896 86.2011 79.4463 86.7455 79.9596 87.15C80.473 87.5544 81.1574 87.7566 82.013 87.7566ZM98.1699 89.88C96.9254 89.88 95.8054 89.5844 94.8099 88.9933C93.8299 88.3866 93.0521 87.5389 92.4765 86.45C91.9165 85.3611 91.6365 84.0778 91.6365 82.6C91.6365 81.1066 91.9165 79.8155 92.4765 78.7266C93.0521 77.6378 93.8299 76.7978 94.8099 76.2066C95.8054 75.6155 96.9254 75.32 98.1699 75.32C99.1499 75.32 100.044 75.5066 100.853 75.88C101.678 76.2378 102.37 76.7822 102.93 77.5133C103.505 78.2289 103.902 79.1389 104.12 80.2433H101.507C101.289 79.3255 100.877 78.6566 100.27 78.2366C99.6787 77.8166 98.9787 77.6066 98.1699 77.6066C96.9721 77.6066 95.9999 78.0578 95.2532 78.96C94.5221 79.8622 94.1565 81.0755 94.1565 82.6C94.1565 84.1089 94.5221 85.3222 95.2532 86.24C95.9999 87.1422 96.9721 87.5933 98.1699 87.5933C99.0254 87.5933 99.7565 87.3678 100.363 86.9166C100.985 86.4655 101.413 85.7344 101.647 84.7233H104.19C103.988 85.8744 103.599 86.8311 103.023 87.5933C102.448 88.3555 101.748 88.9311 100.923 89.32C100.099 89.6933 99.181 89.88 98.1699 89.88ZM106.949 89.6V70H109.469V77.6533H109.563C109.967 76.9378 110.535 76.37 111.266 75.95C111.997 75.53 112.853 75.32 113.833 75.32C114.844 75.32 115.738 75.5611 116.516 76.0433C117.294 76.5255 117.9 77.1944 118.336 78.05C118.772 78.9055 118.989 79.9011 118.989 81.0366V89.6H116.469V81.41C116.469 80.1966 116.158 79.2555 115.536 78.5866C114.929 77.9178 114.074 77.5833 112.969 77.5833C111.865 77.5833 111.002 77.9178 110.379 78.5866C109.773 79.2555 109.469 80.1966 109.469 81.41V89.6H106.949ZM135.865 89.88C134.605 89.88 133.477 89.5844 132.482 88.9933C131.486 88.3866 130.7 87.5389 130.125 86.45C129.549 85.3611 129.262 84.0778 129.262 82.6C129.262 81.1066 129.549 79.8155 130.125 78.7266C130.7 77.6378 131.486 76.7978 132.482 76.2066C133.477 75.6155 134.605 75.32 135.865 75.32C137.156 75.32 138.299 75.6155 139.295 76.2066C140.29 76.7978 141.068 77.6378 141.628 78.7266C142.188 79.8155 142.468 81.1066 142.468 82.6C142.468 84.0778 142.18 85.3689 141.605 86.4733C141.045 87.5622 140.267 88.4022 139.272 88.9933C138.276 89.5844 137.14 89.88 135.865 89.88ZM135.865 87.5933C137.109 87.5933 138.097 87.1422 138.828 86.24C139.575 85.3222 139.948 84.1089 139.948 82.6C139.948 81.0755 139.575 79.8622 138.828 78.96C138.097 78.0578 137.109 77.6066 135.865 77.6066C134.636 77.6066 133.648 78.0578 132.902 78.96C132.155 79.8622 131.782 81.0755 131.782 82.6C131.782 84.1089 132.155 85.3222 132.902 86.24C133.648 87.1422 134.636 87.5933 135.865 87.5933ZM148.878 89.6C148.162 89.6 147.602 89.4133 147.198 89.04C146.793 88.6511 146.591 88.0755 146.591 87.3133V77.6066H144.211V75.6H146.614V71.4H149.088V75.6H152.424V77.6066H149.111V87.5933H152.751V89.6H148.878ZM155.43 89.6V70H157.95V77.6533H158.043C158.448 76.9378 159.015 76.37 159.747 75.95C160.478 75.53 161.333 75.32 162.313 75.32C163.324 75.32 164.219 75.5611 164.997 76.0433C165.774 76.5255 166.381 77.1944 166.817 78.05C167.252 78.9055 167.47 79.9011 167.47 81.0366V89.6H164.95V81.41C164.95 80.1966 164.639 79.2555 164.017 78.5866C163.41 77.9178 162.554 77.5833 161.45 77.5833C160.345 77.5833 159.482 77.9178 158.86 78.5866C158.253 79.2555 157.95 80.1966 157.95 81.41V89.6H155.43ZM177.404 89.88C176.144 89.88 175.016 89.5844 174.021 88.9933C173.025 88.3866 172.24 87.5389 171.664 86.45C171.104 85.3455 170.824 84.0466 170.824 82.5533C170.824 81.0755 171.104 79.8 171.664 78.7266C172.224 77.6378 172.986 76.7978 173.951 76.2066C174.915 75.6155 176.02 75.32 177.264 75.32C178.431 75.32 179.465 75.5844 180.367 76.1133C181.285 76.6422 182.008 77.4044 182.537 78.4C183.066 79.3955 183.331 80.57 183.331 81.9233V83.0433H173.251C173.344 84.4589 173.764 85.5866 174.511 86.4266C175.257 87.2666 176.214 87.6866 177.381 87.6866C178.221 87.6866 178.936 87.4766 179.527 87.0566C180.118 86.6366 180.515 86.0611 180.717 85.33H183.284C183.097 86.2789 182.724 87.0955 182.164 87.78C181.604 88.4489 180.92 88.97 180.111 89.3433C179.302 89.7011 178.4 89.88 177.404 89.88ZM173.367 81.13H180.881C180.772 79.9789 180.391 79.0844 179.737 78.4466C179.084 77.8089 178.252 77.49 177.241 77.49C176.245 77.49 175.405 77.8166 174.721 78.47C174.036 79.1078 173.585 79.9944 173.367 81.13ZM187.05 89.6V75.6H189.453V78.4H189.546C189.858 77.5289 190.363 76.8289 191.063 76.3C191.779 75.7555 192.65 75.4833 193.676 75.4833H194.703V77.7233H193.536C192.245 77.7233 191.258 78.1355 190.573 78.96C189.904 79.7844 189.57 80.8966 189.57 82.2966V89.6H187.05ZM209.556 89.8566C208.545 89.8566 207.65 89.6233 206.873 89.1566C206.11 88.69 205.511 88.0366 205.076 87.1966C204.656 86.3566 204.446 85.3922 204.446 84.3033V75.6H206.966V83.7433C206.966 84.9411 207.261 85.8822 207.853 86.5666C208.444 87.2355 209.268 87.57 210.326 87.57C211.43 87.57 212.309 87.22 212.963 86.52C213.631 85.8044 213.966 84.8711 213.966 83.72V75.6H216.486V89.6H213.989V87.1733H213.896C213.507 88.0444 212.939 88.7133 212.193 89.18C211.446 89.6311 210.567 89.8566 209.556 89.8566ZM225.533 89.88C223.853 89.88 222.485 89.4678 221.427 88.6433C220.385 87.8033 219.817 86.6833 219.723 85.2833H222.197C222.306 86.0922 222.656 86.7144 223.247 87.15C223.838 87.57 224.631 87.78 225.627 87.78C226.545 87.78 227.245 87.6011 227.727 87.2433C228.209 86.8855 228.45 86.38 228.45 85.7266C228.45 84.7 227.742 84.0389 226.327 83.7433L224.017 83.23C221.497 82.7011 220.237 81.4566 220.237 79.4966C220.237 78.2522 220.703 77.2489 221.637 76.4866C222.57 75.7089 223.791 75.32 225.3 75.32C226.793 75.32 228.022 75.7166 228.987 76.51C229.967 77.2878 230.519 78.3455 230.643 79.6833H228.217C228.061 78.9522 227.719 78.3922 227.19 78.0033C226.677 77.5989 226.008 77.3966 225.183 77.3966C224.39 77.3966 223.76 77.5678 223.293 77.91C222.827 78.2522 222.593 78.7189 222.593 79.31C222.593 79.7766 222.757 80.1578 223.083 80.4533C223.41 80.7333 223.931 80.9511 224.647 81.1066L226.98 81.5966C228.256 81.8766 229.205 82.3433 229.827 82.9966C230.465 83.6344 230.783 84.4744 230.783 85.5166C230.783 86.8544 230.317 87.92 229.383 88.7133C228.45 89.4911 227.167 89.88 225.533 89.88ZM234.058 89.6V75.6H236.578V89.6H234.058ZM235.318 73.6866C234.883 73.6866 234.51 73.5311 234.198 73.22C233.887 72.9089 233.732 72.5355 233.732 72.1C233.732 71.6644 233.887 71.2911 234.198 70.98C234.51 70.6689 234.883 70.5133 235.318 70.5133C235.754 70.5133 236.127 70.6689 236.438 70.98C236.75 71.2911 236.905 71.6644 236.905 72.1C236.905 72.5355 236.75 72.9089 236.438 73.22C236.127 73.5311 235.754 73.6866 235.318 73.6866ZM240.906 89.6V75.6H243.403V77.8633H243.496C243.901 77.0544 244.469 76.4322 245.2 75.9966C245.931 75.5611 246.794 75.3433 247.79 75.3433C248.801 75.3433 249.695 75.5922 250.473 76.09C251.251 76.5722 251.858 77.2411 252.293 78.0966C252.729 78.9522 252.946 79.9322 252.946 81.0366V89.6H250.426V81.48C250.426 80.2822 250.115 79.3411 249.493 78.6566C248.886 77.9722 248.031 77.63 246.926 77.63C245.822 77.63 244.959 77.9722 244.336 78.6566C243.73 79.3411 243.426 80.2822 243.426 81.48V89.6H240.906ZM262.601 95.48C260.874 95.48 259.435 95.06 258.284 94.22C257.133 93.3955 256.464 92.2911 256.277 90.9066H258.961C259.116 91.6533 259.513 92.2366 260.151 92.6566C260.788 93.0766 261.589 93.2866 262.554 93.2866C263.798 93.2866 264.771 92.9289 265.471 92.2133C266.186 91.4978 266.544 90.5255 266.544 89.2966V87.0333H266.451C266.108 87.8578 265.572 88.4955 264.841 88.9466C264.125 89.3822 263.277 89.6 262.297 89.6C261.115 89.6 260.073 89.3044 259.171 88.7133C258.284 88.1066 257.592 87.2666 257.094 86.1933C256.596 85.12 256.347 83.8755 256.347 82.46C256.347 81.0444 256.596 79.8 257.094 78.7266C257.592 77.6533 258.284 76.8211 259.171 76.23C260.073 75.6233 261.115 75.32 262.297 75.32C263.277 75.32 264.125 75.5455 264.841 75.9966C265.572 76.4322 266.108 77.0544 266.451 77.8633H266.544V75.6H269.041V89.4133C269.041 91.28 268.457 92.7578 267.291 93.8466C266.139 94.9355 264.576 95.48 262.601 95.48ZM262.904 87.3133C264.008 87.3133 264.887 86.9555 265.541 86.24C266.194 85.5244 266.521 84.5755 266.521 83.3933V81.5266C266.521 80.3444 266.186 79.3955 265.517 78.68C264.864 77.9644 263.993 77.6066 262.904 77.6066C261.675 77.6066 260.695 78.05 259.964 78.9366C259.233 79.8078 258.867 80.9822 258.867 82.46C258.867 83.9378 259.233 85.12 259.964 86.0066C260.695 86.8778 261.675 87.3133 262.904 87.3133ZM280.199 95.2V75.6H282.696V77.8866H282.789C283.598 76.1755 285.029 75.32 287.083 75.32C288.249 75.32 289.268 75.6233 290.139 76.23C291.01 76.8366 291.687 77.6844 292.169 78.7733C292.652 79.8622 292.893 81.1378 292.893 82.6C292.893 84.0466 292.652 85.3222 292.169 86.4266C291.687 87.5155 291.01 88.3633 290.139 88.97C289.268 89.5766 288.249 89.88 287.083 89.88C285.029 89.88 283.606 89.0322 282.813 87.3366H282.719V95.2H280.199ZM286.406 87.64C287.619 87.64 288.584 87.1811 289.299 86.2633C290.015 85.3455 290.373 84.1244 290.373 82.6C290.373 81.0755 290.015 79.8544 289.299 78.9366C288.584 78.0189 287.619 77.56 286.406 77.56C285.239 77.56 284.329 77.9333 283.676 78.68C283.038 79.4111 282.719 80.3755 282.719 81.5733V83.6266C282.719 84.8244 283.038 85.7889 283.676 86.52C284.329 87.2355 285.239 87.6089 286.406 87.64ZM296.616 89.6V75.6H299.02V78.4H299.113C299.424 77.5289 299.93 76.8289 300.63 76.3C301.345 75.7555 302.216 75.4833 303.243 75.4833H304.27V77.7233H303.103C301.812 77.7233 300.824 78.1355 300.14 78.96C299.471 79.7844 299.136 80.8966 299.136 82.2966V89.6H296.616ZM312.287 89.88C311.027 89.88 309.899 89.5844 308.903 88.9933C307.908 88.3866 307.122 87.5389 306.547 86.45C305.971 85.3611 305.683 84.0778 305.683 82.6C305.683 81.1066 305.971 79.8155 306.547 78.7266C307.122 77.6378 307.908 76.7978 308.903 76.2066C309.899 75.6155 311.027 75.32 312.287 75.32C313.578 75.32 314.721 75.6155 315.717 76.2066C316.712 76.7978 317.49 77.6378 318.05 78.7266C318.61 79.8155 318.89 81.1066 318.89 82.6C318.89 84.0778 318.602 85.3689 318.027 86.4733C317.467 87.5622 316.689 88.4022 315.693 88.9933C314.698 89.5844 313.562 89.88 312.287 89.88ZM312.287 87.5933C313.531 87.5933 314.519 87.1422 315.25 86.24C315.997 85.3222 316.37 84.1089 316.37 82.6C316.37 81.0755 315.997 79.8622 315.25 78.96C314.519 78.0578 313.531 77.6066 312.287 77.6066C311.058 77.6066 310.07 78.0578 309.323 78.96C308.577 79.8622 308.203 81.0755 308.203 82.6C308.203 84.1089 308.577 85.3222 309.323 86.24C310.07 87.1422 311.058 87.5933 312.287 87.5933ZM325.299 89.6C324.584 89.6 324.024 89.4133 323.619 89.04C323.215 88.6511 323.013 88.0755 323.013 87.3133V77.6066H320.633V75.6H323.036V71.4H325.509V75.6H328.846V77.6066H325.533V87.5933H329.173V89.6H325.299ZM337.662 89.88C336.402 89.88 335.274 89.5844 334.278 88.9933C333.283 88.3866 332.497 87.5389 331.922 86.45C331.346 85.3611 331.058 84.0778 331.058 82.6C331.058 81.1066 331.346 79.8155 331.922 78.7266C332.497 77.6378 333.283 76.7978 334.278 76.2066C335.274 75.6155 336.402 75.32 337.662 75.32C338.953 75.32 340.096 75.6155 341.092 76.2066C342.087 76.7978 342.865 77.6378 343.425 78.7266C343.985 79.8155 344.265 81.1066 344.265 82.6C344.265 84.0778 343.977 85.3689 343.402 86.4733C342.842 87.5622 342.064 88.4022 341.068 88.9933C340.073 89.5844 338.937 89.88 337.662 89.88ZM337.662 87.5933C338.906 87.5933 339.894 87.1422 340.625 86.24C341.372 85.3222 341.745 84.1089 341.745 82.6C341.745 81.0755 341.372 79.8622 340.625 78.96C339.894 78.0578 338.906 77.6066 337.662 77.6066C336.433 77.6066 335.445 78.0578 334.698 78.96C333.952 79.8622 333.578 81.0755 333.578 82.6C333.578 84.1089 333.952 85.3222 334.698 86.24C335.445 87.1422 336.433 87.5933 337.662 87.5933ZM353.451 89.88C352.207 89.88 351.087 89.5844 350.091 88.9933C349.111 88.3866 348.333 87.5389 347.758 86.45C347.198 85.3611 346.918 84.0778 346.918 82.6C346.918 81.1066 347.198 79.8155 347.758 78.7266C348.333 77.6378 349.111 76.7978 350.091 76.2066C351.087 75.6155 352.207 75.32 353.451 75.32C354.431 75.32 355.326 75.5066 356.134 75.88C356.959 76.2378 357.651 76.7822 358.211 77.5133C358.787 78.2289 359.183 79.1389 359.401 80.2433H356.788C356.57 79.3255 356.158 78.6566 355.551 78.2366C354.96 77.8166 354.26 77.6066 353.451 77.6066C352.253 77.6066 351.281 78.0578 350.534 78.96C349.803 79.8622 349.438 81.0755 349.438 82.6C349.438 84.1089 349.803 85.3222 350.534 86.24C351.281 87.1422 352.253 87.5933 353.451 87.5933C354.307 87.5933 355.038 87.3678 355.644 86.9166C356.267 86.4655 356.694 85.7344 356.928 84.7233H359.471C359.269 85.8744 358.88 86.8311 358.304 87.5933C357.729 88.3555 357.029 88.9311 356.204 89.32C355.38 89.6933 354.462 89.88 353.451 89.88ZM368.041 89.88C366.781 89.88 365.653 89.5844 364.657 88.9933C363.662 88.3866 362.876 87.5389 362.301 86.45C361.725 85.3611 361.437 84.0778 361.437 82.6C361.437 81.1066 361.725 79.8155 362.301 78.7266C362.876 77.6378 363.662 76.7978 364.657 76.2066C365.653 75.6155 366.781 75.32 368.041 75.32C369.332 75.32 370.475 75.6155 371.471 76.2066C372.466 76.7978 373.244 77.6378 373.804 78.7266C374.364 79.8155 374.644 81.1066 374.644 82.6C374.644 84.0778 374.356 85.3689 373.781 86.4733C373.221 87.5622 372.443 88.4022 371.447 88.9933C370.452 89.5844 369.316 89.88 368.041 89.88ZM368.041 87.5933C369.285 87.5933 370.273 87.1422 371.004 86.24C371.751 85.3222 372.124 84.1089 372.124 82.6C372.124 81.0755 371.751 79.8622 371.004 78.96C370.273 78.0578 369.285 77.6066 368.041 77.6066C366.812 77.6066 365.824 78.0578 365.077 78.96C364.331 79.8622 363.957 81.0755 363.957 82.6C363.957 84.1089 364.331 85.3222 365.077 86.24C365.824 87.1422 366.812 87.5933 368.041 87.5933ZM378.16 89.6V70H380.68V89.6H378.16ZM389.815 89.88C388.135 89.88 386.766 89.4678 385.708 88.6433C384.666 87.8033 384.098 86.6833 384.005 85.2833H386.478C386.587 86.0922 386.937 86.7144 387.528 87.15C388.119 87.57 388.912 87.78 389.908 87.78C390.826 87.78 391.526 87.6011 392.008 87.2433C392.49 86.8855 392.731 86.38 392.731 85.7266C392.731 84.7 392.024 84.0389 390.608 83.7433L388.298 83.23C385.778 82.7011 384.518 81.4566 384.518 79.4966C384.518 78.2522 384.985 77.2489 385.918 76.4866C386.851 75.7089 388.072 75.32 389.581 75.32C391.075 75.32 392.304 75.7166 393.268 76.51C394.248 77.2878 394.8 78.3455 394.925 79.6833H392.498C392.342 78.9522 392 78.3922 391.471 78.0033C390.958 77.5989 390.289 77.3966 389.465 77.3966C388.671 77.3966 388.041 77.5678 387.575 77.91C387.108 78.2522 386.875 78.7189 386.875 79.31C386.875 79.7766 387.038 80.1578 387.365 80.4533C387.691 80.7333 388.212 80.9511 388.928 81.1066L391.261 81.5966C392.537 81.8766 393.486 82.3433 394.108 82.9966C394.746 83.6344 395.065 84.4744 395.065 85.5166C395.065 86.8544 394.598 87.92 393.665 88.7133C392.731 89.4911 391.448 89.88 389.815 89.88ZM399.273 89.88C398.76 89.88 398.324 89.7011 397.966 89.3433C397.609 88.9855 397.43 88.55 397.43 88.0366C397.43 87.5233 397.609 87.0878 397.966 86.73C398.324 86.3722 398.76 86.1933 399.273 86.1933C399.786 86.1933 400.222 86.3722 400.58 86.73C400.937 87.0878 401.116 87.5233 401.116 88.0366C401.116 88.55 400.937 88.9855 400.58 89.3433C400.222 89.7011 399.786 89.88 399.273 89.88Z" fill="white"/>
</svg>
