<svg width="285" height="29" viewBox="0 0 285 29" fill="none" xmlns="http://www.w3.org/2000/svg">
<path d="M16.8 15.1999C17.12 14.5172 17.4294 13.9199 17.728 13.4079C18.048 12.8959 18.3574 12.4692 18.656 12.1279H2.19345e-05V10.7839H18.656C18.3574 10.4212 18.048 9.9839 17.728 9.4719C17.4294 8.9599 17.12 8.37323 16.8 7.7119H17.92C19.264 9.26924 20.672 10.4212 22.144 11.1679V11.7439C20.672 12.4692 19.264 13.6212 17.92 15.1999H16.8ZM36.7383 28.7999V26.5066H40.3649L41.8316 22.4799L35.1383 6.3999H38.1249L43.2183 18.9066H43.3249L47.8049 6.3999H50.7116L44.6849 22.3999L43.2716 26.1599C42.9516 26.9955 42.6049 27.6443 42.2316 28.1066C41.876 28.5688 41.2716 28.7999 40.4183 28.7999H36.7383ZM59.4199 22.7199C57.9799 22.7199 56.691 22.3821 55.5533 21.7066C54.4155 21.0132 53.5177 20.0443 52.8599 18.7999C52.2022 17.5555 51.8733 16.0888 51.8733 14.3999C51.8733 12.6932 52.2022 11.2177 52.8599 9.97324C53.5177 8.72879 54.4155 7.76879 55.5533 7.09324C56.691 6.41768 57.9799 6.0799 59.4199 6.0799C60.8955 6.0799 62.2022 6.41768 63.3399 7.09324C64.4777 7.76879 65.3666 8.72879 66.0066 9.97324C66.6466 11.2177 66.9666 12.6932 66.9666 14.3999C66.9666 16.0888 66.6377 17.5643 65.9799 18.8266C65.3399 20.071 64.451 21.031 63.3133 21.7066C62.1755 22.3821 60.8777 22.7199 59.4199 22.7199ZM59.4199 20.1066C60.8422 20.1066 61.971 19.591 62.8066 18.5599C63.6599 17.511 64.0866 16.1243 64.0866 14.3999C64.0866 12.6577 63.6599 11.271 62.8066 10.2399C61.971 9.20879 60.8422 8.69324 59.4199 8.69324C58.0155 8.69324 56.8866 9.20879 56.0333 10.2399C55.1799 11.271 54.7533 12.6577 54.7533 14.3999C54.7533 16.1243 55.1799 17.511 56.0333 18.5599C56.8866 19.591 58.0155 20.1066 59.4199 20.1066ZM76.6383 22.6932C75.4827 22.6932 74.4605 22.4266 73.5716 21.8932C72.7005 21.3599 72.016 20.6132 71.5183 19.6532C71.0383 18.6932 70.7983 17.591 70.7983 16.3466V6.3999H73.6783V15.7066C73.6783 17.0755 74.016 18.151 74.6916 18.9332C75.3672 19.6977 76.3094 20.0799 77.5183 20.0799C78.7805 20.0799 79.7849 19.6799 80.5316 18.8799C81.296 18.0621 81.6783 16.9955 81.6783 15.6799V6.3999H84.5583V22.3999H81.7049V19.6266H81.5983C81.1538 20.6221 80.5049 21.3866 79.6516 21.9199C78.7983 22.4355 77.7938 22.6932 76.6383 22.6932ZM89.6983 22.3999V6.3999H92.4449V9.5999H92.5516C92.9072 8.60435 93.4849 7.80435 94.2849 7.1999C95.1027 6.57768 96.0983 6.26657 97.2716 6.26657H98.4449V8.82657H97.1116C95.636 8.82657 94.5072 9.29768 93.7249 10.2399C92.9605 11.1821 92.5783 12.4532 92.5783 14.0532V22.3999H89.6983ZM109.686 22.3999V-9.72748e-05H112.566V8.74657H112.673C113.135 7.92879 113.784 7.2799 114.62 6.7999C115.455 6.3199 116.433 6.0799 117.553 6.0799C118.708 6.0799 119.731 6.35546 120.62 6.90657C121.508 7.45768 122.202 8.22212 122.7 9.1999C123.197 10.1777 123.446 11.3155 123.446 12.6132V22.3999H120.566V13.0399C120.566 11.6532 120.211 10.5777 119.5 9.81324C118.806 9.04879 117.828 8.66657 116.566 8.66657C115.304 8.66657 114.317 9.04879 113.606 9.81324C112.913 10.5777 112.566 11.6532 112.566 13.0399V22.3999H109.686ZM134.826 22.7199C133.386 22.7199 132.097 22.3821 130.96 21.7066C129.822 21.0132 128.924 20.0443 128.266 18.7999C127.608 17.5555 127.28 16.0888 127.28 14.3999C127.28 12.6932 127.608 11.2177 128.266 9.97324C128.924 8.72879 129.822 7.76879 130.96 7.09324C132.097 6.41768 133.386 6.0799 134.826 6.0799C136.302 6.0799 137.608 6.41768 138.746 7.09324C139.884 7.76879 140.773 8.72879 141.413 9.97324C142.053 11.2177 142.373 12.6932 142.373 14.3999C142.373 16.0888 142.044 17.5643 141.386 18.8266C140.746 20.071 139.857 21.031 138.72 21.7066C137.582 22.3821 136.284 22.7199 134.826 22.7199ZM134.826 20.1066C136.248 20.1066 137.377 19.591 138.213 18.5599C139.066 17.511 139.493 16.1243 139.493 14.3999C139.493 12.6577 139.066 11.271 138.213 10.2399C137.377 9.20879 136.248 8.69324 134.826 8.69324C133.422 8.69324 132.293 9.20879 131.44 10.2399C130.586 11.271 130.16 12.6577 130.16 14.3999C130.16 16.1243 130.586 17.511 131.44 18.5599C132.293 19.591 133.422 20.1066 134.826 20.1066ZM146.311 22.3999V6.3999H149.138V8.98657H149.245C149.653 8.04435 150.249 7.33324 151.031 6.85324C151.831 6.35546 152.765 6.10657 153.831 6.10657C154.916 6.10657 155.876 6.37324 156.711 6.90657C157.565 7.42212 158.213 8.16879 158.658 9.14657H158.738C159.271 8.16879 159.965 7.42212 160.818 6.90657C161.671 6.37324 162.658 6.10657 163.778 6.10657C164.916 6.10657 165.92 6.37324 166.791 6.90657C167.662 7.42212 168.329 8.1599 168.791 9.1199C169.271 10.0799 169.511 11.2088 169.511 12.5066V22.3999H166.631V12.9332C166.631 11.5999 166.311 10.5688 165.671 9.8399C165.031 9.09324 164.142 8.7199 163.005 8.7199C161.885 8.7199 160.996 9.09324 160.338 9.8399C159.68 10.5688 159.351 11.5999 159.351 12.9332V22.3999H156.471V12.9332C156.471 11.5999 156.142 10.5688 155.485 9.8399C154.845 9.09324 153.956 8.7199 152.818 8.7199C151.698 8.7199 150.809 9.09324 150.151 9.8399C149.511 10.5688 149.191 11.5999 149.191 12.9332V22.3999H146.311ZM180.862 22.7199C179.422 22.7199 178.133 22.3821 176.995 21.7066C175.858 21.0132 174.96 20.0443 174.302 18.7999C173.662 17.5377 173.342 16.0532 173.342 14.3466C173.342 12.6577 173.662 11.1999 174.302 9.97324C174.942 8.72879 175.813 7.76879 176.915 7.09324C178.018 6.41768 179.28 6.0799 180.702 6.0799C182.035 6.0799 183.218 6.38212 184.249 6.98657C185.298 7.59101 186.124 8.46212 186.729 9.5999C187.333 10.7377 187.635 12.0799 187.635 13.6266V14.9066H176.115C176.222 16.5243 176.702 17.8132 177.555 18.7732C178.409 19.7332 179.502 20.2132 180.835 20.2132C181.795 20.2132 182.613 19.9732 183.289 19.4932C183.964 19.0132 184.418 18.3555 184.649 17.5199H187.582C187.369 18.6043 186.942 19.5377 186.302 20.3199C185.662 21.0843 184.88 21.6799 183.955 22.1066C183.031 22.5155 182 22.7199 180.862 22.7199ZM176.249 12.7199H184.835C184.711 11.4043 184.275 10.3821 183.529 9.65324C182.782 8.92435 181.831 8.5599 180.675 8.5599C179.538 8.5599 178.578 8.93324 177.795 9.6799C177.013 10.4088 176.498 11.4221 176.249 12.7199ZM199.792 22.3999V6.3999H202.539V9.5999H202.645C203.001 8.60435 203.579 7.80435 204.379 7.1999C205.196 6.57768 206.192 6.26657 207.365 6.26657H208.539V8.82657H207.205C205.73 8.82657 204.601 9.29768 203.819 10.2399C203.054 11.1821 202.672 12.4532 202.672 14.0532V22.3999H199.792ZM217.701 22.7199C216.261 22.7199 214.972 22.3821 213.835 21.7066C212.697 21.0132 211.799 20.0443 211.141 18.7999C210.483 17.5555 210.155 16.0888 210.155 14.3999C210.155 12.6932 210.483 11.2177 211.141 9.97324C211.799 8.72879 212.697 7.76879 213.835 7.09324C214.972 6.41768 216.261 6.0799 217.701 6.0799C219.177 6.0799 220.483 6.41768 221.621 7.09324C222.759 7.76879 223.648 8.72879 224.288 9.97324C224.928 11.2177 225.248 12.6932 225.248 14.3999C225.248 16.0888 224.919 17.5643 224.261 18.8266C223.621 20.071 222.732 21.031 221.595 21.7066C220.457 22.3821 219.159 22.7199 217.701 22.7199ZM217.701 20.1066C219.123 20.1066 220.252 19.591 221.088 18.5599C221.941 17.511 222.368 16.1243 222.368 14.3999C222.368 12.6577 221.941 11.271 221.088 10.2399C220.252 9.20879 219.123 8.69324 217.701 8.69324C216.297 8.69324 215.168 9.20879 214.315 10.2399C213.461 11.271 213.035 12.6577 213.035 14.3999C213.035 16.1243 213.461 17.511 214.315 18.5599C215.168 19.591 216.297 20.1066 217.701 20.1066ZM234.92 22.6932C233.764 22.6932 232.742 22.4266 231.853 21.8932C230.982 21.3599 230.297 20.6132 229.8 19.6532C229.32 18.6932 229.08 17.591 229.08 16.3466V6.3999H231.96V15.7066C231.96 17.0755 232.297 18.151 232.973 18.9332C233.648 19.6977 234.591 20.0799 235.8 20.0799C237.062 20.0799 238.066 19.6799 238.813 18.8799C239.577 18.0621 239.96 16.9955 239.96 15.6799V6.3999H242.84V22.3999H239.986V19.6266H239.88C239.435 20.6221 238.786 21.3866 237.933 21.9199C237.08 22.4355 236.075 22.6932 234.92 22.6932ZM251.073 22.3999C250.255 22.3999 249.615 22.1866 249.153 21.7599C248.691 21.3155 248.46 20.6577 248.46 19.7866V8.69324H245.74V6.3999H248.486V1.5999H251.313V6.3999H255.126V8.69324H251.34V20.1066H255.5V22.3999H251.073ZM265.175 22.7199C263.735 22.7199 262.446 22.3821 261.308 21.7066C260.17 21.0132 259.272 20.0443 258.615 18.7999C257.975 17.5377 257.655 16.0532 257.655 14.3466C257.655 12.6577 257.975 11.1999 258.615 9.97324C259.255 8.72879 260.126 7.76879 261.228 7.09324C262.33 6.41768 263.592 6.0799 265.015 6.0799C266.348 6.0799 267.53 6.38212 268.561 6.98657C269.61 7.59101 270.437 8.46212 271.041 9.5999C271.646 10.7377 271.948 12.0799 271.948 13.6266V14.9066H260.428C260.535 16.5243 261.015 17.8132 261.868 18.7732C262.721 19.7332 263.815 20.2132 265.148 20.2132C266.108 20.2132 266.926 19.9732 267.601 19.4932C268.277 19.0132 268.73 18.3555 268.961 17.5199H271.895C271.681 18.6043 271.255 19.5377 270.615 20.3199C269.975 21.0843 269.192 21.6799 268.268 22.1066C267.343 22.5155 266.312 22.7199 265.175 22.7199ZM260.561 12.7199H269.148C269.023 11.4043 268.588 10.3821 267.841 9.65324C267.095 8.92435 266.143 8.5599 264.988 8.5599C263.85 8.5599 262.89 8.93324 262.108 9.6799C261.326 10.4088 260.81 11.4221 260.561 12.7199ZM276.198 22.3999V6.3999H278.945V9.5999H279.052C279.407 8.60435 279.985 7.80435 280.785 7.1999C281.603 6.57768 282.598 6.26657 283.772 6.26657H284.945V8.82657H283.612C282.136 8.82657 281.007 9.29768 280.225 10.2399C279.46 11.1821 279.078 12.4532 279.078 14.0532V22.3999H276.198Z" fill="black"/>
</svg>
