<svg width="360" height="29" viewBox="0 0 360 29" fill="none" xmlns="http://www.w3.org/2000/svg">
<path d="M16.8 15.1999C17.12 14.5172 17.4294 13.9199 17.728 13.4079C18.048 12.8959 18.3574 12.4692 18.656 12.1279H2.19345e-05V10.7839H18.656C18.3574 10.4212 18.048 9.9839 17.728 9.4719C17.4294 8.9599 17.12 8.37323 16.8 7.7119H17.92C19.264 9.26924 20.672 10.4212 22.144 11.1679V11.7439C20.672 12.4692 19.264 13.6212 17.92 15.1999H16.8ZM45.2716 22.7199C42.9249 22.7199 41.2894 21.7421 40.3649 19.7866H40.2583V22.3999H37.4049V-9.72748e-05H40.2849V8.98657H40.3916C41.2983 7.04879 42.9249 6.0799 45.2716 6.0799C46.6049 6.0799 47.7694 6.42657 48.7649 7.1199C49.7605 7.81323 50.5338 8.78212 51.0849 10.0266C51.636 11.271 51.9116 12.7288 51.9116 14.3999C51.9116 16.0532 51.636 17.511 51.0849 18.7732C50.5338 20.0177 49.7605 20.9866 48.7649 21.6799C47.7694 22.3732 46.6049 22.7199 45.2716 22.7199ZM44.4983 20.1599C45.8849 20.1599 46.9872 19.6355 47.8049 18.5866C48.6227 17.5377 49.0316 16.1421 49.0316 14.3999C49.0316 12.6577 48.6227 11.2621 47.8049 10.2132C46.9872 9.16435 45.8849 8.6399 44.4983 8.6399C43.1649 8.6399 42.1249 9.06657 41.3783 9.9199C40.6494 10.7555 40.2849 11.8577 40.2849 13.2266V15.5732C40.2849 16.9421 40.6494 18.0532 41.3783 18.9066C42.1249 19.7421 43.1649 20.1599 44.4983 20.1599ZM60.007 22.6932C58.4248 22.6932 57.1359 22.2488 56.1404 21.3599C55.1626 20.4532 54.6737 19.2888 54.6737 17.8666C54.6737 16.3555 55.1626 15.1821 56.1404 14.3466C57.1359 13.4932 58.5404 13.0666 60.3537 13.0666H65.0204V12.2666C65.0204 11.0932 64.7004 10.1866 64.0604 9.54657C63.4381 8.88879 62.5581 8.5599 61.4204 8.5599C60.4781 8.5599 59.6959 8.78212 59.0737 9.22657C58.4692 9.65324 58.0692 10.2666 57.8737 11.0666H54.9404C55.207 9.5199 55.927 8.30212 57.1004 7.41324C58.2737 6.52435 59.7315 6.0799 61.4737 6.0799C63.447 6.0799 64.9848 6.61324 66.087 7.6799C67.207 8.74657 67.767 10.2488 67.767 12.1866V22.3999H65.047V19.6266H64.9404C64.5315 20.5688 63.8826 21.3155 62.9937 21.8666C62.1048 22.4177 61.1092 22.6932 60.007 22.6932ZM60.5937 20.2932C61.4292 20.2932 62.1759 20.0977 62.8337 19.7066C63.5092 19.3155 64.0426 18.791 64.4337 18.1332C64.8248 17.4577 65.0204 16.711 65.0204 15.8932V15.2532H60.5404C59.5092 15.2532 58.7181 15.4755 58.167 15.9199C57.6337 16.3466 57.367 16.951 57.367 17.7332C57.367 18.5155 57.6604 19.1377 58.247 19.5999C58.8337 20.0621 59.6159 20.2932 60.5937 20.2932ZM79.0587 22.7199C77.6365 22.7199 76.3565 22.3821 75.2187 21.7066C74.0987 21.0132 73.2098 20.0443 72.552 18.7999C71.912 17.5555 71.592 16.0888 71.592 14.3999C71.592 12.6932 71.912 11.2177 72.552 9.97324C73.2098 8.72879 74.0987 7.76879 75.2187 7.09324C76.3565 6.41768 77.6365 6.0799 79.0587 6.0799C80.1787 6.0799 81.2009 6.29324 82.1254 6.7199C83.0676 7.12879 83.8587 7.75101 84.4987 8.58657C85.1565 9.40435 85.6098 10.4443 85.8587 11.7066H82.872C82.6231 10.6577 82.152 9.89324 81.4587 9.41324C80.7831 8.93324 79.9831 8.69324 79.0587 8.69324C77.6898 8.69324 76.5787 9.20879 75.7254 10.2399C74.8898 11.271 74.472 12.6577 74.472 14.3999C74.472 16.1243 74.8898 17.511 75.7254 18.5599C76.5787 19.591 77.6898 20.1066 79.0587 20.1066C80.0365 20.1066 80.872 19.8488 81.5654 19.3332C82.2765 18.8177 82.7654 17.9821 83.032 16.8266H85.9387C85.7076 18.1421 85.2631 19.2355 84.6054 20.1066C83.9476 20.9777 83.1476 21.6355 82.2054 22.0799C81.2631 22.5066 80.2142 22.7199 79.0587 22.7199ZM89.0924 22.3999V-9.72748e-05H91.9724V13.5999H92.0791L99.0124 6.3999H102.479L95.9191 13.0932L103.092 22.3999H99.5991L93.9191 14.9066L91.9724 16.6399V22.3999H89.0924ZM117.229 22.3999C116.411 22.3999 115.771 22.1866 115.309 21.7599C114.847 21.3155 114.616 20.6577 114.616 19.7866V8.69324H111.896V6.3999H114.642V1.5999H117.469V6.3999H121.282V8.69324H117.496V20.1066H121.656V22.3999H117.229ZM131.357 22.7199C129.917 22.7199 128.629 22.3821 127.491 21.7066C126.353 21.0132 125.455 20.0443 124.797 18.7999C124.14 17.5555 123.811 16.0888 123.811 14.3999C123.811 12.6932 124.14 11.2177 124.797 9.97324C125.455 8.72879 126.353 7.76879 127.491 7.09324C128.629 6.41768 129.917 6.0799 131.357 6.0799C132.833 6.0799 134.14 6.41768 135.277 7.09324C136.415 7.76879 137.304 8.72879 137.944 9.97324C138.584 11.2177 138.904 12.6932 138.904 14.3999C138.904 16.0888 138.575 17.5643 137.917 18.8266C137.277 20.071 136.389 21.031 135.251 21.7066C134.113 22.3821 132.815 22.7199 131.357 22.7199ZM131.357 20.1066C132.78 20.1066 133.909 19.591 134.744 18.5599C135.597 17.511 136.024 16.1243 136.024 14.3999C136.024 12.6577 135.597 11.271 134.744 10.2399C133.909 9.20879 132.78 8.69324 131.357 8.69324C129.953 8.69324 128.824 9.20879 127.971 10.2399C127.117 11.271 126.691 12.6577 126.691 14.3999C126.691 16.1243 127.117 17.511 127.971 18.5599C128.824 19.591 129.953 20.1066 131.357 20.1066ZM150.082 28.7999V26.5066H153.709L155.175 22.4799L148.482 6.3999H151.469L156.562 18.9066H156.669L161.149 6.3999H164.055L158.029 22.3999L156.615 26.1599C156.295 26.9955 155.949 27.6443 155.575 28.1066C155.22 28.5688 154.615 28.7999 153.762 28.7999H150.082ZM172.764 22.7199C171.324 22.7199 170.035 22.3821 168.897 21.7066C167.759 21.0132 166.861 20.0443 166.204 18.7999C165.546 17.5555 165.217 16.0888 165.217 14.3999C165.217 12.6932 165.546 11.2177 166.204 9.97324C166.861 8.72879 167.759 7.76879 168.897 7.09324C170.035 6.41768 171.324 6.0799 172.764 6.0799C174.239 6.0799 175.546 6.41768 176.684 7.09324C177.821 7.76879 178.71 8.72879 179.35 9.97324C179.99 11.2177 180.31 12.6932 180.31 14.3999C180.31 16.0888 179.981 17.5643 179.324 18.8266C178.684 20.071 177.795 21.031 176.657 21.7066C175.519 22.3821 174.221 22.7199 172.764 22.7199ZM172.764 20.1066C174.186 20.1066 175.315 19.591 176.15 18.5599C177.004 17.511 177.43 16.1243 177.43 14.3999C177.43 12.6577 177.004 11.271 176.15 10.2399C175.315 9.20879 174.186 8.69324 172.764 8.69324C171.359 8.69324 170.23 9.20879 169.377 10.2399C168.524 11.271 168.097 12.6577 168.097 14.3999C168.097 16.1243 168.524 17.511 169.377 18.5599C170.23 19.591 171.359 20.1066 172.764 20.1066ZM189.982 22.6932C188.826 22.6932 187.804 22.4266 186.915 21.8932C186.044 21.3599 185.36 20.6132 184.862 19.6532C184.382 18.6932 184.142 17.591 184.142 16.3466V6.3999H187.022V15.7066C187.022 17.0755 187.36 18.151 188.035 18.9332C188.711 19.6977 189.653 20.0799 190.862 20.0799C192.124 20.0799 193.129 19.6799 193.875 18.8799C194.64 18.0621 195.022 16.9955 195.022 15.6799V6.3999H197.902V22.3999H195.049V19.6266H194.942C194.498 20.6221 193.849 21.3866 192.995 21.9199C192.142 22.4355 191.138 22.6932 189.982 22.6932ZM203.042 22.3999V6.3999H205.789V9.5999H205.895C206.251 8.60435 206.829 7.80435 207.629 7.1999C208.446 6.57768 209.442 6.26657 210.615 6.26657H211.789V8.82657H210.455C208.98 8.82657 207.851 9.29768 207.069 10.2399C206.304 11.1821 205.922 12.4532 205.922 14.0532V22.3999H203.042ZM229.59 22.7199C228.168 22.7199 226.888 22.3821 225.75 21.7066C224.63 21.0132 223.741 20.0443 223.083 18.7999C222.443 17.5555 222.123 16.0888 222.123 14.3999C222.123 12.6932 222.443 11.2177 223.083 9.97324C223.741 8.72879 224.63 7.76879 225.75 7.09324C226.888 6.41768 228.168 6.0799 229.59 6.0799C230.71 6.0799 231.732 6.29324 232.657 6.7199C233.599 7.12879 234.39 7.75101 235.03 8.58657C235.688 9.40435 236.141 10.4443 236.39 11.7066H233.403C233.154 10.6577 232.683 9.89324 231.99 9.41324C231.314 8.93324 230.514 8.69324 229.59 8.69324C228.221 8.69324 227.11 9.20879 226.257 10.2399C225.421 11.271 225.003 12.6577 225.003 14.3999C225.003 16.1243 225.421 17.511 226.257 18.5599C227.11 19.591 228.221 20.1066 229.59 20.1066C230.568 20.1066 231.403 19.8488 232.097 19.3332C232.808 18.8177 233.297 17.9821 233.563 16.8266H236.47C236.239 18.1421 235.794 19.2355 235.137 20.1066C234.479 20.9777 233.679 21.6355 232.737 22.0799C231.794 22.5066 230.745 22.7199 229.59 22.7199ZM246.264 22.7199C244.824 22.7199 243.535 22.3821 242.397 21.7066C241.259 21.0132 240.361 20.0443 239.704 18.7999C239.046 17.5555 238.717 16.0888 238.717 14.3999C238.717 12.6932 239.046 11.2177 239.704 9.97324C240.361 8.72879 241.259 7.76879 242.397 7.09324C243.535 6.41768 244.824 6.0799 246.264 6.0799C247.739 6.0799 249.046 6.41768 250.184 7.09324C251.321 7.76879 252.21 8.72879 252.85 9.97324C253.49 11.2177 253.81 12.6932 253.81 14.3999C253.81 16.0888 253.481 17.5643 252.824 18.8266C252.184 20.071 251.295 21.031 250.157 21.7066C249.019 22.3821 247.721 22.7199 246.264 22.7199ZM246.264 20.1066C247.686 20.1066 248.815 19.591 249.65 18.5599C250.504 17.511 250.93 16.1243 250.93 14.3999C250.93 12.6577 250.504 11.271 249.65 10.2399C248.815 9.20879 247.686 8.69324 246.264 8.69324C244.859 8.69324 243.73 9.20879 242.877 10.2399C242.024 11.271 241.597 12.6577 241.597 14.3999C241.597 16.1243 242.024 17.511 242.877 18.5599C243.73 19.591 244.859 20.1066 246.264 20.1066ZM257.749 22.3999V6.3999H260.575V8.98657H260.682C261.091 8.04435 261.686 7.33324 262.469 6.85324C263.269 6.35546 264.202 6.10657 265.269 6.10657C266.353 6.10657 267.313 6.37324 268.149 6.90657C269.002 7.42212 269.651 8.16879 270.095 9.14657H270.175C270.709 8.16879 271.402 7.42212 272.255 6.90657C273.109 6.37324 274.095 6.10657 275.215 6.10657C276.353 6.10657 277.358 6.37324 278.229 6.90657C279.1 7.42212 279.766 8.1599 280.229 9.1199C280.709 10.0799 280.949 11.2088 280.949 12.5066V22.3999H278.069V12.9332C278.069 11.5999 277.749 10.5688 277.109 9.8399C276.469 9.09324 275.58 8.7199 274.442 8.7199C273.322 8.7199 272.433 9.09324 271.775 9.8399C271.118 10.5688 270.789 11.5999 270.789 12.9332V22.3999H267.909V12.9332C267.909 11.5999 267.58 10.5688 266.922 9.8399C266.282 9.09324 265.393 8.7199 264.255 8.7199C263.135 8.7199 262.246 9.09324 261.589 9.8399C260.949 10.5688 260.629 11.5999 260.629 12.9332V22.3999H257.749ZM285.686 28.7999V6.3999H288.54V9.01324H288.646C289.571 7.05768 291.206 6.0799 293.553 6.0799C294.886 6.0799 296.051 6.42657 297.046 7.1199C298.042 7.81323 298.815 8.78212 299.366 10.0266C299.917 11.271 300.193 12.7288 300.193 14.3999C300.193 16.0532 299.917 17.511 299.366 18.7732C298.815 20.0177 298.042 20.9866 297.046 21.6799C296.051 22.3732 294.886 22.7199 293.553 22.7199C291.206 22.7199 289.58 21.751 288.673 19.8132H288.566V28.7999H285.686ZM292.78 20.1599C294.166 20.1599 295.268 19.6355 296.086 18.5866C296.904 17.5377 297.313 16.1421 297.313 14.3999C297.313 12.6577 296.904 11.2621 296.086 10.2132C295.268 9.16435 294.166 8.6399 292.78 8.6399C291.446 8.6399 290.406 9.06657 289.66 9.9199C288.931 10.7555 288.566 11.8577 288.566 13.2266V15.5732C288.566 16.9421 288.931 18.0443 289.66 18.8799C290.406 19.6977 291.446 20.1243 292.78 20.1599ZM309.888 22.6932C308.733 22.6932 307.71 22.4266 306.822 21.8932C305.95 21.3599 305.266 20.6132 304.768 19.6532C304.288 18.6932 304.048 17.591 304.048 16.3466V6.3999H306.928V15.7066C306.928 17.0755 307.266 18.151 307.942 18.9332C308.617 19.6977 309.559 20.0799 310.768 20.0799C312.03 20.0799 313.035 19.6799 313.782 18.8799C314.546 18.0621 314.928 16.9955 314.928 15.6799V6.3999H317.808V22.3999H314.955V19.6266H314.848C314.404 20.6221 313.755 21.3866 312.902 21.9199C312.048 22.4355 311.044 22.6932 309.888 22.6932ZM326.042 22.3999C325.224 22.3999 324.584 22.1866 324.122 21.7599C323.659 21.3155 323.428 20.6577 323.428 19.7866V8.69324H320.708V6.3999H323.455V1.5999H326.282V6.3999H330.095V8.69324H326.308V20.1066H330.468V22.3999H326.042ZM340.143 22.7199C338.703 22.7199 337.414 22.3821 336.277 21.7066C335.139 21.0132 334.241 20.0443 333.583 18.7999C332.943 17.5377 332.623 16.0532 332.623 14.3466C332.623 12.6577 332.943 11.1999 333.583 9.97324C334.223 8.72879 335.094 7.76879 336.197 7.09324C337.299 6.41768 338.561 6.0799 339.983 6.0799C341.317 6.0799 342.499 6.38212 343.53 6.98657C344.579 7.59101 345.405 8.46212 346.01 9.5999C346.614 10.7377 346.917 12.0799 346.917 13.6266V14.9066H335.397C335.503 16.5243 335.983 17.8132 336.837 18.7732C337.69 19.7332 338.783 20.2132 340.117 20.2132C341.077 20.2132 341.894 19.9732 342.57 19.4932C343.245 19.0132 343.699 18.3555 343.93 17.5199H346.863C346.65 18.6043 346.223 19.5377 345.583 20.3199C344.943 21.0843 344.161 21.6799 343.237 22.1066C342.312 22.5155 341.281 22.7199 340.143 22.7199ZM335.53 12.7199H344.117C343.992 11.4043 343.557 10.3821 342.81 9.65324C342.063 8.92435 341.112 8.5599 339.957 8.5599C338.819 8.5599 337.859 8.93324 337.077 9.6799C336.294 10.4088 335.779 11.4221 335.53 12.7199ZM351.167 22.3999V6.3999H353.914V9.5999H354.02C354.376 8.60435 354.954 7.80435 355.754 7.1999C356.571 6.57768 357.567 6.26657 358.74 6.26657H359.914V8.82657H358.58C357.105 8.82657 355.976 9.29768 355.194 10.2399C354.429 11.1821 354.047 12.4532 354.047 14.0532V22.3999H351.167Z" fill="black"/>
</svg>
